<svg width="110" height="110" viewBox="0 0 110 110" fill="none" xmlns="http://www.w3.org/2000/svg">
<path d="M73.4551 4.79102C72.2305 5.13477 73.9063 4.16797 35.3418 26.6191C13.5996 39.2949 3.24416 45.418 2.62112 46.041C2.10549 46.5352 1.33205 47.6523 0.902366 48.5332C0.193382 49.9727 0.107444 50.3164 0.042991 52.207C-0.0214621 53.8184 0.042991 54.5918 0.322288 55.4727C0.537132 56.0957 3.63088 61.6816 7.1758 67.8906L13.6426 79.1699L13.75 88.9453L13.8574 98.7207L14.5235 100.139C15.7051 102.631 17.5742 104.264 20.1524 105.059C21.5059 105.488 22.3008 105.488 61.875 105.488C101.449 105.488 102.244 105.488 103.598 105.059C106.176 104.264 108.045 102.631 109.227 100.139L109.893 98.7207V71.0059V43.291L109.184 41.8301C107.594 38.6074 104.285 36.5449 100.654 36.5234L99.5801 36.502L92.168 23.5039C88.086 16.3496 84.3047 9.79688 83.7461 8.91602C81.9629 6.08008 79.5996 4.72656 76.2696 4.59766C75.1953 4.55469 74.0352 4.64062 73.4551 4.79102ZM77.1719 9.49609C77.6231 9.625 78.3321 10.0332 78.7403 10.3984C79.2344 10.8496 81.877 15.2539 86.711 23.6973C90.6856 30.6367 93.8867 36.373 93.8438 36.416C93.7793 36.4805 78.9981 36.502 60.9727 36.4805L28.209 36.416L51.0899 23.0957C63.6582 15.7695 74.2715 9.66797 74.6367 9.51758C75.5176 9.19531 76.1406 9.17383 77.1719 9.49609ZM102.803 41.916C103.447 42.2383 104.135 42.8184 104.522 43.377L105.166 44.3008L105.23 70.6406C105.295 100.117 105.402 98.1406 103.748 99.5371C103.297 99.9453 102.545 100.375 102.072 100.504C100.891 100.869 22.8594 100.869 21.6778 100.525C20.5606 100.182 19.3574 99.1504 18.8848 98.0977C18.4981 97.2598 18.4766 96.0352 18.4766 71.0273C18.4766 44.8379 18.4766 44.8164 18.9278 43.8926C19.4864 42.7539 20.5391 41.916 21.8711 41.5508C22.666 41.3359 31.0664 41.293 62.3047 41.3145L101.75 41.3574L102.803 41.916ZM13.7071 63.293L13.6426 69.416L9.25979 61.7461C5.34963 54.9355 4.85549 53.9473 4.76955 52.9375C4.66213 51.6914 5.17776 50.2949 6.0801 49.4785C6.33791 49.2207 8.1426 48.1035 10.0977 46.9648L13.6426 44.9023L13.7071 51.0254C13.7285 54.3984 13.7285 59.8984 13.7071 63.293Z" fill="#12123B"/>
<path d="M38.3496 55.3652C34.1387 56.8692 31.7969 60.4141 32.0762 64.8184C32.334 69.0938 35.5137 72.5957 39.8106 73.3047C43.8282 73.9707 47.8887 71.7793 49.6719 67.9981C50.1661 66.9024 50.3379 66.1934 50.4239 64.8184C50.6817 60.8867 48.834 57.6211 45.3965 55.9238C43.8711 55.1719 43.5918 55.1074 41.5938 55.043C39.9395 55 39.1661 55.086 38.3496 55.3652ZM43.0977 60.1348C44.8164 60.9082 45.9766 63.0352 45.6543 64.8613C45.4825 65.9141 44.8594 66.8809 43.7637 67.7617C42.9903 68.3848 42.7969 68.4277 41.25 68.4277C39.7032 68.4277 39.5098 68.3848 38.7364 67.7617C38.2852 67.3965 37.7051 66.7949 37.4473 66.4082C35.5996 63.7012 37.8555 59.7266 41.25 59.7266C41.7871 59.7266 42.6036 59.9199 43.0977 60.1348Z" fill="#0971CE"/>
<path d="M60.6504 64.4531C60.2852 64.668 59.8555 65.0547 59.748 65.291C59.2324 66.2578 59.6836 68.0625 60.5645 68.5352C60.8437 68.6855 67.4609 68.75 80.2871 68.75H99.6016L100.203 68.1484C100.934 67.3535 101.127 66.2363 100.676 65.3555C99.9453 63.959 100.977 64.0234 80.2012 64.0234C61.8965 64.0234 61.3164 64.0449 60.6504 64.4531Z" fill="#00C189"/>
<path d="M35.9649 76.0547C33.5586 76.5273 30.0137 77.709 27.8653 78.7187C24.793 80.1797 23.0743 82.6074 22.8379 85.8086C22.6875 87.7636 22.9883 89.0312 23.9121 90.1269C25.2871 91.8027 24.4707 91.7383 41.25 91.7383C58.0508 91.7383 57.2129 91.8027 58.6094 90.1054C59.5332 89.0097 59.791 87.914 59.6621 85.8945C59.4473 82.6289 57.7285 80.2011 54.6348 78.7187C52.3575 77.6445 48.3614 76.3554 46.084 75.9687C43.42 75.4961 38.5 75.539 35.9649 76.0547ZM46.836 81.0605C49.3711 81.7265 52.0567 82.7363 53.1953 83.4883C54.2481 84.1543 54.6778 84.8418 54.8926 86.0879L55.043 87.0117H42.2598C35.2344 87.0117 29.0254 87.0761 28.4668 87.1621L27.4356 87.291L27.6075 86.2383C27.8223 84.7344 28.3809 83.9394 29.8203 83.1875C31.4317 82.3281 35.1055 81.1035 37.2969 80.6738C39.8321 80.2011 44.2149 80.373 46.836 81.0605Z" fill="#0971CE"/>
<path d="M70.2539 77.9238C70.082 77.9883 69.6738 78.2891 69.3516 78.5898C68.8574 79.041 68.75 79.3203 68.75 80.2012C68.75 81.0605 68.8574 81.3398 69.373 81.877L69.9961 82.5H84.7988H99.6016L100.203 81.8984C100.934 81.1035 101.127 79.9863 100.676 79.1055C99.9668 77.7305 100.504 77.7734 84.8203 77.7949C76.9785 77.7949 70.4258 77.8594 70.2539 77.9238Z" fill="#00C189"/>
</svg>
