<svg width="124" height="124" viewBox="0 0 124 124" fill="none" xmlns="http://www.w3.org/2000/svg">
<path d="M56.4297 14.1922C53.7898 14.9187 51.8523 16.5656 50.6414 19.1086C50.0359 20.4164 50.0117 20.6344 49.939 25.5992L49.8664 30.7578H36.4734C23.7101 30.7578 22.9836 30.782 21.482 31.2422C18.4062 32.1867 15.8875 34.6813 14.7734 37.8539C14.3133 39.1617 14.289 39.8398 14.289 53.7414V68.2484L10.5836 68.3453C7.21717 68.418 6.78123 68.4906 5.52185 69.0719C3.68123 69.9195 1.81639 71.7117 0.896073 73.5039C0.169511 74.8844 0.121073 75.1023 0.0484171 78.3961C-0.0242391 81.1328 0.0484171 82.1016 0.363261 83.0461C1.23514 85.6859 3.34217 87.8898 5.98201 88.8828C7.09607 89.3187 8.08904 89.4398 10.85 89.5609L14.289 89.682V95.543C14.289 100.556 14.3617 101.646 14.725 102.857C15.8633 106.466 19.0117 109.251 22.7414 109.953C23.5406 110.098 30.7336 110.195 41.2203 110.195C60.2562 110.195 59.5054 110.268 60.2078 108.621C60.6679 107.531 60.4015 106.441 59.5297 105.715L58.8031 105.109H41.632C29.8859 105.109 24.0976 105.012 23.3711 104.843C22.039 104.504 20.4164 103.148 19.8351 101.864C19.4234 100.944 19.375 99.9508 19.375 87.1148V73.3828H31.1211C38.4109 73.3828 42.8672 73.4797 42.8672 73.625C42.8672 73.7461 42.3101 76.0469 41.632 78.7594C40.5906 83.0219 40.4453 83.7969 40.6875 84.5477C41.1234 86.1219 41.5109 86.2187 46.9117 86.2187C50.7383 86.2187 51.8281 86.1461 52.2156 85.8555C52.5062 85.6617 53.6929 84.0148 54.8554 82.1984L56.9867 78.9047L60.8859 79.0742C63.0414 79.1711 64.8578 79.3164 64.9304 79.4133C65.0031 79.4859 64.0101 82.5617 62.7023 86.2187C61.3945 89.8758 60.3047 93.1937 60.3047 93.557C60.3047 94.5016 60.8859 95.5187 61.6367 95.8578C62.4844 96.2453 71.6633 96.2695 72.5351 95.8578C72.9226 95.6883 75.0054 92.8305 78.4929 87.7445L83.8453 79.9219H89.3672C95.7125 79.9219 97.3351 79.6312 100.58 77.9602C102.857 76.7977 105.715 74.9086 106.611 73.9641C107.87 72.6078 108.161 70.4766 107.289 68.7812C106.684 67.5945 103.995 65.6328 100.629 63.9375C97.0445 62.1453 96.2695 62 89.6093 62H83.8937L78.5898 54.2258C75.6593 49.9391 73.0195 46.282 72.7289 46.0883C72.3172 45.8219 71.1789 45.7492 66.8437 45.8219L61.4672 45.8945L60.8859 46.5727C60.4984 47.0328 60.3047 47.5414 60.3047 48.1469C60.3289 48.6312 61.3945 52.0461 62.7023 55.7031L65.0758 62.3633L64.2039 62.5086C63.7195 62.6055 61.9273 62.7266 60.1836 62.8234L57.0351 62.993L54.9765 59.5781C53.4265 57.0109 52.7484 56.0906 52.1672 55.8242C51.5617 55.5336 50.3992 55.4609 46.9359 55.4609C41.9711 55.4609 41.3172 55.6305 40.6875 57.132C40.4211 57.8102 40.5179 58.3672 41.632 62.8477C42.3101 65.5844 42.8672 67.9094 42.8672 68.0547C42.8672 68.2242 38.9195 68.2969 31.1211 68.2969H19.375V54.0562V39.8156L20.1742 38.5078C20.7797 37.4906 21.2398 37.0305 22.257 36.5219L23.5406 35.8438H69.1445H114.748L116.032 36.5219C116.855 36.9336 117.606 37.5875 118.066 38.2414L118.793 39.2828L118.866 70.1375L118.914 100.992L118.405 102.009C118.139 102.542 117.558 103.317 117.146 103.705C115.596 105.109 115.669 105.109 96.0758 105.109H78.1781L77.4758 105.812C76.2164 107.095 76.6523 109.372 78.275 109.929C79.2922 110.292 113.707 110.292 115.548 109.953C118.793 109.323 121.602 107.192 123.08 104.213L123.879 102.566L123.952 70.7914C124 39.1375 124 39.0164 123.491 37.6844C122.426 34.8266 120.27 32.55 117.534 31.4602L116.129 30.8789L102.276 30.8063L88.4226 30.7336L88.35 25.4781C88.2773 20.2953 88.2773 20.1984 87.5992 18.8422C86.7515 17.0984 84.7172 15.2336 82.8765 14.4828C81.4961 13.9258 81.4234 13.9258 69.6289 13.8773C59.7476 13.8289 57.5437 13.8773 56.4297 14.1922ZM81.1328 19.4234C81.7383 19.7383 82.4648 20.3437 82.7554 20.8039C83.2883 21.5789 83.3125 21.8453 83.3125 26.1805V30.7578H69.1203H54.9523L55.025 26.0594C55.0976 20.6828 55.1945 20.4406 57.1562 19.4234C58.2219 18.8906 58.2945 18.8906 69.1445 18.8906C79.9945 18.8906 80.0672 18.8906 81.1328 19.4234ZM75.1992 58.4156C78.0086 62.5086 80.5273 66.1172 80.8422 66.4078C81.375 66.9648 81.5203 66.9648 88.4711 67.0859C94.9617 67.207 95.6398 67.2555 96.7539 67.7398C98.0133 68.2727 99.9023 69.3383 101.404 70.3312L102.252 70.9125L100.823 71.8812C98.982 73.1164 97.3109 73.9641 95.6883 74.4484C94.6226 74.7633 93.1453 74.8359 88.0836 74.8359C82.7797 74.8359 81.714 74.8844 81.1812 75.2234C80.8179 75.4414 78.2265 78.9773 75.2961 83.2641L70.0648 90.9414L68.2484 91.0141L66.4078 91.0867L68.8054 84.3539C70.1133 80.6484 71.2031 77.2578 71.2031 76.8219C71.2031 75.7805 70.1375 74.6906 68.9992 74.4969C68.539 74.4242 65.2453 74.2062 61.6609 74.0125C56.0422 73.6977 55.0492 73.6977 54.4922 73.9883C54.0804 74.2062 52.9664 75.6352 51.6101 77.7422L49.382 81.1328H47.8562H46.3062L47.4929 76.4586C48.1469 73.9156 48.6554 71.3727 48.6554 70.8398C48.6554 70.307 48.1469 67.7641 47.4929 65.1969L46.3062 60.5469H47.9289H49.5273L51.5617 63.8648C52.6758 65.7055 53.814 67.4008 54.1047 67.6187C54.4679 67.9336 55.0734 68.0547 56.3086 68.0547C59.3359 68.0547 69.532 67.3281 69.9922 67.0859C70.6945 66.6984 71.2031 65.8508 71.2031 65.0031C71.2031 64.5914 70.1617 61.3219 68.9023 57.7617C67.6429 54.2016 66.6015 51.1984 66.6015 51.0773C66.6015 50.932 67.3523 50.8594 68.3453 50.9078L70.1133 50.9805L75.1992 58.4156ZM14.289 78.9773V84.5719L11.3344 84.475C7.94373 84.3781 6.92654 84.0391 5.86092 82.6344C5.27967 81.8594 5.20701 81.5445 5.13435 79.3891C5.01326 76.5555 5.11014 76.0953 5.98201 75.0539C7.09607 73.7461 8.21014 73.3828 11.4554 73.3828H14.289V78.9773Z" fill="#12123B"/>
<path d="M66.575 102.243C63.896 104.716 64.7602 108.751 68.217 109.793C72.6676 111.138 75.9516 105.627 72.6676 102.329C70.9392 100.594 68.433 100.55 66.575 102.243Z" fill="#0971CE"/>
<path d="M66.1537 49H69.8951L70.7585 49.7458L72.1976 52.1322L74.0683 54.8169L76.6585 58.8441L78.0976 60.9322L79.5366 63.1695L80.9756 65.2576L82.1268 66.3017L93.4951 66.4508L95.6537 66.6L97.2366 67.0475L99.6829 68.0915L101.985 69.4339L104 70.7763V71.2237L101.698 72.7153L99.6829 74.0576L97.6683 74.9525L96.2293 75.4L95.222 75.5492L82.2707 75.6983L81.4073 76.1458L80.1122 77.9356L78.6732 80.322L77.5219 81.9627L73.9244 87.4814L72.1976 90.0169L70.7585 92.2542L70.3268 93H66.2976L66.1537 92.2542L67.5927 88.3763L69.3195 83.0068L70.9024 78.3831L71.0463 77.0407L70.4707 75.9966L69.8951 75.4L69.4634 75.2508L62.7 74.8034L58.9585 74.6542L54.6415 74.3559L53.4902 74.9525L52.4829 76.2949L51.0439 78.5322L48.8854 82.1119L48.5976 82.4102H45L45.1439 81.5153L46.1512 77.4881L47.4463 72.1186L47.5902 70.478L46.7268 66.7492L45.4317 61.678L45 59.739H49.0293L51.0439 63.3186L53.0585 66.6L53.6341 67.3458L54.3537 67.6441H57.3756L62.5561 67.3458L69.0317 66.8983L70.1829 66.3017L71.0463 64.9593L70.9024 63.617L69.3195 59.1424L67.5927 53.7729L66.0098 49.2983L66.1537 49Z" fill="#00C189"/>
</svg>
