<svg width="110" height="110" viewBox="0 0 110 110" fill="none" xmlns="http://www.w3.org/2000/svg">
<path d="M4.78639 6.06086L4.97516 5.87208L5.23705 5.92393L13.6227 7.58418C22.6707 9.3572 28.2702 10.4475 31.6497 11.0946C33.3397 11.4182 34.4728 11.6306 35.2037 11.762C35.5696 11.8277 35.832 11.8727 36.0121 11.9011C36.066 11.9096 36.1097 11.9161 36.1447 11.9211C36.1973 11.876 36.2661 11.8132 36.3516 11.7311C36.5732 11.5184 36.8773 11.2051 37.2444 10.8118C37.977 10.0268 38.9432 8.94173 39.9675 7.74908C42.0778 5.28703 43.5659 3.71428 44.9942 2.65034C46.441 1.57268 47.809 1.02932 49.6511 0.582722C49.7792 0.54892 49.9455 0.53141 50.1064 0.520103C50.2816 0.50779 50.4903 0.500542 50.7166 0.496948C51.1698 0.489754 51.7124 0.496971 52.2367 0.511139L52.2367 0.511013L52.2478 0.511566C53.4282 0.569855 54.3859 0.775726 55.1858 1.22147C55.9933 1.67142 56.5941 2.33991 57.1048 3.24103L57.1058 3.24291C57.8244 4.52384 58.0046 6.20024 57.7521 7.94928C57.4987 9.70464 56.8041 11.5782 55.7145 13.2934C55.4508 13.7201 54.7874 14.4423 53.9562 15.2596C53.1059 16.0956 52.0344 17.0748 50.9143 18.0248L50.9134 18.0255C49.5892 19.1433 48.3307 20.2353 47.4947 20.9605C47.0112 21.3801 46.6691 21.6769 46.5374 21.7851C46.4796 21.845 46.4673 21.8713 46.4563 21.9114C46.4367 21.9826 46.4204 22.1281 46.4488 22.4507C46.5057 23.0965 46.7166 24.231 47.141 26.4098C47.4096 27.6964 47.6289 28.9059 47.7743 29.8174C47.847 30.273 47.9018 30.6579 47.935 30.9424C47.9515 31.0838 47.9634 31.2063 47.9691 31.3028C47.972 31.3505 47.9737 31.3989 47.9729 31.4434L47.9728 31.4454C47.9724 31.4732 47.9708 31.5594 47.9413 31.6479L47.9389 31.6553L47.9362 31.6627C47.7278 32.2281 47.1535 32.3789 46.7341 32.3394C46.3047 32.299 45.8208 32.0566 45.5859 31.5758C45.5474 31.5023 45.5165 31.4153 45.4928 31.3438C45.4641 31.2569 45.4332 31.1518 45.4008 31.0336C45.3359 30.7968 45.2604 30.4906 45.1788 30.1395C45.0154 29.4363 44.8244 28.5375 44.6408 27.6197L44.6408 27.6197L44.6392 27.6111C44.471 26.686 44.296 25.7901 44.1494 25.0955C44.076 24.7479 44.0103 24.4535 43.9566 24.2321C43.9511 24.2096 43.9458 24.188 43.9407 24.1674C43.8809 24.204 43.812 24.2489 43.7326 24.3034C43.1739 24.687 42.2382 25.4494 40.6719 26.7758C38.5768 28.5878 36.5182 30.3688 36.0849 30.8021L36.085 30.8021L36.0787 30.8082L35.5361 31.332L36.5929 33.2774L36.5929 33.2774L36.597 33.2852C37.1217 34.2932 37.4398 34.929 37.566 35.3646C37.6325 35.5941 37.6643 35.8254 37.6098 36.0567C37.5541 36.2931 37.4242 36.4609 37.3079 36.5862L37.3016 36.593L37.2951 36.5995C37.0928 36.8017 36.8346 36.9898 36.5127 37.0294C36.1695 37.0716 35.8731 36.9326 35.6334 36.7295C35.4016 36.5333 35.186 36.2482 34.9728 35.9035C34.7567 35.5541 34.5252 35.1134 34.2692 34.5805C33.9646 33.9714 33.7047 33.5219 33.5032 33.2416C33.4699 33.1954 33.4401 33.1563 33.4136 33.1236C33.3746 33.1528 33.3312 33.1857 33.2835 33.2224C33.0676 33.3881 32.7753 33.6205 32.4271 33.9039C31.7314 34.4702 30.8208 35.2337 29.8676 36.0608L29.8664 36.0618C28.2195 37.4815 27.3826 38.2196 26.962 38.7026C26.7573 38.9377 26.6884 39.0721 26.6616 39.1588C26.6375 39.237 26.6333 39.3193 26.6581 39.4985L26.6584 39.5012C26.9403 41.6293 27.1115 43.2646 27.1653 44.4193C27.1921 44.995 27.1906 45.4677 27.155 45.8292C27.1373 46.0097 27.1097 46.1774 27.0666 46.323C27.0261 46.4595 26.9577 46.6273 26.8259 46.7591C26.6059 46.9791 26.3316 47.177 26.0077 47.2141C25.6377 47.2565 25.341 47.078 25.14 46.8281C24.9533 46.596 24.8253 46.2801 24.731 45.9301C24.6346 45.5721 24.5624 45.1356 24.5116 44.628C24.4223 43.8025 24.2977 42.7296 24.2078 41.9558C24.185 41.7595 24.1645 41.5824 24.1473 41.4335L24.0837 41.0068L22.5738 42.2844L22.5734 42.2848L20.715 43.8535L21.6777 45.6614C22.3233 46.8404 23.2215 48.4401 23.67 49.2251L23.67 49.2251L23.6734 49.2311C23.8563 49.5618 24.0019 49.8321 24.1085 50.0557C24.213 50.2749 24.2954 50.48 24.3322 50.6748C24.3724 50.8871 24.3596 51.0925 24.2728 51.2938C24.1951 51.474 24.0713 51.6166 23.9673 51.728L23.9514 51.7451L23.9339 51.7606C23.7608 51.9144 23.5507 52.0396 23.3407 52.1146C23.1536 52.1814 22.8624 52.2452 22.5886 52.1279C22.5014 52.0905 22.4379 52.0367 22.4079 52.01C22.3704 51.9768 22.3353 51.9402 22.3043 51.9057C22.2418 51.8361 22.173 51.749 22.1012 51.6522C21.9564 51.4569 21.7779 51.1928 21.5796 50.8819C21.1823 50.259 20.6913 49.4264 20.2082 48.5315C19.5188 47.2933 19.0548 46.5253 18.7315 46.0866C18.6126 45.9252 18.526 45.8271 18.4672 45.7703C17.8305 46.0011 17.0841 46.1034 16.3851 46.0964C15.6402 46.089 14.8821 45.9567 14.3333 45.6651L14.3325 45.6648C13.583 45.265 12.9697 44.5327 12.5816 43.741C12.1966 42.9559 11.9967 42.0374 12.1617 41.2239C12.2087 40.9169 12.2857 40.6156 12.3737 40.3717C12.4181 40.2486 12.4692 40.1292 12.5264 40.0269C12.551 39.9829 12.5904 39.9159 12.6477 39.8489C12.6204 39.826 12.589 39.8007 12.553 39.773C12.0695 39.4005 11.0465 38.8016 9.14782 37.7531L9.14781 37.7531L9.14323 37.7505C7.65279 36.9069 6.64738 36.3047 6.01222 35.8557C5.6963 35.6324 5.44913 35.4313 5.27665 35.2426C5.11341 35.0641 4.94951 34.8244 4.94951 34.5292C4.94951 34.3302 5.03842 34.1296 5.10667 33.994C5.18734 33.8337 5.29772 33.6547 5.42568 33.4703C5.68193 33.101 6.03126 32.6777 6.41709 32.2917C6.79415 31.9078 7.12483 31.5719 7.49392 31.3264C7.8847 31.0664 8.30329 30.9153 8.85504 30.8491C9.38968 30.785 10.0555 30.7999 10.9454 30.8668C11.8393 30.9339 12.9916 31.0563 14.5082 31.2178L14.509 31.2178C16.6096 31.4449 18.6269 31.6371 19.0144 31.6371C19.116 31.6371 19.3147 31.602 19.8742 31.0735C20.4217 30.5565 21.2205 29.6628 22.519 28.1525L22.5193 28.1522C23.3899 27.1412 24.1677 26.2162 24.7197 25.5384C24.9317 25.2781 25.1086 25.0565 25.2439 24.8817C25.0979 24.8036 24.9202 24.7089 24.7129 24.5989C24.0717 24.2585 23.1506 23.7725 22.018 23.1763C19.7528 21.9839 16.6433 20.3517 13.2379 18.5646C8.86147 16.2709 5.75317 14.6075 3.73057 13.4709C2.72053 12.9033 1.97335 12.4627 1.47214 12.1382C1.22305 11.9769 1.02323 11.837 0.879361 11.7194C0.808289 11.6613 0.738694 11.5989 0.681274 11.5338C0.641436 11.4887 0.539765 11.3702 0.510411 11.2005C0.484041 11.0513 0.512716 10.9155 0.541717 10.8213C0.572908 10.72 0.619424 10.6199 0.670877 10.5256C0.773867 10.3369 0.923897 10.1222 1.10578 9.89073C1.47167 9.42505 2.00802 8.83922 2.67566 8.17158L4.78639 6.06086ZM33.2735 32.9796C33.2736 32.9801 33.278 32.9836 33.2863 32.9884C33.2775 32.9815 33.2733 32.9791 33.2735 32.9796ZM36.9415 36.246C37.3074 35.852 37.2229 35.5705 36.1535 33.5161L34.7182 34.3604C35.7314 36.4711 36.2661 36.9214 36.9415 36.246ZM26.1627 39.5668C26.0502 38.7507 26.2753 38.4974 29.5399 35.6831L25.0089 44.5763C25.2059 46.5463 25.7125 47.1654 26.4723 46.4056C26.8382 46.0397 26.7256 43.8164 26.1627 39.5668ZM23.6017 51.3869C23.9957 50.9647 23.9676 50.7959 23.2359 49.4732L20.6467 48.2912C21.6036 50.0642 22.5886 51.5839 22.7856 51.6683C22.9826 51.7527 23.3484 51.612 23.6017 51.3869ZM14.5678 45.2236C15.4684 45.702 17.2414 45.7302 18.4234 45.2517L12.6541 41.3117C12.3727 42.6626 13.3014 44.5481 14.5678 45.2236ZM54.4836 9.8444L54.4847 9.84159C55.6784 6.64914 55.2912 4.59366 53.8861 3.64923C53.174 3.17061 52.025 2.99879 50.6656 3.19444C49.3234 3.38761 47.8533 3.92968 46.5633 4.77538C46.2954 4.95896 45.7708 5.42646 45.1319 6.06184C44.5004 6.68985 43.7852 7.4537 43.1477 8.20208L43.1452 8.20506C38.9814 13.0159 31.9608 21.2253 25.9526 28.2889C22.9486 31.8205 20.1982 35.0651 18.1849 37.4546C17.1781 38.6495 16.3564 39.6299 15.7796 40.3252C15.491 40.673 15.2649 40.9482 15.1079 41.1426C15.0292 41.2402 14.9696 41.3153 14.9288 41.3683C14.9084 41.3948 14.8947 41.4131 14.8864 41.4247C14.7777 41.6267 14.7505 41.9409 14.8488 42.2921C14.9473 42.6438 15.1509 42.9529 15.393 43.128C15.7649 43.3905 15.8935 43.4583 16.1035 43.4376C16.3772 43.4105 16.8451 43.2162 17.7905 42.5495C19.6512 41.2373 23.024 38.3541 29.8056 32.5454L29.8064 32.5447C34.6965 28.3726 40.0275 23.813 43.7524 20.6271C45.4298 19.1924 46.7815 18.0363 47.6207 17.3196L47.6208 17.3194C50.3155 15.0198 51.8371 13.6762 52.7899 12.6343C53.7183 11.6191 54.0949 10.9035 54.4836 9.8444ZM14.8794 41.4347C14.8794 41.4347 14.8803 41.4334 14.8818 41.4311C14.8801 41.4336 14.8793 41.4347 14.8794 41.4347ZM6.22931 8.85417C6.22093 8.85719 6.21064 8.86119 6.19831 8.86644C6.12092 8.89942 6.01056 8.96197 5.87169 9.05807C5.59676 9.24836 5.26833 9.52934 4.96035 9.83397C4.65121 10.1397 4.38258 10.4496 4.21776 10.6917C4.20086 10.7165 4.18577 10.7396 4.17235 10.7609C4.19846 10.7762 4.22647 10.7925 4.25638 10.8098C4.45935 10.927 4.73904 11.0828 5.08611 11.2724C5.77961 11.6512 6.73259 12.1595 7.8584 12.7528C10.1095 13.9389 13.0452 15.4613 15.9641 16.9594C18.883 18.4575 21.7834 19.9306 23.9639 21.0182C25.0545 21.5622 25.9629 22.0087 26.6027 22.3134C26.8887 22.4496 27.1175 22.5558 27.2836 22.6293C27.986 21.8328 29.6423 19.872 31.2103 17.9916C32.0927 16.9334 32.9428 15.906 33.5718 15.1349C33.8107 14.842 34.0169 14.5871 34.1805 14.3821C34.0525 14.349 33.9071 14.3128 33.7461 14.2739C33.0548 14.1072 32.0989 13.8978 31.0496 13.6879C29.2104 13.349 24.2751 12.3909 19.344 11.4336C18.5221 11.274 17.7002 11.1145 16.8929 10.9578C11.4928 9.91006 6.83389 8.98516 6.22931 8.85417ZM6.25849 8.84554C6.25855 8.84543 6.25671 8.84567 6.25281 8.84667C6.25649 8.84615 6.25844 8.84566 6.25849 8.84554ZM4.07645 10.9522C4.07681 10.9519 4.07825 10.9473 4.07973 10.9391C4.07684 10.9483 4.0761 10.9524 4.07645 10.9522ZM14.2085 33.8729L14.2085 33.8729L14.2043 33.8725C11.7213 33.6029 10.4621 33.4832 9.72725 33.5195C9.37297 33.5369 9.18843 33.5898 9.06504 33.6519C8.94054 33.7145 8.83454 33.8074 8.65938 33.9959C8.65903 33.9963 8.65869 33.9967 8.65835 33.997L8.45338 34.2207L8.86068 34.4675L8.86203 34.4683C9.93592 35.1238 11.3209 35.9073 12.4694 36.5271C13.0437 36.837 13.555 37.1039 13.9363 37.2924C14.1116 37.3791 14.2552 37.447 14.3628 37.4945C14.4727 37.3991 14.621 37.2562 14.7982 37.0749C15.1551 36.7099 15.6026 36.2167 16.0365 35.7149C16.4706 35.2128 16.8842 34.71 17.1747 34.326C17.1941 34.3004 17.2129 34.2754 17.2309 34.2512C17.0942 34.2289 16.9381 34.2049 16.7651 34.1798C16.0945 34.0825 15.1873 33.9708 14.2085 33.8729ZM14.5274 37.5601C14.5273 37.5599 14.5239 37.5588 14.5179 37.5573C14.5246 37.5595 14.5276 37.5602 14.5274 37.5601Z" fill="#0971CE" stroke="#0971CE"/>
<mask id="path-2-outside-1_71_421" maskUnits="userSpaceOnUse" x="21.0751" y="30.9353" width="89" height="79" fill="black">
<rect fill="white" x="21.0751" y="30.9353" width="89" height="79"/>
<path d="M50.3659 32.8688C36.1818 35.4298 24.9527 46.7714 22.4762 61.0399C21.9414 64.1356 21.9414 69.5954 22.4762 72.7474C25.7407 91.3217 43.1331 103.761 61.8482 100.947C63.396 100.721 64.7469 100.524 64.8876 100.524C65.0002 100.524 65.1128 101.763 65.1128 103.254C65.1128 106.575 65.5631 107.588 67.5049 108.433C68.7151 108.967 69.3905 108.967 87.4583 108.911L106.145 108.827L107.243 107.954C107.834 107.476 108.453 106.66 108.65 106.125C108.875 105.45 108.988 101.763 108.988 93.348C109.016 77.1377 109.494 78.0101 100.376 78.0101H94.6629V76.4341C94.6629 73.7605 93.6216 72.3815 91.5953 72.3815H90.7792L90.9199 68.3571C91.3139 58.1693 87.993 49.6138 80.901 42.5218C75.8352 37.4561 70.1785 34.4166 63.1709 32.9813C59.8219 32.3059 53.7993 32.2496 50.3659 32.8688ZM55.5442 41.8464V49.6138L53.94 49.4731C53.0394 49.3887 51.4353 49.248 50.3377 49.1636C46.5665 48.8821 44.0055 48.3755 44.0055 47.9815C44.0055 47.3061 45.863 43.0565 46.9887 41.1428C48.5084 38.4974 51.1257 35.8801 53.152 34.9232C54.0807 34.4729 55.0094 34.107 55.2064 34.107C55.4597 34.107 55.5442 35.8519 55.5442 41.8464ZM59.9908 34.9795C62.3266 36.1333 64.9721 39.0039 66.6044 42.2122C67.8708 44.6325 69.0528 47.475 69.0528 48.066C69.0528 48.2348 68.0678 48.5163 66.8858 48.6851C64.0996 49.1073 57.7675 49.6138 57.4579 49.4168C57.3453 49.3324 57.2327 45.8708 57.2327 41.6775C57.2327 32.9813 57.0357 33.4879 59.9908 34.9795ZM48.5928 36.1896C46.1725 38.8351 44.1744 42.2122 42.8798 45.9271C42.514 46.9403 42.1762 47.8127 42.1481 47.8408C42.0074 48.0378 36.8291 46.4337 34.8028 45.5894C33.6771 45.111 32.7483 44.5762 32.7483 44.3792C32.7483 43.338 39.6434 38.3566 43.105 36.8932C45.0187 36.1052 49.0713 34.7543 49.7467 34.6981C49.8593 34.6699 49.3527 35.3453 48.5928 36.1896ZM66.2103 35.4861C68.5181 36.1333 72.0078 37.8219 74.6814 39.6231C77.3831 41.4242 80.31 43.9571 80.31 44.4637C80.31 44.9421 71.1635 48.2348 70.9102 47.8408C70.8821 47.7845 70.3755 46.5462 69.8126 45.0547C68.5462 41.8464 66.4918 38.3848 64.5499 36.2741L63.1428 34.7262L64.0433 34.9513C64.5499 35.0639 65.5349 35.3172 66.2103 35.4861ZM32.9735 46.6025C34.3244 47.278 38.4051 48.7414 40.5439 49.2761L41.6978 49.5857L41.3038 51.0773C40.544 53.8634 39.7559 59.0136 39.5871 62.447L39.4182 65.9086H31.5382H23.6582L23.8552 63.7135C24.221 59.3795 25.797 54.3981 28.0203 50.5707C29.343 48.2911 31.0598 45.9271 31.3975 45.9271C31.5382 45.9271 32.2418 46.2367 32.9735 46.6025ZM83.3213 47.9534C85.1224 50.5707 86.7829 53.8916 87.7116 56.7622C88.4996 59.1262 89.3157 63.3476 89.3157 64.9518V65.9086H81.4357H73.5557V64.22C73.5557 61.068 72.7395 55.2424 71.5012 49.839C71.4731 49.6701 72.6551 49.1917 74.1185 48.7696C75.582 48.3474 77.8053 47.5594 79.0435 46.9965C80.2818 46.4337 81.4357 45.9834 81.6046 45.9552C81.7734 45.9271 82.5614 46.8558 83.3213 47.9534ZM46.3977 50.43C47.3264 50.5988 49.3527 50.7958 50.9006 50.8803C52.4484 50.9647 54.137 51.0773 54.6436 51.1617L55.5442 51.3024V58.5914V65.9086H48.3114H41.1068L41.2757 62.447C41.4727 58.9573 41.9792 55.4394 42.7954 52.1186C43.3301 49.839 43.3582 49.839 44.09 50.0078C44.4277 50.0641 45.469 50.2611 46.3977 50.43ZM70.0941 51.4431C70.8258 54.2293 71.5857 59.2106 71.7545 62.5315L71.9515 65.9086H64.6062H57.2327V58.6196V51.3024L58.7243 51.1617C59.5123 51.0773 61.3416 50.9366 62.7206 50.8521C64.1278 50.7396 66.1541 50.5144 67.2235 50.3174C68.3211 50.1204 69.3061 49.9797 69.4749 50.0078C69.6157 50.036 69.8971 50.6833 70.0941 51.4431ZM39.4182 69.4265C39.5871 73.6479 40.2062 77.9538 41.2475 82.316C41.5571 83.6668 41.7822 84.8489 41.6978 84.9051C41.6415 84.9896 40.4595 85.3554 39.0524 85.7494C37.6734 86.1716 35.4782 86.9314 34.1836 87.4943L31.8196 88.5074L31.1442 87.6913C28.8083 84.8489 26.4443 80.5711 25.2905 76.9688C24.5306 74.6611 23.7426 70.4115 23.7426 68.6385V67.5972L31.5663 67.6535L39.3619 67.7379L39.4182 69.4265ZM55.5442 75.4491V83.301L53.6586 83.4698C51.1257 83.695 46.4258 84.1734 44.8217 84.3704L43.5552 84.5393L43.0768 82.7944C42.2325 79.8113 41.4445 74.6611 41.2757 71.0307L41.1068 67.5972H48.3114H55.5442V75.4491ZM71.8671 69.5109C71.8671 71.2558 71.5294 74.8581 71.1635 77.0814C70.9947 78.0101 70.9947 78.0101 69.3905 78.0101C66.6888 78.0101 65.3379 79.3047 65.1128 82.0908L64.9721 83.7794L63.1428 83.695C62.1296 83.6668 60.3848 83.5543 59.2872 83.4698L57.2327 83.301V75.6461C57.2327 71.4247 57.3172 67.8786 57.4297 67.7942C57.5142 67.6816 60.8069 67.5972 64.7469 67.5972H71.8671V69.5109ZM89.3157 68.4978C89.3157 69.0044 89.2313 70.0738 89.1469 70.8899L88.9499 72.3534L84.9254 72.4378C81.1543 72.5222 80.8728 72.5504 80.1974 73.1977C79.5783 73.7605 79.4657 74.1545 79.4094 75.8712L79.325 77.8694L76.0041 77.9538L72.6832 78.0382L72.8521 77.1095C73.1617 75.2521 73.5557 71.0869 73.5557 69.5391C73.5557 68.6666 73.6401 67.8786 73.7527 67.7942C73.8371 67.6816 77.3831 67.5972 81.6327 67.5972H89.3157V68.4978ZM92.6929 74.6329C92.8618 74.9707 92.9743 75.815 92.918 76.5467L92.8336 77.8694L87.008 77.9538L81.1543 78.0101V76.2371C81.1543 75.2521 81.2387 74.3515 81.3513 74.2671C81.4357 74.1545 83.9686 74.0701 86.9517 74.0701C92.13 74.0701 92.4115 74.0982 92.6929 74.6329ZM106.511 80.4304C107.158 81.1058 107.187 81.331 107.187 84.8489C107.187 88.2823 107.13 88.6482 106.483 89.7739C106.061 90.5337 105.301 91.2936 104.513 91.7439C103.275 92.4756 103.106 92.5037 97.8712 92.5882L92.4678 92.6726L91.9612 91.6032C91.1732 89.999 90.5259 89.802 86.614 89.8864C82.8147 89.9709 82.1956 90.2242 81.8578 91.8565L81.6608 92.7007L76.1448 92.5882C69.9815 92.4756 69.5875 92.3912 67.9834 90.5337C66.8013 89.211 66.6606 88.5919 66.6606 84.5393C66.6606 81.0777 66.6606 81.0496 67.4486 80.3741L68.2366 79.6987H87.0362H105.836L106.511 80.4304ZM55.5442 92.3912V99.7083L54.925 99.5395C51.1539 98.4138 48.1707 95.318 45.666 89.999C45.1031 88.7607 44.5403 87.3817 44.4277 86.9877C44.2307 86.1434 44.2025 86.1434 48.5084 85.6087C50.6754 85.3554 51.9981 85.2429 54.6436 85.1021L55.5442 85.0459V92.3912ZM63.9871 85.5806L64.9721 85.7776L65.0565 89.802C65.1128 93.4606 65.0846 93.9109 64.5499 94.7552C63.2835 96.7815 59.9626 99.2018 58.077 99.4551L57.3735 99.5395L57.289 92.6445C57.2609 88.8733 57.289 85.6087 57.3735 85.3836C57.4579 85.1303 58.1333 85.074 60.244 85.2147C61.7638 85.2991 63.4523 85.468 63.9871 85.5806ZM42.8798 87.7757C43.9774 91.1529 47.6923 97.2036 49.4371 98.4138C50.4221 99.0892 49.8874 99.0892 47.3827 98.3575C44.4277 97.5132 40.9098 95.8809 38.3488 94.1923C36.3225 92.8133 33.3112 90.2242 33.3112 89.8302C33.3112 89.3799 40.6565 86.8189 42.0918 86.7626C42.4014 86.7344 42.6828 87.1003 42.8798 87.7757ZM90.1319 91.9127C90.3289 92.1379 90.4415 92.9259 90.3852 93.6858L90.3007 95.0366L87.0924 95.121C84.7003 95.1773 83.7997 95.0929 83.6309 94.8396C83.2931 94.2768 83.3494 92.2505 83.7434 91.8565C84.25 91.3499 89.7097 91.4062 90.1319 91.9127ZM67.9552 92.8977C69.5594 94.0798 71.1917 94.333 76.7921 94.333C81.098 94.333 81.7171 94.3893 81.7171 94.7833C81.7171 95.0085 82.083 95.5995 82.5333 96.0498C83.3494 96.8659 83.3494 96.8659 86.9236 96.8659C90.4977 96.8659 90.4977 96.8659 91.3139 96.0498C91.7642 95.5995 92.13 95.0085 92.13 94.7833C92.13 94.3893 92.7492 94.333 97.0551 94.333C102.656 94.333 104.288 94.0798 105.892 92.8977C106.539 92.4475 107.102 92.0816 107.187 92.0816C107.271 92.0816 107.327 95.121 107.271 98.8359L107.187 105.59L106.399 106.35L105.639 107.138H86.9236H68.2085L67.4486 106.35L66.6606 105.59L66.5762 98.8359C66.5199 95.121 66.5481 92.0816 66.6325 92.0816C66.7451 92.0816 67.3079 92.4475 67.9552 92.8977Z"/>
</mask>
<path d="M50.3659 32.8688C36.1818 35.4298 24.9527 46.7714 22.4762 61.0399C21.9414 64.1356 21.9414 69.5954 22.4762 72.7474C25.7407 91.3217 43.1331 103.761 61.8482 100.947C63.396 100.721 64.7469 100.524 64.8876 100.524C65.0002 100.524 65.1128 101.763 65.1128 103.254C65.1128 106.575 65.5631 107.588 67.5049 108.433C68.7151 108.967 69.3905 108.967 87.4583 108.911L106.145 108.827L107.243 107.954C107.834 107.476 108.453 106.66 108.65 106.125C108.875 105.45 108.988 101.763 108.988 93.348C109.016 77.1377 109.494 78.0101 100.376 78.0101H94.6629V76.4341C94.6629 73.7605 93.6216 72.3815 91.5953 72.3815H90.7792L90.9199 68.3571C91.3139 58.1693 87.993 49.6138 80.901 42.5218C75.8352 37.4561 70.1785 34.4166 63.1709 32.9813C59.8219 32.3059 53.7993 32.2496 50.3659 32.8688ZM55.5442 41.8464V49.6138L53.94 49.4731C53.0394 49.3887 51.4353 49.248 50.3377 49.1636C46.5665 48.8821 44.0055 48.3755 44.0055 47.9815C44.0055 47.3061 45.863 43.0565 46.9887 41.1428C48.5084 38.4974 51.1257 35.8801 53.152 34.9232C54.0807 34.4729 55.0094 34.107 55.2064 34.107C55.4597 34.107 55.5442 35.8519 55.5442 41.8464ZM59.9908 34.9795C62.3266 36.1333 64.9721 39.0039 66.6044 42.2122C67.8708 44.6325 69.0528 47.475 69.0528 48.066C69.0528 48.2348 68.0678 48.5163 66.8858 48.6851C64.0996 49.1073 57.7675 49.6138 57.4579 49.4168C57.3453 49.3324 57.2327 45.8708 57.2327 41.6775C57.2327 32.9813 57.0357 33.4879 59.9908 34.9795ZM48.5928 36.1896C46.1725 38.8351 44.1744 42.2122 42.8798 45.9271C42.514 46.9403 42.1762 47.8127 42.1481 47.8408C42.0074 48.0378 36.8291 46.4337 34.8028 45.5894C33.6771 45.111 32.7483 44.5762 32.7483 44.3792C32.7483 43.338 39.6434 38.3566 43.105 36.8932C45.0187 36.1052 49.0713 34.7543 49.7467 34.6981C49.8593 34.6699 49.3527 35.3453 48.5928 36.1896ZM66.2103 35.4861C68.5181 36.1333 72.0078 37.8219 74.6814 39.6231C77.3831 41.4242 80.31 43.9571 80.31 44.4637C80.31 44.9421 71.1635 48.2348 70.9102 47.8408C70.8821 47.7845 70.3755 46.5462 69.8126 45.0547C68.5462 41.8464 66.4918 38.3848 64.5499 36.2741L63.1428 34.7262L64.0433 34.9513C64.5499 35.0639 65.5349 35.3172 66.2103 35.4861ZM32.9735 46.6025C34.3244 47.278 38.4051 48.7414 40.5439 49.2761L41.6978 49.5857L41.3038 51.0773C40.544 53.8634 39.7559 59.0136 39.5871 62.447L39.4182 65.9086H31.5382H23.6582L23.8552 63.7135C24.221 59.3795 25.797 54.3981 28.0203 50.5707C29.343 48.2911 31.0598 45.9271 31.3975 45.9271C31.5382 45.9271 32.2418 46.2367 32.9735 46.6025ZM83.3213 47.9534C85.1224 50.5707 86.7829 53.8916 87.7116 56.7622C88.4996 59.1262 89.3157 63.3476 89.3157 64.9518V65.9086H81.4357H73.5557V64.22C73.5557 61.068 72.7395 55.2424 71.5012 49.839C71.4731 49.6701 72.6551 49.1917 74.1185 48.7696C75.582 48.3474 77.8053 47.5594 79.0435 46.9965C80.2818 46.4337 81.4357 45.9834 81.6046 45.9552C81.7734 45.9271 82.5614 46.8558 83.3213 47.9534ZM46.3977 50.43C47.3264 50.5988 49.3527 50.7958 50.9006 50.8803C52.4484 50.9647 54.137 51.0773 54.6436 51.1617L55.5442 51.3024V58.5914V65.9086H48.3114H41.1068L41.2757 62.447C41.4727 58.9573 41.9792 55.4394 42.7954 52.1186C43.3301 49.839 43.3582 49.839 44.09 50.0078C44.4277 50.0641 45.469 50.2611 46.3977 50.43ZM70.0941 51.4431C70.8258 54.2293 71.5857 59.2106 71.7545 62.5315L71.9515 65.9086H64.6062H57.2327V58.6196V51.3024L58.7243 51.1617C59.5123 51.0773 61.3416 50.9366 62.7206 50.8521C64.1278 50.7396 66.1541 50.5144 67.2235 50.3174C68.3211 50.1204 69.3061 49.9797 69.4749 50.0078C69.6157 50.036 69.8971 50.6833 70.0941 51.4431ZM39.4182 69.4265C39.5871 73.6479 40.2062 77.9538 41.2475 82.316C41.5571 83.6668 41.7822 84.8489 41.6978 84.9051C41.6415 84.9896 40.4595 85.3554 39.0524 85.7494C37.6734 86.1716 35.4782 86.9314 34.1836 87.4943L31.8196 88.5074L31.1442 87.6913C28.8083 84.8489 26.4443 80.5711 25.2905 76.9688C24.5306 74.6611 23.7426 70.4115 23.7426 68.6385V67.5972L31.5663 67.6535L39.3619 67.7379L39.4182 69.4265ZM55.5442 75.4491V83.301L53.6586 83.4698C51.1257 83.695 46.4258 84.1734 44.8217 84.3704L43.5552 84.5393L43.0768 82.7944C42.2325 79.8113 41.4445 74.6611 41.2757 71.0307L41.1068 67.5972H48.3114H55.5442V75.4491ZM71.8671 69.5109C71.8671 71.2558 71.5294 74.8581 71.1635 77.0814C70.9947 78.0101 70.9947 78.0101 69.3905 78.0101C66.6888 78.0101 65.3379 79.3047 65.1128 82.0908L64.9721 83.7794L63.1428 83.695C62.1296 83.6668 60.3848 83.5543 59.2872 83.4698L57.2327 83.301V75.6461C57.2327 71.4247 57.3172 67.8786 57.4297 67.7942C57.5142 67.6816 60.8069 67.5972 64.7469 67.5972H71.8671V69.5109ZM89.3157 68.4978C89.3157 69.0044 89.2313 70.0738 89.1469 70.8899L88.9499 72.3534L84.9254 72.4378C81.1543 72.5222 80.8728 72.5504 80.1974 73.1977C79.5783 73.7605 79.4657 74.1545 79.4094 75.8712L79.325 77.8694L76.0041 77.9538L72.6832 78.0382L72.8521 77.1095C73.1617 75.2521 73.5557 71.0869 73.5557 69.5391C73.5557 68.6666 73.6401 67.8786 73.7527 67.7942C73.8371 67.6816 77.3831 67.5972 81.6327 67.5972H89.3157V68.4978ZM92.6929 74.6329C92.8618 74.9707 92.9743 75.815 92.918 76.5467L92.8336 77.8694L87.008 77.9538L81.1543 78.0101V76.2371C81.1543 75.2521 81.2387 74.3515 81.3513 74.2671C81.4357 74.1545 83.9686 74.0701 86.9517 74.0701C92.13 74.0701 92.4115 74.0982 92.6929 74.6329ZM106.511 80.4304C107.158 81.1058 107.187 81.331 107.187 84.8489C107.187 88.2823 107.13 88.6482 106.483 89.7739C106.061 90.5337 105.301 91.2936 104.513 91.7439C103.275 92.4756 103.106 92.5037 97.8712 92.5882L92.4678 92.6726L91.9612 91.6032C91.1732 89.999 90.5259 89.802 86.614 89.8864C82.8147 89.9709 82.1956 90.2242 81.8578 91.8565L81.6608 92.7007L76.1448 92.5882C69.9815 92.4756 69.5875 92.3912 67.9834 90.5337C66.8013 89.211 66.6606 88.5919 66.6606 84.5393C66.6606 81.0777 66.6606 81.0496 67.4486 80.3741L68.2366 79.6987H87.0362H105.836L106.511 80.4304ZM55.5442 92.3912V99.7083L54.925 99.5395C51.1539 98.4138 48.1707 95.318 45.666 89.999C45.1031 88.7607 44.5403 87.3817 44.4277 86.9877C44.2307 86.1434 44.2025 86.1434 48.5084 85.6087C50.6754 85.3554 51.9981 85.2429 54.6436 85.1021L55.5442 85.0459V92.3912ZM63.9871 85.5806L64.9721 85.7776L65.0565 89.802C65.1128 93.4606 65.0846 93.9109 64.5499 94.7552C63.2835 96.7815 59.9626 99.2018 58.077 99.4551L57.3735 99.5395L57.289 92.6445C57.2609 88.8733 57.289 85.6087 57.3735 85.3836C57.4579 85.1303 58.1333 85.074 60.244 85.2147C61.7638 85.2991 63.4523 85.468 63.9871 85.5806ZM42.8798 87.7757C43.9774 91.1529 47.6923 97.2036 49.4371 98.4138C50.4221 99.0892 49.8874 99.0892 47.3827 98.3575C44.4277 97.5132 40.9098 95.8809 38.3488 94.1923C36.3225 92.8133 33.3112 90.2242 33.3112 89.8302C33.3112 89.3799 40.6565 86.8189 42.0918 86.7626C42.4014 86.7344 42.6828 87.1003 42.8798 87.7757ZM90.1319 91.9127C90.3289 92.1379 90.4415 92.9259 90.3852 93.6858L90.3007 95.0366L87.0924 95.121C84.7003 95.1773 83.7997 95.0929 83.6309 94.8396C83.2931 94.2768 83.3494 92.2505 83.7434 91.8565C84.25 91.3499 89.7097 91.4062 90.1319 91.9127ZM67.9552 92.8977C69.5594 94.0798 71.1917 94.333 76.7921 94.333C81.098 94.333 81.7171 94.3893 81.7171 94.7833C81.7171 95.0085 82.083 95.5995 82.5333 96.0498C83.3494 96.8659 83.3494 96.8659 86.9236 96.8659C90.4977 96.8659 90.4977 96.8659 91.3139 96.0498C91.7642 95.5995 92.13 95.0085 92.13 94.7833C92.13 94.3893 92.7492 94.333 97.0551 94.333C102.656 94.333 104.288 94.0798 105.892 92.8977C106.539 92.4475 107.102 92.0816 107.187 92.0816C107.271 92.0816 107.327 95.121 107.271 98.8359L107.187 105.59L106.399 106.35L105.639 107.138H86.9236H68.2085L67.4486 106.35L66.6606 105.59L66.5762 98.8359C66.5199 95.121 66.5481 92.0816 66.6325 92.0816C66.7451 92.0816 67.3079 92.4475 67.9552 92.8977Z" fill="#12123B"/>
<path d="M50.3659 32.8688C36.1818 35.4298 24.9527 46.7714 22.4762 61.0399C21.9414 64.1356 21.9414 69.5954 22.4762 72.7474C25.7407 91.3217 43.1331 103.761 61.8482 100.947C63.396 100.721 64.7469 100.524 64.8876 100.524C65.0002 100.524 65.1128 101.763 65.1128 103.254C65.1128 106.575 65.5631 107.588 67.5049 108.433C68.7151 108.967 69.3905 108.967 87.4583 108.911L106.145 108.827L107.243 107.954C107.834 107.476 108.453 106.66 108.65 106.125C108.875 105.45 108.988 101.763 108.988 93.348C109.016 77.1377 109.494 78.0101 100.376 78.0101H94.6629V76.4341C94.6629 73.7605 93.6216 72.3815 91.5953 72.3815H90.7792L90.9199 68.3571C91.3139 58.1693 87.993 49.6138 80.901 42.5218C75.8352 37.4561 70.1785 34.4166 63.1709 32.9813C59.8219 32.3059 53.7993 32.2496 50.3659 32.8688ZM55.5442 41.8464V49.6138L53.94 49.4731C53.0394 49.3887 51.4353 49.248 50.3377 49.1636C46.5665 48.8821 44.0055 48.3755 44.0055 47.9815C44.0055 47.3061 45.863 43.0565 46.9887 41.1428C48.5084 38.4974 51.1257 35.8801 53.152 34.9232C54.0807 34.4729 55.0094 34.107 55.2064 34.107C55.4597 34.107 55.5442 35.8519 55.5442 41.8464ZM59.9908 34.9795C62.3266 36.1333 64.9721 39.0039 66.6044 42.2122C67.8708 44.6325 69.0528 47.475 69.0528 48.066C69.0528 48.2348 68.0678 48.5163 66.8858 48.6851C64.0996 49.1073 57.7675 49.6138 57.4579 49.4168C57.3453 49.3324 57.2327 45.8708 57.2327 41.6775C57.2327 32.9813 57.0357 33.4879 59.9908 34.9795ZM48.5928 36.1896C46.1725 38.8351 44.1744 42.2122 42.8798 45.9271C42.514 46.9403 42.1762 47.8127 42.1481 47.8408C42.0074 48.0378 36.8291 46.4337 34.8028 45.5894C33.6771 45.111 32.7483 44.5762 32.7483 44.3792C32.7483 43.338 39.6434 38.3566 43.105 36.8932C45.0187 36.1052 49.0713 34.7543 49.7467 34.6981C49.8593 34.6699 49.3527 35.3453 48.5928 36.1896ZM66.2103 35.4861C68.5181 36.1333 72.0078 37.8219 74.6814 39.6231C77.3831 41.4242 80.31 43.9571 80.31 44.4637C80.31 44.9421 71.1635 48.2348 70.9102 47.8408C70.8821 47.7845 70.3755 46.5462 69.8126 45.0547C68.5462 41.8464 66.4918 38.3848 64.5499 36.2741L63.1428 34.7262L64.0433 34.9513C64.5499 35.0639 65.5349 35.3172 66.2103 35.4861ZM32.9735 46.6025C34.3244 47.278 38.4051 48.7414 40.5439 49.2761L41.6978 49.5857L41.3038 51.0773C40.544 53.8634 39.7559 59.0136 39.5871 62.447L39.4182 65.9086H31.5382H23.6582L23.8552 63.7135C24.221 59.3795 25.797 54.3981 28.0203 50.5707C29.343 48.2911 31.0598 45.9271 31.3975 45.9271C31.5382 45.9271 32.2418 46.2367 32.9735 46.6025ZM83.3213 47.9534C85.1224 50.5707 86.7829 53.8916 87.7116 56.7622C88.4996 59.1262 89.3157 63.3476 89.3157 64.9518V65.9086H81.4357H73.5557V64.22C73.5557 61.068 72.7395 55.2424 71.5012 49.839C71.4731 49.6701 72.6551 49.1917 74.1185 48.7696C75.582 48.3474 77.8053 47.5594 79.0435 46.9965C80.2818 46.4337 81.4357 45.9834 81.6046 45.9552C81.7734 45.9271 82.5614 46.8558 83.3213 47.9534ZM46.3977 50.43C47.3264 50.5988 49.3527 50.7958 50.9006 50.8803C52.4484 50.9647 54.137 51.0773 54.6436 51.1617L55.5442 51.3024V58.5914V65.9086H48.3114H41.1068L41.2757 62.447C41.4727 58.9573 41.9792 55.4394 42.7954 52.1186C43.3301 49.839 43.3582 49.839 44.09 50.0078C44.4277 50.0641 45.469 50.2611 46.3977 50.43ZM70.0941 51.4431C70.8258 54.2293 71.5857 59.2106 71.7545 62.5315L71.9515 65.9086H64.6062H57.2327V58.6196V51.3024L58.7243 51.1617C59.5123 51.0773 61.3416 50.9366 62.7206 50.8521C64.1278 50.7396 66.1541 50.5144 67.2235 50.3174C68.3211 50.1204 69.3061 49.9797 69.4749 50.0078C69.6157 50.036 69.8971 50.6833 70.0941 51.4431ZM39.4182 69.4265C39.5871 73.6479 40.2062 77.9538 41.2475 82.316C41.5571 83.6668 41.7822 84.8489 41.6978 84.9051C41.6415 84.9896 40.4595 85.3554 39.0524 85.7494C37.6734 86.1716 35.4782 86.9314 34.1836 87.4943L31.8196 88.5074L31.1442 87.6913C28.8083 84.8489 26.4443 80.5711 25.2905 76.9688C24.5306 74.6611 23.7426 70.4115 23.7426 68.6385V67.5972L31.5663 67.6535L39.3619 67.7379L39.4182 69.4265ZM55.5442 75.4491V83.301L53.6586 83.4698C51.1257 83.695 46.4258 84.1734 44.8217 84.3704L43.5552 84.5393L43.0768 82.7944C42.2325 79.8113 41.4445 74.6611 41.2757 71.0307L41.1068 67.5972H48.3114H55.5442V75.4491ZM71.8671 69.5109C71.8671 71.2558 71.5294 74.8581 71.1635 77.0814C70.9947 78.0101 70.9947 78.0101 69.3905 78.0101C66.6888 78.0101 65.3379 79.3047 65.1128 82.0908L64.9721 83.7794L63.1428 83.695C62.1296 83.6668 60.3848 83.5543 59.2872 83.4698L57.2327 83.301V75.6461C57.2327 71.4247 57.3172 67.8786 57.4297 67.7942C57.5142 67.6816 60.8069 67.5972 64.7469 67.5972H71.8671V69.5109ZM89.3157 68.4978C89.3157 69.0044 89.2313 70.0738 89.1469 70.8899L88.9499 72.3534L84.9254 72.4378C81.1543 72.5222 80.8728 72.5504 80.1974 73.1977C79.5783 73.7605 79.4657 74.1545 79.4094 75.8712L79.325 77.8694L76.0041 77.9538L72.6832 78.0382L72.8521 77.1095C73.1617 75.2521 73.5557 71.0869 73.5557 69.5391C73.5557 68.6666 73.6401 67.8786 73.7527 67.7942C73.8371 67.6816 77.3831 67.5972 81.6327 67.5972H89.3157V68.4978ZM92.6929 74.6329C92.8618 74.9707 92.9743 75.815 92.918 76.5467L92.8336 77.8694L87.008 77.9538L81.1543 78.0101V76.2371C81.1543 75.2521 81.2387 74.3515 81.3513 74.2671C81.4357 74.1545 83.9686 74.0701 86.9517 74.0701C92.13 74.0701 92.4115 74.0982 92.6929 74.6329ZM106.511 80.4304C107.158 81.1058 107.187 81.331 107.187 84.8489C107.187 88.2823 107.13 88.6482 106.483 89.7739C106.061 90.5337 105.301 91.2936 104.513 91.7439C103.275 92.4756 103.106 92.5037 97.8712 92.5882L92.4678 92.6726L91.9612 91.6032C91.1732 89.999 90.5259 89.802 86.614 89.8864C82.8147 89.9709 82.1956 90.2242 81.8578 91.8565L81.6608 92.7007L76.1448 92.5882C69.9815 92.4756 69.5875 92.3912 67.9834 90.5337C66.8013 89.211 66.6606 88.5919 66.6606 84.5393C66.6606 81.0777 66.6606 81.0496 67.4486 80.3741L68.2366 79.6987H87.0362H105.836L106.511 80.4304ZM55.5442 92.3912V99.7083L54.925 99.5395C51.1539 98.4138 48.1707 95.318 45.666 89.999C45.1031 88.7607 44.5403 87.3817 44.4277 86.9877C44.2307 86.1434 44.2025 86.1434 48.5084 85.6087C50.6754 85.3554 51.9981 85.2429 54.6436 85.1021L55.5442 85.0459V92.3912ZM63.9871 85.5806L64.9721 85.7776L65.0565 89.802C65.1128 93.4606 65.0846 93.9109 64.5499 94.7552C63.2835 96.7815 59.9626 99.2018 58.077 99.4551L57.3735 99.5395L57.289 92.6445C57.2609 88.8733 57.289 85.6087 57.3735 85.3836C57.4579 85.1303 58.1333 85.074 60.244 85.2147C61.7638 85.2991 63.4523 85.468 63.9871 85.5806ZM42.8798 87.7757C43.9774 91.1529 47.6923 97.2036 49.4371 98.4138C50.4221 99.0892 49.8874 99.0892 47.3827 98.3575C44.4277 97.5132 40.9098 95.8809 38.3488 94.1923C36.3225 92.8133 33.3112 90.2242 33.3112 89.8302C33.3112 89.3799 40.6565 86.8189 42.0918 86.7626C42.4014 86.7344 42.6828 87.1003 42.8798 87.7757ZM90.1319 91.9127C90.3289 92.1379 90.4415 92.9259 90.3852 93.6858L90.3007 95.0366L87.0924 95.121C84.7003 95.1773 83.7997 95.0929 83.6309 94.8396C83.2931 94.2768 83.3494 92.2505 83.7434 91.8565C84.25 91.3499 89.7097 91.4062 90.1319 91.9127ZM67.9552 92.8977C69.5594 94.0798 71.1917 94.333 76.7921 94.333C81.098 94.333 81.7171 94.3893 81.7171 94.7833C81.7171 95.0085 82.083 95.5995 82.5333 96.0498C83.3494 96.8659 83.3494 96.8659 86.9236 96.8659C90.4977 96.8659 90.4977 96.8659 91.3139 96.0498C91.7642 95.5995 92.13 95.0085 92.13 94.7833C92.13 94.3893 92.7492 94.333 97.0551 94.333C102.656 94.333 104.288 94.0798 105.892 92.8977C106.539 92.4475 107.102 92.0816 107.187 92.0816C107.271 92.0816 107.327 95.121 107.271 98.8359L107.187 105.59L106.399 106.35L105.639 107.138H86.9236H68.2085L67.4486 106.35L66.6606 105.59L66.5762 98.8359C66.5199 95.121 66.5481 92.0816 66.6325 92.0816C66.7451 92.0816 67.3079 92.4475 67.9552 92.8977Z" stroke="#12123B" stroke-width="2" mask="url(#path-2-outside-1_71_421)"/>
<path d="M67 93L67.3252 93.1514L67.6504 93.5297L68.7073 94.2108L69.8455 94.7405L71.1463 95.0432L72.2033 95.1189L81.7967 95.1946L81.878 95.2703L82.0406 96.027L82.3659 96.6324L82.935 97.1622L83.5854 97.4649L84.0732 97.5405H89.8455L90.5772 97.3892L91.1463 97.0865L91.7967 96.4054L92.0406 95.8757L92.122 95.1946L101.959 95.1189L103.341 94.9676L104.48 94.5892L105.537 94.0595L106.35 93.4541L106.837 93H107V105.032L106.756 105.714L106.268 106.395L105.537 106.849L104.886 107H69.0325L68.1382 106.697L67.6504 106.319L67.1626 105.562L67 104.957V93Z" fill="#00C189"/>
</svg>
