<svg width="132" height="109" viewBox="0 0 132 109" fill="none" xmlns="http://www.w3.org/2000/svg">
<path d="M43.7455 1.82629C22.6038 5.63181 6.11319 21.8808 1.82443 43.0829C0.435116 49.7275 0.857951 60.842 2.6701 67.0033C4.54266 73.2855 8.34818 80.5945 12.4557 85.6685C28.2818 105.361 57.2159 110.676 79.0825 97.8703C81.8611 96.2394 82.1631 95.6957 81.3779 93.7628C81.0154 92.7963 80.653 92.8567 78.2368 94.4876C72.0755 98.5952 60.961 101.736 52.6855 101.736C22.9662 101.676 -0.289745 74.1311 4.78428 45.0159C7.62332 28.8878 18.4962 14.8738 33.4163 8.28963C39.8796 5.45059 46.3429 4.30289 54.6788 4.60492C61.2026 4.84654 63.0147 5.14857 67.968 6.83991C87.9016 13.6053 100.949 31.2435 101.251 51.7209C101.312 56.3116 101.372 56.5533 102.64 56.1908C103.305 56.0096 104.151 55.8284 104.453 55.8284C104.755 55.8284 104.815 53.2914 104.634 49.9087C102.701 18.9209 74.1293 -3.67057 43.7455 1.82629Z" fill="#12123B" stroke="black"/>
<path d="M66.0954 28.4045L58.4239 36.0155L49.7256 32.8744C45.014 31.1227 38.007 28.6461 34.2619 27.3172L27.4361 24.901L22.7849 29.4918C18.7378 33.4785 18.2546 34.1429 19.0398 34.8678C19.5231 35.351 25.2615 38.9149 31.7249 42.8413C38.1882 46.7072 43.6247 50.0295 43.7455 50.1503C44.2287 50.5731 32.7518 61.8689 31.9061 61.8689C31.4833 61.8689 29.3087 61.144 27.1341 60.2983L23.1474 58.6674L17.7713 64.0435L12.3953 69.4195L19.8251 72.7418L27.1945 76.1245L31 83.9167L34.8055 91.6486L40.1212 86.3933L45.4368 81.0777L43.6851 76.4869L41.8729 71.9565L47.853 65.9764L53.8331 59.9963L61.6858 72.9834L69.478 86.0309L74.25 81.2589L79.022 76.4265L75.0353 65.0703C72.8607 58.8486 70.3841 51.902 69.5384 49.7275L68.0283 45.7407L75.2769 38.5525C83.1296 30.6999 84.2169 28.8273 83.0692 25.3238C82.1027 22.364 79.8677 20.7934 76.5454 20.7934C73.8272 20.7934 73.7064 20.9142 66.0954 28.4045ZM78.72 24.7802C81.4986 26.7131 80.653 28.3441 72.1359 36.8612L64.2228 44.7742L69.7197 59.9963C72.7399 68.3322 75.2165 75.3392 75.2165 75.6412C75.2165 76.2453 70.5049 80.8965 70.2029 80.534C70.0821 80.4132 66.4578 74.4935 62.169 67.4261L54.4372 54.6203L46.1617 62.8353L37.8862 71.0504L39.7588 75.5808L41.5709 80.0508L38.6715 83.0106L35.772 85.9705L32.9934 79.9904L30.2148 74.0103L24.2347 71.2317L18.2546 68.453L21.0936 65.5536L23.993 62.5937L28.5838 64.4059L33.1746 66.1576L41.2085 58.1238C45.618 53.7142 49.2423 49.9691 49.2423 49.7879C49.2423 49.6066 43.3831 45.9823 36.2553 41.6332L23.2682 33.8409L25.7448 31.3039L28.2818 28.7669L36.7989 31.7872C41.4501 33.4181 48.5175 35.9551 52.3834 37.284L59.4508 39.821L67.5451 31.7872C71.9546 27.438 76.0018 23.8137 76.485 23.8137C76.9683 23.8137 77.9952 24.2365 78.72 24.7802Z" fill="#0971CE"/>
<path d="M98.6358 59.0944L98.6358 59.0944L98.6402 59.093C101.213 58.2967 103.478 58.0546 107.541 58.1759C109.837 58.2363 111.367 58.3423 112.758 58.642C114.152 58.9424 115.395 59.4349 117.123 60.2532C122.491 62.7545 126.883 67.146 129.384 72.5144C130.29 74.4168 130.787 75.5609 131.05 77.0162C131.312 78.4623 131.341 80.2081 131.341 83.3126C131.341 86.4469 131.312 88.1934 131.05 89.6173C130.787 91.0518 130.289 92.1517 129.383 93.9939L129.382 93.9953C128.283 96.1926 126.033 99.3559 124.321 101.067C109.677 115.773 84.9702 107.711 81.4335 87.1L81.4334 87.0997C79.4186 75.2554 86.9848 62.9374 98.6358 59.0944ZM115.284 63.5468L115.282 63.5458C113.472 62.7152 110.979 62.1309 108.474 61.8683C105.968 61.6057 103.478 61.668 101.674 62.1113C95.1077 63.7832 88.6499 69.5254 86.3235 75.729L86.3227 75.7311C84.416 80.6766 84.833 87.9129 87.2197 92.746L87.2198 92.7462C95.1582 108.862 118.148 108.575 126.094 92.2038L126.095 92.203C126.846 90.6712 127.257 89.6221 127.493 88.3779C127.73 87.1266 127.791 85.668 127.821 83.3109C127.821 80.8323 127.775 79.4078 127.516 78.1531C127.259 76.9032 126.789 75.8105 125.914 73.9999C123.581 69.3357 119.817 65.5746 115.284 63.5468Z" fill="#12123B" stroke="black" stroke-width="0.5"/>
<path d="M104.388 83.1359L104.565 83.3126L104.388 83.4894L99.1337 88.7435C99.1335 88.7437 99.1333 88.7439 99.1331 88.7441C96.8926 91.0149 95.6257 92.3429 95.0054 93.1996C94.6935 93.6302 94.5716 93.9074 94.5491 94.1011C94.5298 94.268 94.5815 94.3989 94.7299 94.5596L94.737 94.5674L94.7435 94.5757C94.9434 94.8328 95.1702 95.0587 95.3778 95.2179C95.4817 95.2975 95.5765 95.3571 95.6569 95.3958C95.719 95.4257 95.7634 95.4387 95.7913 95.4434C95.8126 95.4331 95.8444 95.4151 95.888 95.3869C95.9786 95.3285 96.1013 95.2388 96.2546 95.118C96.5601 94.8773 96.971 94.5263 97.4604 94.0896C98.4382 93.2171 99.7189 92.0118 101.076 90.6845C102.437 89.3538 103.723 88.1435 104.692 87.2651C105.177 86.8262 105.584 86.4687 105.882 86.2201C106.031 86.0962 106.155 85.9969 106.251 85.9275C106.298 85.8931 106.342 85.8629 106.381 85.8402C106.4 85.829 106.422 85.8168 106.446 85.8068C106.464 85.7994 106.509 85.7809 106.567 85.7809C106.616 85.7809 106.657 85.7937 106.681 85.8023C106.708 85.812 106.733 85.8242 106.754 85.8359C106.798 85.8594 106.846 85.8906 106.895 85.9256C106.995 85.9963 107.121 86.0968 107.268 86.2211C107.563 86.4706 107.96 86.8289 108.429 87.2678C109.368 88.1464 110.609 89.3566 111.938 90.6865C113.266 92.0143 114.503 93.2206 115.429 94.0943C115.893 94.5314 116.277 94.8836 116.555 95.1257C116.695 95.2472 116.805 95.3382 116.883 95.3978C116.904 95.4138 116.922 95.4265 116.936 95.4365C116.966 95.4279 117.003 95.414 117.05 95.3936C117.145 95.3525 117.263 95.2914 117.399 95.214C117.669 95.0608 117.992 94.8557 118.322 94.6455C118.596 94.4317 118.712 94.3039 118.745 94.1733C118.775 94.0536 118.749 93.8547 118.484 93.455C118.225 93.0627 117.774 92.5306 117.061 91.7673C116.35 91.0068 115.39 90.0278 114.121 88.7441C114.121 88.7439 114.121 88.7438 114.121 88.7436L108.746 83.3686L108.569 83.1918L108.746 83.0151L114.001 77.7598L114.002 77.7588C115.302 76.4745 116.277 75.5069 116.993 74.7577C117.712 74.0056 118.157 73.4866 118.407 73.0975C118.656 72.7103 118.683 72.4955 118.641 72.332C118.593 72.1419 118.442 71.9544 118.16 71.6405C118.023 71.4879 117.912 71.3669 117.807 71.2737C117.704 71.1813 117.621 71.1289 117.545 71.103C117.414 71.0582 117.225 71.0671 116.843 71.3134C116.461 71.5596 115.942 72.0067 115.18 72.733C114.421 73.4563 113.434 74.4428 112.12 75.7576L106.804 81.0732L106.627 81.25L106.45 81.0732L101.135 75.7576L96.005 70.6278L95.0336 71.7014C94.7332 72.0334 94.5708 72.2253 94.5156 72.4179C94.4699 72.5779 94.4901 72.7838 94.7342 73.1659C94.9804 73.5512 95.4236 74.068 96.1425 74.8275C96.7883 75.5098 97.6452 76.3764 98.7611 77.5049C98.882 77.6272 99.006 77.7526 99.1331 77.8812C99.1332 77.8813 99.1334 77.8815 99.1335 77.8817L104.388 83.1359ZM95.7727 95.4514C95.7727 95.4514 95.7735 95.4512 95.7751 95.4506C95.7736 95.451 95.7727 95.4513 95.7727 95.4514Z" fill="#00C189" stroke="#00C189" stroke-width="0.5"/>
</svg>
