<svg width="124" height="124" viewBox="0 0 124 124" fill="none" xmlns="http://www.w3.org/2000/svg">
<path d="M31 8.61796C30.628 9.42396 30.38 17.422 30.38 30.318V50.84H32.86H35.34V31.31V11.78H63.86H92.38V18.166V24.552L94.86 26.97L97.34 29.388V19.158C97.34 12.028 97.092 8.67996 96.596 8.18396C96.038 7.62596 87.916 7.43996 63.736 7.43996C32.674 7.43996 31.62 7.50196 31 8.61796Z" fill="#12123B"/>
<path d="M58.6506 96.7617L57.9711 100.839L78.058 100.993C85.2813 100.993 89.7902 100.947 92.5628 100.815C93.9495 100.749 94.8993 100.662 95.5362 100.55C95.8547 100.493 96.0926 100.431 96.2668 100.363C96.4417 100.295 96.5469 100.222 96.6064 100.15L96.6064 100.15L96.6082 100.148C96.6609 100.088 96.7146 99.9836 96.766 99.8248C96.817 99.6674 96.8638 99.4629 96.9061 99.2094C96.9908 98.7025 97.0565 98.0059 97.1029 97.1118C97.1958 95.3239 97.2113 92.7528 97.1493 89.3432L96.9663 79.459L94.7838 81.7005L94.7375 81.6554L94.7838 81.7005L92.4467 84.0991V90.396V96.72V96.7867H92.38H75.33C71.6128 96.7867 68.2082 96.7573 65.4543 96.7336C64.7401 96.7275 64.0696 96.7217 63.4487 96.7169C61.9413 96.7053 60.727 96.6995 59.8898 96.7082C59.471 96.7125 59.1475 96.7205 58.9291 96.7331C58.8196 96.7395 58.7385 96.7469 58.6855 96.7552C58.6709 96.7575 58.6594 96.7597 58.6506 96.7617Z" fill="#12123B" stroke="#12123B" stroke-width="0.133333"/>
<path d="M60.3894 64.4282L60.3074 64.3231L60.2401 64.208C60.0746 63.9252 60.0172 63.6589 60.0082 63.6172C60.0078 63.6154 60.0075 63.614 60.0073 63.613C59.9874 63.5247 59.9759 63.4484 59.9695 63.4023C59.9563 63.3063 59.9476 63.2093 59.9416 63.1302C59.929 62.9652 59.9187 62.7572 59.9099 62.5248C59.8921 62.0541 59.8776 61.4058 59.8669 60.6325C59.8453 59.0821 59.8381 56.9862 59.8524 54.7113L59.8525 54.7032L59.938 46.4482L59.9583 44.4838L61.9227 44.4689L76.369 44.3593L76.3741 44.3593L88.859 44.2963L88.859 39.5288C88.859 37.2545 88.8875 35.5197 88.943 34.3181C88.9706 33.7231 89.0064 33.2201 89.0549 32.8335C89.0784 32.6456 89.1112 32.4331 89.1621 32.2306C89.1873 32.1307 89.2284 31.9862 89.2956 31.8282C89.3455 31.7107 89.4935 31.3777 89.8218 31.0772L89.8951 31.01L89.9747 30.9505C90.5919 30.4889 91.2338 30.5358 91.4783 30.5721C91.7516 30.6128 91.9544 30.7007 92.0428 30.7416C92.2319 30.8291 92.3737 30.9294 92.4305 30.9703C92.5675 31.0689 92.6981 31.1819 92.7959 31.2694C93.0072 31.4584 93.2764 31.719 93.5791 32.0216C94.193 32.6349 95.0372 33.5128 96.0252 34.5594C98.0056 36.6569 100.607 39.4783 103.194 42.3248C105.781 45.1713 108.362 48.0525 110.3 50.2696C111.267 51.3761 112.084 52.3289 112.663 53.0333C112.951 53.3822 113.197 53.6909 113.378 53.9356C113.465 54.054 113.561 54.1894 113.644 54.3234C113.684 54.3878 113.744 54.4899 113.801 54.6132C113.802 54.6149 113.803 54.617 113.804 54.6196C113.834 54.6842 114 55.0363 114 55.5C114 55.9734 113.828 56.3297 113.795 56.3993C113.793 56.4019 113.792 56.4041 113.792 56.4059C113.731 56.5332 113.667 56.6376 113.626 56.7025C113.539 56.8374 113.439 56.9714 113.351 57.0859C113.167 57.3233 112.918 57.6196 112.63 57.9517C112.049 58.6225 111.23 59.5266 110.263 60.5742C108.325 62.6737 105.743 65.3977 103.156 68.0867C100.568 70.7759 97.9657 73.4399 95.9846 75.4193C94.9963 76.4068 94.1512 77.2355 93.5361 77.8142C93.233 78.0996 92.9622 78.3464 92.7488 78.5256C92.6501 78.6085 92.5168 78.7168 92.3764 78.8109C92.3177 78.8503 92.1729 78.9456 91.9812 79.0266C91.8905 79.0649 91.6888 79.1439 91.4202 79.1759C91.1789 79.2045 90.5656 79.2314 89.9747 78.7895L89.8951 78.7299L89.8218 78.6628C89.4935 78.3622 89.3455 78.0292 89.2955 77.9116C89.2283 77.7535 89.1872 77.6089 89.162 77.5089C89.1111 77.3064 89.0784 77.0936 89.0548 76.9055C89.0063 76.5183 88.9705 76.0142 88.943 75.417C88.8875 74.2109 88.859 72.467 88.859 70.1747L88.859 65.4538L76.5267 65.4538C72.5727 65.4538 68.949 65.4263 66.2949 65.3804C64.97 65.3575 63.8751 65.3298 63.0979 65.298C62.7132 65.2823 62.384 65.2647 62.1364 65.2442C62.0184 65.2345 61.8807 65.2211 61.7515 65.2008C61.6931 65.1916 61.5818 65.1728 61.4546 65.1371C61.3934 65.1198 61.2759 65.0843 61.1381 65.0207L61.1362 65.0198C61.0502 64.9801 60.6905 64.8142 60.3894 64.4282Z" stroke="#00C189" stroke-width="4"/>
<g clip-path="url(#clip0_83_43)">
<path d="M33.2588 55.0615C27.3613 55.6943 22.0176 58.5156 18.2559 62.9981C15.6104 66.1445 13.9668 69.7129 13.2373 73.8965C13.0703 74.8545 13.0527 75.3203 13.0527 77.5C13.0527 79.6797 13.0703 80.1455 13.2373 81.1035C14.0635 85.8496 16.0498 89.7783 19.3281 93.1797C22.6943 96.6777 26.9395 98.8926 31.8965 99.7627C32.8545 99.9297 33.3203 99.9473 35.5 99.9473C38.251 99.9473 39.0771 99.8594 41.2393 99.3057C48.9912 97.3018 55.3018 90.9912 57.3057 83.2393C57.8594 81.0772 57.9473 80.251 57.9473 77.5C57.9473 74.749 57.8594 73.9229 57.3057 71.7607C55.3018 64.0176 48.9912 57.6982 41.2393 55.6943C39.2441 55.1846 38.3037 55.0703 35.8516 55.044C34.6211 55.0264 33.4521 55.0352 33.2588 55.0615ZM38.0049 58.9199C45.001 59.8867 50.9424 64.7647 53.2363 71.4355C54.3701 74.7227 54.5547 78.3525 53.7637 81.7627C52.1904 88.5654 46.5654 94.1904 39.7627 95.7637C37.0293 96.3965 33.9707 96.3965 31.2373 95.7637C24.4346 94.1904 18.8096 88.5654 17.2363 81.7627C16.6035 79.0293 16.6035 75.9707 17.2363 73.2373C18.7832 66.5488 24.2324 61.0029 30.9209 59.3066C33.1621 58.7441 35.7109 58.6035 38.0049 58.9199Z" fill="#0971CE"/>
<path d="M27.2295 68.0517C26.1748 68.3857 25.6562 69.6601 26.1572 70.6885C26.2275 70.8291 27.7568 72.4287 29.5498 74.2217L32.8193 77.5L29.5498 80.7695C27.7568 82.5713 26.2275 84.1621 26.1572 84.3115C25.6387 85.375 26.1748 86.6318 27.291 86.957C27.792 87.0976 28.2314 87.0625 28.6885 86.8428C28.8379 86.7724 30.4287 85.2431 32.2305 83.4502L35.5 80.1806L38.7783 83.4502C40.5713 85.2431 42.1709 86.7724 42.3115 86.8428C43.375 87.3613 44.6318 86.8252 44.957 85.709C45.0977 85.208 45.0625 84.7685 44.8428 84.3115C44.7725 84.1621 43.2432 82.5713 41.4502 80.7695L38.1807 77.5L41.4502 74.2217C43.2432 72.4287 44.7725 70.8291 44.8428 70.6885C45.0625 70.2314 45.0977 69.792 44.957 69.291C44.6318 68.1748 43.375 67.6387 42.3115 68.1572C42.1709 68.2275 40.5713 69.7568 38.7783 71.5498L35.5 74.8193L32.2305 71.5498C30.4287 69.7568 28.8291 68.2275 28.6885 68.1572C28.2754 67.9551 27.6865 67.9111 27.2295 68.0517Z" fill="#0971CE"/>
</g>
<defs>
<clipPath id="clip0_83_43">
<rect width="45" height="45" fill="white" transform="translate(13 55)"/>
</clipPath>
</defs>
</svg>
