<svg width="145" height="88" viewBox="0 0 145 88" fill="none" xmlns="http://www.w3.org/2000/svg">
<path d="M107.042 6.724H121.791L122.876 6.83245L122.984 8.13387V10.5198L122.876 11.279H117.236V13.7734L118.755 13.8818L121.141 14.3156L122.984 14.7494L125.912 15.7255L128.515 16.9185L130.684 18.1114L132.311 19.196L134.155 20.6058L135.456 21.7988L137.517 23.8594L138.493 25.0523L139.903 27.0045L141.204 29.0651L142.072 30.8003L143.048 33.0778L143.915 35.6806L144.566 38.5004L144.892 41.1032L145 42.9469V44.7906L144.783 47.3934L144.349 50.1047L143.807 52.2737L142.939 54.7681L141.638 57.6963L140.228 60.0823L138.818 62.0344L137.625 63.4443L136.649 64.5288L134.914 66.264L133.396 67.457L132.094 68.433L130.251 69.626L127.322 71.1443L124.828 72.1204L122.659 72.7711L120.381 73.3134L117.128 73.7472H113.007L109.536 73.3134L107.15 72.7711L104.981 72.1204L103.246 71.4697L100.535 70.1683L98.3657 68.8669L96.8474 67.7823L95.1122 66.3725L92.184 63.4443L90.7741 61.6006L89.3642 59.54L88.3882 57.8048L87.5206 56.0695L86.6529 53.9005L86.0022 51.9484L85.46 49.6709L85.0262 46.8511L84.8093 44.7906V42.8384L85.1346 39.5849L85.6769 36.6567L86.3276 34.3792L87.1952 31.9933L88.0628 30.1496L89.5811 27.5467L90.7741 25.8115L91.9671 24.2932L93.1601 22.9918L94.7868 21.365L97.1728 19.4129L98.7995 18.3283L101.077 17.0269L103.355 15.9424L105.415 15.1832L107.584 14.5325L109.753 14.0987L112.356 13.7734H112.681L112.573 11.3874L107.042 11.279L106.933 10.3029V6.83245L107.042 6.724ZM113.007 18.2199L109.97 18.6537L107.801 19.196L105.849 19.8467L104.114 20.6058L102.378 21.4734L100.643 22.558L99.3418 23.534L98.1488 24.5101L97.0643 25.4862L96.3052 26.2453L95.3291 27.4383L94.4615 28.5228L93.4854 29.9327L92.5093 31.5595L91.3164 34.0538L90.2319 37.3074L89.6896 40.0187L89.4727 42.2962V45.3328L89.798 48.1526L90.1234 49.8878L91.2079 53.1413L92.0755 55.0935L93.1601 57.1541L94.353 58.8893L95.3291 60.0823L96.6305 61.4921L98.1488 63.0105L99.6672 64.2034L101.185 65.2879L103.138 66.3725L104.873 67.2401L107.584 68.2161L110.295 68.8669L113.007 69.1922H116.694L118.972 68.9753L121.9 68.3246L124.503 67.457L127.214 66.1556L129.6 64.6372L131.01 63.5527L132.42 62.3597L134.046 60.733L135.022 59.54L136.324 57.6963L137.408 55.8526L138.601 53.3583L139.686 50.1047L140.228 47.285L140.445 45.0075V42.4046L140.12 39.5849L139.577 36.982L139.035 35.1384L137.842 32.3186L136.758 30.3665L135.89 29.0651L134.372 27.1129L133.613 26.3538L133.179 25.8115L132.311 25.0523L131.01 23.8594L129.383 22.6664L127.648 21.5819L125.153 20.2805L122.442 19.3044L119.731 18.6537L117.453 18.3283L116.152 18.2199H113.007Z" fill="#00C189"/>
<path d="M67.7824 0H68.8669L69.9514 0.325355L71.1444 0.976066L73.2049 2.49439L74.8317 3.57891L75.6993 3.47046L78.736 2.49439L79.2782 2.38594H81.6642L83.0741 2.81975L85.5685 4.01271L86.653 4.77188L87.1952 5.53104L87.5206 6.50711V7.48317L86.9783 8.78459L86.1107 10.086L84.3755 12.7973L82.9656 14.9663L81.3388 17.5692L80.905 18.2199L81.0135 18.6537L82.098 19.6298L82.9656 20.3889L86.1107 23.534L86.5445 24.0763L86.3276 24.6185L85.0262 26.6791L84.267 27.9806L83.8332 27.7636L82.8572 26.6791L82.098 25.92L81.3388 25.0524L79.8205 23.534L78.9529 22.7749L77.8684 21.7988L77.543 21.5819L76.7839 21.4734H59.3231L58.6724 21.9073L57.2625 23.2087L56.3949 23.9678L54.4428 25.92L53.6836 26.7876L52.3822 28.1975L51.0808 29.7158L50.1047 30.9088L48.8033 32.5355L47.8272 33.8369L46.4174 35.7891L44.899 37.9581L43.5976 40.0187L42.8385 41.2117L42.73 41.6455L43.8145 41.537L44.899 41.7539L45.6582 42.4046L46.092 43.3807V44.3568L45.4413 45.4413L44.7906 45.8751L44.4652 45.9835H35.1384L34.1623 45.3328L33.7285 44.5737L33.6201 44.2483V43.4892L33.9454 42.5131L34.7046 41.8624L35.6806 41.537H37.4159L39.6934 37.7412L41.2117 35.3553L43.8145 31.6679L45.3328 29.7158L46.5258 28.1975L47.7188 26.7876L48.6949 25.5946L50.3216 23.8594L51.0808 22.9918L54.8766 19.196L55.7442 18.4368L55.202 17.3523L54.1174 15.7255L51.5146 11.6043L50.1047 9.4353L49.3456 8.13388L49.1287 7.37472V6.61556L49.454 5.53104L50.1047 4.66343L51.2977 3.90426L53.7921 2.71129L54.8766 2.38594L56.5034 2.27749L58.2386 2.60284L61.1668 3.57891H61.8175L63.8781 2.16903L65.9387 0.650711L66.8063 0.216904L67.7824 0Z" fill="#12123B"/>
<path d="M15.834 68.2162H44.1399L45.1159 68.5415L45.7667 69.3007L46.092 70.0598V70.9274L45.6582 71.7951L45.1159 72.3373L44.3568 72.6627L39.6934 72.7711L40.3441 73.9641L41.1032 75.1571L42.0793 76.4585L43.4892 78.0853L45.3328 79.9289L46.5258 80.905L47.7188 81.7726L49.454 82.5318L51.0808 82.9656L51.84 83.074H84.4839L86.4361 82.7487L87.7375 82.3149L89.3643 81.4473L90.7741 80.3628L92.184 79.0613L93.4854 77.7599L94.4615 76.5669L95.546 75.1571L96.4136 73.7472L96.8474 73.0965L97.2812 73.3134L100.426 74.9402L100.752 75.2655L99.6672 77.1092L98.3658 78.8444L96.9559 80.5797L94.1361 83.3994L92.9432 84.3755L91.7502 85.2431L90.2319 86.1107L88.7135 86.7614L86.8699 87.3037L85.6769 87.5206L84.267 87.629H51.84L49.6709 87.3037L47.8272 86.7614L46.5258 86.2191L45.0075 85.3515L43.8145 84.4839L42.4046 83.291L40.6694 81.6642L39.368 80.2543L38.3919 79.0613L37.199 77.4346L36.006 75.4824L35.0299 73.6387L34.5961 72.7711L15.7255 72.6627L14.9664 72.3373L14.3156 71.7951L13.8818 70.819L13.9903 69.7345L14.4241 68.9753L15.2917 68.3246L15.834 68.2162Z" fill="#12123B"/>
<path d="M67.7823 34.2708H68.8668L69.7345 34.7046L70.1683 35.2468L70.4936 35.8975V38.0666L71.4697 38.3919L72.988 39.1511L74.0725 40.0187L75.0486 41.1032L75.8078 42.4046L76.4585 44.3568L76.5669 45.0075V46.7427L76.1331 47.5019L75.3739 48.1526L74.8317 48.3695H73.9641L72.988 47.9357L72.3373 47.0681L72.1204 46.092L71.9035 44.7906L71.3612 43.7061L70.3852 42.8384L69.626 42.5131L69.0837 42.4046H67.457L66.3725 42.73L65.5048 43.3807L64.8541 44.3568L64.5288 45.5497V46.5258L64.8541 47.6103L65.6133 48.5864L66.4809 49.3455L67.9992 50.3216L70.819 51.8399L72.988 53.1414L74.181 54.009L75.2655 54.985L75.8078 55.5273L76.5669 56.5034L77.4345 58.2386L77.7599 59.6485V61.709L77.4345 63.2274L76.8923 64.6372L76.2416 65.8302L75.3739 66.9147L74.3979 67.8908L73.3134 68.65L71.5781 69.5176L70.6021 69.9514L70.4936 72.012L70.1683 72.6627L69.3007 73.4218L68.8668 73.6387H67.7823L66.9147 73.2049L66.3725 72.5542L66.0471 71.5782L65.9386 69.8429L63.8781 68.9753L62.6851 68.2162L61.6006 67.2401L60.5161 66.0471L59.6484 64.5288L59.1062 62.902L58.8893 61.8175V60.0823L59.3231 59.2147L59.9738 58.6724L60.4076 58.4555H61.709L62.3597 58.7808L62.902 59.3231L63.3358 60.2992L63.5527 62.0344L64.4203 63.7696L65.5048 64.7457L66.5894 65.288L67.5654 65.5049H69.0837L70.4936 65.0711L71.6866 64.3119L72.5542 63.2274L73.0965 61.926L73.2049 61.3837V59.9738L72.7711 58.8893L71.9035 57.9132L70.3852 56.8287L68.5415 55.7442L65.7217 54.2259L64.4203 53.3583L63.0104 52.2737L61.709 50.9723L61.0583 49.9963L60.4076 48.6948L60.0823 47.5019L59.9738 46.3089L60.0823 44.7906L60.6245 42.73L61.3837 41.3201L62.2513 40.2356L63.2274 39.368L64.7457 38.5004L65.9386 38.0666L66.0471 36.2229L66.3725 35.3553L67.0232 34.5961L67.7823 34.2708Z" fill="#0971CE"/>
<path d="M2.16903 54.8766H44.0314L44.899 55.0935L45.5497 55.6357L46.092 56.7203V57.5879L45.6582 58.4555L44.899 59.1062L44.4652 59.3231H1.62678L0.759162 58.7809L0.216904 58.1301L0 57.371L0.108452 56.3949L0.542259 55.6357L1.40987 54.985L2.16903 54.8766Z" fill="#0971CE"/>
<path d="M112.681 23.9678H117.128L117.236 24.2932L117.345 39.8018L118.321 40.6694L118.972 41.7539L119.405 42.9469L119.514 44.2483L119.297 45.1159L118.755 46.2004L117.779 47.285L116.694 47.9357L115.393 48.261L113.983 48.1526L112.79 47.7188L111.814 46.9596L111.163 46.2004L110.621 45.1159L110.512 44.6821V42.73L110.946 41.537L111.705 40.561L112.356 40.0187L112.573 39.9102L112.681 23.9678Z" fill="#00C189"/>
<path d="M16.4847 41.2117H25.5946L26.4622 41.4286L27.2214 41.9708L27.7637 43.0553V43.923L27.2214 45.0075L26.4622 45.5497L26.1369 45.6582L16.81 45.7666L15.5086 45.6582L14.641 45.1159L14.0987 44.4652L13.8818 43.8145L13.9903 42.73L14.4241 41.9708L15.4002 41.3201L16.4847 41.2117Z" fill="#12123B"/>
</svg>
