<svg width="103" height="103" viewBox="0 0 103 103" fill="none" xmlns="http://www.w3.org/2000/svg">
<path d="M10.1169 2.3805C7.828 3.02139 6.04266 4.53206 5.03555 6.63784C4.12 8.46895 4.12 9.47607 4.12 51.5001C4.12 94.3481 4.12 94.4854 5.08133 96.4996C5.67644 97.6898 6.82088 98.9716 7.91955 99.7041L9.79644 100.94L45.1827 101.077C70.2689 101.169 81.164 101.032 82.5373 100.665C84.9178 100.025 87.6187 97.3694 88.3053 94.9889C88.7631 93.3409 89.0378 89.2667 88.6716 89.2667C88.58 89.2667 87.7102 89.6787 86.7031 90.1365C85.696 90.6401 84.3227 91.1894 83.636 91.3267C82.9035 91.5556 82.4 91.9676 82.4 92.4712C82.4 92.8832 82.0338 93.5698 81.576 93.9818C80.7978 94.7143 77.6849 94.7601 46.3271 94.7601C15.7018 94.7601 11.9022 94.6685 11.2613 94.0276C10.6204 93.3867 10.5289 88.9005 10.5289 51.5001C10.5289 14.0996 10.6204 9.6134 11.2613 8.97251C11.9022 8.33162 15.7018 8.24007 46.4187 8.24007C79.2413 8.24007 80.9351 8.28584 81.6218 9.06406C82.3084 9.84229 82.4 11.6276 82.4 25.1321C82.4 39.1858 82.4458 40.3303 83.224 40.6049C83.636 40.7423 85.1009 41.3374 86.4284 41.9325L88.8089 42.9854V26.4138C88.8089 15.7476 88.6258 9.2014 88.3053 8.01118C87.6644 5.67651 84.9636 2.97562 82.6289 2.33472C80.2484 1.69384 12.4058 1.69384 10.1169 2.3805Z" fill="#12123B"/>
<path d="M29.7555 14.6032C29.7555 16.2054 29.6182 16.3885 28.2906 16.6632C22.7973 17.7619 20.0049 25.8188 23.5298 30.4423C24.8115 32.0903 25.4982 32.4565 33.1431 35.8441C35.5235 36.897 36.3475 38.1788 35.8898 40.1014C35.2031 42.7565 30.9458 43.489 28.428 41.3832C27.6498 40.7423 27.0089 39.9641 27.0089 39.6894C26.9631 38.2245 26.3222 37.9499 23.8502 38.545C22.5226 38.8197 21.3324 39.369 21.1951 39.6894C20.8289 40.605 22.7973 44.2672 24.3538 45.549C25.132 46.1899 26.6426 46.9681 27.7413 47.2428L29.7555 47.7921V49.9894V52.1868H31.5866H33.4178V49.9437C33.4178 47.7463 33.4178 47.7005 35.1573 47.3801C39.2773 46.6477 42.0698 43.4432 42.436 39.0485C42.848 33.9672 40.5591 31.4037 33.0515 28.3823C29.2062 26.8717 28.3822 26.1392 28.3822 24.0792C28.3822 22.7974 30.3049 21.0579 31.6782 21.0579C33.2346 21.0579 35.1115 22.3397 35.7066 23.8045C36.3475 25.361 36.7138 25.4068 39.964 24.0334C41.5204 23.3925 41.5662 23.301 41.1542 22.0192C40.4218 19.8677 37.7209 17.4414 35.432 16.8463C33.5093 16.297 33.4178 16.2054 33.4178 14.5574C33.4178 12.8179 33.4178 12.8179 31.5866 12.8179C29.7555 12.8179 29.7555 12.8179 29.7555 14.6032Z" fill="#0971CE"/>
<path d="M55.3911 21.0579V24.2623H65.6911H75.9911V21.0579V17.8534H65.6911H55.3911V21.0579Z" fill="#12123B"/>
<path d="M49.8978 41.2001V44.4045H55.208C59.8315 44.4045 60.7013 44.2672 61.8458 43.4432C64.0889 41.841 68.2547 40.3761 72.2373 39.8268C74.8467 39.4148 75.9911 39.0943 75.9911 38.6365C75.9911 38.0872 73.748 37.9957 62.9444 37.9957H49.8978V41.2001Z" fill="#12123B"/>
<path d="M68.6667 44.5418C60.152 47.4258 54.3382 54.4756 53.0107 63.4022C51.4085 74.5262 58.504 85.284 69.5365 88.5342C72.6036 89.4498 78.6005 89.4956 81.7591 88.6258C87.4814 87.1151 93.7071 82.1253 96.2707 77.0898C102.908 63.9516 96.1334 48.3871 81.988 44.2213C78.28 43.1227 72.3289 43.26 68.6667 44.5418ZM83.4071 50.7218C96.82 57.3138 96.5911 76.3116 82.9951 82.4916C76.2658 85.5129 68.9414 84.0938 63.6311 78.7378C54.2925 69.4449 57.7258 54.4756 70.1774 49.852C73.9311 48.4329 79.5618 48.7991 83.4071 50.7218Z" fill="#12123B"/>
<path d="M74.0227 53.8806C73.8395 54.0179 73.7022 54.7046 73.7022 55.3912C73.7022 57.1308 71.8253 58.0006 70.6809 56.7188C69.5822 55.4828 69.0787 55.6201 67.156 57.5886L65.4622 59.3281L66.5609 60.381C67.6595 61.3881 67.6595 61.5254 67.0187 62.7614C66.5151 63.7686 66.0115 64.089 65.0044 64.089C63.6311 64.089 63.6311 64.1348 63.6311 66.6068V69.1246H65.1418C66.3778 69.1246 66.744 69.3534 67.156 70.4521C67.568 71.6423 67.5222 71.917 66.5609 72.8326L65.4622 73.8854L67.156 75.625C69.0787 77.5934 69.7195 77.7308 70.6351 76.449C71.1844 75.6708 71.5049 75.5792 72.4662 75.9454C73.336 76.3117 73.6564 76.7694 73.7938 77.9139C73.9311 79.4246 73.9311 79.4246 76.5862 79.5619L79.1955 79.6992V78.0512C79.1955 76.7237 79.4244 76.3574 80.4315 75.9454C81.3929 75.5792 81.8049 75.6708 82.6289 76.449C83.9564 77.685 84.2769 77.6392 85.9707 75.8539C87.7102 74.0686 87.7102 73.8397 86.52 72.5579C85.1467 71.093 85.9249 69.2619 87.9849 69.033C89.4955 68.8957 89.4955 68.8957 89.4955 66.3779V63.8601L87.8018 63.7228C85.6044 63.5397 85.0093 61.8001 86.5658 60.1521L87.6187 59.0534L86.0622 57.4512C84.2769 55.5743 83.9564 55.5286 82.6289 56.7646C81.7591 57.5886 81.4387 57.6343 80.3858 57.1766C79.4702 56.7188 79.1955 56.3068 79.1955 55.0708V53.5601H76.7693C75.396 53.5601 74.16 53.6974 74.0227 53.8806ZM80.1111 60.381C81.9422 61.2966 83.7733 64.4094 83.7733 66.561C83.7733 67.2934 83.3155 68.8499 82.812 69.9486C82.0338 71.5508 81.3471 72.1917 79.6991 72.9241C76.9982 74.1143 75.7164 74.1143 73.1529 72.8326C71.4591 72.0086 70.864 71.4134 70.0858 69.5823C68.8955 66.7899 68.8955 66.4237 70.0858 63.5854C70.7724 62.029 71.5507 61.0677 72.512 60.5641C75.7164 58.9161 77.1355 58.8703 80.1111 60.381Z" fill="#00C189"/>
<path d="M73.1987 63.1276C70.5893 65.737 71.7795 70.3605 75.3044 71.2303C77.2271 71.6881 79.2871 70.8641 80.4773 69.1245C83.636 64.4552 77.1813 59.145 73.1987 63.1276Z" fill="#00C189"/>
<path d="M19.6844 61.3423V64.5468H34.3333H48.9822L49.1653 63.4939C49.2569 62.9445 49.5316 61.5254 49.8062 60.2894L50.2182 58.1379H34.9742H19.6844V61.3423Z" fill="#12123B"/>
<path d="M19.6844 81.4845V84.689H38.0413H56.3982L55.6658 83.6361C55.2538 83.0867 54.2467 81.6676 53.4227 80.4774L51.9578 78.2801H35.844H19.6844V81.4845Z" fill="#12123B"/>
</svg>
