<svg width="132" height="96" viewBox="0 0 132 96" fill="none" xmlns="http://www.w3.org/2000/svg">
<path d="M92.0221 0L95.1381 0.0662983L97.989 0.265193L100.641 0.530387L103.359 0.928177L106.21 1.45856L108.862 2.05525L111.713 2.85083L114.232 3.64641L116.287 4.37569L118.144 5.10497L119.337 5.63536L120 6.23204L120.331 6.89503L120.398 7.16022L120.464 14.1215H129.878L130.541 14.2541L131.138 14.5856L131.669 15.116L132 15.9116V86.8508L131.801 87.4475L131.337 88.0442L130.807 88.442L130.077 88.6409L77.0387 88.7072L76.7735 89.5691L76.442 90.3646L76.0442 91.1602L75.3149 92.221L74.5193 93.0829L73.7901 93.7459L72.7956 94.4088L71.4033 95.0718L70.0773 95.4696L68.6188 95.6685H63.2486L61.9227 95.4696L60.9282 95.2044L59.8674 94.7403L58.8729 94.2099L58.0111 93.547L57.1492 92.7514L56.3536 91.7569L55.8232 90.895L55.4254 90.0994L54.9613 88.7072L1.85635 88.6409L1.12707 88.3757L0.596685 87.9116L0.198895 87.3149L0.0662983 86.9171L0 86.1878V16.442L0.0662983 15.779L0.464088 15.0497L0.928177 14.5856L1.52486 14.2541L1.79006 14.1878L5.37017 14.1215H11.6022V7.55801L11.7348 6.82873L12.1326 6.16575L12.663 5.70166L13.7901 5.17127L16.1768 4.24309L17.6354 3.71271L20.5525 2.78453L23.2707 2.05525L25.5249 1.52486L28.7072 0.928177L31.9558 0.464088L34.7403 0.198895L37.1934 0.0662983H42.6961L45.6796 0.265193L48.3315 0.530387L51.5138 0.994475L54.5635 1.59116L56.8177 2.12155L59.6685 2.91713L62.9171 3.9779L65.0387 4.77348L65.8343 5.10497H66.232L68.0221 4.37569L70.4751 3.51381L72.9945 2.71823L75.779 1.98895L78.3646 1.39227L80.9503 0.928177L82.674 0.662983L84.8619 0.39779L86.9834 0.198895L89.3039 0.0662983L92.0221 0ZM38.1215 4.44199L35.4696 4.57459L32.5525 4.83978L30.0994 5.17127L27.4475 5.63536L24.7956 6.23204L22.2762 6.89503L19.7569 7.69061L18.0331 8.28729L16.1105 9.01657L16.0442 9.08287V72.8619L19.8232 71.6022L22.1436 70.9392L25.0608 70.2099L27.779 69.6796L30.6298 69.2155L32.884 68.9503L36.3978 68.6851L38.453 68.6188H41.3702L43.3591 68.6851L46.8066 68.9503L49.5912 69.2818L52.442 69.7459L55.2928 70.3425L58.2099 71.0718L60.8619 71.8674L63.1823 72.663L63.779 72.8619V9.08287L63.1823 8.81768L61.2597 8.0884L58.8729 7.29282L56.5525 6.62983L53.9006 5.96685L51.3149 5.43646L48.7956 5.03867L45.9448 4.70718L43.2928 4.50829L41.5028 4.44199H38.1215ZM90.4309 4.44199L88.6409 4.50829L85.3923 4.77348L82.674 5.10497L79.6906 5.63536L76.9724 6.23204L74.7182 6.82873L72.9945 7.35912L70.6077 8.1547L68.2873 9.01657L68.221 9.08287V72.8619L71.8011 71.6685L74.3204 70.9392L77.5691 70.1436L80.3536 69.6133L82.8066 69.2155L85.0608 68.9503L88.6409 68.6851L90.4972 68.6188H93.4807L95.6685 68.6851L99.6464 69.0166L102.232 69.3481L105.017 69.8122L107.801 70.4088L110.387 71.0718L113.039 71.8674L115.028 72.5304L115.956 72.8619L116.022 72.663V9.14917L115.757 8.95028L113.436 8.0884L111.05 7.29282L108.994 6.69613L106.077 5.96685L103.492 5.43646L100.972 5.03867L98.8508 4.77348L95.5359 4.50829L93.547 4.44199H90.4309ZM4.50829 18.5635L4.44199 18.8287V84.2652H56.7514L57.547 84.3315L58.3425 84.7293L58.8066 85.2597L59.0718 85.9227L59.2707 87.4475L59.5359 88.3094L60 89.1713L60.5304 89.8343L61.3923 90.4972L62.453 91.0276L63.3149 91.2265H68.7514L69.7459 90.9613L70.8066 90.4309L71.4696 89.9006V89.768L71.6685 89.7017L72.1989 88.9724L72.5967 88.1768L72.8619 87.1823L72.9945 85.989L73.2597 85.2597L73.6575 84.7956L74.1878 84.4641L74.5856 84.3315L75.779 84.2652H127.425L127.558 84.1989L127.624 78.1657V61.989L127.558 18.6298L127.492 18.5635H120.398L120.331 75.9779L120.199 76.8398L119.867 77.4365L119.403 77.8343L118.807 78.0994L118.541 78.1657H117.68L116.751 77.8343L114.961 77.105L112.376 76.1768L110.055 75.4475L107.602 74.7845L105.282 74.2541L102.895 73.7901L100.707 73.4586L98.3867 73.1934L95.8674 72.9945L94.4751 72.9282H89.4365L86.453 73.1271L83.4033 73.4586L80.1547 73.989L77.3702 74.5856L74.5856 75.3149L72.1989 76.0442L70.0773 76.7735L68.221 77.5028L66.7624 78.0994L66.1657 78.232L65.4365 78.1657L64.1105 77.6354L62.2541 76.9061L59.8011 76.0442L57.4144 75.3149L54.895 74.6519L52.1768 74.0553L49.4586 73.5912L46.2762 73.1934L43.6906 72.9945L42.2983 72.9282H37.2597L34.2762 73.1271L31.7569 73.3923L29.105 73.7901L26.3867 74.3204L23.6022 74.9834L20.884 75.779L18.4972 76.5746L16.5083 77.3039L14.9171 77.9669L14.3204 78.1657L13.6575 78.232L13.0608 78.0994L12.3978 77.7017L12 77.2376L11.7348 76.6409L11.6685 76.2431L11.6022 56.221V18.6298L11.5359 18.5635H4.50829Z" fill="#12123B"/>
<path d="M32.7514 39.9116H42.7624L43.9558 40.1105L45.0166 40.5083L45.9447 41.0387L46.6077 41.5691L47.4033 42.3647L47.8674 43.0276L48.3978 44.0221L48.7293 45.0166L48.9282 46.1437V47.4033L48.663 48.7293L48.2652 49.7238L47.7348 50.652L47.1381 51.3812L47.5359 51.9116L48.1326 52.8398L48.5304 53.768L48.7956 54.6299L48.9282 55.558V57.4144L48.663 58.7404L48.3315 59.6022L47.8011 60.5967L47.2044 61.326L46.4088 62.1216L45.4144 62.7845L44.5525 63.1823L43.6906 63.4475L42.4309 63.6464H32.884L32.1547 63.3812L31.6243 62.9834L31.2265 62.3205L31.0939 61.9227L31.0276 61.4586V41.8343L31.2265 41.1713L31.6243 40.5746L32.221 40.1105L32.7514 39.9116ZM35.4033 44.221L35.337 44.3536L35.4033 49.1271H42.4972L43.1602 48.9282L43.7569 48.4641L44.1547 48L44.4199 47.4033L44.4862 47.1381V46.21L44.1547 45.4144L43.7569 44.884L43.1602 44.4862L42.5635 44.2873L41.9005 44.221H35.4033ZM35.4033 53.5691L35.337 59.1381L35.4033 59.2707H42.0994L43.0276 59.0718L43.6906 58.6741L44.1547 58.1437L44.4199 57.4807L44.4862 57.2155V55.6243L44.221 54.8287L43.7569 54.2321L43.1602 53.8343L42.6961 53.6354L42.3646 53.5691H35.4033Z" fill="#0971CE"/>
<path d="M85.6575 39.8453H93.7459L95.4033 40.0442L96.8619 40.442L98.1215 40.9724L99.116 41.5028L99.9779 42.0995L100.641 42.6299L101.436 43.3591L102.099 44.0884L102.829 45.0829L103.492 46.21L104.088 47.6022L104.486 48.9282L104.685 50.0553L104.751 50.7183V52.3094L104.619 53.5028L104.221 55.1603L103.691 56.4862L103.028 57.7459L102.365 58.6741L101.635 59.5359L100.641 60.5304L99.4475 61.3923L98.3867 61.989L97.3923 62.4531L96.1989 62.8509L94.9392 63.1161L93.6796 63.2487H85.5912L84.8619 62.9835L84.2652 62.4531L83.8674 61.6575L83.8011 61.3923V41.7017L84.0663 40.9724L84.5304 40.3757L85.1934 39.9779L85.6575 39.8453ZM88.3757 44.221L88.3094 44.2873L88.2431 48.5304V58.8067L93.4144 58.873L94.4751 58.8067L95.8674 58.4752L96.663 58.1437L97.7238 57.547L98.5856 56.8177L99.0497 56.3536L99.7127 55.4254L100.243 54.431L100.575 53.4365L100.773 52.442V50.652L100.575 49.6575L100.243 48.663L99.7127 47.6685L99.1823 46.9393L98.5856 46.2763L97.9889 45.7459L97.0608 45.1492L95.9337 44.6188L94.5414 44.2873L93.4144 44.221H88.3757Z" fill="#00C189"/>
<path d="M90.8287 9.34802H92.3536L94.0773 9.54692L95.6022 9.94471L96.9945 10.5414L98.1215 11.1381L99.116 11.8674L99.779 12.464L100.309 12.9281L101.039 13.7237L101.37 14.2541L101.569 14.9171V15.5138L101.37 16.1768L100.906 16.7734L100.376 17.1712L99.779 17.3701H98.9171L98.3867 17.1712L97.79 16.7734L97.0608 15.9779L96.3315 15.3149L95.337 14.7182L94.3425 14.2541L93.1492 13.9226L92.7514 13.8563H90.6961L89.3039 14.1878L88.1105 14.7182L87.3812 15.1823L86.7182 15.7127L85.9226 16.5082L85.1934 17.569L84.663 18.6961L84.3315 19.7569L84.1989 20.7513V22.1436L84.3978 23.2707L84.8619 24.5966L85.5249 25.7237L86.0552 26.3867L86.453 26.8508L87.3812 27.5801L88.1105 28.0442L89.1713 28.5082L90.0994 28.7734L90.8287 28.906H92.6188L93.8784 28.6408L94.9392 28.243L95.8011 27.779L96.5967 27.1823L97.2597 26.5856L97.9226 25.9226L98.5193 25.6574L98.7845 25.5911H99.5801L100.309 25.8563L100.84 26.3204L101.238 26.9171L101.37 27.3149V28.243L101.171 28.7734L100.773 29.3701L99.5801 30.5635L98.5193 31.3591L97.5249 31.9558L96.4641 32.4861L95.2044 32.9502L93.8121 33.2817L92.884 33.4143L92.0221 33.4806H91.2928L89.9005 33.348L88.6409 33.0828L87.5801 32.7513L86.453 32.2872L85.326 31.6906L84.3978 31.0276L83.6685 30.4309L82.4751 29.2375L81.8121 28.3756L81.1492 27.3149L80.6188 26.2541L80.221 25.2596L79.8232 23.7348L79.6243 22.2762V20.3535L79.8895 18.7624L80.2873 17.3701L80.8177 16.1105L81.2818 15.2486L81.8121 14.453L82.4751 13.5911L83.2044 12.7955L84 12.0663L84.9945 11.337L85.8563 10.8066L87.2486 10.1436L88.442 9.74581L89.7016 9.48062L90.8287 9.34802Z" fill="#0971CE"/>
<path d="M39.4475 9.34802H40.442L41.105 9.61322L41.6354 10.0773L42.0332 10.674L43.0276 13.0607L44.0884 15.6464L45.3481 18.6961L46.4088 21.2817L47.4033 23.6685L49.5249 28.8397L50.0553 30.1657L50.1878 30.6961V31.1602L49.989 31.8232L49.5912 32.4198L49.1934 32.7513L48.663 33.0165L48.3978 33.0828H47.4696L46.8066 32.8176L46.2762 32.3535L45.8785 31.7569L44.9503 29.5027L43.558 26.0552L43.4254 25.5911L36.4641 25.6574L35.7348 27.5801L34.8066 29.8342L34.0774 31.6243L33.6796 32.2872L33.0829 32.8176L32.6188 33.0165L32.2873 33.0828H31.4917L30.8287 32.8176L30.3646 32.4861L29.9006 31.7569L29.768 31.3591V30.4972L30.0332 29.7016L31.9558 25.0607L33.0166 22.4751L34.1437 19.7569L35.0718 17.5027L36.1326 14.9171L37.1271 12.5303L37.9227 10.6077L38.3204 10.011L38.7845 9.61322L39.4475 9.34802ZM39.8453 17.4364L39.1823 19.0939L38.3867 21.0165L38.453 21.2817H41.5028L41.3039 20.6187L40.442 18.4972L39.9779 17.4364H39.8453Z" fill="#0971CE"/>
</svg>
