<svg width="130" height="130" viewBox="0 0 130 130" fill="none" xmlns="http://www.w3.org/2000/svg">
<path d="M44.3066 1.52344H62.0801L63.4766 1.77734L64.873 2.53906L65.8887 3.42773L66.6504 4.69727L67.0312 5.71289L67.1582 6.60156V9.01367H69.0625L70.2051 9.39453L71.2207 10.2832L71.9824 11.6797L96.7383 11.8066L98.0078 12.1875L99.0234 12.9492L99.7852 13.8379L100.293 14.8535L100.42 15.3613L100.547 83.4082L101.309 83.6621L103.34 84.5508L105.625 85.3125L108.037 85.8203L110.449 86.0742H112.354L115.4 85.6934L116.035 85.5664H116.924L117.559 85.9473L118.066 86.582L118.193 87.9785V107.021L118.066 111.211L117.559 113.496L116.797 115.4L115.654 117.432L114.385 119.082L112.861 120.732L111.973 121.621L110.195 123.018L108.799 124.033L106.641 125.303L104.736 126.318L101.816 127.461L99.2773 128.223L98.7695 128.35H96.8652L94.1992 127.588L91.5332 126.572L89.502 125.557L87.2168 124.287L85.1855 122.764L83.916 121.748L82.6465 120.605V120.352L81.6309 120.225H16.123L14.7266 119.971L13.457 119.209L12.4414 118.066L11.9336 116.797L11.8066 116.162V15.6152L12.3145 14.0918L13.2031 12.9492L14.3457 12.1875L15.3613 11.8066L34.4043 11.6797L34.7852 11.2988L35.293 10.2832L36.3086 9.39453L37.3242 9.01367L39.3555 8.88672V7.10938L39.7363 5.07812L40.498 3.68164L41.6406 2.53906L43.418 1.65039L44.3066 1.52344ZM15.8691 14.8535L15.1074 15.3613L14.8535 16.25V115.781L15.2344 116.797L15.6152 117.051L16.5039 117.178H79.7266L79.5996 116.416L78.584 114.385L77.9492 112.354L77.6953 110.703V86.582L77.8223 86.0742H78.0762V85.8203L78.584 85.6934L80.2344 85.8203L81.6309 86.0742L83.1543 86.2012H85.8203L88.6133 85.8203L91.0254 85.1855L93.4375 84.2969L95.8496 83.0273L97.373 82.0117V15.8691L96.8652 15.1074L95.9766 14.8535H71.9824L71.8555 20.3125L71.6016 21.709L71.0938 22.5977L70.0781 23.3594L69.3164 23.6133L65.6348 23.7402H38.4668L37.0703 23.6133L35.6738 22.8516L35.0391 21.9629L34.7852 21.0742L34.6582 14.9805L34.5312 14.8535H15.8691Z" fill="#010001"/>
<path d="M97.7539 85.3125L99.2773 86.0742L101.436 87.2168L103.467 87.9785L106.514 88.7402L108.926 89.1211L110.322 89.248H112.354L115.02 89.1211V110.449L114.512 112.734L114.004 113.877L113.115 115.527L111.592 117.559L109.688 119.463L107.656 120.986L105.879 122.129L103.848 123.271L100.801 124.541L98.7695 125.176L98.3887 125.303H97.2461L95.2148 124.668L92.6758 123.652L90.1367 122.383L87.8516 120.859L86.582 119.844L85.0586 118.447L83.6621 117.051L82.2656 115.146L81.25 112.988L80.7422 111.084L80.6152 89.502L80.7422 89.1211L84.1699 89.248L87.7246 88.9941L90.2637 88.4863L92.6758 87.7246L94.834 86.8359L96.8652 85.8203L97.7539 85.3125Z" fill="#0971CE"/>
<path d="M44.0527 4.69727H62.4609L63.4766 5.58594L63.8574 6.09375L63.9844 6.60156L64.1113 10.918L64.4922 11.6797L65 11.9336L66.1426 12.0605L68.8086 12.1875V20.5664L68.6816 20.6934H37.832L37.7051 20.3125V12.1875L41.6406 11.9336L42.2754 11.2988L42.4023 10.918L42.5293 7.36328L42.6562 6.2207L43.1641 5.45898L44.0527 4.69727Z" fill="white"/>
<path d="M28.6914 64.3652H70.0781L84.2969 64.4922L84.9316 65L85.1855 65.5078V66.5234L84.5508 67.2852L83.6621 67.5391H28.5645L27.8027 67.2852L27.041 66.3965V65.6348L27.5488 64.873L28.0566 64.4922L28.6914 64.3652Z" fill="#0971CE"/>
<path d="M28.4375 53.4473H83.1543L84.2969 53.5742L85.0586 54.209L85.3125 55.2246L84.8047 56.1133L84.1699 56.4941L70.459 56.6211H29.0723L27.8027 56.3672L27.168 55.7324L27.041 54.5898L27.9297 53.5742L28.4375 53.4473Z" fill="#0971CE"/>
<path d="M38.0859 42.4023H65.5078L84.043 42.5293L84.6777 42.7832L85.1855 43.5449V44.6875L84.4238 45.4492L84.043 45.5762H28.1836L27.4219 45.0684L27.041 44.4336L27.168 43.418L27.8027 42.6562L28.1836 42.5293L38.0859 42.4023Z" fill="#00C189"/>
<path d="M28.1836 75.4102H83.5352L84.6777 75.6641L85.1855 76.4258V77.5684L84.6777 78.2031L84.043 78.457H28.1836L27.4219 77.9492L27.041 77.3145V76.5527L27.6758 75.6641L28.1836 75.4102Z" fill="#0971CE"/>
<path d="M28.4375 86.3281H69.9512L74.2676 86.4551L75.0293 86.9629L75.2832 87.5977V88.3594L74.5215 89.248L74.2676 89.375L72.4902 89.502H28.4375L27.5488 89.1211L27.041 88.2324V87.4707L27.8027 86.582L28.4375 86.3281Z" fill="#0971CE"/>
<path d="M34.6582 97.2461H51.7969L74.1406 97.373L74.7754 97.7539L75.1562 98.2617L75.2832 99.2773L74.9023 99.9121L74.3945 100.293L74.0137 100.42H28.1836L27.4219 99.9121L27.041 99.2773V98.5156L27.8027 97.5L28.0566 97.373L34.6582 97.2461Z" fill="#0971CE"/>
<path d="M45.5762 31.4844H58.6523L84.1699 31.6113L84.8047 31.9922L85.1855 32.5V33.6426L84.4238 34.5312L83.7891 34.6582L53.1934 34.7852H45.0684L39.1016 34.6582L38.4668 34.2773L37.959 33.6426V32.627L38.4668 31.8652L38.9746 31.6113L45.5762 31.4844Z" fill="#00C189"/>
<path d="M108.545 93.4375L109.18 93.5645L109.814 93.9453L110.195 94.5801V95.4688L109.307 96.8652L107.021 99.6582L105.625 101.436L103.975 103.467L101.436 106.641L100.039 108.418L98.8965 109.814L97.373 111.719L95.0879 114.512L94.3262 115.02H93.5645L92.8027 114.512L91.9141 113.75V113.496H91.6602V113.242H91.4062V112.988H91.1523V112.734H90.8984V112.48H90.6445V112.227H90.3906V111.973H90.1367V111.719H89.8828L88.9941 110.703L85.8203 107.529L85.4395 106.895V106.133L85.9473 105.371L86.582 104.99H87.5977L88.3594 105.498V105.752L88.8672 106.006L89.8828 107.021L90.7715 108.037L91.5332 108.672L92.168 109.434L92.5488 109.688V109.941L93.0566 110.195L93.5645 110.83L94.0723 110.703L95.7227 108.545L96.8652 107.275L97.8809 105.879L98.8965 104.736L99.9121 103.34L100.928 102.197L101.816 101.055L104.355 97.8809L105.752 96.1035L107.529 93.9453L108.545 93.4375Z" fill="white"/>
<path d="M28.4375 78.584H66.7773L66.3965 78.8379L65.6348 79.0918L64.6191 79.2188L62.207 79.3457H49.0039L40.752 79.2188L38.3398 79.0918L37.959 78.9648L36.3086 78.8379L28.4375 78.7109V78.584Z" fill="#E2F8FE"/>
<path d="M35.0391 74.9023H63.9844L65.6348 75.0293V75.2832H29.4531V75.1562L30.7227 75.0293L35.0391 74.9023Z" fill="#E2F8FE"/>
<path d="M35.4199 45.7031H49.6387V45.8301L45.7031 45.957L44.6875 46.084H42.9102L42.1484 45.957L35.4199 45.8301V45.7031Z" fill="#E2F8FE"/>
<path d="M34.4043 16.7578H34.5312V21.0742H34.7852L35.0391 22.3438H34.7852V22.0898H34.5312L34.2773 21.2012L34.4043 16.7578Z" fill="#E0F6FD"/>
</svg>
