<svg width="102" height="117" viewBox="0 0 102 117" fill="none" xmlns="http://www.w3.org/2000/svg">
<path d="M7.23404 0H69.2057L71.8582 0.964539L73.7873 2.41135L75.2341 4.09929L76.1986 6.02837L76.6809 8.43972V72.8227L76.1986 74.2695L75.7163 74.5107L73.5461 74.2695L73.0638 73.7873V54.7376H3.85816V97.6596L4.58156 99.3475L6.2695 101.277L7.47518 101.759L10.1277 102H55.461L56.4255 102.965V104.653L55.461 105.617H7.95745L5.78724 105.135L3.37589 103.688L1.44681 101.518L0.48227 99.5887L0 96.9362V9.88653L0.48227 6.02837L1.68794 3.61702L3.85816 1.44681L6.2695 0.241135L7.23404 0ZM7.47518 3.61702L5.5461 4.8227L4.34043 6.26951L3.61702 7.95745V50.8794L3.85816 51.1206H18.3262L72.8227 50.8794L73.0638 50.6383V8.43972L72.3404 6.02837L70.6525 4.34043L69.2057 3.61702H7.47518Z" fill="#12123B"/>
<path d="M89.461 62.6951H92.8369L95.9717 63.6596L98.1419 65.1064L99.3476 66.3121L100.794 68.2412L101.759 70.4114L102 71.3759V75.7163L101.036 78.61L99.1064 81.2624L96.4539 83.1915L94.0426 84.1561L89.9433 84.8795L88.4965 85.844L86.3263 88.2554L84.3972 90.9078L81.5036 94.766L79.0922 97.9008L78.61 98.6242L78.8511 99.8298L80.7802 102L81.9859 104.411L82.227 105.376V108.511L81.5036 110.922L79.8156 113.333L76.6809 116.468L75.4752 116.709L73.5461 115.262L48.9504 90.6667L48.227 89.7022L48.4681 88.0142L50.6383 85.6029L52.3263 84.1561L55.2199 82.7093L56.1844 82.4681H59.0781L61.4894 83.1915L63.6596 84.6383L65.5887 86.3263L66.5532 85.844L69.688 83.4327L74.2695 80.0568L78.1277 77.1632L79.5745 75.4752L80.0568 74.0284L80.7802 69.9291L81.9859 67.5178L84.1561 65.1064L86.3263 63.6596L89.461 62.6951Z" fill="#0971CE"/>
<path d="M60.5248 9.16309H62.9361L63.4184 9.64536L64.1418 13.7446L67.2766 34.2411L67.5177 36.4113L67.0354 37.3759L64.6241 38.0993L22.9078 44.3688L16.3971 45.3333H13.5035L12.7801 42.6808L9.40422 20.9787L9.16309 18.0851L9.40422 17.1205L12.2978 16.3971L39.0638 12.2978L60.5248 9.16309ZM58.8369 13.0212L13.7446 19.773L13.0212 20.0142L13.5035 23.8723L15.4326 36.6525L16.156 41.234L16.3971 41.4752H18.3262L48.4681 36.8936L62.9361 34.7234L63.6596 34L60.5248 13.5035L60.2837 13.0212H58.8369Z" fill="#12123B"/>
<path d="M40.2695 73.3049L41.234 73.5461L42.1985 74.9929L41.9574 76.1985L40.0283 77.8865L36.1702 79.8156L33.7588 80.539L32.0709 80.7801H29.1773L22.4255 79.8156H18.0851L14.7092 81.0212L11.3333 83.1915H9.88648L8.92194 81.9858V80.7801L10.1276 79.5744L12.539 77.8865L15.9148 76.4397L18.0851 75.9574H22.4255L29.4184 76.922H31.8297L34.2411 76.4397L36.6524 75.4751L39.5461 73.5461L40.2695 73.3049Z" fill="#00C189"/>
<path d="M41.7164 82.9504L42.922 83.1916L43.8866 84.6384L43.4043 86.0852L40.7518 88.0143L37.8582 89.4611L35.4469 90.1845L31.3476 90.4256L24.1135 89.4611H19.7731L16.3972 90.6668L13.2625 92.5958L11.5745 92.837L10.61 91.6313V90.4256L11.5745 89.2199L14.227 87.532L16.8795 86.3263L20.0142 85.6029H23.8724L28.6951 86.3263L33.2767 86.5675L35.9291 86.0852L38.3405 85.1207L41.7164 82.9504Z" fill="#00C189"/>
<path d="M38.3404 63.3103L39.5461 63.5514L40.2695 64.2748L40.5106 65.7217L39.3049 67.1685L36.1702 69.0975L33.0354 70.3032L30.1418 70.7855H27.9716L20.7376 69.8209H16.6383L13.5035 70.7855L9.16309 73.438L7.95741 72.9557L7.23401 71.75L7.47514 70.3032L10.6099 68.133L13.5035 66.6862L16.8794 65.9628H20.7376L27.7305 66.9273H30.1418L32.7943 66.4451L36.1702 64.7571L38.3404 63.3103Z" fill="#00C189"/>
<path d="M51.1206 17.844L52.5674 18.0851L54.0142 20.2553L58.5958 29.4185V30.8653L57.3901 31.8298L55.9433 31.5887L54.4965 30.383L51.844 30.8653L50.3972 32.7944H48.9504L47.9858 32.0709L47.7447 30.8653L49.6738 19.5319L50.3972 18.3263L51.1206 17.844Z" fill="#0971CE"/>
<path d="M26.2837 21.7021H27.7305L28.9362 22.9078L28.6951 25.078L27.0071 34.9646L26.2837 36.1702L25.5603 36.6525L24.1135 36.4114L23.149 35.2057L20.7376 30.6241L18.8085 26.766L18.0851 25.078L18.3263 23.3901L19.2908 22.6667H20.4965L21.7022 24.1135L24.1135 28.6951L24.3546 28.2128L25.0781 23.6312L25.8015 21.9433L26.2837 21.7021Z" fill="#0971CE"/>
<path d="M40.2695 19.532H41.9575L43.6454 20.2554L44.3688 20.9788L44.61 22.1845L43.8866 23.3901L43.4043 23.6313H41.9575L40.5107 23.3901L40.2695 24.8369L43.1632 25.0781L44.61 25.8015L46.0568 27.4894L46.2979 27.9717V31.1065L45.3334 32.5533L44.1277 33.5178L42.922 34.0001H40.7518L39.305 33.2767L38.5816 32.3121V30.6242L39.5461 29.9008L42.4398 30.1419L42.6809 28.9362L38.8227 28.2128L37.6171 27.2483L36.6525 25.3192V22.6667L37.8582 20.7377L39.305 19.7731L40.2695 19.532Z" fill="#0971CE"/>
<path d="M32.5531 20.2554L33.7588 20.4965L34.4822 21.461L35.4467 27.2483L36.1701 31.8298V33.7589L35.4467 34.4823L34.9645 34.7235H33.5177L32.7943 34.0001L31.8297 28.9362L30.8652 22.4256L31.1063 20.9788L32.5531 20.2554Z" fill="#0971CE"/>
</svg>
