<svg width="113" height="113" viewBox="0 0 113 113" fill="none" xmlns="http://www.w3.org/2000/svg">
<g clip-path="url(#clip0_17_126)">
<path d="M44.296 10.0444C41.132 12.0031 40.6298 13.5097 40.7805 20.7417L40.9311 27.12H25.4125C14.6649 27.12 9.29112 27.3209 7.83467 27.7226C4.87156 28.6266 1.35601 32.2929 0.602675 35.256C-0.251103 38.5706 -0.251103 92.5093 0.602675 95.824C1.35601 98.7871 4.87156 102.453 7.83467 103.357C9.39156 103.809 21.2942 103.96 56.8013 103.96H103.709L106.27 102.755C109.535 101.248 111.795 98.4857 112.498 95.2213C112.9 93.4635 113 83.4693 112.9 64.0333C112.749 37.2146 112.699 35.3062 111.795 33.6489C110.489 31.188 109.032 29.6813 106.722 28.476C104.814 27.4213 104.01 27.3711 88.3911 27.2204L72.0689 27.0697L72.2196 20.6915C72.32 15.0164 72.2698 14.1124 71.3156 12.656C69.2062 9.29108 68.252 9.03997 56.5 9.03997C46.8573 9.03997 45.8027 9.14041 44.296 10.0444ZM67.1973 14.1626C68.0009 14.9662 68.0009 25.2617 67.2476 26.7684C66.896 27.3711 64.636 30.4346 62.1751 33.4982C57.9565 38.8217 56.8013 39.7257 55.4956 38.7715C54.692 38.2191 46.4556 28.024 45.8027 26.7684C44.9991 25.2617 44.9991 14.9662 45.8027 14.1626C46.6565 13.3089 66.3436 13.3089 67.1973 14.1626ZM47.2089 35.9591C52.3818 42.6889 53.2858 43.4422 56.5 43.4422C59.664 43.4422 59.9151 43.2413 65.3893 36.5115L69.3569 31.64H86.1813C104.914 31.64 105.517 31.7404 107.476 34.9044C108.43 36.4613 108.48 37.3151 108.48 65.2889C108.48 97.1297 108.53 96.3764 105.216 98.4355C103.608 99.44 102.855 99.44 56.7511 99.44C4.87156 99.44 7.63379 99.5906 5.52445 96.1755C4.57023 94.6186 4.52001 93.7649 4.52001 65.54C4.52001 37.3653 4.57023 36.4613 5.52445 34.9044C7.48312 31.7404 7.93512 31.64 26.8689 31.6902H43.9445L47.2089 35.9591Z" fill="#12123B"/>
<path d="M51.5782 18.9839C50.4733 20.1893 50.5235 20.7417 51.6284 21.7462C53.0347 23.0017 60.2667 22.9515 61.4218 21.6959C62.5267 20.4906 62.4764 19.9382 61.3715 18.9337C59.9653 17.6782 52.7333 17.7284 51.5782 18.9839Z" fill="#12123B"/>
<path d="M28.5765 41.4333C25.5631 42.3876 21.9974 45.6018 20.5409 48.6151C18.8334 52.0804 18.9338 56.5 20.8422 60.7187C21.7462 62.6773 22.0978 64.0333 21.7965 64.1338C19.7374 64.8369 15.6191 67.9004 14.464 69.608C12.9574 71.9182 10.5467 79.552 10.5467 82.1636C10.5467 83.2182 10.9485 84.2729 11.5511 84.8756C12.5054 85.8298 13.2085 85.88 32.8454 85.88C52.884 85.88 53.1351 85.88 54.4911 84.7751C55.7467 83.8209 55.8471 83.4693 55.596 81.4102C55.3951 80.1547 54.692 77.1916 53.9889 74.8813C52.432 69.9093 49.6196 66.5444 45.7525 64.8369L43.3418 63.8324L44.5471 61.3213C46.0538 58.308 46.556 53.5871 45.7525 50.624C43.7436 43.4924 35.6578 39.1733 28.5765 41.4333ZM36.0094 45.7524C37.9178 46.4556 40.1778 48.6151 40.9814 50.5738C43.8942 57.404 37.516 66.9964 31.188 65.2889C27.1702 64.2342 23.1525 57.6551 23.7551 53.1351C24.5085 47.5604 30.7862 43.7436 36.0094 45.7524ZM28.1245 68.8044C30.736 70.1604 34.5027 70.1102 37.7169 68.7542C39.8765 67.8 40.4791 67.7498 42.0863 68.2018C46.5058 69.5578 48.5649 71.8178 50.0214 76.84C50.4231 78.3467 50.8751 80.004 51.0258 80.456C51.2769 81.3098 50.172 81.36 33.1969 81.36C23.2027 81.36 15.0667 81.2093 15.0667 81.0587C15.0667 79.8533 16.8245 74.2787 17.6782 72.8222C18.8836 70.7631 19.9885 69.8591 22.8009 68.704C25.4627 67.5991 25.764 67.5991 28.1245 68.8044Z" fill="#0971CE"/>
<path d="M59.5636 55.0436C59.1116 55.4453 58.76 56.1485 58.76 56.5C58.76 56.8516 59.1116 57.5547 59.5636 57.9565C60.2165 58.6596 62.7276 58.76 79.1 58.76C95.4725 58.76 97.9836 58.6596 98.6365 57.9565C99.0885 57.5547 99.44 56.8516 99.44 56.5C99.44 56.1485 99.0885 55.4453 98.6365 55.0436C97.9836 54.3405 95.4725 54.24 79.1 54.24C62.7276 54.24 60.2165 54.3405 59.5636 55.0436Z" fill="#00C189"/>
<path d="M59.5636 64.0835C59.1116 64.4853 58.76 65.1884 58.76 65.5399C58.76 65.8915 59.1116 66.5946 59.5636 66.9964C60.2165 67.6493 61.7733 67.7999 68.5031 67.7999C77.0409 67.7999 77.8445 67.599 77.8445 65.5399C77.8445 63.4808 77.0409 63.2799 68.5031 63.2799C61.7733 63.2799 60.2165 63.4306 59.5636 64.0835Z" fill="#00C189"/>
</g>
<defs>
<clipPath id="clip0_17_126">
<rect width="113" height="113" fill="white"/>
</clipPath>
</defs>
</svg>
