<svg width="120" height="100" viewBox="0 0 120 100" fill="none" xmlns="http://www.w3.org/2000/svg">
<path d="M27.8672 18.444C24.919 19.0249 22.4356 21.2904 21.5207 24.2386C21.1286 25.4875 21.0995 27.6224 21.4481 28.7552C22.2178 31.2967 24.0622 33.3299 26.4585 34.3029C30.8008 36.0602 35.9419 33.5477 37.3942 28.9585C37.8153 27.6514 37.8153 25.473 37.3942 24.166C36.4647 21.2323 33.9523 18.9958 30.946 18.4294C29.5954 18.168 29.2178 18.168 27.8672 18.444ZM30.8879 20.7531C32.0933 21.0581 32.8195 21.4792 33.6763 22.3361C35.9709 24.6307 36.0581 28.2033 33.8651 30.6286C31.0041 33.7946 25.7759 32.9378 24.0041 29.0311C22.4647 25.6328 24.3962 21.639 28.0124 20.7386C29.0145 20.4917 29.9004 20.4917 30.8879 20.7531Z" fill="#0971CE"/>
<path d="M51.1475 21.8745H51.0326L50.9577 21.7871L50.6094 21.3807C50.36 21.0911 50.2108 20.7769 50.2132 20.4481C50.2156 20.1165 50.3717 19.8176 50.6362 19.5602L50.9817 19.2003L51.0555 19.1234H51.1621H77.7244H104.287H104.372L104.44 19.1761L104.832 19.481L104.834 19.4826C105.148 19.7315 105.307 20.1169 105.324 20.4911C105.342 20.8653 105.218 21.2632 104.919 21.5338L104.919 21.5339C104.773 21.6666 104.591 21.7189 104.086 21.7573C103.566 21.7969 102.635 21.8227 100.911 21.8399C97.4586 21.8745 90.7955 21.8745 77.8012 21.8745H77.797H51.1475Z" fill="#00C189" stroke="#00C189" stroke-width="0.5"/>
<path d="M51.1621 30.6608H51.0555L50.9817 30.5839L50.6349 30.2226C50.3868 29.9739 50.2333 29.6863 50.2189 29.3673C50.2045 29.0493 50.3304 28.7417 50.5587 28.4557L50.8477 28.0799L50.9228 27.9824H51.0459H73.629H73.6345C84.8195 27.9824 90.4625 27.9824 93.3451 28.0187C94.7835 28.0368 95.5448 28.064 95.9657 28.1061C96.1746 28.127 96.3186 28.1532 96.4255 28.1919C96.5493 28.2368 96.6142 28.2955 96.6647 28.346C97.1634 28.8448 97.1286 29.7245 96.6427 30.2463C96.6423 30.2466 96.642 30.247 96.6417 30.2474L96.3385 30.5794L96.2642 30.6608H96.1539H73.658H51.1621Z" fill="#00C189" stroke="#00C189" stroke-width="0.5"/>
<path d="M50.2004 36.9315V36.825L50.2773 36.7512L50.6367 36.4062L50.9817 36.0468L51.0555 35.9699H51.1621H78.3779H78.3843C91.8708 35.9699 98.6714 35.9699 102.14 36.0062C103.872 36.0244 104.782 36.0516 105.279 36.0933C105.526 36.114 105.689 36.1395 105.806 36.1758C105.94 36.2177 106.01 36.2733 106.067 36.3254L106.067 36.3252L106.076 36.3336C106.179 36.4376 106.28 36.5883 106.36 36.7389C106.439 36.8897 106.509 37.064 106.537 37.2221L106.537 37.2245C106.546 37.276 106.552 37.3741 106.556 37.4915C106.561 37.6168 106.566 37.7841 106.57 37.9879C106.579 38.3957 106.585 38.9534 106.59 39.6202C106.599 40.954 106.599 42.727 106.584 44.6161L106.541 51.4996L106.54 51.6136L106.454 51.6878L106.047 52.0363L105.64 52.3849L105.57 52.4451H105.478H78.3198H51.1621H51.0555L50.9817 52.3682L50.6367 52.0088L50.2773 51.6638L50.2004 51.59V51.4834V44.2075V36.9315ZM78.407 49.6214H103.79V44.2075V38.7936H78.407H53.0241V44.2075V49.6214H78.407Z" fill="#00C189" stroke="#00C189" stroke-width="0.5"/>
<path d="M27.8674 37.7593C26.357 37.9046 23.9607 38.5726 22.6391 39.2407C19.8507 40.6349 17.3819 43.1183 15.9586 45.9502C15.0291 47.7801 14.4773 50.0602 14.5644 51.6432C14.5789 51.7884 14.7096 52.0353 14.8694 52.1951C15.1599 52.4855 15.3487 52.4855 29.1744 52.4855C43.0002 52.4855 43.189 52.4855 43.4794 52.1951C44.3653 51.3092 43.2326 47.0685 41.3736 44.2801C39.2097 41.027 35.884 38.805 31.9338 37.9772C31.106 37.8029 28.7387 37.6867 27.8674 37.7593ZM32.3985 40.4316C32.9794 40.5913 33.7927 40.8818 34.2284 41.0706C36.3051 41.9855 38.6724 44.1058 39.8487 46.081C40.4442 47.0685 41.2284 49.1017 41.3301 49.8714L41.3736 50.2345L29.1454 50.2781C21.4483 50.2926 16.9026 50.2635 16.9026 50.1764C16.9026 49.8569 17.6868 47.5768 18.0209 46.8942C18.7906 45.3548 20.4171 43.4523 21.8404 42.3921C23.2491 41.3465 25.4566 40.417 27.1848 40.1411C28.4628 39.9378 31.1931 40.083 32.3985 40.4316Z" fill="#0971CE"/>
<path d="M15.6101 61.885H15.487L15.4119 61.7874L15.1229 61.4116C15.0198 61.2823 14.9331 61.1282 14.8715 60.9825C14.812 60.8418 14.7646 60.6821 14.7646 60.5458C14.7646 60.4094 14.812 60.2498 14.8715 60.109C14.9331 59.9633 15.0198 59.8092 15.1229 59.6799L15.4119 59.3041L15.487 59.2065H15.6101H51.104H86.5979H86.721L86.796 59.3041L87.0835 59.678C87.084 59.6786 87.0845 59.6792 87.085 59.6799C87.1881 59.8091 87.2749 59.9633 87.3364 60.109C87.3959 60.2498 87.4433 60.4094 87.4433 60.5458C87.4433 60.6821 87.3959 60.8418 87.3364 60.9825C87.2749 61.1282 87.1881 61.2824 87.085 61.4117C87.0845 61.4123 87.084 61.4129 87.0835 61.4136L86.796 61.7874L86.721 61.885H86.5979H51.104H15.6101Z" fill="black" stroke="black" stroke-width="0.5"/>
<path d="M91.6994 59.288L91.7738 59.2065H91.884H98.5355C101.662 59.2065 103.332 59.2101 104.258 59.2467C105.163 59.2824 105.429 59.3471 105.662 59.5364C105.814 59.6539 105.927 59.7932 105.998 59.9695C106.067 60.1417 106.091 60.3335 106.091 60.5458C106.091 60.758 106.067 60.9499 105.998 61.1221C105.927 61.2983 105.814 61.4376 105.662 61.5552C105.429 61.7444 105.163 61.8092 104.258 61.8448C103.332 61.8814 101.662 61.885 98.5355 61.885H98.5193C95.2951 61.885 93.629 61.885 92.7325 61.8485C92.287 61.8303 92.0106 61.8027 91.8221 61.7547C91.7237 61.7297 91.6432 61.6977 91.5718 61.6551C91.5015 61.6132 91.4497 61.5665 91.4076 61.5265C90.875 61.0294 90.8925 60.1598 91.3954 59.6209L91.6994 59.288Z" fill="black" stroke="black" stroke-width="0.5"/>
<path d="M15.7261 70.3083H15.6195L15.5457 70.2314L15.1999 69.8712C14.8592 69.5373 14.7137 69.1105 14.7804 68.6969C14.847 68.2832 15.1204 67.9159 15.551 67.688L15.551 67.688C15.5905 67.6671 15.6292 67.6599 15.6384 67.6582C15.6389 67.6581 15.6393 67.658 15.6396 67.658C15.6579 67.6545 15.6774 67.6519 15.6957 67.6498C15.7331 67.6456 15.7814 67.6419 15.8388 67.6384C15.9545 67.6315 16.1197 67.6249 16.3345 67.6188C16.7648 67.6064 17.4027 67.595 18.2607 67.5847C19.9771 67.5641 22.5789 67.5473 26.1725 67.5336C33.36 67.5064 44.5176 67.4919 60.5 67.4846H60.5001H105.042H105.134L105.204 67.5443L105.596 67.8783L105.596 67.8783L105.6 67.8821C105.915 68.1628 106.087 68.5221 106.087 68.8965C106.087 69.2708 105.915 69.6301 105.6 69.9108L105.6 69.9109L105.596 69.9146L105.204 70.2486L105.134 70.3083H105.042H60.3839H15.7261Z" fill="black" stroke="black" stroke-width="0.5"/>
<path d="M15.857 79.4577H15.7534L15.6802 79.3844L15.2591 78.9633C14.9704 78.6746 14.7932 78.353 14.7812 78.0092C14.769 77.6622 14.9268 77.3452 15.1991 77.0722L15.5459 76.7109L15.6197 76.634H15.7263H47.1683C56.5067 76.634 64.4003 76.6485 69.9866 76.6721C72.7797 76.6839 74.9964 76.698 76.5286 76.7137C77.2946 76.7215 77.8902 76.7297 78.3015 76.7383C78.507 76.7426 78.6677 76.747 78.7811 76.7515C78.8375 76.7537 78.8841 76.7561 78.9193 76.7586C78.9367 76.7598 78.9536 76.7613 78.9686 76.763L78.9697 76.7632C78.9786 76.7642 79.0081 76.7676 79.0379 76.7775L79.038 76.7773L79.0486 76.7814C79.1967 76.8384 79.3375 76.959 79.4474 77.0832C79.5597 77.21 79.6632 77.367 79.7269 77.5283C79.8149 77.7268 79.8749 77.9003 79.8695 78.0805C79.864 78.2656 79.7905 78.4229 79.7012 78.5867L79.7012 78.5867L79.6987 78.591C79.6249 78.7203 79.5129 78.8514 79.3993 78.961C79.2858 79.0705 79.1549 79.1738 79.0338 79.239L79.0339 79.2391L79.0271 79.2425C78.9861 79.263 78.9426 79.2725 78.9179 79.2774C78.887 79.2835 78.8514 79.2887 78.8127 79.2932C78.735 79.3024 78.6312 79.3106 78.5005 79.3183C78.2383 79.3336 77.8549 79.3473 77.3291 79.3596C76.2766 79.3841 74.6436 79.4032 72.2472 79.4177C67.4538 79.4468 59.5998 79.4577 47.2119 79.4577H15.857Z" fill="black" stroke="black" stroke-width="0.5"/>
<path d="M15.3026 85.7997L15.3025 85.7996L15.3087 85.7946C15.4418 85.6881 15.6158 85.6392 15.9455 85.6046C16.2819 85.5693 16.8307 85.5456 17.7605 85.5293C19.624 85.4966 23.0543 85.493 29.4649 85.493C35.8754 85.493 39.3057 85.4966 41.1693 85.5293C42.099 85.5456 42.6479 85.5693 42.9843 85.6046C43.3139 85.6392 43.488 85.6881 43.6211 85.7946L43.6212 85.7945L43.6272 85.7997C44.2302 86.314 44.2775 87.1243 43.7736 87.7324L43.7737 87.7324L43.7705 87.7361L43.4074 88.1573L43.3326 88.244H43.218H29.4649H15.7117H15.5972L15.5224 88.1573L15.1593 87.7361L15.1593 87.7361L15.1562 87.7324C14.6523 87.1243 14.6995 86.314 15.3026 85.7997Z" fill="black" stroke="black" stroke-width="0.5"/>
<rect x="1.5" y="6.5" width="116" height="92" rx="4.5" stroke="black" stroke-width="3"/>
</svg>
