<svg width="173" height="173" viewBox="0 0 173 173" fill="none" xmlns="http://www.w3.org/2000/svg">
<path d="M39.1906 55.6691L39.1921 55.6666C40.4404 53.6194 42.6743 52.2455 45.8414 51.6116C47.1423 51.3214 59.569 47.7711 73.4552 43.735C80.3996 41.6925 86.8034 39.8423 91.5315 38.4965C93.8955 37.8237 95.841 37.2768 97.2258 36.8951C97.9181 36.7043 98.4709 36.5546 98.8662 36.4509C99.0637 36.3991 99.2228 36.3586 99.3408 36.3301C99.4502 36.3037 99.5433 36.2828 99.5943 36.2777L99.5943 36.2775L99.6031 36.277C100.431 36.2235 101.402 36.6326 102.216 37.2186C103.033 37.8065 103.748 38.6127 104.036 39.4223L104.036 39.4222L104.04 39.4353C104.288 40.2786 104.531 41.9848 104.531 43.2542V45.3589H117.784H131.288H131.391L131.465 45.4322L133.098 47.0661L134.732 48.6999L134.806 48.7732V48.8767V82.9962V117.116V117.207L134.747 117.276L133.499 118.764C133.499 118.765 133.499 118.765 133.498 118.765C133.141 119.199 132.615 119.635 132.062 119.998C131.508 120.361 130.909 120.662 130.399 120.815L130.399 120.815L130.387 120.818C130.125 120.884 129.628 120.945 128.974 121.001C128.313 121.058 127.475 121.111 126.518 121.156C124.604 121.246 122.209 121.306 119.803 121.306H111.258V124.708C111.258 127.311 111.078 129.227 110.611 130.747C110.14 132.277 109.381 133.396 108.244 134.41C107.725 134.879 107.074 135.345 106.443 135.713C105.817 136.077 105.185 136.361 104.706 136.44C104.577 136.462 104.241 136.479 103.746 136.495C103.242 136.511 102.551 136.527 101.697 136.541C99.9884 136.568 97.6206 136.591 94.7669 136.606C89.0592 136.636 81.4055 136.636 73.1871 136.588L72.9891 136.587C58.3941 136.515 50.9651 136.479 47.0193 136.335C45.0406 136.263 43.9204 136.164 43.2071 136.015C42.8469 135.94 42.5839 135.851 42.363 135.742C42.1429 135.635 41.9736 135.513 41.8036 135.385C41.0553 134.836 39.9328 133.614 39.3432 132.73L38.2393 131.147L38.1944 131.082V131.004V94.1931C38.1944 76.2464 38.2064 67.0274 38.3327 62.1036C38.3958 59.6441 38.4875 58.2436 38.6231 57.3589C38.7611 56.4582 38.9469 56.0795 39.1906 55.6691ZM56.3016 51.5581L68.8636 51.5581L68.8645 51.5581C75.9109 51.5822 79.4669 51.594 81.2642 51.4805C81.7122 51.4522 82.0436 51.4166 82.2889 51.3729C82.5373 51.3286 82.6804 51.279 82.7631 51.2323C82.8358 51.1912 82.8545 51.1572 82.8649 51.1283C82.8811 51.0828 82.8861 51.0197 82.8861 50.8951C82.8861 50.0166 83.2448 49.0215 83.7895 48.155C84.3346 47.2878 85.0863 46.5168 85.9076 46.1062C86.4804 45.8198 87.3006 45.6368 88.6473 45.522C89.9982 45.4069 91.9055 45.3589 94.6694 45.3589H101.628V42.8217C101.628 42.0644 101.569 41.3216 101.469 40.7308C101.419 40.4349 101.36 40.1825 101.296 39.9877C101.228 39.7831 101.165 39.675 101.124 39.6346C100.935 39.4456 100.716 39.3175 100.336 39.2696C99.9397 39.2198 99.3698 39.2573 98.4875 39.4213C96.7249 39.7488 93.8076 40.5613 88.7335 42.0523C83.662 43.5737 74.3911 46.2887 67.7063 48.2463L66.8675 48.4919L66.8669 48.4921L56.3016 51.5581ZM131.527 49.0831L131.524 49.0799L130.686 48.0206L109.421 47.8773L88.1346 47.7338L87.0065 48.7716C87.0064 48.7717 87.0063 48.7718 87.0061 48.7719C86.6847 49.0705 86.3595 49.4532 86.0914 49.8321C85.8234 50.2107 85.6245 50.5685 85.5383 50.8224L85.3339 51.6062H94.3331C97.1706 51.6062 99.6617 51.6543 101.571 51.7446C102.526 51.7898 103.337 51.8456 103.975 51.9116C104.606 51.9768 105.087 52.0538 105.369 52.1476C107.449 52.841 109.527 54.7147 110.279 56.6159C110.279 56.6166 110.279 56.6173 110.28 56.618L110.792 57.8553L118.892 57.9495L118.894 57.9495C122.801 58.0215 124.875 58.0694 125.969 58.216C126.506 58.288 126.867 58.3894 127.087 58.577C127.336 58.7894 127.357 59.0671 127.357 59.3048C127.357 59.5421 127.336 59.8186 127.092 60.0311C126.875 60.2196 126.519 60.3214 125.994 60.3934C124.924 60.5402 122.897 60.5881 119.086 60.66L119.085 60.66L111.258 60.7532V64.1103V67.4675L119.085 67.5606L119.086 67.5607C122.897 67.6326 124.924 67.6805 125.994 67.8272C126.519 67.8993 126.875 68.001 127.092 68.1896C127.336 68.4021 127.357 68.6786 127.357 68.9159C127.357 69.1532 127.336 69.4297 127.092 69.6422C126.875 69.8307 126.519 69.9325 125.994 70.0045C124.924 70.1513 122.897 70.1992 119.086 70.2711L119.085 70.2711L111.258 70.3643V73.7214V77.0786L119.037 77.1717L119.039 77.1718C122.661 77.2437 124.694 77.3038 125.839 77.4377C126.406 77.5041 126.79 77.5918 127.045 77.7285C127.178 77.7998 127.282 77.8876 127.359 77.9972C127.435 78.1059 127.474 78.2218 127.496 78.3338L127.496 78.3338L127.497 78.3394C127.517 78.4523 127.53 78.5816 127.501 78.7098C127.469 78.8486 127.394 78.9674 127.271 79.0613C127.156 79.1493 127.006 79.2106 126.828 79.2573C126.649 79.3045 126.425 79.3411 126.148 79.3703C125.05 79.4862 122.99 79.4978 119.226 79.4978H111.258V83.0923V86.6897L119.037 86.7828L119.039 86.7829C122.661 86.8549 124.694 86.9149 125.839 87.0488C126.406 87.1152 126.79 87.2029 127.045 87.3396C127.178 87.4109 127.282 87.4987 127.359 87.6083C127.435 87.717 127.474 87.8329 127.496 87.9449L127.496 87.9449L127.497 87.9505C127.517 88.0634 127.53 88.1927 127.501 88.3209C127.469 88.4597 127.394 88.5785 127.271 88.6724C127.156 88.7605 127.006 88.8217 126.828 88.8684C126.649 88.9157 126.425 88.9522 126.148 88.9814C125.05 89.0973 122.99 89.1089 119.226 89.1089H111.258V92.7034V96.2978H119.226C122.991 96.2978 125.05 96.3095 126.147 96.4192C126.423 96.4468 126.646 96.4814 126.825 96.5258C127.001 96.5697 127.15 96.6271 127.265 96.71C127.388 96.7985 127.467 96.913 127.5 97.0504C127.531 97.1768 127.517 97.3033 127.497 97.4109C127.475 97.5273 127.437 97.6474 127.363 97.7604C127.288 97.8747 127.184 97.9678 127.05 98.044C126.794 98.1897 126.408 98.2823 125.84 98.3518C124.695 98.4919 122.661 98.5519 119.039 98.6239L119.037 98.6239L111.258 98.7171V102.074V105.431L119.085 105.525L119.086 105.525C122.897 105.596 124.924 105.644 125.994 105.791C126.519 105.863 126.875 105.965 127.092 106.154C127.336 106.366 127.357 106.642 127.357 106.88C127.357 107.117 127.336 107.394 127.092 107.606C126.875 107.795 126.519 107.896 125.994 107.968C124.924 108.115 122.897 108.163 119.086 108.235L119.085 108.235L111.258 108.328V113.367V118.403H120.619C125.435 118.403 127.83 118.403 129.17 118.255C129.835 118.181 130.214 118.073 130.49 117.926C130.766 117.778 130.96 117.583 131.252 117.279L131.251 117.279L131.259 117.272L132.383 116.192V83.1884C132.383 67.2318 132.371 58.9348 132.251 54.494C132.191 52.2707 132.104 51.0279 131.981 50.2778C131.92 49.9046 131.851 49.6635 131.778 49.4891C131.706 49.3187 131.625 49.2033 131.527 49.0831ZM105.608 55.2019L105.607 55.2016C105.352 55.0693 104.899 54.949 103.924 54.8524C102.956 54.7565 101.505 54.6861 99.2771 54.635C94.8234 54.533 87.294 54.5089 74.39 54.5089C60.0913 54.5089 52.5995 54.521 48.5014 54.641C44.3959 54.7612 43.7488 54.9918 43.0939 55.3842C42.7137 55.631 42.3011 56.0189 41.9409 56.4546C41.5807 56.8904 41.2861 57.358 41.1301 57.7569C41.0941 57.8636 41.0519 58.1202 41.0112 58.5678C40.9709 59.0099 40.934 59.6127 40.9003 60.3871C40.8328 61.9354 40.7788 64.1596 40.7368 67.1354C40.6527 73.0863 40.6167 82.0351 40.6167 94.5776C40.6167 111.832 40.6287 120.681 40.7547 125.411C40.8178 127.777 40.9093 129.099 41.0393 129.922C41.1667 130.728 41.3288 131.044 41.5419 131.403C41.7915 131.811 42.159 132.237 42.5473 132.591C42.9399 132.948 43.3316 133.211 43.6224 133.315L43.6225 133.315L43.6309 133.318C43.6309 133.318 43.6349 133.32 43.6445 133.322C43.6548 133.325 43.669 133.328 43.6877 133.332C43.7252 133.339 43.7752 133.347 43.8388 133.356C43.966 133.372 44.138 133.388 44.3554 133.405C44.7896 133.437 45.3939 133.468 46.1594 133.498C47.6899 133.556 49.8562 133.607 52.5766 133.649C58.0171 133.733 65.6686 133.781 74.8706 133.781C76.3739 133.781 77.8054 133.781 79.1686 133.782C92.826 133.785 99.6294 133.786 103.178 133.476C105.136 133.305 106.047 133.041 106.569 132.671C106.988 132.375 107.172 132.008 107.447 131.458C107.512 131.327 107.583 131.186 107.663 131.032C107.793 130.782 107.915 130.283 108.012 129.149C108.108 128.028 108.178 126.322 108.229 123.688C108.332 118.423 108.356 109.476 108.356 94.1451C108.356 92.9291 108.356 91.7524 108.356 90.6137C108.357 73.4519 108.358 64.9173 108.032 60.5066C107.857 58.1456 107.591 57.0165 107.215 56.3815C106.901 55.8522 106.511 55.6565 105.914 55.357C105.817 55.3086 105.715 55.2575 105.608 55.2019Z" fill="black" stroke="black" stroke-width="0.5"/>
<path d="M70.6417 61.8037C65.2114 62.7168 59.2044 66.0326 55.6003 70.1654C47.9594 78.8154 47.1425 91.3579 53.5339 101.065C61.2228 112.55 77.3694 115.674 88.7586 107.793C94.2369 103.996 97.8411 98.5181 99.2828 91.7423C101.637 80.6895 95.8228 69.1081 85.3947 64.1584C80.5892 61.8518 75.303 61.0348 70.6417 61.8037ZM73.525 68.8679V73.8176L69.5844 74.1059C67.4219 74.2981 65.5958 74.3462 65.4997 74.2501C65.2114 73.9618 66.8453 70.4056 68.335 68.099C69.5844 66.1287 72.1314 63.9181 73.1886 63.8701C73.3808 63.8701 73.525 66.1287 73.525 68.8679ZM77.6097 64.8312C78.4747 65.3598 79.7242 66.6093 80.3969 67.5704C81.8386 69.6368 83.8089 73.9137 83.4725 74.2501C83.3764 74.3943 81.5503 74.2981 79.4839 74.1059L75.6875 73.7215L75.5433 68.7718C75.4953 66.0806 75.5433 63.8701 75.7355 63.8701C75.9278 63.8701 76.7447 64.3026 77.6097 64.8312ZM66.0283 67.5704C65.1153 69.1081 64.01 71.4629 63.5775 72.8084C62.8567 75.1631 62.7125 75.3073 60.3578 76.0281C59.0122 76.4606 56.6575 77.5659 55.1197 78.479C53.63 79.392 52.3805 80.0168 52.3805 79.8726C52.3805 78.5751 55.9367 72.8565 58.1953 70.6459C60.4058 68.3873 65.9803 64.8793 67.3739 64.8312C67.518 64.8312 66.9414 66.0806 66.0283 67.5704ZM85.7792 66.7054C90.0561 68.964 95.0058 74.7787 96.3033 79.1037C96.6397 80.1129 96.4475 80.0648 93.8525 78.479C92.3628 77.5659 89.96 76.4606 88.5664 76.0281C86.9325 75.4995 86.0194 74.9709 86.0194 74.4904C86.0194 73.5293 83.4244 68.0509 82.0789 66.1768L81.0697 64.7351L82.223 65.0715C82.8478 65.2637 84.4336 65.9845 85.7792 66.7054ZM73.525 80.9298V85.9756H68.7675C66.1244 85.9756 63.8658 85.7834 63.7217 85.5431C63.3853 84.9665 64.3464 77.7101 64.8269 77.1815C65.1633 76.8451 69.7767 76.0281 72.2275 75.932L73.525 75.884V80.9298ZM82.9919 76.797C84.4817 77.1815 84.77 77.9504 85.2505 82.7559L85.635 86.0237L80.6372 85.8795L75.6875 85.7354L75.5433 80.7376L75.3992 75.7879L78.5228 76.1243C80.2528 76.2684 82.223 76.6048 82.9919 76.797ZM61.7994 80.0168C61.6553 81.2662 61.5111 83.0923 61.5111 84.1015V85.9756H56.4653C53.678 85.9756 51.4194 85.8315 51.4194 85.6873C51.4194 84.8704 53.4378 82.2273 54.7833 81.2662C56.3211 80.1129 60.9344 77.8062 61.7033 77.8062C61.9436 77.8062 61.9917 78.8154 61.7994 80.0168ZM91.0653 79.344C93.9486 80.7856 96.015 82.4676 96.8319 84.0534C97.2164 84.8223 97.5528 85.5431 97.5528 85.7354C97.5528 85.8795 95.3903 85.9756 92.7472 85.9756C89.2872 85.9756 87.8455 85.7834 87.7494 85.3509C87.6053 85.0626 87.413 83.1884 87.2689 81.2662C86.9805 77.7581 86.9805 77.7581 88.0378 78.0945C88.6625 78.2387 90.008 78.8634 91.0653 79.344ZM61.5111 89.772C61.5111 90.7812 61.6553 92.6073 61.7994 93.8568L62.1358 96.0673L60.0214 95.3465C57.1861 94.3373 53.7261 91.9345 52.4767 90.1084C51.9 89.2434 51.4194 88.4265 51.4194 88.2343C51.4194 88.042 53.678 87.8979 56.4653 87.8979H61.5111V89.772ZM73.525 92.9918V98.0856L71.7469 97.7973C70.7378 97.6531 68.7675 97.4129 67.4219 97.2206C66.0283 97.0765 64.7789 96.7881 64.6828 96.5959C64.2983 95.9712 63.4333 88.7629 63.7217 88.3304C63.8658 88.0901 66.1244 87.8979 68.7675 87.8979H73.525V92.9918ZM85.2505 91.1176C84.7219 96.2115 84.4817 96.7401 82.6555 97.0765C81.7425 97.2687 79.8203 97.509 78.3305 97.6051L75.6875 97.7493L75.5433 93.4723C75.4472 91.1176 75.4953 88.907 75.6394 88.5226C75.8317 88.042 77.1772 87.8979 80.7333 87.8979H85.635L85.2505 91.1176ZM97.5528 88.1862C97.5528 89.2434 95.2461 91.8865 93.3239 93.0879C91.4017 94.3373 87.7975 96.0673 87.1728 96.0673C86.9325 96.0673 87.4611 89.3876 87.7494 88.4745C87.8455 88.0901 89.2872 87.8979 92.7472 87.8979C95.3903 87.8979 97.5528 88.042 97.5528 88.1862ZM60.3578 97.8454C62.7125 98.5662 62.8567 98.7104 63.5775 101.065C64.01 102.411 65.1153 104.765 66.0283 106.303C66.9414 107.793 67.5661 109.042 67.47 109.042C66.7011 109.042 61.7994 106.399 60.1175 105.054C57.7147 103.131 54.495 98.9506 53.2936 96.1634C52.765 95.0101 52.3805 94.0009 52.3805 93.9048C52.3805 93.8087 53.63 94.4815 55.1197 95.3945C56.6575 96.3076 59.0122 97.4129 60.3578 97.8454ZM95.15 97.3168C92.6992 102.266 87.0286 107.36 82.3192 108.754C81.31 109.09 81.358 108.898 82.9439 106.303C83.8569 104.813 84.9622 102.411 85.3947 101.065C86.1155 98.7104 86.2597 98.5662 88.6144 97.8454C89.96 97.4129 92.2667 96.3076 93.7083 95.4426C95.15 94.5776 96.4475 93.9048 96.5436 94.0009C96.6397 94.049 96.015 95.5868 95.15 97.3168ZM71.6508 99.9118H73.525V104.958C73.525 107.745 73.3808 110.003 73.1886 110.003C72.9964 110.003 72.1794 109.523 71.3144 108.946C69.4883 107.697 67.0855 104.237 66.0764 101.401L65.3555 99.287L67.5661 99.6234C68.8155 99.7676 70.6417 99.9118 71.6508 99.9118ZM83.3764 100.488C82.5114 103.276 79.9164 107.36 78.1383 108.658C77.1292 109.379 76.0719 110.003 75.8317 110.003C75.5914 110.003 75.4953 107.793 75.5433 105.054L75.6875 100.152L78.3305 99.8637C83.6647 99.287 83.7128 99.3351 83.3764 100.488Z" fill="#0971CE"/>
<path d="M56.3211 118.793C55.9367 119.178 55.8886 119.514 56.2731 119.995C56.7056 120.475 60.4058 120.619 74.4381 120.619C92.2667 120.619 93.5161 120.523 92.8914 118.889C92.555 117.976 57.2342 117.88 56.3211 118.793Z" fill="#00C189"/>
<path d="M63.0008 125.857C62.6164 126.098 62.4722 126.626 62.6164 127.059C62.9047 127.732 64.3464 127.828 74.4861 127.828C84.6258 127.828 86.0675 127.732 86.3558 127.059C86.5 126.626 86.3558 126.098 85.9714 125.857C85.1064 125.329 63.8658 125.329 63.0008 125.857Z" fill="#00C189"/>
</svg>
