<svg width="121" height="96" viewBox="0 0 121 96" fill="none" xmlns="http://www.w3.org/2000/svg">
<path d="M59.148 0.640446C58.2746 1.10622 58.1 2.096 58.1 6.87022C58.1 9.956 58.3329 12.8671 58.624 13.2747C58.9151 13.7404 59.8466 13.9733 60.7782 13.8569C62.4666 13.6822 62.4666 13.624 62.6413 9.432L62.816 5.24H89.3071H115.74L115.624 23.1142L115.449 41.0467L108.462 41.2213L101.476 41.396L97.8075 45.0058L94.0813 48.6156L94.4889 45.8209C95.0129 42.3276 94.256 41.3378 91.0538 41.3378C87.3858 41.3378 85.8138 43.7831 88.3755 45.588C89.4818 46.3449 89.4818 46.636 88.8995 51.4102C88.1426 57.2325 88.3755 58.2222 90.4715 58.2222C91.6942 58.2222 93.2662 56.8831 97.8075 52.1089L103.63 45.9956H111.315C116.497 45.9956 119.233 45.7627 119.699 45.2969C120.223 44.7729 120.398 39.0671 120.398 23.2307C120.398 4.54134 120.281 1.68845 119.466 0.931557C118.651 0.116447 115.158 3.8147e-06 89.3653 3.8147e-06C70.6178 3.8147e-06 59.7884 0.232891 59.148 0.640446Z" fill="#0971CE"/>
<path d="M28.5231 6.11333C22.0604 7.91823 16.2964 12.8671 13.3853 19.0969C11.2311 23.7547 10.8817 31.44 12.6284 36.156C14.3751 40.7556 17.1115 44.5982 20.3137 46.9853L23.0502 49.0813L19.2075 50.9444C12.3955 54.2049 7.0973 59.5613 3.4293 66.7809C0.0524108 73.5347 -1.11203 82.6173 1.21686 84.0729C3.07997 85.2956 4.12797 83.84 4.88486 78.8911C5.29241 76.4458 6.16574 72.8942 6.86441 71.0893C9.25152 64.5684 15.5977 57.9311 22.3515 54.7871C24.8551 53.5644 26.5435 53.1569 33.8795 51.9342C36.4995 51.4684 37.7804 50.0129 36.7906 48.4991C36.3831 47.8587 34.8111 47.2764 32.424 46.8689C25.612 45.7044 20.7795 42.0947 17.9849 36.156C16.7622 33.536 16.4711 32.0222 16.4711 28.5289C16.4711 22.9978 18.3924 18.7476 22.6426 14.9049C29.8622 8.44222 40.284 8.79156 47.8529 15.7782C50.2982 17.9907 50.7057 18.1653 51.9866 17.5831C54.2573 16.5351 53.8498 14.4973 50.764 11.6444C44.9417 6.288 35.9173 4.01733 28.5231 6.11333Z" fill="#12123B"/>
<path d="M56.9355 17.0591C49.5995 18.7476 43.8938 23.2889 40.5169 30.1009C38.712 33.7689 38.5955 34.4093 38.5955 39.8822C38.5955 45.0058 38.7702 46.112 40.1675 49.0813C42.3218 53.6809 43.7773 55.6022 47.0378 58.164L49.7742 60.3182L45.6404 62.4724C40.2258 65.2671 36.092 68.9351 32.7733 73.9422C29.6875 78.6 28.1155 82.5591 27.184 88.3813C26.4271 93.0973 26.7764 95.1933 28.3484 95.6591C30.5026 96.1831 31.376 94.7858 31.9 90.1862C34.9858 62.9964 69.5698 53.7391 85.8138 75.8053C88.8995 79.9973 90.588 84.4222 91.2866 90.1862C91.8689 94.844 92.7422 96.1831 94.78 95.6591C96.352 95.2516 96.7013 93.6213 96.2355 89.4293C95.0711 78.1924 87.8515 67.7707 77.7209 62.5307L73.3542 60.3182L75.5666 58.7462C78.4778 56.6502 81.0978 53.3316 82.9609 49.4889C85.1733 44.9476 85.5226 37.6698 83.776 32.5462C80.108 21.4258 68.1142 14.5556 56.9355 17.0591ZM67.9395 22.6484C73.7035 24.8027 77.6044 29.1111 79.3511 35.2244C81.9711 44.1907 76.44 54.3213 67.3573 57.3489C62.9324 58.8627 56.9355 58.3387 52.9182 56.1844C38.8866 48.5573 40.5751 27.9467 55.6546 22.4156C58.7986 21.2511 64.5626 21.3676 67.9395 22.6484Z" fill="#12123B"/>
<path d="M98.4481 23.9769L98.4787 25.3211C98.8747 24.9461 99.3244 24.5156 99.8378 24.024C100.003 23.8656 100.175 23.7009 100.354 23.5296C101.678 22.2588 102.702 21.246 103.397 20.5233C102.704 19.8032 101.682 18.7924 100.353 17.5165C99.6042 16.7974 98.9835 16.207 98.4673 15.7242V17.0247V19.0247H96.4673H91.5327C90.1899 19.0247 88.9385 19.038 88.0066 19.0579C88.0019 19.438 88 19.9174 88 20.5236C88 21.1299 88.0019 21.6093 88.0066 21.9895C88.9354 22.0092 90.1839 22.0225 91.5327 22.0225H96.4486H98.4035L98.4481 23.9769ZM88.0569 17.8568C88.0575 17.8537 88.0577 17.8521 88.0577 17.852C88.0577 17.852 88.0574 17.8535 88.0569 17.8568ZM88.0577 23.1952C88.0577 23.1951 88.0575 23.1935 88.0569 23.1904C88.0574 23.1937 88.0577 23.1952 88.0577 23.1952Z" stroke="#00C189" stroke-width="4"/>
</svg>
