<svg width="118" height="102" viewBox="0 0 118 102" fill="none" xmlns="http://www.w3.org/2000/svg">
<path d="M51.1436 16.3067C21.855 25.9023 0.4687 33.1774 0.0924013 33.7419C-0.283897 34.369 0.4687 37.6303 2.72649 44.78L5.92503 54.8146V77.3925C5.92503 94.4514 6.11318 100.159 6.74034 100.974C7.43022 101.977 11.3186 102.04 61.7426 101.915L115.992 101.726L116.18 78.2705C116.306 61.5252 116.118 54.5637 115.616 53.9993C115.052 53.3094 112.731 53.1212 106.02 53.0585L97.1774 52.9958L107.212 49.6718C112.731 47.7903 117.498 45.8461 117.874 45.3444C118.501 44.3409 116.996 39.1982 108.655 13.9235C104.829 2.32094 103.888 0.12587 102.822 0.000434875C102.132 -0.0622864 78.8642 7.27554 51.1436 16.3067ZM101.254 5.77035C101.254 5.9585 103.951 14.2998 107.212 24.3971C110.473 34.4317 113.107 42.773 112.982 42.8358C112.919 42.8985 105.77 45.219 97.1147 48.0412L81.3729 53.1212L45.75 52.9958L10.127 52.8077L7.49294 44.5291L4.85885 36.2505L10.566 34.3063C13.7019 33.3029 16.4614 32.4248 16.7123 32.4248C16.9004 32.4248 18.1547 35.6234 19.4718 39.4491C22.0431 47.4768 22.5449 48.2294 24.3637 47.9785C26.4333 47.6649 26.3079 45.5326 23.7992 38.0066C22.4822 34.1809 21.6041 30.9823 21.6668 30.8569C22.1686 30.4179 99.1216 5.51948 100.188 5.51948C100.752 5.45676 101.254 5.58219 101.254 5.77035ZM23.4856 70.9327C23.4856 77.9569 23.6738 84.1659 23.8619 84.7303C24.1128 85.2948 24.9908 85.7338 25.9943 85.7338C26.9977 85.7338 27.8758 85.2948 28.1266 84.7303C28.3148 84.1659 28.5029 77.9569 28.5029 70.9327V58.1386H70.2094H111.916V77.8942V97.6499H61.4291H10.9423V77.8942V58.1386H17.214H23.4856V70.9327Z" fill="#12123B"/>
<path d="M81.1847 18C74.0978 20.3832 60.3629 24.8361 50.6418 28.0346C39.2901 31.6722 32.8931 34.0554 32.6422 34.6825C32.015 36.2505 32.2032 36.7522 33.4575 37.3794C34.3355 37.8811 41.6107 35.7487 65.5056 28.0346C82.5018 22.5156 96.6129 17.8118 96.9265 17.6237C98.4317 16.6829 96.9265 13.5471 95.045 13.6726C94.4806 13.6726 88.2717 15.6168 81.1847 18Z" fill="#0971CE"/>
<path d="M90.2786 24.4598C85.8257 26.0277 84.5714 26.7176 84.446 27.7838C84.3205 28.4737 84.6968 29.4144 85.1986 29.8534C86.0139 30.5433 87.3936 30.2297 93.1008 28.3482C99.8115 26.0904 100.062 25.965 99.8742 24.3344C99.6233 21.9512 97.1774 22.0139 90.2786 24.4598Z" fill="#00C189"/>
<path d="M46.6907 38.5711C35.778 42.2086 35.7153 42.2086 35.7153 44.0274C35.7153 45.2817 36.0916 45.9716 36.7815 46.097C38.4121 46.4106 59.4849 39.4491 60.3002 38.2575C61.2409 37.0031 60.3002 34.9335 58.7323 34.9335C58.1678 34.9962 52.7115 36.6268 46.6907 38.5711Z" fill="#0971CE"/>
<path d="M37.7223 64.8493C36.7188 65.8527 37.346 68.1732 38.7257 68.4868C39.4783 68.675 54.6557 68.7377 72.4044 68.675L104.703 68.4868V66.6053V64.7238L71.401 64.5357C53.0878 64.473 37.9104 64.5984 37.7223 64.8493Z" fill="#0971CE"/>
<path d="M37.5341 74.0685C37.346 74.5703 37.2832 75.511 37.4087 76.1382C37.5968 77.2044 38.6003 77.2671 50.1401 77.4552C61.2409 77.5807 62.7461 77.5179 63.436 76.5772C64.0004 75.8246 64.0004 75.1974 63.5614 74.3821C62.997 73.2532 61.9935 73.1905 50.391 73.1905C40.0428 73.1905 37.785 73.3787 37.5341 74.0685Z" fill="#0971CE"/>
<path d="M88.8988 74.1939C88.7107 74.7583 88.7734 75.6991 89.1497 76.2635C89.6514 77.0788 91.0939 77.267 97.2401 77.267H104.703V75.3855V73.504L96.9893 73.3158C90.2786 73.1904 89.2751 73.3158 88.8988 74.1939Z" fill="#00C189"/>
</svg>
