<svg width="91" height="92" viewBox="0 0 91 92" fill="none" xmlns="http://www.w3.org/2000/svg">
<path d="M19.6185 0.129395C18.082 0.485214 16.3676 1.98938 15.8177 3.47737C15.6559 3.94641 15.5912 5.95197 15.5589 12.6803L15.4942 21.2686L14.8149 21.5435C14.0386 21.8508 6.93826 24.8591 3.2668 26.428C1.92437 27.0103 0.646644 27.6572 0.436385 27.8836L0.0643871 28.288L0.0158657 59.0829C-0.016482 92.9671 -0.097351 90.5572 0.953946 91.0909C1.37447 91.3011 6.40452 91.3335 45.4319 91.3335C84.4593 91.3335 89.4894 91.3011 89.9099 91.0909C90.945 90.5572 90.8803 92.9347 90.8803 59.277C90.8803 28.8056 90.8803 28.66 90.5568 28.1263C90.1687 27.4955 90.6054 27.7057 81.7906 23.9696L75.3535 21.2362V13.2302C75.3373 8.81473 75.3049 4.91684 75.2564 4.56102C75.127 3.60677 74.3022 1.98938 73.6229 1.39095C73.2832 1.116 72.6201 0.679306 72.1187 0.452873L71.2291 0.0323486L45.7554 0C30.5844 0 20.0067 0.0485229 19.6185 0.129395ZM71.1321 4.17284L71.6335 4.67423V22.0934V39.5126L58.5327 49.0228L45.4157 58.5168L41.4208 55.6217C39.2212 54.0367 35.8247 51.5621 33.8676 50.155C31.9106 48.7317 27.8186 45.7557 24.778 43.5561L19.2304 39.545V22.0772V4.60954L19.6994 4.1405L20.1684 3.67146H45.3996H70.6307L71.1321 4.17284ZM15.478 33.9003L15.4295 36.7792L10.6582 33.318C8.03807 31.4257 5.80609 29.776 5.69287 29.6628C5.51496 29.501 6.45304 29.0482 10.448 27.3499L15.4295 25.2311L15.478 28.1263C15.4942 29.7113 15.4942 32.2991 15.478 33.9003ZM83.9741 28.8541C85.3165 29.4202 85.3812 29.4687 85.1063 29.7113C84.9445 29.873 83.4727 30.9567 81.823 32.1374C80.1733 33.3342 78.0545 34.8707 77.1002 35.5662L75.3535 36.8278V31.0214V25.215L78.9602 26.7515C80.9334 27.5925 83.1978 28.5306 83.9741 28.8541ZM32.2179 53.5838C32.2017 53.6162 25.8293 60.5871 18.082 69.0622C10.3186 77.5211 3.91375 84.5243 3.83288 84.6052C3.76819 84.7022 3.70349 73.0733 3.70349 58.7918V32.8005L17.985 43.1517C25.8293 48.8449 32.2341 53.5353 32.2179 53.5838ZM87.128 71.65L87.0795 84.6699L73.8169 70.1943C66.5226 62.2368 60.1016 55.2336 59.5517 54.619L58.5489 53.5191L67.1533 47.2922C71.8761 43.8634 78.3133 39.2053 81.4186 36.941L87.0795 32.849L87.128 45.7395C87.1442 52.8398 87.1442 64.5011 87.128 71.65ZM40.0299 59.1476C44.1542 62.1398 44.785 62.5441 45.3187 62.5441C45.6584 62.5441 46.095 62.4632 46.273 62.3662C46.467 62.2692 48.6182 60.7327 51.0604 58.9535L55.5082 55.7188L56.2845 56.5113C56.7051 56.9318 63.2878 64.0968 70.8895 72.4101L84.7343 87.5327L65.0831 87.5812C54.279 87.5973 36.5848 87.5973 25.7646 87.5812L6.09722 87.5327L20.6213 71.65C28.6273 62.9161 35.2101 55.7673 35.2586 55.7673C35.3071 55.7511 37.4582 57.2715 40.0299 59.1476Z" fill="black"/>
<path d="M29.1449 11.5157C27.8833 12.0656 27.7863 13.9417 28.967 14.6696C29.4846 14.993 29.7919 14.993 45.3996 14.993C62.8511 14.993 61.9616 15.0416 62.4953 14.0226C62.8188 13.408 62.8026 12.8096 62.4629 12.2273C61.8645 11.2245 62.6732 11.2731 45.3996 11.2731C32.3635 11.2892 29.5816 11.3216 29.1449 11.5157Z" fill="#00C189"/>
<path d="M29.1449 20.0879C28.2392 20.4761 27.8834 21.6406 28.3686 22.5948C28.8861 23.5976 28.6597 23.5814 38.8816 23.5329L48.1815 23.4844L48.6991 22.9668C49.1358 22.5301 49.2166 22.3199 49.2166 21.7053C49.2166 21.0907 49.1358 20.8804 48.6991 20.4437L48.1815 19.9261L38.9139 19.8938C31.2799 19.8615 29.5654 19.8938 29.1449 20.0879Z" fill="#0971CE"/>
<path d="M29.064 28.6761C28.2068 29.129 27.8995 30.2612 28.3847 31.1831C28.8861 32.1697 28.2392 32.1373 45.4481 32.1373C59.6487 32.1373 61.2014 32.105 61.7028 31.8785C63.0614 31.2316 63.0452 29.226 61.6866 28.6438C60.8456 28.288 29.711 28.3203 29.064 28.6761Z" fill="#0971CE"/>
<path d="M28.967 37.3129C27.6569 38.1054 27.9318 40.1433 29.4036 40.5476C29.8403 40.6608 34.2558 40.6932 43.2161 40.677C56.3169 40.6285 56.4139 40.6285 56.8668 40.2888C57.7725 39.6095 57.8372 38.3156 56.9962 37.4746L56.5918 37.0702L43.0382 37.0217C29.7271 36.9894 29.4845 36.9894 28.967 37.3129Z" fill="#0971CE"/>
</svg>
