<svg width="99" height="112" viewBox="0 0 99 112" fill="none" xmlns="http://www.w3.org/2000/svg">
<path d="M41.6239 90.3961L41.6239 90.3961L41.6267 90.3975C43.2599 91.2141 44.0664 91.5976 45.0372 91.7958C46.023 91.9971 47.192 92.0104 49.556 92.0104C51.8478 92.0104 53.06 91.9869 54.0485 91.81C55.0181 91.6365 55.7869 91.3126 57.1886 90.6556C71.0092 84.0855 71.0069 64.5117 57.1913 57.9851C55.9085 57.3982 55.0621 57.0667 54.1047 56.8649C53.1397 56.6615 52.0401 56.5851 50.2452 56.5413L50.2452 56.5414L50.2366 56.541C47.112 56.4108 45.6481 56.5867 44.068 57.1266C40.7581 58.3309 38.1176 60.0415 36.1674 62.2459C28.1413 71.3831 30.7909 85.0649 41.6239 90.3961ZM55.1222 89.9544L55.1222 89.9544L55.1173 89.9562C53.4666 90.5523 51.397 90.8194 49.3274 90.7803C47.2565 90.7411 45.1479 90.3945 43.4165 89.7339L43.4165 89.7339L43.4121 89.7322C39.8274 88.3255 36.6231 85.3417 34.8175 81.6405C34.1604 80.3046 33.7719 79.4426 33.5604 78.4148C33.3513 77.398 33.3201 76.2406 33.3201 74.3197C33.3201 72.3989 33.3513 71.2414 33.5604 70.2247C33.7719 69.1967 34.1606 68.3346 34.8179 66.9982L34.8179 66.9981C38.9326 58.6331 48.3966 55.5197 56.9194 59.6682C69.9569 66.0059 68.7965 84.8547 55.1222 89.9544Z" fill="#0971CE" stroke="#0971CE"/>
<path d="M52.0562 80.8058L52.0554 80.8064C51.3134 81.3862 50.6149 81.7359 49.8324 81.7827C49.0598 81.8289 48.2851 81.5744 47.4014 81.1215C46.4787 80.6592 45.8115 79.7893 45.6043 78.8076C45.4976 78.3178 45.3901 78.1181 45.2951 78.0256C45.2239 77.9563 45.0978 77.8879 44.7344 77.8879C44.3189 77.8879 44.256 77.9541 44.2556 77.9546C44.2491 77.9613 44.1824 78.0428 44.1824 78.4838C44.1824 80.0545 45.1363 81.5306 46.9086 82.563C47.6383 82.9614 48.1628 83.3182 48.5132 83.763C48.8797 84.2282 49.0176 84.7389 49.0884 85.352L49.0893 85.3599L49.0899 85.3678C49.1329 85.8837 49.2147 86.1122 49.2869 86.2117C49.3203 86.2579 49.3691 86.312 49.5998 86.312C49.7384 86.312 49.8072 86.2938 49.8405 86.2793C49.8624 86.2697 49.8826 86.2568 49.9095 86.2136C49.989 86.0858 50.0647 85.8003 50.1091 85.1558L50.1092 85.1546C50.1538 84.5304 50.2459 84.017 50.4913 83.6259C50.7586 83.1999 51.1557 82.9947 51.6138 82.8675L51.6138 82.8673L51.6264 82.8641C51.9262 82.7892 52.2952 82.5907 52.6939 82.2783C53.087 81.9702 53.4823 81.5723 53.8346 81.1345C54.187 80.6966 54.488 80.2293 54.6988 79.7871C54.913 79.3376 55.0172 78.9491 55.0172 78.6591C55.0172 77.2919 54.5484 76.1625 53.6963 75.3153C52.8379 74.4618 51.5563 73.8617 49.8824 73.6315L49.8822 73.6315C48.5394 73.4463 47.3686 72.9563 46.5782 72.2771C45.7887 71.5986 45.3193 70.6641 45.6135 69.6638L45.6143 69.6612C46.147 67.8855 47.6904 66.9949 49.2652 66.9763C50.8349 66.9577 52.4803 67.7991 53.2945 69.5015L53.2958 69.5043C53.4603 69.8537 53.6556 70.1925 53.8378 70.4608C53.929 70.595 54.0134 70.7065 54.0857 70.7906C54.1217 70.8325 54.1523 70.8649 54.177 70.8886C54.1892 70.9003 54.199 70.9089 54.2063 70.9149C54.2132 70.9207 54.2167 70.923 54.2167 70.923C54.2584 70.9508 54.3869 71.0033 54.6152 70.767C54.8326 70.5419 55.0172 70.1426 55.0172 69.6734C55.0172 69.4819 54.923 69.1659 54.6992 68.7539C54.4832 68.3564 54.1751 67.9212 53.818 67.5067C53.4612 67.0927 53.0652 66.7106 52.6796 66.4149C52.2862 66.1132 51.9374 65.9276 51.6737 65.8637L51.6736 65.8638L51.6642 65.8613C51.1955 65.7379 50.7867 65.548 50.5132 65.112C50.2685 64.7221 50.1757 64.1954 50.1104 63.5427L50.1104 63.5427L50.1097 63.5345C50.0491 62.8079 49.8219 62.3633 49.6211 62.1822C49.5299 62.0999 49.4632 62.0867 49.4218 62.088C49.3812 62.0893 49.3 62.1068 49.1836 62.2079C49.1786 62.2187 49.1708 62.237 49.1611 62.2651C49.1353 62.339 49.1081 62.4449 49.0836 62.5797C49.0348 62.8482 49.004 63.1906 49.004 63.5368C49.004 64.1444 48.9248 64.6618 48.5555 65.1096C48.2155 65.522 47.674 65.814 46.9593 66.139C44.503 67.2781 43.812 69.5033 44.3918 71.4541C44.976 73.4198 46.865 75.1346 49.6875 75.1346C51.3707 75.1346 52.6439 75.9847 53.1499 77.1697C53.662 78.3692 53.3379 79.8006 52.0562 80.8058Z" fill="#0971CE" stroke="#0971CE"/>
<path d="M23.2962 23.1937C2.9231 43.389 0 46.652 0 49.0331C0 52.2961 2.39162 54.6772 5.58046 54.6772H7.97208V76.3717V98.1543L5.75761 100.183C2.65736 103.005 2.74594 107.679 5.84619 110.148C8.14924 112 9.03503 112 49.2497 112C71.7487 112 90.8817 111.735 91.6789 111.471C93.8048 110.589 95.7536 106.18 95.1335 103.622C94.8678 102.387 93.6277 100.624 92.4761 99.7417L90.3503 98.0661L90.5274 76.548L90.7932 55.1181L93.7162 54.8535C97.0822 54.5008 99.651 51.326 98.8538 48.3276C98.5881 47.1811 87.8701 35.8929 75.0261 23.1055C55.1845 3.43937 51.3756 4.17233e-07 49.1612 4.17233e-07C46.9467 4.17233e-07 43.1378 3.35118 23.2962 23.1937ZM72.3688 26.6331C84.6812 38.8913 94.7792 49.2094 94.7792 49.5622C94.7792 50.0031 93.4505 50.2677 91.8561 50.2677C89.2873 50.2677 86.9843 48.2394 69.5343 30.8661C58.8162 20.1953 49.6926 11.4646 49.2497 11.4646C48.7183 11.4646 39.5947 20.1953 28.7881 30.8661C12.9325 46.652 8.76929 50.2677 6.82056 50.2677C5.49188 50.2677 4.42893 49.7386 4.42893 49.2094C4.42893 47.8866 47.8325 4.40945 49.1612 4.40945C49.6041 4.40945 60.1449 14.463 72.3688 26.6331ZM85.9213 75.578V97.8898H49.1612H12.401V75.6661V53.3543L30.7368 35.0992L49.1612 16.7559L67.497 35.011L85.9213 53.3543V75.578ZM90.2617 103.534C90.7932 104.151 91.0589 105.386 90.7046 106.18C90.1731 107.502 86.4528 107.591 49.3383 107.414C10.098 107.15 8.41498 107.061 8.14924 105.474C7.97208 104.592 8.3264 103.534 9.03503 103.093C9.65508 102.652 27.9909 102.299 49.6926 102.299C82.201 102.299 89.4645 102.476 90.2617 103.534Z" fill="black"/>
<path d="M46.7203 31.8026C44.1172 33.3831 43.234 36.8229 44.7215 39.3796C46.9063 43.0519 52.2055 43.0519 54.3903 39.3796C57.2258 34.5452 51.4618 28.8741 46.7203 31.8026Z" fill="#00C189"/>
</svg>
