<svg width="109" height="100" viewBox="0 0 109 100" fill="none" xmlns="http://www.w3.org/2000/svg">
<path d="M23 48H34.6685V49.882L34.4803 51.3876H23V48Z" fill="#00C189"/>
<path d="M73.9635 49.5562H85.4438V52.9438H74.1517L73.9635 52.7556V49.5562Z" fill="#FEFEFE"/>
<path d="M0 1H11.6685V2.88202L11.4803 4.38764H0V1Z" fill="white"/>
<path d="M76.0337 46.9214H87.7022V48.8034L87.514 50.309H76.0337V46.9214Z" fill="white"/>
<path d="M99 49.3531C99 71.2495 81.0914 89 59.0001 89C59.0001 76.313 59.0001 89 59 49.3531C59 27.4567 59 0.983875 59.0001 9.70617C81.0914 9.70617 99 27.4567 99 49.3531Z" fill="#0971CE"/>
<path d="M87 48H98.6685V49.882L98.4803 51.3876H87V48Z" fill="#00C189"/>
<circle cx="59" cy="50" r="47.5" stroke="#12123B" stroke-width="5"/>
</svg>
