<svg width="109" height="112" viewBox="0 0 109 112" fill="none" xmlns="http://www.w3.org/2000/svg">
<path d="M20.664 1.56797C19.32 2.74397 18.872 3.69597 18.648 5.76797L18.312 8.39997H11.648C4.536 8.39997 2.52 8.95997 0.896 11.312C0.112 12.432 0 17.248 0 52.64C0 89.712 0.112 92.792 1.008 93.856C2.912 96.208 3.752 96.32 21.784 96.32C35.728 96.32 39.2 96.488 39.2 97.048C39.2 98.392 35.784 103.208 32.704 106.176C29.848 108.976 29.512 109.144 26.488 109.312C23.688 109.48 23.24 109.648 23.24 110.6C23.24 111.72 23.632 111.72 54.32 111.72C85.008 111.72 85.4 111.72 85.4 110.6C85.4 109.648 84.952 109.48 82.152 109.312C79.128 109.144 78.792 108.976 75.936 106.176C72.856 103.208 69.44 98.392 69.44 97.048C69.44 96.488 72.912 96.32 86.8 96.32C105.672 96.32 106.624 96.208 107.968 93.24C108.472 92.176 108.64 81.704 108.64 52.192C108.64 17.192 108.528 12.432 107.744 11.312C106.12 8.95997 104.104 8.39997 96.992 8.39997H90.328L89.992 5.76797C89.768 3.69597 89.32 2.74397 87.976 1.56797L86.24 -3.27453e-05H54.32H22.4L20.664 1.56797ZM85.736 3.86397C86.912 4.81597 87.08 5.48797 87.304 9.74397L87.472 14.56H54.32H21.168L21.336 9.74397C21.672 2.12797 18.592 2.79997 54.32 2.79997C83.16 2.79997 84.504 2.85597 85.736 3.86397ZM18.48 13.44V15.064L12.768 15.232L7 15.4V43.96V72.52H54.32H101.64V43.96V15.4L95.928 15.232L90.16 15.064V13.44V11.76H96.88C102.872 11.76 103.712 11.872 104.72 12.88C105.84 14 105.84 14.728 105.84 45.08V76.16H54.32H2.8V45.08C2.8 14.728 2.8 14 3.92 12.88C4.928 11.872 5.768 11.76 11.76 11.76H18.48V13.44ZM18.48 43.96V69.44H14H9.52V43.96V18.48H14H18.48V43.96ZM87.36 43.96V69.44H54.32H21.28V43.96V18.48H54.32H87.36V43.96ZM99.12 43.96V69.44H94.64H90.16V43.96V18.48H94.64H99.12V43.96ZM105.84 85.344C105.84 94.472 112 93.52 54.32 93.52C-3.36 93.52 2.8 94.472 2.8 85.344V79.52H54.32H105.84V85.344ZM66.36 97.944C66.808 99.96 69.272 103.88 71.96 106.904L74.032 109.2H54.32H34.608L36.68 106.904C39.368 103.88 41.832 99.96 42.28 97.944L42.672 96.32H54.32H65.968L66.36 97.944Z" fill="#12123B"/>
<path d="M25.592 21.672C25.368 21.84 25.2 27.384 25.2 33.992V45.92H28H30.8V42.56V39.2H38.64H46.424L46.592 42.392L46.76 45.64L49.448 45.808L52.08 45.976V40.096C52.08 34.328 52.024 34.104 50.456 32.368L48.832 30.52L40.936 30.352L33.04 30.128V27.944C33.04 25.368 31.808 22.68 30.296 21.84C29.064 21.224 26.152 21.056 25.592 21.672ZM49 33.88C49.784 34.608 50.4 35.728 50.4 36.4C50.4 37.464 50.12 37.52 38.92 37.52H27.44V35V32.48H37.52C47.544 32.48 47.656 32.48 49 33.88Z" fill="#0971CE"/>
<path d="M60.76 41.44C59.864 42.84 61.544 43.12 71.736 43.12C81.928 43.12 82.32 43.064 82.32 42C82.32 40.936 81.928 40.88 71.736 40.88C65.24 40.88 60.984 41.104 60.76 41.44Z" fill="#0971CE"/>
<path d="M26.432 49.672C26.6 50.624 28.392 50.68 54.32 50.68C80.248 50.68 82.04 50.624 82.208 49.672C82.376 48.776 80.752 48.72 54.32 48.72C27.888 48.72 26.264 48.776 26.432 49.672Z" fill="#0971CE"/>
<path d="M26.32 56.84C26.32 57.568 29.792 57.68 54.32 57.68C78.848 57.68 82.32 57.568 82.32 56.84C82.32 56.112 78.848 56 54.32 56C29.792 56 26.32 56.112 26.32 56.84Z" fill="#0971CE"/>
<path d="M26.712 63.112C26.488 63.28 26.32 63.784 26.32 64.232C26.32 64.848 31.36 64.96 54.376 64.96C80.752 64.96 82.376 64.904 82.208 63.952C82.04 63.056 80.192 63 54.544 62.832C39.424 62.776 26.88 62.888 26.712 63.112Z" fill="#0971CE"/>
<path d="M51.296 82.936C50.232 83.776 49.84 84.616 49.84 86.016C49.84 88.648 50.568 89.88 52.64 90.72C54.6 91.56 57.344 90.72 58.24 88.984C60.76 84.392 55.384 79.688 51.296 82.936Z" fill="#00C189"/>
</svg>
