<svg width="104" height="104" viewBox="0 0 104 104" fill="none" xmlns="http://www.w3.org/2000/svg">
<g clip-path="url(#clip0_1_259)">
<path d="M49.816 0.987991C47.736 1.66399 8.37199 32.188 7.22799 34.008C5.40799 36.972 6.29199 41.392 9.09999 43.576C10.712 44.824 15.34 45.188 17.212 44.2C18.148 43.68 18.2 43.888 18.2 50.96V58.24L16.432 56.264L14.664 54.34H7.43599H0.259995V77.22V100.1L6.75999 100.256C12.48 100.36 13.468 100.256 14.976 99.32C16.848 98.176 18.72 95.42 18.72 93.808C18.72 92.768 19.5 93.028 29.9 97.032C44.512 102.7 46.02 103.116 52 103.116C55.9 103.064 57.772 102.804 60.84 101.764C62.972 101.036 73.528 95.784 84.24 90.064L103.74 79.716V77.74C103.74 75.972 103.48 75.504 101.504 73.996C98.54 71.76 94.224 70.512 90.532 70.876C88.92 71.032 87.204 71.292 86.736 71.5C85.852 71.864 85.8 70.98 85.8 57.772C85.8 43.94 85.8 43.68 86.788 44.2C88.452 45.084 92.664 44.824 94.432 43.732C97.604 41.808 98.644 36.764 96.512 33.54C96.044 32.864 93.496 30.576 90.74 28.496L85.8 24.7V13.26C85.8 4.99199 85.644 1.61199 85.176 1.14399C84.396 0.363991 73.684 0.311989 72.228 1.03999C71.344 1.55998 71.24 2.18398 71.24 7.53999V13.52L65 8.68399C61.516 6.08399 57.876 3.27599 56.784 2.49599C54.652 0.935989 51.948 0.363991 49.816 0.987991ZM53.196 5.30399C54.808 6.13599 92.144 34.788 92.976 35.776C93.288 36.244 93.6 37.128 93.6 37.752C93.6 39.26 91.156 41.184 89.856 40.768C89.284 40.612 80.808 34.268 70.98 26.728C60.372 18.564 52.676 13 52 13C51.376 13 43.576 18.616 32.864 26.884C13.988 41.392 12.792 42.068 11.128 39.78C9.93199 38.168 10.244 36.452 12.116 34.84C13 34.008 19.396 29.068 26.26 23.816C33.124 18.564 40.716 12.688 43.16 10.816C47.632 7.38399 51.428 4.67999 51.844 4.67999C51.948 4.67999 52.572 4.93999 53.196 5.30399ZM82.16 13.26V21.84L78.78 19.396L75.452 16.9L75.4 10.764V4.67999H78.78H82.16V13.26ZM67.496 29.38L82.16 40.716V56.94V73.216L76.908 75.088C74.048 76.128 71.604 76.96 71.448 76.96C71.344 76.96 71.24 76.336 71.24 75.608C71.24 73.632 69.784 71.5 67.6 70.252C65.884 69.264 64.792 69.16 58.396 69.16C51.792 69.16 51.012 69.056 50.18 68.12C48.568 66.3 44.304 63.908 41.028 62.868C38.48 62.088 36.244 61.88 29.848 61.88H21.84V51.272V40.716L36.764 29.172C44.98 22.828 52 17.784 52.26 17.888C52.572 17.992 59.436 23.192 67.496 29.38ZM13.572 59.228L15.08 60.736V77.168V93.548L13.832 95.004C12.636 96.356 12.22 96.46 8.11199 96.668L3.63999 96.824V77.272V57.72H7.85199C11.804 57.72 12.116 57.824 13.572 59.228ZM37.336 66.04C40.976 66.716 44.096 68.276 47.268 70.98L50.024 73.32H57.72H65.468L66.508 74.672C67.86 76.388 67.86 77.012 66.508 78.676L65.468 80.08L51.376 80.184C38.636 80.34 37.232 80.444 36.712 81.224C36.296 81.9 36.296 82.42 36.712 83.044C37.232 83.876 38.636 83.98 51.22 84.136L65.104 84.24L67.912 82.94C69.472 82.212 74.88 80.08 79.976 78.208C90.532 74.308 93.028 73.996 97.032 75.92C99.216 77.012 99.372 77.168 98.54 77.792C96.772 79.092 62.088 97.188 59.8 98.02C56.212 99.32 49.764 99.58 46.02 98.592C44.304 98.124 37.544 95.68 30.94 93.132L18.98 88.504L18.824 77.012L18.72 65.52H26.676C31.096 65.52 35.88 65.728 37.336 66.04Z" fill="#12123B"/>
<path d="M48.412 28.6C44.824 29.38 41.912 31.044 39.26 33.852C35.62 37.752 34.58 40.404 34.58 46.02C34.58 50.076 34.788 51.064 36.036 53.664C42.432 66.664 61.36 66.716 67.86 53.716C69.212 51.064 69.368 50.128 69.42 46.02C69.42 41.912 69.264 40.976 67.964 38.376C64.428 31.148 56.108 27.04 48.412 28.6ZM57.46 33.28C62.764 35.516 65.728 40.144 65.78 46.02C65.78 49.088 65.52 50.076 64.22 52.468C61.672 57.096 57.2 59.696 52 59.696C46.852 59.696 42.276 57.044 39.884 52.624C33.592 40.976 45.292 28.028 57.46 33.28Z" fill="#00C189"/>
<path d="M55.9857 46.7258L55.9852 46.7263C54.8085 47.903 53.7172 48.9753 52.9027 49.7538C52.4957 50.1429 52.1563 50.46 51.9093 50.6807C51.7863 50.7906 51.6834 50.879 51.6054 50.941C51.5669 50.9715 51.5303 50.999 51.4979 51.02C51.4821 51.0304 51.4623 51.0424 51.4407 51.0527L51.4401 51.053C51.4267 51.0594 51.3779 51.0827 51.3149 51.0827C51.2742 51.0827 51.2409 51.0731 51.2287 51.0695C51.2115 51.0644 51.1953 51.0583 51.1816 51.0528C51.154 51.0416 51.1227 51.027 51.0899 51.0107C51.0235 50.9778 50.9366 50.931 50.8332 50.873C50.6257 50.7567 50.3417 50.5896 50.0025 50.3846C49.3237 49.9745 48.4183 49.4092 47.4512 48.7868C46.123 47.9363 45.2315 47.3439 44.6665 46.922C44.3847 46.7115 44.1756 46.5372 44.0323 46.3897C43.8995 46.2529 43.7836 46.1003 43.7627 45.9315C43.7169 45.5957 43.7965 45.2769 43.9875 45.0382C44.1805 44.7969 44.4736 44.6551 44.8137 44.6551C44.8619 44.6551 44.9068 44.6661 44.9364 44.6745C44.9702 44.6841 45.0065 44.697 45.0434 44.7115C45.1175 44.7406 45.2076 44.7815 45.3096 44.8315C45.5144 44.9317 45.7809 45.0748 46.089 45.2493C46.7057 45.5986 47.4987 46.0793 48.3149 46.6074L51.107 48.4088L54.6923 44.7499C54.6924 44.7498 54.6926 44.7497 54.6927 44.7495C55.7168 43.6967 56.684 42.7295 57.415 42.0201C57.7803 41.6655 58.0879 41.3741 58.3147 41.1683C58.4277 41.0656 58.5229 40.9822 58.5961 40.9223C58.6324 40.8926 58.6664 40.8662 58.696 40.8455C58.7108 40.8352 58.7274 40.8243 58.7448 40.8145C58.757 40.8076 58.7824 40.7937 58.8152 40.784C59.1324 40.6851 59.4776 40.8138 59.7259 40.9967C59.9786 41.1827 60.2029 41.4756 60.2437 41.8116C60.2586 41.9112 60.238 42.008 60.2054 42.0949C60.1718 42.1846 60.1189 42.2807 60.0508 42.3845C59.9148 42.5917 59.6967 42.8611 59.3795 43.2168C58.7431 43.9302 57.677 45.025 55.9857 46.7258Z" fill="#0971CE" stroke="#0971CE" stroke-width="0.5"/>
</g>
<defs>
<clipPath id="clip0_1_259">
<rect width="104" height="104" fill="white"/>
</clipPath>
</defs>
</svg>
