<svg width="120" height="79" viewBox="0 0 120 79" fill="none" xmlns="http://www.w3.org/2000/svg">
<g clip-path="url(#clip0_1_296)">
<path d="M8.46665 0.547127C4.13331 1.61469 0.773314 5.36452 0.133314 9.84831C0.0266469 10.5689 -1.9731e-05 18.4022 0.0266469 36.4975L0.0666469 62.1191L0.43998 63.2934C1.06665 65.3351 1.93331 66.763 3.34665 68.1508C4.93331 69.7122 6.37331 70.5262 8.47998 71.0733L9.77331 71.3936H31.16H52.5466L52.5066 69.552L52.4666 67.7238L31 67.6571C11.04 67.5904 9.49331 67.577 8.95998 67.3635C6.51998 66.3894 4.97331 64.8414 4.09331 62.5061L3.79998 61.7188L3.75998 36.364C3.73331 18.4823 3.75998 10.7557 3.86665 10.1419C4.33331 7.3929 6.58665 4.9375 9.33331 4.20354C10.44 3.90997 94.4933 3.90997 95.6 4.20354C97.9466 4.83074 99.9466 6.65895 100.827 9.0076C101.107 9.76824 101.12 10.0351 101.173 14.3721L101.213 18.9493H103.08H104.933V14.5589C104.933 11.2361 104.88 9.94172 104.747 9.2478C103.827 4.92415 100.587 1.54797 96.36 0.533783C95.28 0.266891 94.6266 0.266891 52.4 0.280235C10.2666 0.280235 9.51998 0.293579 8.46665 0.547127Z" fill="#12123B"/>
<path d="M84.5333 16.3738C84.2 16.4806 83.76 16.7074 83.5333 16.8542C83.2 17.0944 68.44 31.0529 57.88 41.1013C56.5333 42.3824 55.0933 43.7169 54.68 44.0505C53.8 44.7711 53.08 45.6118 52.68 46.3991C52.36 47.053 51.9467 48.6544 52.0667 48.8412C52.12 48.9213 54.4 48.9746 57.9467 48.9746H63.7333V60.6912C63.7333 73.5954 63.7067 73.1284 64.5733 74.8632C65.1067 75.9574 66.5733 77.4387 67.6667 78.0258C69.3467 78.9066 68.4267 78.8665 86.2 78.8665C100.4 78.8665 102.387 78.8399 103.107 78.653C105.6 78.0125 107.64 76.0241 108.427 73.462C108.72 72.5279 108.72 72.4478 108.733 60.7579V48.9746H114.387H120.04L119.96 48.4008C119.92 48.0806 119.72 47.3733 119.52 46.8262C119.187 45.9054 119.067 45.7453 117.747 44.4775C111.853 38.8328 88.8267 17.0944 88.48 16.8675C87.4533 16.1603 85.7467 15.9468 84.5333 16.3738ZM88.2667 41.7686C90.1733 42.2757 92.2 43.9571 93.1067 45.7719C94.2 47.9605 94.2667 50.6294 93.2933 52.7512C92.8533 53.6986 91.8267 55.0331 91.1067 55.5802L90.5067 56.0339L90.9733 56.2341C92.6267 56.9147 95 58.9831 96.1067 60.6779C97.1867 62.3593 98 65.0149 98 66.8698V67.6571H86H74L74.08 66.6829C74.3067 63.7738 75.0933 61.6787 76.7333 59.637C77.8133 58.3025 79.6933 56.8079 80.96 56.3142C81.2 56.2208 81.4267 56.114 81.4533 56.1007C81.48 56.074 81.1333 55.727 80.68 55.3133C79.6133 54.3125 78.9333 53.2716 78.48 51.8971C77.7333 49.6953 78.0667 47.0797 79.3067 45.1581C79.8667 44.304 81.1067 43.063 81.88 42.5959C83.64 41.515 86.16 41.1947 88.2667 41.7686Z" fill="#0971CE"/>
<path d="M15.0266 19.0427C14.9733 19.0828 14.9333 19.9235 14.9333 20.911V22.6858H37.4666H60V20.8175V18.9493H37.56C25.2133 18.9493 15.0666 18.9893 15.0266 19.0427Z" fill="#00C189"/>
<path d="M14.9867 34.0688C14.96 34.1622 14.9467 35.0162 14.96 35.977L15 37.6985H31.8667H48.7333V35.8302V33.962L31.8933 33.922C18.1333 33.8953 15.04 33.922 14.9867 34.0688Z" fill="#00C189"/>
<path d="M14.96 50.8028L15 52.6444L28.1067 52.6844L41.2 52.7111V50.8429V48.9746H28.0667H14.92L14.96 50.8028Z" fill="#00C189"/>
</g>
<defs>
<clipPath id="clip0_1_296">
<rect width="120" height="79" fill="white"/>
</clipPath>
</defs>
</svg>
