<svg width="124" height="124" viewBox="0 0 124 124" fill="none" xmlns="http://www.w3.org/2000/svg">
<path d="M31 8.61796C30.628 9.42396 30.38 17.422 30.38 30.318V50.84H32.86H35.34V31.31V11.78H63.86H92.38V18.166V24.552L94.86 26.97L97.34 29.388V19.158C97.34 12.028 97.092 8.67996 96.596 8.18396C96.038 7.62596 87.916 7.43996 63.736 7.43996C32.674 7.43996 31.62 7.50196 31 8.61796Z" fill="#12123B"/>
<path d="M58.6506 96.7617L57.9711 100.839L78.058 100.993C85.2812 100.993 89.7902 100.947 92.5628 100.815C93.9495 100.749 94.8992 100.662 95.5362 100.55C95.8547 100.493 96.0926 100.431 96.2668 100.363C96.4416 100.295 96.5469 100.222 96.6064 100.15L96.6063 100.15L96.6081 100.148C96.6609 100.088 96.7146 99.9836 96.766 99.8248C96.8169 99.6674 96.8638 99.4629 96.9061 99.2094C96.9907 98.7025 97.0564 98.0059 97.1029 97.1118C97.1958 95.3239 97.2113 92.7528 97.1493 89.3432L96.9663 79.459L94.7837 81.7005L94.7374 81.6554L94.7837 81.7005L92.4466 84.0991V90.396V96.72V96.7867H92.38H75.33C71.6127 96.7867 68.2082 96.7573 65.4543 96.7336C64.74 96.7275 64.0695 96.7217 63.4487 96.7169C61.9412 96.7053 60.727 96.6995 59.8897 96.7082C59.4709 96.7125 59.1475 96.7205 58.9291 96.7331C58.8196 96.7395 58.7384 96.7469 58.6855 96.7552C58.6708 96.7575 58.6593 96.7597 58.6506 96.7617Z" fill="#12123B" stroke="#12123B" stroke-width="0.133333"/>
<path d="M60.3894 64.4282L60.3074 64.3231L60.2401 64.208C60.0746 63.9252 60.0172 63.6589 60.0082 63.6172C60.0078 63.6154 60.0075 63.614 60.0073 63.613C59.9874 63.5247 59.9759 63.4484 59.9695 63.4023C59.9563 63.3063 59.9476 63.2093 59.9416 63.1302C59.929 62.9652 59.9187 62.7572 59.9099 62.5248C59.8921 62.0541 59.8776 61.4058 59.8668 60.6325C59.8453 59.0821 59.8381 56.9862 59.8524 54.7113L59.8525 54.7032L59.938 46.4482L59.9583 44.4838L61.9227 44.4689L76.369 44.3593L76.3741 44.3593L88.859 44.2963L88.859 39.5288C88.859 37.2545 88.8875 35.5197 88.943 34.3181C88.9706 33.7231 89.0063 33.2201 89.0548 32.8335C89.0784 32.6456 89.1112 32.4331 89.1621 32.2306C89.1873 32.1307 89.2283 31.9862 89.2955 31.8282C89.3455 31.7107 89.4935 31.3777 89.8218 31.0772L89.8951 31.01L89.9747 30.9505C90.5919 30.4889 91.2338 30.5358 91.4783 30.5721C91.7516 30.6128 91.9544 30.7007 92.0428 30.7416C92.2319 30.8291 92.3737 30.9294 92.4305 30.9703C92.5675 31.0689 92.6981 31.1819 92.7959 31.2694C93.0072 31.4584 93.2763 31.719 93.5791 32.0216C94.193 32.6349 95.0372 33.5128 96.0252 34.5594C98.0055 36.6569 100.607 39.4783 103.194 42.3248C105.781 45.1713 108.362 48.0525 110.3 50.2696C111.267 51.3761 112.084 52.3289 112.663 53.0333C112.95 53.3822 113.197 53.6909 113.378 53.9356C113.465 54.054 113.561 54.1894 113.644 54.3234C113.684 54.3878 113.744 54.4899 113.801 54.6132C113.802 54.6149 113.803 54.617 113.804 54.6196C113.834 54.6842 114 55.0363 114 55.5C114 55.9734 113.828 56.3297 113.795 56.3993C113.793 56.4019 113.792 56.4041 113.792 56.4059C113.731 56.5332 113.667 56.6376 113.626 56.7025C113.539 56.8374 113.439 56.9714 113.351 57.0859C113.167 57.3233 112.918 57.6196 112.63 57.9517C112.049 58.6225 111.23 59.5266 110.263 60.5742C108.325 62.6737 105.743 65.3977 103.156 68.0867C100.568 70.7759 97.9657 73.4399 95.9846 75.4193C94.9963 76.4068 94.1512 77.2355 93.5361 77.8142C93.2329 78.0996 92.9622 78.3464 92.7488 78.5256C92.6501 78.6085 92.5168 78.7168 92.3764 78.8109C92.3177 78.8503 92.1729 78.9456 91.9812 79.0266C91.8905 79.0649 91.6888 79.1439 91.4202 79.1759C91.1789 79.2045 90.5656 79.2314 89.9747 78.7895L89.8951 78.7299L89.8218 78.6628C89.4935 78.3622 89.3455 78.0292 89.2955 77.9116C89.2282 77.7535 89.1872 77.6089 89.162 77.5089C89.1111 77.3064 89.0783 77.0936 89.0548 76.9055C89.0063 76.5183 88.9705 76.0142 88.943 75.417C88.8875 74.2109 88.859 72.467 88.859 70.1747L88.859 65.4538L76.5267 65.4538C72.5727 65.4538 68.949 65.4263 66.2949 65.3804C64.97 65.3575 63.8751 65.3298 63.0979 65.298C62.7131 65.2823 62.3839 65.2647 62.1363 65.2442C62.0184 65.2345 61.8807 65.2211 61.7515 65.2008C61.6931 65.1916 61.5818 65.1728 61.4546 65.1371C61.3934 65.1198 61.2759 65.0843 61.1381 65.0207L61.1362 65.0198C61.0501 64.9801 60.6905 64.8142 60.3894 64.4282Z" stroke="#00C189" stroke-width="4"/>
<path d="M34.7146 52.859C30.4522 53.8897 27.1369 56.662 25.1749 60.8203C24.1262 63.0594 24.0585 63.4504 24.0585 66.7912C24.0585 69.9189 24.16 70.5942 24.9719 72.4068C26.2235 75.2145 27.0693 76.3874 28.9637 77.9512L30.5536 79.2663L28.1518 80.5813C25.0057 82.2873 22.6039 84.5264 20.6756 87.5829C18.8827 90.4262 17.9693 92.843 17.4281 96.3972C16.9883 99.276 17.1913 100.556 18.1046 100.84C19.3563 101.16 19.8637 100.307 20.1682 97.499C21.9611 80.9012 42.0554 75.2501 51.4937 88.7203C53.2866 91.2792 54.2676 93.9804 54.6736 97.499C55.0119 100.342 55.5193 101.16 56.7033 100.84C57.6167 100.591 57.8197 99.5959 57.549 97.0369C56.8725 90.1774 52.6777 83.8155 46.7915 80.6168L44.2543 79.2663L45.5398 78.3066C47.2312 77.0272 48.7535 75.0013 49.8361 72.6556C51.1216 69.8833 51.3245 65.4407 50.3097 62.313C48.1785 55.5246 41.2097 51.3308 34.7146 52.859ZM41.1082 56.271C44.4573 57.586 46.7238 60.2161 47.7387 63.9479C49.261 69.4213 46.0472 75.6055 40.7699 77.4536C38.199 78.3777 34.7146 78.0579 32.3804 76.7428C24.2276 72.0869 25.2087 59.5053 33.9703 56.1289C35.7971 55.418 39.1462 55.4891 41.1082 56.271Z" fill="#0971CE"/>
</svg>
