<svg width="103" height="103" viewBox="0 0 103 103" fill="none" xmlns="http://www.w3.org/2000/svg">
<g clip-path="url(#clip0_86_327)">
<path d="M39.758 1.75099L37.8525 3.50199L37.698 23.4325C37.5435 42.745 37.595 43.4145 38.625 45.0625C40.7365 48.4615 40.2215 48.41 70.246 48.41C99.91 48.41 99.7555 48.41 101.919 45.423C103 43.878 103 43.5175 103 24.205C103 7.67349 102.897 4.32599 102.228 3.08999C100.58 -0.0515099 101.146 -9.88269e-06 70.04 -9.88269e-06H41.715L39.758 1.75099ZM90.125 9.32149C76.8895 22.042 73.6965 24.823 71.9455 25.235C68.804 25.9045 66.8985 24.7715 58.9675 17.304C54.899 13.39 49.955 8.75499 48.0495 6.95249L44.5475 3.65649H70.2975H96.0475L90.125 9.32149ZM59.74 24.1535C59.74 24.514 42.333 40.891 41.6635 41.097C41.1485 41.303 40.994 7.57049 41.509 7.05549C41.8695 6.74649 59.74 23.5355 59.74 24.1535ZM99.292 32.9085L99.1375 41.612L89.919 32.754L80.752 23.9475L89.919 15.2955L99.1375 6.64349L99.292 15.3985C99.3435 20.2395 99.3435 28.119 99.292 32.9085ZM70.2975 29.355C72.0485 29.355 73.748 28.943 75.293 28.1705L77.662 26.986L86.7775 35.4835L95.8415 44.0325L83.224 44.187C76.323 44.2385 64.8385 44.2385 57.783 44.187L44.9595 44.0325L53.972 35.535L62.9845 26.986L65.302 28.1705C66.847 28.943 68.5465 29.355 70.2975 29.355Z" fill="#12123B"/>
<path d="M0.875508 4.9955C0.154508 5.2015 7.85291e-06 5.665 0.103008 6.8495L0.257508 8.4975H15.45H30.6425L30.797 6.901C30.9515 5.562 30.7455 5.2015 29.767 4.944C28.428 4.5835 2.26601 4.635 0.875508 4.9955Z" fill="#0971CE"/>
<path d="M7.3646 18.9005C6.4891 19.2095 6.5406 21.3725 7.4161 22.0935C7.8796 22.5055 11.4846 22.66 19.3641 22.557L30.6426 22.4025V20.6V18.7975L19.3126 18.6945C13.0811 18.643 7.6736 18.746 7.3646 18.9005Z" fill="#0971CE"/>
<path d="M15.8105 32.754C15.6045 32.96 15.45 33.784 15.45 34.608V36.05H23.2265H30.9515L30.797 34.3505L30.6425 32.7025L23.381 32.548C19.4155 32.4965 16.0165 32.5995 15.8105 32.754Z" fill="#0971CE"/>
<path d="M3.811 55.311C2.9355 55.723 1.751 56.65 1.133 57.4225C0 58.813 0 59.122 0 78.6405C0 95.3265 0.103 98.674 0.7725 99.91C2.4205 103.052 1.854 103 32.96 103H61.285L63.242 101.249L65.1475 99.498L65.302 79.5675C65.4565 60.255 65.405 59.5855 64.375 57.9375C62.2635 54.5385 62.83 54.59 32.5995 54.59C11.021 54.6415 5.0985 54.796 3.811 55.311ZM58.1435 58.916C58.0405 58.9675 53.0965 63.654 47.174 69.216C41.2515 74.8295 35.844 79.619 35.1745 79.8765C33.475 80.4945 31.0545 80.443 29.7155 79.7735C29.0975 79.413 25.132 75.8595 20.8575 71.8425C16.6345 67.8255 11.742 63.242 10.0425 61.6455L6.9525 58.7615L32.651 58.71C46.8135 58.71 58.2465 58.813 58.1435 58.916ZM16.4285 84.563C13.184 87.653 9.0125 91.567 7.107 93.2665L3.605 96.408V78.795V61.182L12.9265 70.0915L22.248 79.0525L16.4285 84.563ZM61.8 78.692C61.8 88.0135 61.6455 95.79 61.491 95.9445C61.079 96.3565 43.157 79.31 43.363 78.7435C43.569 78.1255 60.976 61.8515 61.4395 61.8C61.6455 61.8 61.8 69.422 61.8 78.692ZM31.5695 84.3055C33.887 84.563 34.8655 84.357 37.183 83.2755L40.0155 81.988L49.1825 90.5885L58.298 99.1375L45.6805 99.292C38.728 99.3435 27.192 99.3435 20.0335 99.292L7.0555 99.1375L16.1195 90.537L25.1835 81.885L26.986 82.9665C27.9645 83.533 30.0245 84.151 31.5695 84.3055Z" fill="#12123B"/>
<path d="M72.306 60.461C72.1515 60.873 72.1 61.7485 72.203 62.418L72.3575 63.6025H87.55H102.743V61.8V59.9975L87.653 59.843C74.9325 59.74 72.5635 59.843 72.306 60.461Z" fill="#00C189"/>
<path d="M72.4606 73.954C72.2546 74.16 72.1001 74.984 72.1001 75.808V77.25L84.0996 77.147L96.0476 76.9925V75.4475V73.9025L84.4086 73.748C78.0226 73.6965 72.6666 73.7995 72.4606 73.954Z" fill="#00C189"/>
<path d="M72.718 87.4985C72.306 87.756 72.1 88.58 72.203 89.404L72.3575 90.8975H79.825H87.2925L87.447 89.301C87.6015 87.962 87.3955 87.6015 86.417 87.344C84.6145 86.8805 73.4905 86.9835 72.718 87.4985Z" fill="#00C189"/>
</g>
<defs>
<clipPath id="clip0_86_327">
<rect width="103" height="103" fill="white"/>
</clipPath>
</defs>
</svg>
