<svg width="87" height="98" viewBox="0 0 87 98" fill="none" xmlns="http://www.w3.org/2000/svg">
<path d="M14.7083 0.76902C14.0834 1.39388 13.9392 2.98007 13.9392 10.4784V19.4668L6.96961 27.59L0 35.7613V66.0911C0 89.0187 0.144199 96.5652 0.576796 96.9978C1.39392 97.8149 85.6061 97.8149 86.4232 96.9978C86.8558 96.5652 87 89.0187 87 66.0911V35.7613L80.0304 27.59L73.0608 19.4668V10.4784C73.0608 2.98007 72.9166 1.39388 72.2917 0.76902C71.6188 0.0960922 68.3503 -3.8147e-05 43.5 -3.8147e-05C18.6497 -3.8147e-05 15.3812 0.0960922 14.7083 0.76902ZM69.6961 25.3309V47.3453L60.2751 55.2762C55.132 59.6502 50.7099 63.2552 50.5657 63.3033C50.3735 63.3994 48.8354 62.2458 47.105 60.8038C45.4227 59.3618 43.7884 58.1602 43.5 58.1602C43.2116 58.1602 41.5774 59.3618 39.895 60.8038C38.1646 62.2458 36.6265 63.3994 36.4343 63.3033C36.2901 63.2552 31.868 59.6502 26.7249 55.2762L17.3039 47.3453V25.3309V3.3646H43.5H69.6961V25.3309ZM13.8431 39.174L13.6989 44.269L9.1326 40.4237C6.63315 38.3088 4.51823 36.3381 4.4221 36.0977C4.32597 35.8094 6.39282 33.1176 8.9884 30.1375L13.6989 24.6099L13.8431 29.3685C13.8912 31.9641 13.8912 36.3861 13.8431 39.174ZM78.2519 30.3779C80.7033 33.1657 82.674 35.7132 82.674 35.9535C82.674 36.3381 76.3773 41.8657 73.926 43.6442C73.1088 44.269 73.0608 43.8364 73.0608 34.3193C73.0608 28.7917 73.253 24.5138 73.4453 24.7541C73.6856 25.0425 75.8486 27.5419 78.2519 30.3779ZM19.2265 53.0652C27.0133 59.6502 33.5983 65.1779 33.7906 65.3701C34.1751 65.7066 32.9735 66.764 13.8431 83.2989L3.36464 92.3353V66.0431C3.36464 41.2889 3.41271 39.7989 4.18177 40.4237C4.66243 40.8082 11.3917 46.4801 19.2265 53.0652ZM83.5392 78.9729L83.395 92.1431L68.2541 79.069C59.9387 71.8591 53.1613 65.8027 53.2094 65.6585C53.2575 65.4663 60.0829 59.6022 68.3503 52.5845L83.395 39.895L83.5392 52.8248C83.5873 59.9386 83.5873 71.7149 83.5392 78.9729ZM62.9188 78.5884L80.7033 93.9696L62.2459 94.1138C52.1039 94.1618 35.3287 94.1618 24.9945 94.1138L6.20055 93.9696L9.94972 90.8453L13.6508 87.721L35.2807 87.4806L56.9586 87.2403V86.0386V84.837L37.3956 84.6928C26.5807 84.6447 17.7845 84.4044 17.8326 84.2121C17.8326 84.0198 23.6006 78.9248 30.6182 72.9165C42.058 63.0629 43.4519 62.0055 44.221 62.5823C44.7497 62.9187 53.1133 70.1287 62.9188 78.5884Z" fill="#12123B"/>
<path d="M42.3464 9.80555C42.058 10.142 41.9138 10.8149 42.1061 11.2475C42.3464 11.9205 43.6442 12.0166 53.1133 12.0166C62.5823 12.0166 63.8801 11.9205 64.1205 11.2475C64.8415 9.32489 63.784 9.13262 53.1133 9.13262C45.0381 9.13262 42.779 9.27682 42.3464 9.80555Z" fill="#00C189"/>
<path d="M42.1061 17.5922C41.3851 19.5149 42.4426 19.7072 53.1133 19.7072C63.784 19.7072 64.8414 19.5149 64.1205 17.5922C63.8801 16.9193 62.5823 16.8232 53.1133 16.8232C43.6442 16.8232 42.3464 16.9193 42.1061 17.5922Z" fill="#0971CE"/>
<path d="M42.2503 24.8021C41.8177 25.3309 41.7696 25.7634 42.1542 26.3402C42.5868 27.0612 43.9326 27.1574 53.0172 27.3016C62.8707 27.3977 63.4475 27.3496 63.9282 26.4844C64.2647 25.7634 64.2166 25.3789 63.6398 24.8021C62.5343 23.6485 43.2116 23.6485 42.2503 24.8021Z" fill="#0971CE"/>
<path d="M42.3945 32.3005C41.5293 33.1657 41.6735 34.0309 42.731 34.6077C43.3078 34.8961 47.5857 35.0884 53.3056 35.0884C61.3807 35.0884 63.0149 34.9922 63.6398 34.3193C64.5531 33.4061 64.6011 33.0696 63.8321 32.3005C63.0149 31.4834 43.2116 31.4834 42.3945 32.3005Z" fill="#0971CE"/>
<path d="M23.0718 40.1354C22.5911 40.7122 22.5911 41.0005 23.0718 41.5773C23.6005 42.2022 26.4364 42.2983 43.5 42.2983C60.5635 42.2983 63.3994 42.2022 63.9282 41.5773C64.4088 41.0005 64.4088 40.7122 63.9282 40.1354C63.3994 39.5105 60.5635 39.4144 43.5 39.4144C26.4364 39.4144 23.6005 39.5105 23.0718 40.1354Z" fill="#0971CE"/>
<path d="M25.6674 47.2973C24.9464 47.8741 24.8503 48.1625 25.2829 48.8835C25.7636 49.7006 26.9652 49.7487 43.5 49.7487C60.0348 49.7487 61.2365 49.7006 61.7172 48.8835C62.1498 48.1625 62.0536 47.8741 61.3326 47.2973C59.9387 46.2879 27.0614 46.2879 25.6674 47.2973Z" fill="#0971CE"/>
<path d="M27.0509 10.1791C27.0509 11.2372 26.9543 11.3581 26.0208 11.5395C22.158 12.2651 20.1944 17.586 22.673 20.6395C23.5743 21.7279 24.0572 21.9698 29.433 24.207C31.1069 24.9023 31.6863 25.7488 31.3644 27.0186C30.8815 28.7721 27.8878 29.2558 26.1174 27.8651C25.5701 27.4419 25.1195 26.9279 25.1195 26.7465C25.0873 25.7791 24.6366 25.5977 22.8983 25.9907C21.9648 26.1721 21.1279 26.5349 21.0313 26.7465C20.7738 27.3512 22.158 29.7698 23.2524 30.6163C23.7997 31.0395 24.8619 31.5535 25.6345 31.7349L27.0509 32.0977V33.5488V35H28.3385H29.6261V33.5186C29.6261 32.0674 29.6261 32.0372 30.8493 31.8256C33.7465 31.3419 35.7101 29.2256 35.9676 26.3233C36.2573 22.9674 34.6478 21.2744 29.3686 19.2791C26.6646 18.2814 26.0852 17.7977 26.0852 16.4372C26.0852 15.5907 27.4372 14.4419 28.4029 14.4419C29.4974 14.4419 30.8172 15.2884 31.2356 16.2558C31.6863 17.2837 31.9438 17.314 34.2293 16.407C35.3238 15.9837 35.356 15.9233 35.0663 15.0767C34.5512 13.6558 32.652 12.0535 31.0425 11.6605C29.6905 11.2977 29.6261 11.2372 29.6261 10.1488C29.6261 9 29.6261 9 28.3385 9C27.0509 9 27.0509 9 27.0509 10.1791Z" fill="#0971CE"/>
</svg>
