<svg width="98" height="110" viewBox="0 0 98 110" fill="none" xmlns="http://www.w3.org/2000/svg">
<path d="M24 0.799973C21.9 1.69997 19.7 3.69997 18.6 5.74998C17.85 7.09998 17.75 11.25 17.5 47.75L17.25 88.25L8.74998 88.5L0.249977 88.75L0.0999765 91.75C-2.35215e-05 93.6 0.249977 95.5 0.749977 96.85C1.74998 99.4 4.69998 102.1 7.44998 102.9C8.74998 103.3 15.2 103.5 27.5 103.5C44.4 103.5 45.7 103.55 46.9 104.45C54 109.4 64.45 111.25 73.2 109C79.35 107.45 83.65 104.95 88.5 100.05C92.8 95.7 94.75 92.6 96.75 86.75C98.05 83 98.3 74.5 97.3 69.8C95.1 60.1 88.35 51.75 79.15 47.4L76 45.9V30.45V15H84.25C93.5 15 93.5 15 93.5 11.15C93.45 6.89997 90.9 2.74998 87.3 1.04997C85.05 -2.28882e-05 84.6 -2.28882e-05 55.4 -2.28882e-05C30.05 0.0499725 25.5 0.149971 24 0.799973ZM73.2 5.34998C72.3 6.64997 72.25 8.24998 72 25.75L71.75 44.75L69.5 44.5C52.75 42.7 37.55 52.95 33.5 68.8C32.3 73.45 32.2 80.4 33.25 84.75C33.65 86.4 33.95 87.9 34 88.1C34 88.35 31.2 88.5 27.75 88.5H21.5V48.75C21.5 4.84998 21.35 6.99998 24.65 4.99998C26.2 4.04997 27.35 3.99998 50.2 3.99998H74.1L73.2 5.34998ZM86.8 5.54997C88.3 6.94997 88.75 7.69997 89.2 9.59998L89.5 11H82.75C76.3 11 76 10.95 76 9.99998C76 8.29997 77.45 6.04997 79.15 4.94997C81.3 3.59998 85 3.89997 86.8 5.54997ZM72.7 49.3C77.3 50.4 81.35 52.85 85.55 57C89.7 61.1 92.4 65.8 93.5 71.1C94.4 75.2 93.9 83 92.5 86.75C86.15 103.5 67.4 110.8 51.9 102.65C42.65 97.8 37.15 89.2 36.6 78.85C36.15 69.8 38.65 63.25 44.95 56.95C52.7 49.2 61.8 46.65 72.7 49.3ZM37.75 95.25C38.8 96.75 39.8 98.15 40.05 98.3C41.7 99.3 39.15 99.5 24.95 99.5C11.45 99.5 9.14998 99.4 7.64998 98.65C5.69998 97.75 3.99998 95.4 3.99998 93.6V92.5H19.95H35.95L37.75 95.25Z" fill="#12123B"/>
<path d="M41.65 12.7C35.8 14.55 31.65 19.4 30.45 25.8C29.2 32.45 32.85 39.5 39.25 42.9C41.45 44.1 42.3 44.25 46.5 44.25C50.45 44.25 51.65 44.05 53.6 43.05C56.8 41.5 59.9 38.35 61.45 35C63.35 31 63.3 25.4 61.35 21.45C57.75 14.1 49.3 10.35 41.65 12.7ZM49.5 21.75V25H52.75H56V28.25V31.5H52.75H49.5V34.75V38H46.5H43.5V34.75V31.5H40.25H37V28.25V25H40.25H43.5V21.75V18.5H46.5H49.5V21.75Z" fill="#00C189"/>
<path d="M60.85 54.8C60.65 55 60.5 55.9 60.5 56.8C60.5 58.2 60.25 58.5 58.85 58.95C51.85 61.25 49.2 70.3 53.95 75.7C55.3 77.2 57.9 78.3 64.45 80.05C67.95 80.95 71.1 82.1 71.6 82.6C72.85 83.85 72.75 86.15 71.3 87.85C70.25 89.05 69.7 89.25 66.65 89.4C61.55 89.7 58.9 88.1 58.1 84.2L57.7 82.25H54H50.25L50.35 84.65C50.6 89 53.6 93 58.1 95C60.1 95.85 60.45 96.25 60.6 97.65L60.75 99.25H65.25H69.75L69.9 97.75C70.05 96.45 70.5 96.05 73.65 94.5C76.6 93.05 77.5 92.35 78.75 90.3C81.65 85.55 80.4 79.2 75.95 76.3C74.95 75.6 71.25 74.3 67.8 73.35C64.3 72.4 61.05 71.25 60.5 70.75C59.9 70.2 59.5 69.2 59.5 68.2C59.5 65.85 61.3 64.75 65.1 64.75C69.25 64.8 70.65 65.95 71.8 70.35C71.9 70.8 73.1 71 75.5 71C79.65 71 79.9 70.7 79 67.05C78.25 63.9 75.85 61.05 72.6 59.55C70.3 58.45 70.05 58.2 69.9 56.55L69.75 54.75L65.5 54.6C63.15 54.55 61.05 54.6 60.85 54.8Z" fill="#0971CE"/>
</svg>
