<svg width="95" height="95" viewBox="0 0 95 95" fill="none" xmlns="http://www.w3.org/2000/svg">
<g clip-path="url(#clip0_17_77)">
<path d="M42.2119 0.111336C38.7236 0.48243 33.8809 1.63282 30.5039 2.87598C26.5703 4.3418 20.4102 7.73731 19.9092 8.73927C19.4824 9.55567 19.6123 10.3721 20.2432 10.9658C21.1709 11.8193 21.8018 11.708 24.1211 10.3164C29.4463 7.06934 34.2891 5.26954 40.3564 4.24903C43.585 3.69239 49.8564 3.65528 53.0664 4.1377C67.6133 6.40137 79.4697 15.0664 85.834 28.1104C90.6768 38.0557 91.5303 49.5781 88.1904 60.0244C87.8379 61.1377 87.5225 62.084 87.4854 62.1211C87.4668 62.1396 86.8916 61.8242 86.1865 61.416C83.3662 59.6904 80.9541 58.9854 77.3359 58.874L74.5898 58.7812V45.4775C74.5898 33.0273 74.5527 32.1553 74.2373 31.4502C73.7363 30.3369 72.9756 29.5391 71.918 28.9824C71.0273 28.5371 70.7676 28.5 68.0586 28.4258L65.1641 28.3516L65.0898 24.0469C65.0342 20.0947 64.9971 19.7051 64.626 19.0186C64.4033 18.6104 63.9951 18.0537 63.6982 17.7754C62.5293 16.6621 63.1787 16.6992 46.999 16.6992C33.0088 16.6992 32.1553 16.7178 31.4316 17.0518C30.4482 17.4971 29.4092 18.7402 29.1494 19.7607C29.0381 20.2246 28.9453 22.2471 28.9453 24.4551V28.3516L26.0322 28.4258C23.8799 28.4814 22.915 28.5742 22.4326 28.7969C21.3936 29.2607 20.3174 30.3369 19.835 31.4131L19.3896 32.3779V50.8398V69.3018L19.9277 70.3965C20.4844 71.5098 21.4863 72.4189 22.6924 72.8643C23.1377 73.0127 27.9619 73.0869 41.1543 73.0869L59.0225 73.1055L58.874 74.2559C58.3359 78.4492 59.1709 82.6611 61.2305 86.1309C61.6387 86.7988 61.9727 87.4111 61.9727 87.4668C61.9727 87.8008 55.9609 89.3594 52.7881 89.8418C50.2461 90.2129 43.2881 90.1572 40.7275 89.7305C30.875 88.1162 22.8408 83.9785 16.124 77.0762C13.7861 74.6641 12.5244 73.0869 10.8916 70.6006C6.1416 63.29 3.89648 55.7012 3.89648 46.9434C3.89648 38.3525 6.06738 30.875 10.6689 23.6201C11.7822 21.8574 11.875 21.375 11.3184 20.4473C10.8359 19.6494 10.1494 19.3896 9.22168 19.668C8.62793 19.835 8.34961 20.1133 7.49609 21.4307C-0.204102 33.25 -2.09668 48.6875 2.50488 62.1582C4.91699 69.1719 8.47949 74.8867 13.7305 80.1748C24.585 91.085 39.8184 95.9092 55.1631 93.3115C57.5195 92.9033 60.5811 92.0869 63.2158 91.1406L64.7373 90.6025L65.8135 91.4189C67.335 92.5508 69.7842 93.7754 71.7324 94.3691C73.2725 94.8516 73.625 94.8887 76.7236 94.8887C79.6738 94.9072 80.2305 94.8516 81.5479 94.4805C91.6602 91.5488 97.2451 81.251 94.1279 71.3428C93.4414 69.1533 92.5879 67.5762 90.7881 65.1455C90.584 64.8857 90.6582 64.5703 91.1221 63.3457C93.293 57.7051 94.3691 50.1719 93.9238 43.8818C93.4229 36.998 91.7158 30.8379 88.6914 25.0859C82.5498 13.3779 71.4727 4.60157 58.7813 1.39161C54.7178 0.352547 52.918 0.148445 47.7783 0.0927811C45.125 0.0556717 42.6201 0.0742264 42.2119 0.111336ZM61.2305 24.3994V28.3887H46.9434H32.6562V24.6963C32.6562 22.6553 32.7119 20.874 32.7676 20.707C32.8789 20.4473 34.3076 20.4102 47.0547 20.4102H61.2305V24.3994ZM70.2295 32.3223C70.4893 32.4336 70.749 32.7119 70.7861 32.916C70.8418 33.1387 70.8604 39.2617 70.8418 46.5352L70.7861 59.7646L69.5615 60.2842C66.1289 61.7314 62.8262 64.7559 60.9522 68.1514L60.2656 69.3945H42.0635C25.4014 69.3945 23.8428 69.376 23.5273 69.0791C23.2119 68.8008 23.1934 67.9844 23.1934 50.8398C23.1934 32.1924 23.1748 32.4893 23.9355 32.2295C24.084 32.1738 34.4561 32.1182 46.9805 32.1182C64.0137 32.0996 69.877 32.1553 70.2295 32.3223ZM80.1562 62.9004C89.2109 65.0713 93.7939 75.2022 89.5078 83.5147C87.6709 87.0586 84.3125 89.749 80.3232 90.8438C78.5234 91.3447 74.9424 91.3076 73.0498 90.7695C68.1328 89.3594 64.4404 85.7227 62.9932 80.8057C62.3809 78.7461 62.2881 75.6475 62.7891 73.6064C64.0693 68.2627 68.4297 63.958 73.7363 62.8076C75.499 62.418 78.3193 62.4736 80.1562 62.9004Z" fill="#12123B"/>
<path d="M42.0264 38.2226C41.1914 38.5381 41.0986 38.8906 41.0059 41.8222L40.9131 44.624L38.0742 44.7168C35.2354 44.8096 35.2168 44.8096 34.7715 45.3291L34.3262 45.8486V50.8213C34.3262 57.2041 34.1592 56.9629 38.5195 56.9629H41.0059V59.7275C41.0059 63.8096 40.8389 63.7168 47.7412 63.6055L51.9902 63.5498L52.5283 62.9375L53.0664 62.3437V59.6719V56.9814L55.8682 56.9258L58.6699 56.8701L59.208 56.2578L59.7647 55.6455L59.709 50.6543C59.6348 44.3271 59.9688 44.8281 55.9424 44.7539L53.0664 44.6982V42.0078C53.0664 40.5049 52.9736 39.1504 52.8809 38.9463C52.4356 38.1299 51.8789 38.0371 46.999 38.0556C44.4756 38.0556 42.2305 38.1299 42.0264 38.2226ZM49.3555 44.457V47.166L49.9863 47.7969L50.6172 48.4277H53.3262H56.0352V50.7471V53.0664H53.7715C49.5967 53.0664 49.3555 53.3076 49.3555 57.1855V59.7461H47.0361H44.7168V57.3525C44.7168 53.3633 44.5498 53.1963 40.6904 53.1035L38.0371 53.0293V50.7285V48.4277H40.7275H43.418L44.0117 47.8896L44.624 47.3515L44.6797 44.5498L44.7354 41.748H47.0547H49.3555V44.457Z" fill="#0971CE"/>
<path d="M13.8789 13.6006C13.6191 13.8418 13.3408 14.3057 13.2666 14.6396C12.8027 16.7549 15.8643 17.7939 16.792 15.8271C17.1631 15.0664 17.0332 14.3057 16.4209 13.6562C15.8086 13.0068 14.5469 12.9697 13.8789 13.6006Z" fill="#0971CE"/>
<path d="M76.2569 66.1842C74.9054 66.6031 74.0135 67.7788 74 69.1438C74 69.8735 75.6217 79.4821 75.9595 80.7254C76.1487 81.4146 76.5407 81.7254 77.2434 81.7254C77.9461 81.7254 78.338 81.4146 78.5272 80.7254C78.8651 79.4821 80.4868 69.8735 80.4868 69.1438C80.4733 67.7518 79.5813 66.5896 78.1759 66.1706C77.4056 65.9409 77.0137 65.9409 76.2569 66.1842Z" fill="#00C189"/>
<path d="M76.4055 83.1444C75.0271 83.766 74.8784 85.658 76.1217 86.5364C77.0272 87.1851 78.4867 86.8338 79.0002 85.8472C79.284 85.2931 79.257 84.3742 78.9327 83.8471C78.6489 83.3877 77.7569 82.8741 77.2434 82.8741C77.0947 82.8741 76.7163 82.9957 76.4055 83.1444Z" fill="#00C189"/>
</g>
<defs>
<clipPath id="clip0_17_77">
<rect width="95" height="95" fill="white"/>
</clipPath>
</defs>
</svg>
