<svg width="113" height="112" viewBox="0 0 113 112" fill="none" xmlns="http://www.w3.org/2000/svg">
<path d="M79.7208 1.73286C74.3227 6.19798 77.9214 14.6617 85.1856 14.6617C86.4518 14.6617 84.9856 16.4611 77.255 24.1251C71.9902 29.3233 67.1918 34.5881 66.592 35.8543C64.3262 40.7193 67.6583 45.9841 73.1897 45.9841C75.7888 45.9841 76.322 45.5843 85.9187 36.1209C91.4501 30.7228 96.0485 26.1244 96.1817 25.7912C96.8482 24.4583 97.6479 25.5912 97.6479 27.9237C97.6479 31.7224 100.647 34.6547 104.579 34.6547C106.112 34.6547 108.044 34.1882 108.911 33.5884C111.91 31.4559 112.309 29.0567 112.309 13.9953V0.000133514H97.0481H81.7868L79.7208 1.73286ZM108.311 16.661C108.311 28.9234 108.244 29.2566 106.845 30.2563C104.845 31.6558 103.912 31.5891 102.313 29.9897C101.18 28.8568 100.98 27.7905 100.98 22.1924V15.728L87.4515 29.19C79.9874 36.5874 73.6563 42.652 73.2564 42.652C72.9232 42.652 71.9235 42.1855 71.1238 41.5857C67.9249 39.3864 68.8579 37.9869 82.6531 24.2584C89.784 17.1275 95.6486 11.1296 95.6486 10.9963C95.6486 10.7964 92.8496 10.6631 89.3841 10.6631C84.5191 10.6631 82.8531 10.3965 82.0533 9.59679C80.7871 8.33057 80.6538 5.73147 81.8534 4.73182C82.6531 4.13203 106.378 3.26566 107.844 3.86546C108.111 3.99874 108.311 9.73008 108.311 16.661Z" fill="#00C189"/>
<path d="M31.6709 36.4541C11.9444 39.7197 -2.4506 59.1129 0.348424 78.6395C2.48102 93.7675 11.3446 104.497 26.3394 110.228C29.8715 111.561 31.2044 111.628 68.7913 111.828C95.5819 111.961 108.044 111.828 108.977 111.295C111.71 109.829 112.443 106.963 112.043 100.032C111.51 91.9015 111.51 91.435 112.043 84.704C112.576 77.7064 111.71 74.3743 108.977 72.9748C107.444 72.175 104.046 71.9751 91.5167 71.9751H75.9221L75.189 67.2434C74.0561 59.7793 70.1241 52.5152 64.1929 46.9172C61.4605 44.3847 57.7285 41.519 55.8624 40.4527C49.398 36.9873 38.8684 35.2546 31.6709 36.4541ZM46.6656 40.9859C54.7295 43.1185 61.8604 48.3167 66.7253 55.6474C73.6562 66.1105 73.7895 81.4385 66.9919 91.8349C60.2609 102.298 49.9978 107.963 38.0686 107.963C31.5376 107.963 27.2057 106.896 21.6077 103.897C8.14571 96.7665 1.14815 81.0386 4.68025 66.0438C9.01208 47.6502 28.2054 36.1876 46.6656 40.9859ZM107.511 76.7734C108.377 77.6398 108.644 86.9699 107.911 88.9025C107.578 89.8356 105.312 89.9688 89.9839 89.9688H72.4567L73.7229 86.6367C74.3893 84.8373 75.189 81.705 75.389 79.6391L75.8555 75.9737H91.2501C102.38 75.9737 106.911 76.1736 107.511 76.7734ZM107.578 94.9005C108.111 95.5003 108.311 97.9661 108.178 101.765L107.978 107.629L81.7201 107.829L55.4626 107.963L58.2616 106.097C61.5271 103.897 66.3921 99.2989 68.8579 96.1L70.4574 93.9674H88.651C103.446 93.9674 106.978 94.1674 107.578 94.9005Z" fill="#12123B"/>
<path d="M29.3383 47.1172C24.2067 48.9832 20.0748 51.649 17.0092 55.1144C4.48028 69.3762 8.61217 90.7687 25.5396 99.0991C30.4712 101.565 30.8044 101.632 37.9353 101.632C44.8662 101.632 45.5993 101.498 49.8645 99.499C71.457 89.2359 71.457 58.6466 49.8645 48.4501C45.9325 46.6507 44.4664 46.3175 39.0016 46.1842C34.2033 45.9843 31.8707 46.2509 29.3383 47.1172ZM48.7982 52.3821C67.9915 61.7122 66.3254 89.5025 46.1324 97.0332C41.3341 98.7659 33.9367 98.6326 28.8718 96.7C23.607 94.634 18.8753 90.2356 16.2095 84.7708C14.2102 80.7055 14.0103 79.8392 14.0103 73.9746C14.0103 68.1099 14.2102 67.2436 16.2095 63.1783C22.2741 50.8493 36.2026 46.2509 48.7982 52.3821Z" fill="#0971CE"/>
<path d="M36.8024 55.0476C36.5358 55.3142 36.3358 56.4471 36.3358 57.5801C36.3358 59.3128 35.8693 59.846 33.6701 60.8456C25.473 64.6443 28.8718 75.9737 38.1352 75.9737C42.7336 75.9737 44.6663 80.5721 41.2675 83.2378C39.1349 84.9039 37.6021 84.9706 35.003 83.6377C33.8034 83.0379 32.937 81.905 32.6705 80.6387C32.3372 79.1059 31.8707 78.6394 30.6045 78.6394C29.3383 78.6394 29.0051 78.9726 29.0051 80.3055C29.0051 83.0379 30.6712 85.5037 33.5368 87.1698C35.7361 88.3694 36.2692 89.1025 36.4691 90.8352C36.6024 92.4346 37.0023 92.9678 38.0019 92.9678C39.0682 92.9678 39.4014 92.4346 39.5347 90.502C39.668 88.6359 40.0679 88.0362 41.2675 87.7029C43.6666 87.1031 46.9988 82.9713 46.9988 80.5721C46.9988 76.0403 43.8666 72.9081 38.5351 72.175C34.6698 71.6419 32.004 69.376 32.6705 67.1101C34.07 62.4451 40.7343 62.3784 42.9336 66.9768C43.4667 68.1098 44.1998 69.1761 44.5996 69.4426C45.5993 70.1091 46.9988 68.7095 46.9988 66.9102C46.9988 64.9775 43.5333 60.9123 41.3341 60.3791C40.0679 60.0459 39.7347 59.5127 39.5347 57.5134C39.3348 55.1143 38.0019 53.9147 36.8024 55.0476Z" fill="#0971CE"/>
</svg>
