<svg width="115" height="115" viewBox="0 0 115 115" fill="none" xmlns="http://www.w3.org/2000/svg">
<g clip-path="url(#clip0_1_85)">
<path d="M16.2392 0.359383C14.8916 0.853523 13.3867 2.29102 12.6455 3.77345L12.0166 5.05372V13.0723V21.1133L12.6455 21.7197C13.7461 22.8428 15.8574 22.3486 16.374 20.8438C16.5312 20.3945 16.6211 17.5195 16.6211 13.0049V5.86231L17.1601 5.23341L17.6992 4.6045L47.8193 4.53712L77.9394 4.4922V12.376C77.9394 17.7891 78.0293 20.5518 78.209 21.1582C78.5459 22.3037 80.0508 23.9883 81.1963 24.5049C82.0049 24.8867 82.8359 24.9316 90.248 24.9316H98.3789V67.0234V109.138L97.8398 109.767L97.3008 110.395H57.5H17.6992L17.1601 109.767L16.6211 109.138V74.7725C16.6211 38.0938 16.666 39.2617 15.5654 38.6777C15.3408 38.543 14.7793 38.3857 14.3301 38.2959C13.6338 38.1611 13.4316 38.2285 12.7803 38.8125L12.0166 39.4863V74.7275V109.946L12.6455 111.227C13.0049 111.945 13.7236 112.911 14.2851 113.405C16.2617 115.135 12.7129 115 57.5 115C102.287 115 98.7383 115.135 100.715 113.405C101.276 112.911 101.995 111.945 102.354 111.227L102.983 109.946V65.8779V21.7871L92.0898 10.8936L81.1963 7.62939e-06L49.1894 0.0224686C21.54 0.0224686 17.0478 0.0898514 16.2392 0.359383ZM89.0351 20.3945C84.8125 20.4395 82.9482 20.3721 82.7461 20.1924C82.499 19.9902 82.4316 18.7324 82.4316 13.8359V7.74903L88.7207 14.0381L95.0098 20.3271L89.0351 20.3945Z" fill="#12123B"/>
<path d="M52.4463 21.9893C36.0498 25.3809 26.998 42.7881 33.6914 57.9941C37.4424 66.5967 45.7529 72.5488 55.209 73.4473C57.3428 73.6494 60.8691 73.4697 62.5986 73.0879C66.0576 72.3242 69.8535 70.6621 72.5488 68.7754C74.6601 67.293 77.6474 64.1934 79.1523 61.9248C83.9141 54.7373 84.8349 45.7529 81.6006 37.7793C78.501 30.0752 71.9873 24.4375 63.5644 22.1914C61.0713 21.5176 55.209 21.4277 52.4463 21.9893ZM62.6885 26.7061C74.4131 29.7832 81.331 41.5078 78.2314 53.1201C77.7373 54.9844 76.1201 58.3984 74.9297 60.0605C73.7392 61.7451 71.0889 64.2607 69.3369 65.4287C67.5625 66.5967 65.0244 67.7646 62.9355 68.3262C60.4199 69.0225 54.5801 69.0225 52.0644 68.3262C48.4932 67.3379 45.4609 65.6309 42.6982 63.0029C35.7353 56.3994 34.0508 46.0674 38.5205 37.5771C41.665 31.625 47.0556 27.6494 53.749 26.3691C55.9951 25.9424 60.4648 26.0996 62.6885 26.7061Z" fill="#0971CE"/>
<path d="M55.1416 30.5693C53.1201 30.8838 51.6826 31.3555 49.7285 32.3213C45.6631 34.3877 42.7656 37.7568 41.1709 42.3389C40.6094 44.001 40.5645 44.3828 40.5645 47.5049C40.5645 50.582 40.6094 51.0312 41.1934 52.7607C41.9795 55.1641 42.6758 55.9277 44.0459 55.9277H45.0117L55.2988 45.6631C62.2842 38.6777 65.6533 35.1514 65.8105 34.6797C66.2373 33.4443 65.6309 32.4336 64.1035 31.7598C61.5879 30.6592 57.8145 30.1426 55.1416 30.5693ZM52.334 42.1143C48.4482 46 45.1914 49.1895 45.1016 49.1895C44.8096 49.1895 44.8994 46.4717 45.2588 44.8545C46.2021 40.4072 49.8857 36.5664 54.3555 35.3984C55.0293 35.2188 56.4443 35.0615 57.5 35.0615L59.4092 35.0391L52.334 42.1143Z" fill="#0971CE"/>
<path d="M69.5166 37.959C69.2695 38.0488 64.2832 42.9229 58.4658 48.7852C48.2012 59.0723 47.8418 59.4541 47.8418 60.2627C47.8418 60.7344 47.9541 61.3184 48.0664 61.543C48.4033 62.1943 49.9307 63.0029 52.334 63.8115C54.333 64.5078 54.6699 64.5527 57.5 64.5527C60.3301 64.5527 60.667 64.5078 62.666 63.8115C65.5859 62.8232 67.6299 61.5654 69.6289 59.5215C73.2002 55.8828 74.7275 51.8848 74.5029 46.7188C74.3906 43.9561 73.8066 41.665 72.6162 39.4863C71.8525 38.0713 70.6396 37.4648 69.5166 37.959ZM69.9883 46.7188C70.5723 54.4902 63.542 61.0488 55.8154 59.9482C54.9619 59.8359 54.2207 59.6787 54.1533 59.6113C54.0859 59.5664 57.5225 56.0176 61.7676 51.7725C70.4375 43.1025 69.7637 43.5068 69.9883 46.7188Z" fill="#0971CE"/>
<path d="M12.6904 28.6152C10.4892 30.8164 13.4541 33.9834 15.7676 31.917C17.3398 30.5244 16.3066 28.0761 14.1279 28.0761C13.4766 28.0761 13.0723 28.2334 12.6904 28.6152Z" fill="#12123B"/>
<path d="M33.7588 80.792C32.1865 81.1064 31.5801 83.2852 32.7256 84.498L33.332 85.127H57.5H81.668L82.2744 84.498C83.5098 83.2178 82.8135 81.1289 81.0615 80.7695C80.2754 80.6123 34.5449 80.6348 33.7588 80.792Z" fill="#00C189"/>
<path d="M33.7588 89.7764C32.1865 90.0908 31.5801 92.2695 32.7256 93.4824L33.332 94.1113H57.5H81.668L82.2744 93.4824C83.5098 92.2021 82.8135 90.1133 81.0615 89.7539C80.2754 89.5967 34.5449 89.6191 33.7588 89.7764Z" fill="#00C189"/>
<path d="M33.7588 98.7607C32.1865 99.0752 31.5801 101.254 32.7256 102.467L33.332 103.096H45.8428H58.376L58.96 102.579C60.3076 101.434 59.7685 99.3223 57.9941 98.8281C57.1855 98.626 34.8818 98.5361 33.7588 98.7607Z" fill="#00C189"/>
</g>
<defs>
<clipPath id="clip0_1_85">
<rect width="115" height="115" fill="white"/>
</clipPath>
</defs>
</svg>
