<svg width="103" height="121" viewBox="0 0 103 121" fill="none" xmlns="http://www.w3.org/2000/svg">
<path d="M38.8162 8.33181V16.6317L39.547 16.4402C39.9283 16.3125 41.0404 15.8975 41.9936 15.5144L43.7412 14.844L43.9 10.9814L44.0589 7.11875L51.8436 9.92795C58.5797 12.3541 59.5329 12.7691 58.8339 13.0244C57.8171 13.4075 38.4349 20.4305 34.1454 21.9628L30.8726 23.112V32.5611C30.8726 41.8825 30.8726 41.9783 31.4763 41.0206C32.1436 39.9033 33.7005 38.4987 35.035 37.7964L35.9565 37.3176V31.9865V26.6235L37.6405 26.017C38.5302 25.6977 44.2178 23.6547 50.2549 21.452C56.292 19.2813 61.9795 17.2063 62.901 16.8871L64.5532 16.3125V54.7154V93.1503L55.1163 96.566C49.9053 98.4495 45.5523 100.078 45.4252 100.205C45.2028 100.397 46.0924 103.908 46.5691 104.642C46.6644 104.802 48.8886 104.164 51.9071 103.046C54.7668 102.025 59.3105 100.365 62.0749 99.3752L67.0316 97.6195L84.4756 103.908C94.0397 107.388 102.142 110.293 102.428 110.389C102.968 110.516 103 108.345 103 66.8141V23.0801L88.9876 18.0363C81.2982 15.259 74.9434 12.8968 74.8798 12.801C74.8163 12.6733 78.1208 11.3645 82.2514 9.89602C86.3503 8.39566 89.8455 7.11875 90.0043 7.08683C90.1632 7.02298 90.2903 8.65104 90.2903 10.9495V14.9398L92.5463 15.7698C93.8172 16.2486 94.8976 16.5679 94.9611 16.4721C95.1518 16.2806 95.1518 0.319229 94.9929 0.127693C94.8976 0.0638428 88.7016 2.23459 81.1711 4.94801C73.6406 7.66144 67.2858 9.89602 66.9998 9.89602C66.7457 9.89602 64.9663 9.32141 63.0599 8.65104C53.3052 5.0757 39.1657 0 39.0068 0C38.9115 0 38.8162 3.73495 38.8162 8.33181ZM86.1597 22.3459L98.075 26.6554L98.1703 65.0584C98.2021 86.1592 98.1703 103.429 98.075 103.429C97.9479 103.429 90.7669 100.876 76.7863 95.7999L69.796 93.278L69.7007 54.8112L69.6371 16.3125L71.9248 17.1744C73.1958 17.6532 79.6142 19.9836 86.1597 22.3459Z" fill="#12123B"/>
<path d="M37.1004 38.8179C34.1136 39.7437 31.5081 43.3509 31.5081 46.607C31.5081 50.8208 35.5752 54.9069 39.7376 54.9069C43.9954 54.9069 48.0307 50.8527 48.0307 46.607C48.0307 43.2871 45.4252 39.7437 42.2796 38.8179C40.246 38.2114 39.1339 38.2114 37.1004 38.8179Z" fill="#00C189"/>
<path d="M28.2354 54.9708C25.5981 55.3539 24.3589 56.0562 18.1947 60.653C14.0006 63.7814 12.0941 65.4095 11.8081 66.0799C11.5857 66.5906 10.982 70.4533 10.4101 74.6671C9.5204 81.4666 9.32975 82.3924 8.69427 83.0947C8.2812 83.5416 7.86814 84.4673 7.77282 85.2015L7.58217 86.5104H5.23089C2.68895 86.5104 1.38621 86.9892 0.560083 88.1704C-0.202497 89.2557 -0.170723 103.078 0.560083 104.259C1.67218 105.919 2.05347 105.983 13.0791 105.983H23.2468L24.4543 104.898L25.6299 103.812V96.2787V88.745L24.5814 87.7234C23.5964 86.7019 23.4375 86.67 20.7367 86.5742L17.9088 86.4465L17.7499 85.0419C17.6864 84.2439 17.3686 83.35 17.0826 83.0308C16.606 82.4881 16.6378 82.0731 17.6864 76.9017C18.3218 73.8371 18.8938 71.1237 18.9573 70.8683C19.1162 70.3256 21.9441 68.506 22.2301 68.7614C22.3254 68.8571 21.8805 71.5706 21.2451 74.7628C19.9741 81.4347 19.6564 83.6693 19.9423 84.4035C20.1012 84.7866 20.5778 84.9142 21.9759 84.9142C24.073 84.9142 25.471 85.6804 26.6467 87.4361C27.3457 88.4896 27.3775 88.745 27.3775 96.2468C27.3775 103.749 27.3457 104.004 26.6784 105.026C25.2804 107.069 23.4693 107.867 20.3236 107.899H18.862L17.3686 112.4C16.0023 116.518 15.907 117.028 16.2247 118.114C16.9556 120.604 19.6564 121.721 21.9759 120.508C23.1515 119.901 23.1833 119.838 26.7738 110.931L29.7605 103.589L29.9194 98.3856L30.0783 93.1822L32.3978 97.9068C33.6688 100.492 36.1154 106.366 37.8629 110.931C41.517 120.38 41.8983 120.987 44.5673 120.987C47.2681 120.987 49.0157 118.72 48.3484 116.103C46.9504 110.835 42.3749 97.9706 39.261 90.6603C37.2592 86.0315 35.6388 81.9454 35.6388 81.5624C35.6388 80.8281 38.5938 70.3575 38.8797 70.0702C38.975 69.9744 40.0236 70.964 41.1992 72.2729C42.6291 73.9009 43.6458 74.7628 44.3449 74.9225C44.885 75.0821 48.7297 75.114 52.8921 75.0182L60.4862 74.8586L61.4076 73.8052C62.7103 72.3686 62.7103 70.2617 61.4394 68.9529C60.4226 67.9633 59.5965 67.8037 53.5912 67.5164C47.2363 67.1972 47.9671 67.5483 44.0589 62.8557C42.1842 60.5892 40.5955 58.7377 40.5638 58.7377C40.532 58.7377 39.4517 60.3338 38.1807 62.2492C36.9097 64.1964 35.8294 65.7287 35.7659 65.6649C35.7341 65.633 35.7976 64.3241 35.9247 62.7599C36.1789 60.2061 36.2742 59.8869 37.0686 59.2484C38.2442 58.2907 37.99 56.8223 36.5284 56.2477C35.6705 55.9285 35.4163 55.9604 34.622 56.535C34.05 56.95 33.7641 57.3969 33.8594 57.6842C34.4313 59.1846 34.3678 59.6634 33.0333 62.1215L31.667 64.6434L31.5717 59.823L31.4763 54.9708L30.6184 54.8431C30.1418 54.7793 29.0615 54.8431 28.2354 54.9708Z" fill="#0971CE"/>
</svg>
