<svg width="115" height="115" viewBox="0 0 115 115" fill="none" xmlns="http://www.w3.org/2000/svg">
<g clip-path="url(#clip0_1_133)">
<path d="M16.2393 0.359383C14.8916 0.853523 13.3867 2.29102 12.6455 3.77345L12.0166 5.05372V13.0723V21.1133L12.6455 21.7197C13.7461 22.8428 15.8574 22.3486 16.374 20.8438C16.5312 20.3945 16.6211 17.5195 16.6211 13.0049V5.86231L17.1602 5.23341L17.6992 4.6045L47.8193 4.53712L77.9395 4.4922V12.376C77.9395 17.7891 78.0293 20.5518 78.209 21.1582C78.5459 22.3037 80.0508 23.9883 81.1963 24.5049C82.0049 24.8867 82.8359 24.9316 90.248 24.9316H98.3789V67.0234V109.138L97.8398 109.767L97.3008 110.395H57.5H17.6992L17.1602 109.767L16.6211 109.138V74.7725C16.6211 38.0938 16.666 39.2617 15.5654 38.6777C15.3408 38.543 14.7793 38.3857 14.3301 38.2959C13.6338 38.1611 13.4316 38.2285 12.7803 38.8125L12.0166 39.4863V74.7275V109.946L12.6455 111.227C13.0049 111.945 13.7236 112.911 14.2852 113.405C16.2617 115.135 12.7129 115 57.5 115C102.287 115 98.7383 115.135 100.715 113.405C101.276 112.911 101.995 111.945 102.354 111.227L102.983 109.946V65.8779V21.7871L92.0898 10.8936L81.1963 7.62939e-06L49.1895 0.0224686C21.54 0.0224686 17.0479 0.0898514 16.2393 0.359383ZM89.0352 20.3945C84.8125 20.4395 82.9482 20.3721 82.7461 20.1924C82.499 19.9902 82.4316 18.7324 82.4316 13.8359V7.74903L88.7207 14.0381L95.0098 20.3271L89.0352 20.3945Z" fill="#12123B"/>
<path d="M12.6905 28.6152C10.4893 30.8164 13.4541 33.9834 15.7676 31.917C17.3399 30.5244 16.3067 28.0761 14.128 28.0761C13.4766 28.0761 13.0723 28.2334 12.6905 28.6152Z" fill="#12123B"/>
<path d="M33.7588 80.792C32.1865 81.1064 31.5801 83.2852 32.7256 84.498L33.332 85.127H57.5H81.668L82.2744 84.498C83.5098 83.2178 82.8135 81.1289 81.0615 80.7695C80.2754 80.6123 34.5449 80.6348 33.7588 80.792Z" fill="#00C189"/>
<path d="M33.7588 89.7764C32.1865 90.0908 31.5801 92.2695 32.7256 93.4824L33.332 94.1113H57.5H81.668L82.2744 93.4824C83.5098 92.2021 82.8135 90.1133 81.0615 89.7539C80.2754 89.5967 34.5449 89.6191 33.7588 89.7764Z" fill="#00C189"/>
<path d="M33.7588 98.7607C32.1865 99.0752 31.5801 101.254 32.7256 102.467L33.332 103.096H45.8428H58.376L58.96 102.579C60.3076 101.434 59.7685 99.3223 57.9941 98.8281C57.1855 98.626 34.8818 98.5361 33.7588 98.7607Z" fill="#00C189"/>
<g clip-path="url(#clip1_1_133)">
<path d="M55.0078 28.0547C49.7656 28.6172 45.0156 31.125 41.6719 35.1094C39.3203 37.9063 37.8594 41.0781 37.2109 44.7969C37.0625 45.6484 37.0469 46.0625 37.0469 48C37.0469 49.9375 37.0625 50.3516 37.2109 51.2031C37.9453 55.4219 39.7109 58.9141 42.625 61.9375C45.6172 65.0469 49.3906 67.0156 53.7969 67.7891C54.6484 67.9375 55.0625 67.9531 57 67.9531C59.4453 67.9531 60.1797 67.875 62.1016 67.3828C68.9922 65.6016 74.6016 59.9922 76.3828 53.1016C76.875 51.1797 76.9531 50.4453 76.9531 48C76.9531 45.5547 76.875 44.8203 76.3828 42.8984C74.6016 36.0156 68.9922 30.3984 62.1016 28.6172C60.3281 28.1641 59.4922 28.0625 57.3125 28.0391C56.2187 28.0234 55.1797 28.0313 55.0078 28.0547ZM59.2266 31.4844C65.4453 32.3438 70.7266 36.6797 72.7656 42.6094C73.7734 45.5313 73.9375 48.7578 73.2344 51.7891C71.8359 57.8359 66.8359 62.8359 60.7891 64.2344C58.3594 64.7969 55.6406 64.7969 53.2109 64.2344C47.1641 62.8359 42.1641 57.8359 40.7656 51.7891C40.2031 49.3594 40.2031 46.6406 40.7656 44.2109C42.1406 38.2656 46.9844 33.3359 52.9297 31.8281C54.9219 31.3281 57.1875 31.2031 59.2266 31.4844Z" fill="#0971CE"/>
<path d="M49.6484 39.6016C48.7109 39.8984 48.25 41.0312 48.6953 41.9453C48.7578 42.0703 50.1172 43.4922 51.7109 45.0859L54.6172 48L51.7109 50.9062C50.1172 52.5078 48.7578 53.9219 48.6953 54.0547C48.2344 55 48.7109 56.1172 49.7031 56.4062C50.1484 56.5312 50.5391 56.5 50.9453 56.3047C51.0781 56.2422 52.4922 54.8828 54.0938 53.2891L57 50.3828L59.9141 53.2891C61.5078 54.8828 62.9297 56.2422 63.0547 56.3047C64 56.7656 65.1172 56.2891 65.4063 55.2969C65.5313 54.8516 65.5 54.4609 65.3047 54.0547C65.2422 53.9219 63.8828 52.5078 62.2891 50.9062L59.3828 48L62.2891 45.0859C63.8828 43.4922 65.2422 42.0703 65.3047 41.9453C65.5 41.5391 65.5313 41.1484 65.4063 40.7031C65.1172 39.7109 64 39.2344 63.0547 39.6953C62.9297 39.7578 61.5078 41.1172 59.9141 42.7109L57 45.6172L54.0938 42.7109C52.4922 41.1172 51.0703 39.7578 50.9453 39.6953C50.5781 39.5156 50.0547 39.4766 49.6484 39.6016Z" fill="#0971CE"/>
</g>
</g>
<defs>
<clipPath id="clip0_1_133">
<rect width="115" height="115" fill="white"/>
</clipPath>
<clipPath id="clip1_1_133">
<rect width="40" height="40" fill="white" transform="translate(37 28)"/>
</clipPath>
</defs>
</svg>
