<svg width="103" height="84" viewBox="0 0 103 84" fill="none" xmlns="http://www.w3.org/2000/svg">
<mask id="path-1-outside-1_1_190" maskUnits="userSpaceOnUse" x="0" y="0.0352783" width="103" height="84" fill="black">
<rect fill="white" y="0.0352783" width="103" height="84"/>
<path d="M18.1709 1.17715C15.9911 1.55958 14.0789 3.05103 13.1038 5.15437L12.5875 6.24429L12.4919 27.7557L12.3963 49.2671L11.8609 50.988C11.2108 53.1105 10.8092 55.5007 10.7327 57.4319C10.7136 58.2541 10.618 58.9234 10.5415 58.9234C10.465 58.9234 10.0252 58.7322 9.58545 58.4836C9.01181 58.1968 8.43817 58.0629 7.67332 58.0629C5.79944 58.082 5.32141 58.5601 2.98861 62.8432L1 66.4763L1.05736 67.7574C1.17209 69.9181 0.732302 69.6122 13.8304 76.7444L25.3987 83.0353L26.6799 82.9779C28.592 82.8823 28.9744 82.4999 31.2881 78.2741C33.3149 74.5454 33.5826 73.7232 33.1428 72.423C32.856 71.5434 32.1294 70.6638 31.3646 70.2814L30.7909 69.9755L31.7661 69.4592C32.3206 69.1915 34.902 67.1838 37.5216 64.9848L42.3019 61.0267H44.9789C47.0058 61.0267 47.675 61.0841 47.675 61.2562C47.675 61.39 47.3308 63.3595 46.9102 65.6158C46.4895 67.8721 46.1453 69.9946 46.1453 70.3388V70.9315L43.6787 71.008C40.9443 71.0654 40.5619 71.2183 39.7014 72.4995C38.8601 73.7232 39.2808 75.5971 40.581 76.4576L41.2311 76.8974H57.1783C70.5058 76.8974 73.2019 76.8591 73.6417 76.6297C75.8597 75.4824 75.8406 72.3465 73.6226 71.3331C72.9724 71.0462 72.3606 70.9698 70.5823 70.9698H68.326V70.1475C68.326 69.4592 67.2169 62.9388 66.8536 61.4474L66.758 61.0267H81.2711C97.4094 61.0267 97.18 61.0458 99.0538 59.7647C100.411 58.8469 101.368 57.5084 101.807 55.9787C101.903 55.6536 101.979 44.5824 101.979 30.9681C101.979 6.79881 101.979 6.55022 101.597 5.51768C100.737 3.204 98.8435 1.65518 96.3386 1.19627C95.0001 0.947693 19.6432 0.928574 18.1709 1.17715ZM97.505 3.41434C98.3464 3.87325 99.2833 4.82932 99.8187 5.82362C100.144 6.39725 100.163 7.86959 100.163 31.0063V55.5771L99.7422 56.342C99.2068 57.3554 98.2507 58.235 97.1991 58.713C96.3386 59.0955 96.0709 59.1146 70.4676 59.1146H44.6156L48.0957 56.2273C50.0269 54.6211 51.9008 53.034 52.2641 52.6898L52.9333 52.0397L74.4448 52.0015C94.1206 51.9441 95.9944 51.925 96.396 51.619C97.5624 50.7968 97.4859 52.4604 97.5433 28.9986C97.5815 8.88302 97.5624 7.54453 97.2564 6.91353C97.0652 6.53111 96.6254 6.09132 96.243 5.9001C95.612 5.59416 93.4322 5.57504 56.9871 5.61328L18.3812 5.67065L17.7311 6.37814L17.081 7.10474V22.3444V37.6032L16.2588 39.1329C15.7999 39.9742 15.2262 41.1788 14.9776 41.8098C14.7291 42.4408 14.4614 43.0336 14.3658 43.1292C14.2893 43.2439 14.2128 35.3277 14.2128 25.5376C14.2128 11.2541 14.2702 7.56365 14.4614 6.76056C14.9203 5.03964 16.0293 3.81589 17.7502 3.14664C18.19 2.97455 27.808 2.93631 57.5225 2.95543L96.721 2.99367L97.505 3.41434ZM95.5738 28.8074V50.032L74.4257 50.0893L53.2775 50.1276L53.1437 49.5157C52.876 48.139 51.4801 47.0682 49.9887 47.0682C48.9179 47.0682 48.1913 47.4315 46.7189 48.6744C46.0306 49.248 45.4569 49.6878 45.4187 49.6687C45.3996 49.6304 48.0383 44.0853 51.308 37.3355C54.5587 30.5665 57.2356 24.8302 57.2356 24.5816C57.2356 23.5299 56.3561 22.4782 54.9411 21.8472C53.9659 21.4074 53.354 21.3501 52.5127 21.6369C52.0155 21.8281 51.461 22.7651 47.5029 30.2415L43.0668 38.6357L42.3975 38.3298C42.0342 38.1577 41.7665 37.9665 41.7857 37.9091C45.3805 30.8151 46.1453 29.2089 46.1453 28.75C46.1453 27.4115 44.1758 25.7862 42.5314 25.7671C42.0342 25.748 41.4032 25.8627 41.1355 25.9966C40.7913 26.1878 39.95 27.641 38.1335 31.1975L35.6095 36.1499L34.9402 35.844C34.5769 35.6719 34.3092 35.4807 34.3284 35.4233C34.3666 35.366 35.1888 33.6833 36.164 31.6947C37.8467 28.2529 37.9232 28.0616 37.7319 27.3733C37.3878 26.073 35.6477 24.8875 34.118 24.8875C32.6266 24.8875 32.531 25.0022 30.2364 29.5531C29.07 31.8859 28.0948 33.8171 28.0566 33.8554C27.9992 33.9128 27.6742 33.798 27.33 33.6259L26.6799 33.32L27.5403 31.3887L28.4008 29.4575L28.0757 28.597C27.3491 26.6849 24.2897 25.5568 23.0086 26.704C22.8174 26.8761 21.8039 28.6353 20.7714 30.5857L18.8975 34.1613L18.8401 21.0633C18.821 13.8545 18.8401 7.85047 18.8975 7.71662C18.9549 7.52541 26.7372 7.48717 57.2739 7.52541L95.5738 7.58277V28.8074ZM54.5587 23.6446C54.8646 23.7976 55.1897 24.0844 55.2853 24.2756C55.4191 24.5242 54.5013 26.5702 51.5757 32.6316C49.4342 37.0486 46.3556 43.416 44.7112 46.8005C43.0859 50.1849 41.7474 53.1105 41.7474 53.3017C41.7474 53.7989 42.1107 54.143 42.6079 54.143C42.8373 54.143 44.2905 53.0723 46.1071 51.5617C47.9809 49.9937 49.4342 48.9229 49.7783 48.8656C50.2373 48.77 50.4476 48.8465 50.9256 49.3245C51.5375 49.9555 51.614 50.357 51.2507 51.0263C51.1168 51.2366 46.7189 55.0226 41.4606 59.4014C31.7279 67.5088 30.3894 68.484 28.9744 68.484C28.4964 68.484 26.3357 67.3941 20.8479 64.4303C16.7177 62.1931 13.142 60.1662 12.8934 59.9177C12.4536 59.4779 12.4536 59.4014 12.5684 57.3363C12.7405 53.9901 13.8877 49.6687 16.0676 44.0088C16.8515 41.9628 23.4101 29.1898 24.1558 28.2911L24.4809 27.8896L25.3605 28.3102C25.8385 28.5397 26.2974 28.8839 26.3548 29.0751C26.4122 29.2663 26.0297 30.3371 25.4752 31.58C24.7486 33.167 24.5383 33.8171 24.6721 34.0466C24.9781 34.5629 27.8271 35.9778 28.4581 35.9205C29.0127 35.8822 29.1465 35.6719 31.3454 31.2931C32.6648 28.6926 33.793 26.6849 33.9651 26.6467C34.3666 26.5702 35.7433 27.2968 35.8963 27.6601C35.9537 27.8322 35.2271 29.5149 34.0798 31.8094C32.6648 34.6394 32.1868 35.7675 32.2633 36.0926C32.3589 36.4368 32.8369 36.7809 34.0989 37.4119C35.0358 37.89 35.9345 38.2724 36.0684 38.2724C36.5273 38.2724 36.8524 37.737 39.472 32.5934C41.8048 28.0234 42.0725 27.5645 42.5123 27.5645C42.78 27.5645 43.2197 27.6983 43.4683 27.8704C44.5582 28.597 44.5965 28.4249 42.0151 33.4538C40.6193 36.1882 39.6441 38.2915 39.6823 38.521C39.7206 38.8269 40.1986 39.2093 41.365 39.8403C43.1241 40.8347 43.6404 40.9303 44.0802 40.414C44.2332 40.2419 46.2027 36.6089 48.4399 32.3448C50.677 28.0808 52.6657 24.3139 52.876 23.9697C53.2967 23.2813 53.7173 23.2048 54.5587 23.6446ZM19.3755 65.8453C25.4179 69.115 30.5615 71.9258 30.7909 72.0597C31.0204 72.2126 31.3072 72.6333 31.4219 72.9775C31.6705 73.7423 31.6323 73.838 29.4142 77.949C27.8463 80.8172 27.4256 81.2952 26.4122 81.2952C25.7047 81.2761 3.31367 69.0194 3.00773 68.4649C2.87388 68.2163 2.75916 67.8148 2.74003 67.5662C2.74003 67.069 5.78032 61.2944 6.50692 60.4339C7.42474 59.3632 7.34826 59.3249 19.3755 65.8453ZM65.7828 65.4246C66.2418 67.7956 66.5859 69.9755 66.5477 70.3005L66.5094 70.8742L57.3886 70.9315C48.6119 70.9698 48.2486 70.9506 48.0765 70.6065C47.9045 70.2814 48.3825 67.222 49.415 62.021L49.6063 61.0267L57.293 61.0649L64.9797 61.1223L65.7828 65.4246ZM73.1445 73.2069C73.6034 73.6085 73.5843 74.316 73.1063 74.794C72.7239 75.1764 72.4753 75.1764 57.2548 75.1764H41.7665L41.3841 74.6793C40.9061 74.0674 40.887 73.8571 41.2885 73.3026L41.5753 72.8819H57.1783C71.4427 72.8819 72.8195 72.901 73.1445 73.2069Z"/>
</mask>
<path d="M18.1709 1.17715C15.9911 1.55958 14.0789 3.05103 13.1038 5.15437L12.5875 6.24429L12.4919 27.7557L12.3963 49.2671L11.8609 50.988C11.2108 53.1105 10.8092 55.5007 10.7327 57.4319C10.7136 58.2541 10.618 58.9234 10.5415 58.9234C10.465 58.9234 10.0252 58.7322 9.58545 58.4836C9.01181 58.1968 8.43817 58.0629 7.67332 58.0629C5.79944 58.082 5.32141 58.5601 2.98861 62.8432L1 66.4763L1.05736 67.7574C1.17209 69.9181 0.732302 69.6122 13.8304 76.7444L25.3987 83.0353L26.6799 82.9779C28.592 82.8823 28.9744 82.4999 31.2881 78.2741C33.3149 74.5454 33.5826 73.7232 33.1428 72.423C32.856 71.5434 32.1294 70.6638 31.3646 70.2814L30.7909 69.9755L31.7661 69.4592C32.3206 69.1915 34.902 67.1838 37.5216 64.9848L42.3019 61.0267H44.9789C47.0058 61.0267 47.675 61.0841 47.675 61.2562C47.675 61.39 47.3308 63.3595 46.9102 65.6158C46.4895 67.8721 46.1453 69.9946 46.1453 70.3388V70.9315L43.6787 71.008C40.9443 71.0654 40.5619 71.2183 39.7014 72.4995C38.8601 73.7232 39.2808 75.5971 40.581 76.4576L41.2311 76.8974H57.1783C70.5058 76.8974 73.2019 76.8591 73.6417 76.6297C75.8597 75.4824 75.8406 72.3465 73.6226 71.3331C72.9724 71.0462 72.3606 70.9698 70.5823 70.9698H68.326V70.1475C68.326 69.4592 67.2169 62.9388 66.8536 61.4474L66.758 61.0267H81.2711C97.4094 61.0267 97.18 61.0458 99.0538 59.7647C100.411 58.8469 101.368 57.5084 101.807 55.9787C101.903 55.6536 101.979 44.5824 101.979 30.9681C101.979 6.79881 101.979 6.55022 101.597 5.51768C100.737 3.204 98.8435 1.65518 96.3386 1.19627C95.0001 0.947693 19.6432 0.928574 18.1709 1.17715ZM97.505 3.41434C98.3464 3.87325 99.2833 4.82932 99.8187 5.82362C100.144 6.39725 100.163 7.86959 100.163 31.0063V55.5771L99.7422 56.342C99.2068 57.3554 98.2507 58.235 97.1991 58.713C96.3386 59.0955 96.0709 59.1146 70.4676 59.1146H44.6156L48.0957 56.2273C50.0269 54.6211 51.9008 53.034 52.2641 52.6898L52.9333 52.0397L74.4448 52.0015C94.1206 51.9441 95.9944 51.925 96.396 51.619C97.5624 50.7968 97.4859 52.4604 97.5433 28.9986C97.5815 8.88302 97.5624 7.54453 97.2564 6.91353C97.0652 6.53111 96.6254 6.09132 96.243 5.9001C95.612 5.59416 93.4322 5.57504 56.9871 5.61328L18.3812 5.67065L17.7311 6.37814L17.081 7.10474V22.3444V37.6032L16.2588 39.1329C15.7999 39.9742 15.2262 41.1788 14.9776 41.8098C14.7291 42.4408 14.4614 43.0336 14.3658 43.1292C14.2893 43.2439 14.2128 35.3277 14.2128 25.5376C14.2128 11.2541 14.2702 7.56365 14.4614 6.76056C14.9203 5.03964 16.0293 3.81589 17.7502 3.14664C18.19 2.97455 27.808 2.93631 57.5225 2.95543L96.721 2.99367L97.505 3.41434ZM95.5738 28.8074V50.032L74.4257 50.0893L53.2775 50.1276L53.1437 49.5157C52.876 48.139 51.4801 47.0682 49.9887 47.0682C48.9179 47.0682 48.1913 47.4315 46.7189 48.6744C46.0306 49.248 45.4569 49.6878 45.4187 49.6687C45.3996 49.6304 48.0383 44.0853 51.308 37.3355C54.5587 30.5665 57.2356 24.8302 57.2356 24.5816C57.2356 23.5299 56.3561 22.4782 54.9411 21.8472C53.9659 21.4074 53.354 21.3501 52.5127 21.6369C52.0155 21.8281 51.461 22.7651 47.5029 30.2415L43.0668 38.6357L42.3975 38.3298C42.0342 38.1577 41.7665 37.9665 41.7857 37.9091C45.3805 30.8151 46.1453 29.2089 46.1453 28.75C46.1453 27.4115 44.1758 25.7862 42.5314 25.7671C42.0342 25.748 41.4032 25.8627 41.1355 25.9966C40.7913 26.1878 39.95 27.641 38.1335 31.1975L35.6095 36.1499L34.9402 35.844C34.5769 35.6719 34.3092 35.4807 34.3284 35.4233C34.3666 35.366 35.1888 33.6833 36.164 31.6947C37.8467 28.2529 37.9232 28.0616 37.7319 27.3733C37.3878 26.073 35.6477 24.8875 34.118 24.8875C32.6266 24.8875 32.531 25.0022 30.2364 29.5531C29.07 31.8859 28.0948 33.8171 28.0566 33.8554C27.9992 33.9128 27.6742 33.798 27.33 33.6259L26.6799 33.32L27.5403 31.3887L28.4008 29.4575L28.0757 28.597C27.3491 26.6849 24.2897 25.5568 23.0086 26.704C22.8174 26.8761 21.8039 28.6353 20.7714 30.5857L18.8975 34.1613L18.8401 21.0633C18.821 13.8545 18.8401 7.85047 18.8975 7.71662C18.9549 7.52541 26.7372 7.48717 57.2739 7.52541L95.5738 7.58277V28.8074ZM54.5587 23.6446C54.8646 23.7976 55.1897 24.0844 55.2853 24.2756C55.4191 24.5242 54.5013 26.5702 51.5757 32.6316C49.4342 37.0486 46.3556 43.416 44.7112 46.8005C43.0859 50.1849 41.7474 53.1105 41.7474 53.3017C41.7474 53.7989 42.1107 54.143 42.6079 54.143C42.8373 54.143 44.2905 53.0723 46.1071 51.5617C47.9809 49.9937 49.4342 48.9229 49.7783 48.8656C50.2373 48.77 50.4476 48.8465 50.9256 49.3245C51.5375 49.9555 51.614 50.357 51.2507 51.0263C51.1168 51.2366 46.7189 55.0226 41.4606 59.4014C31.7279 67.5088 30.3894 68.484 28.9744 68.484C28.4964 68.484 26.3357 67.3941 20.8479 64.4303C16.7177 62.1931 13.142 60.1662 12.8934 59.9177C12.4536 59.4779 12.4536 59.4014 12.5684 57.3363C12.7405 53.9901 13.8877 49.6687 16.0676 44.0088C16.8515 41.9628 23.4101 29.1898 24.1558 28.2911L24.4809 27.8896L25.3605 28.3102C25.8385 28.5397 26.2974 28.8839 26.3548 29.0751C26.4122 29.2663 26.0297 30.3371 25.4752 31.58C24.7486 33.167 24.5383 33.8171 24.6721 34.0466C24.9781 34.5629 27.8271 35.9778 28.4581 35.9205C29.0127 35.8822 29.1465 35.6719 31.3454 31.2931C32.6648 28.6926 33.793 26.6849 33.9651 26.6467C34.3666 26.5702 35.7433 27.2968 35.8963 27.6601C35.9537 27.8322 35.2271 29.5149 34.0798 31.8094C32.6648 34.6394 32.1868 35.7675 32.2633 36.0926C32.3589 36.4368 32.8369 36.7809 34.0989 37.4119C35.0358 37.89 35.9345 38.2724 36.0684 38.2724C36.5273 38.2724 36.8524 37.737 39.472 32.5934C41.8048 28.0234 42.0725 27.5645 42.5123 27.5645C42.78 27.5645 43.2197 27.6983 43.4683 27.8704C44.5582 28.597 44.5965 28.4249 42.0151 33.4538C40.6193 36.1882 39.6441 38.2915 39.6823 38.521C39.7206 38.8269 40.1986 39.2093 41.365 39.8403C43.1241 40.8347 43.6404 40.9303 44.0802 40.414C44.2332 40.2419 46.2027 36.6089 48.4399 32.3448C50.677 28.0808 52.6657 24.3139 52.876 23.9697C53.2967 23.2813 53.7173 23.2048 54.5587 23.6446ZM19.3755 65.8453C25.4179 69.115 30.5615 71.9258 30.7909 72.0597C31.0204 72.2126 31.3072 72.6333 31.4219 72.9775C31.6705 73.7423 31.6323 73.838 29.4142 77.949C27.8463 80.8172 27.4256 81.2952 26.4122 81.2952C25.7047 81.2761 3.31367 69.0194 3.00773 68.4649C2.87388 68.2163 2.75916 67.8148 2.74003 67.5662C2.74003 67.069 5.78032 61.2944 6.50692 60.4339C7.42474 59.3632 7.34826 59.3249 19.3755 65.8453ZM65.7828 65.4246C66.2418 67.7956 66.5859 69.9755 66.5477 70.3005L66.5094 70.8742L57.3886 70.9315C48.6119 70.9698 48.2486 70.9506 48.0765 70.6065C47.9045 70.2814 48.3825 67.222 49.415 62.021L49.6063 61.0267L57.293 61.0649L64.9797 61.1223L65.7828 65.4246ZM73.1445 73.2069C73.6034 73.6085 73.5843 74.316 73.1063 74.794C72.7239 75.1764 72.4753 75.1764 57.2548 75.1764H41.7665L41.3841 74.6793C40.9061 74.0674 40.887 73.8571 41.2885 73.3026L41.5753 72.8819H57.1783C71.4427 72.8819 72.8195 72.901 73.1445 73.2069Z" fill="#12123B"/>
<path d="M18.1709 1.17715C15.9911 1.55958 14.0789 3.05103 13.1038 5.15437L12.5875 6.24429L12.4919 27.7557L12.3963 49.2671L11.8609 50.988C11.2108 53.1105 10.8092 55.5007 10.7327 57.4319C10.7136 58.2541 10.618 58.9234 10.5415 58.9234C10.465 58.9234 10.0252 58.7322 9.58545 58.4836C9.01181 58.1968 8.43817 58.0629 7.67332 58.0629C5.79944 58.082 5.32141 58.5601 2.98861 62.8432L1 66.4763L1.05736 67.7574C1.17209 69.9181 0.732302 69.6122 13.8304 76.7444L25.3987 83.0353L26.6799 82.9779C28.592 82.8823 28.9744 82.4999 31.2881 78.2741C33.3149 74.5454 33.5826 73.7232 33.1428 72.423C32.856 71.5434 32.1294 70.6638 31.3646 70.2814L30.7909 69.9755L31.7661 69.4592C32.3206 69.1915 34.902 67.1838 37.5216 64.9848L42.3019 61.0267H44.9789C47.0058 61.0267 47.675 61.0841 47.675 61.2562C47.675 61.39 47.3308 63.3595 46.9102 65.6158C46.4895 67.8721 46.1453 69.9946 46.1453 70.3388V70.9315L43.6787 71.008C40.9443 71.0654 40.5619 71.2183 39.7014 72.4995C38.8601 73.7232 39.2808 75.5971 40.581 76.4576L41.2311 76.8974H57.1783C70.5058 76.8974 73.2019 76.8591 73.6417 76.6297C75.8597 75.4824 75.8406 72.3465 73.6226 71.3331C72.9724 71.0462 72.3606 70.9698 70.5823 70.9698H68.326V70.1475C68.326 69.4592 67.2169 62.9388 66.8536 61.4474L66.758 61.0267H81.2711C97.4094 61.0267 97.18 61.0458 99.0538 59.7647C100.411 58.8469 101.368 57.5084 101.807 55.9787C101.903 55.6536 101.979 44.5824 101.979 30.9681C101.979 6.79881 101.979 6.55022 101.597 5.51768C100.737 3.204 98.8435 1.65518 96.3386 1.19627C95.0001 0.947693 19.6432 0.928574 18.1709 1.17715ZM97.505 3.41434C98.3464 3.87325 99.2833 4.82932 99.8187 5.82362C100.144 6.39725 100.163 7.86959 100.163 31.0063V55.5771L99.7422 56.342C99.2068 57.3554 98.2507 58.235 97.1991 58.713C96.3386 59.0955 96.0709 59.1146 70.4676 59.1146H44.6156L48.0957 56.2273C50.0269 54.6211 51.9008 53.034 52.2641 52.6898L52.9333 52.0397L74.4448 52.0015C94.1206 51.9441 95.9944 51.925 96.396 51.619C97.5624 50.7968 97.4859 52.4604 97.5433 28.9986C97.5815 8.88302 97.5624 7.54453 97.2564 6.91353C97.0652 6.53111 96.6254 6.09132 96.243 5.9001C95.612 5.59416 93.4322 5.57504 56.9871 5.61328L18.3812 5.67065L17.7311 6.37814L17.081 7.10474V22.3444V37.6032L16.2588 39.1329C15.7999 39.9742 15.2262 41.1788 14.9776 41.8098C14.7291 42.4408 14.4614 43.0336 14.3658 43.1292C14.2893 43.2439 14.2128 35.3277 14.2128 25.5376C14.2128 11.2541 14.2702 7.56365 14.4614 6.76056C14.9203 5.03964 16.0293 3.81589 17.7502 3.14664C18.19 2.97455 27.808 2.93631 57.5225 2.95543L96.721 2.99367L97.505 3.41434ZM95.5738 28.8074V50.032L74.4257 50.0893L53.2775 50.1276L53.1437 49.5157C52.876 48.139 51.4801 47.0682 49.9887 47.0682C48.9179 47.0682 48.1913 47.4315 46.7189 48.6744C46.0306 49.248 45.4569 49.6878 45.4187 49.6687C45.3996 49.6304 48.0383 44.0853 51.308 37.3355C54.5587 30.5665 57.2356 24.8302 57.2356 24.5816C57.2356 23.5299 56.3561 22.4782 54.9411 21.8472C53.9659 21.4074 53.354 21.3501 52.5127 21.6369C52.0155 21.8281 51.461 22.7651 47.5029 30.2415L43.0668 38.6357L42.3975 38.3298C42.0342 38.1577 41.7665 37.9665 41.7857 37.9091C45.3805 30.8151 46.1453 29.2089 46.1453 28.75C46.1453 27.4115 44.1758 25.7862 42.5314 25.7671C42.0342 25.748 41.4032 25.8627 41.1355 25.9966C40.7913 26.1878 39.95 27.641 38.1335 31.1975L35.6095 36.1499L34.9402 35.844C34.5769 35.6719 34.3092 35.4807 34.3284 35.4233C34.3666 35.366 35.1888 33.6833 36.164 31.6947C37.8467 28.2529 37.9232 28.0616 37.7319 27.3733C37.3878 26.073 35.6477 24.8875 34.118 24.8875C32.6266 24.8875 32.531 25.0022 30.2364 29.5531C29.07 31.8859 28.0948 33.8171 28.0566 33.8554C27.9992 33.9128 27.6742 33.798 27.33 33.6259L26.6799 33.32L27.5403 31.3887L28.4008 29.4575L28.0757 28.597C27.3491 26.6849 24.2897 25.5568 23.0086 26.704C22.8174 26.8761 21.8039 28.6353 20.7714 30.5857L18.8975 34.1613L18.8401 21.0633C18.821 13.8545 18.8401 7.85047 18.8975 7.71662C18.9549 7.52541 26.7372 7.48717 57.2739 7.52541L95.5738 7.58277V28.8074ZM54.5587 23.6446C54.8646 23.7976 55.1897 24.0844 55.2853 24.2756C55.4191 24.5242 54.5013 26.5702 51.5757 32.6316C49.4342 37.0486 46.3556 43.416 44.7112 46.8005C43.0859 50.1849 41.7474 53.1105 41.7474 53.3017C41.7474 53.7989 42.1107 54.143 42.6079 54.143C42.8373 54.143 44.2905 53.0723 46.1071 51.5617C47.9809 49.9937 49.4342 48.9229 49.7783 48.8656C50.2373 48.77 50.4476 48.8465 50.9256 49.3245C51.5375 49.9555 51.614 50.357 51.2507 51.0263C51.1168 51.2366 46.7189 55.0226 41.4606 59.4014C31.7279 67.5088 30.3894 68.484 28.9744 68.484C28.4964 68.484 26.3357 67.3941 20.8479 64.4303C16.7177 62.1931 13.142 60.1662 12.8934 59.9177C12.4536 59.4779 12.4536 59.4014 12.5684 57.3363C12.7405 53.9901 13.8877 49.6687 16.0676 44.0088C16.8515 41.9628 23.4101 29.1898 24.1558 28.2911L24.4809 27.8896L25.3605 28.3102C25.8385 28.5397 26.2974 28.8839 26.3548 29.0751C26.4122 29.2663 26.0297 30.3371 25.4752 31.58C24.7486 33.167 24.5383 33.8171 24.6721 34.0466C24.9781 34.5629 27.8271 35.9778 28.4581 35.9205C29.0127 35.8822 29.1465 35.6719 31.3454 31.2931C32.6648 28.6926 33.793 26.6849 33.9651 26.6467C34.3666 26.5702 35.7433 27.2968 35.8963 27.6601C35.9537 27.8322 35.2271 29.5149 34.0798 31.8094C32.6648 34.6394 32.1868 35.7675 32.2633 36.0926C32.3589 36.4368 32.8369 36.7809 34.0989 37.4119C35.0358 37.89 35.9345 38.2724 36.0684 38.2724C36.5273 38.2724 36.8524 37.737 39.472 32.5934C41.8048 28.0234 42.0725 27.5645 42.5123 27.5645C42.78 27.5645 43.2197 27.6983 43.4683 27.8704C44.5582 28.597 44.5965 28.4249 42.0151 33.4538C40.6193 36.1882 39.6441 38.2915 39.6823 38.521C39.7206 38.8269 40.1986 39.2093 41.365 39.8403C43.1241 40.8347 43.6404 40.9303 44.0802 40.414C44.2332 40.2419 46.2027 36.6089 48.4399 32.3448C50.677 28.0808 52.6657 24.3139 52.876 23.9697C53.2967 23.2813 53.7173 23.2048 54.5587 23.6446ZM19.3755 65.8453C25.4179 69.115 30.5615 71.9258 30.7909 72.0597C31.0204 72.2126 31.3072 72.6333 31.4219 72.9775C31.6705 73.7423 31.6323 73.838 29.4142 77.949C27.8463 80.8172 27.4256 81.2952 26.4122 81.2952C25.7047 81.2761 3.31367 69.0194 3.00773 68.4649C2.87388 68.2163 2.75916 67.8148 2.74003 67.5662C2.74003 67.069 5.78032 61.2944 6.50692 60.4339C7.42474 59.3632 7.34826 59.3249 19.3755 65.8453ZM65.7828 65.4246C66.2418 67.7956 66.5859 69.9755 66.5477 70.3005L66.5094 70.8742L57.3886 70.9315C48.6119 70.9698 48.2486 70.9506 48.0765 70.6065C47.9045 70.2814 48.3825 67.222 49.415 62.021L49.6063 61.0267L57.293 61.0649L64.9797 61.1223L65.7828 65.4246ZM73.1445 73.2069C73.6034 73.6085 73.5843 74.316 73.1063 74.794C72.7239 75.1764 72.4753 75.1764 57.2548 75.1764H41.7665L41.3841 74.6793C40.9061 74.0674 40.887 73.8571 41.2885 73.3026L41.5753 72.8819H57.1783C71.4427 72.8819 72.8195 72.901 73.1445 73.2069Z" stroke="#12123B" mask="url(#path-1-outside-1_1_190)"/>
<path d="M70.8249 14.8938L70.8253 14.8937C71.809 14.638 73.113 14.5128 74.4113 14.5128C75.7098 14.5128 77.0228 14.638 78.0248 14.8934L78.025 14.8935C82.4467 16.0232 86.3929 19.6395 87.9312 23.9429L87.9313 23.9431C89.3128 27.8154 89.0572 31.4609 87.1746 35.3039L87.1742 35.3045C86.7988 36.065 86.4997 36.601 86.1166 37.1226C85.7345 37.6427 85.2742 38.1412 84.5837 38.8316L84.5828 38.8325C82.7044 40.6916 81.1045 41.708 78.8276 42.4672C78.1328 42.7084 77.6597 42.8437 77.0418 42.9185C76.4323 42.9922 75.6859 43.0064 74.4467 43.0159V43.0159H74.4448C72.0294 43.0159 71.4613 42.9589 70.2558 42.5637L70.2546 42.5633C65.4763 40.9705 62.0502 37.5075 60.5916 32.8012L60.5916 32.8012L60.5912 32.7997C60.2659 31.7253 60.1072 30.25 60.1072 28.793C60.1072 27.3364 60.2658 25.8699 60.5915 24.8138L60.5918 24.813C62.1463 19.8385 65.9201 16.1784 70.8249 14.8938ZM85.1197 34.2419L85.1199 34.2416C86.0982 32.2661 86.4324 30.8889 86.4324 28.8074C86.4324 26.7079 86.0988 25.3495 85.0812 23.2768C83.5666 20.1913 80.3801 17.7167 76.975 17.0057C72.9085 16.1625 68.9592 17.3414 65.9973 20.2845L65.9968 20.285C64.4337 21.8293 63.7475 22.8885 63.0729 24.7249C60.9946 30.4362 63.6554 36.9557 69.1036 39.5768L69.1038 39.5769C70.19 40.101 70.9098 40.3964 71.6599 40.5644C72.4106 40.7325 73.2049 40.7759 74.4448 40.7759C75.3796 40.7759 75.9716 40.7518 76.4929 40.6757C77.0116 40.6 77.4686 40.4715 78.1336 40.253L78.1339 40.2529C81.1689 39.2599 83.735 37.0486 85.1197 34.2419Z" fill="#0971CE" stroke="#0971CE" stroke-width="0.5"/>
<path d="M78.6183 30.5325L78.6178 30.533C77.4411 31.7097 76.3498 32.7819 75.5353 33.5605C75.1283 33.9495 74.7889 34.2667 74.542 34.4873C74.4189 34.5972 74.3161 34.6856 74.2381 34.7476C74.1996 34.7781 74.1629 34.8056 74.1305 34.8267C74.1147 34.837 74.0949 34.849 74.0734 34.8593L74.0728 34.8596C74.0594 34.866 74.0106 34.8894 73.9476 34.8894C73.9068 34.8894 73.8735 34.8798 73.8613 34.8761C73.8441 34.8711 73.8279 34.865 73.8142 34.8594C73.7867 34.8483 73.7553 34.8336 73.7225 34.8173C73.6562 34.7844 73.5692 34.7376 73.4659 34.6796C73.2584 34.5633 72.9743 34.3962 72.6351 34.1913C71.9564 33.7811 71.0509 33.2158 70.0838 32.5934C68.7556 31.743 67.8642 31.1506 67.2991 30.7286C67.0173 30.5181 66.8082 30.3439 66.6649 30.1963C66.5321 30.0595 66.4162 29.9069 66.3953 29.7381C66.3495 29.4023 66.4291 29.0835 66.6201 28.8448C66.8131 28.6035 67.1062 28.4618 67.4463 28.4618C67.4946 28.4618 67.5395 28.4728 67.5691 28.4812C67.6029 28.4907 67.6391 28.5036 67.6761 28.5181C67.7501 28.5472 67.8402 28.5882 67.9422 28.6381C68.147 28.7383 68.4136 28.8815 68.7216 29.0559C69.3384 29.4053 70.1314 29.8859 70.9475 30.414L73.7396 32.2154L77.3249 28.5566C77.325 28.5564 77.3252 28.5563 77.3253 28.5562C78.3495 27.5033 79.3166 26.5361 80.0476 25.8267C80.4129 25.4722 80.7205 25.1808 80.9473 24.9749C81.0604 24.8723 81.1555 24.7888 81.2288 24.729C81.2651 24.6993 81.299 24.6729 81.3287 24.6521C81.3434 24.6418 81.3601 24.6309 81.3774 24.6211C81.3896 24.6142 81.4151 24.6003 81.4478 24.5906C81.7651 24.4917 82.1102 24.6205 82.3586 24.8033C82.6112 24.9893 82.8355 25.2823 82.8763 25.6183C82.8913 25.7178 82.8706 25.8147 82.8381 25.9015C82.8044 25.9912 82.7515 26.0874 82.6835 26.1911C82.5475 26.3983 82.3294 26.6677 82.0121 27.0234C81.3758 27.7369 80.3096 28.8317 78.6183 30.5325Z" fill="#00C189" stroke="#00C189" stroke-width="0.5"/>
</svg>
