<svg width="114" height="114" viewBox="0 0 114 114" fill="none" xmlns="http://www.w3.org/2000/svg">
<path d="M14.417 12.2324H14.3913L14.3678 12.2425L13.9781 12.4095L13.9633 12.4159L13.9506 12.4257L13.4496 12.8154L13.4301 12.8306L13.4178 12.852L13.1952 13.2417L13.189 13.2524L13.1851 13.2642L13.0181 13.7652L13.0117 13.7844V13.8047V109.603V109.616L13.0147 109.63L13.126 110.131L13.1304 110.15L13.1409 110.168L13.4748 110.724L13.4857 110.743L13.502 110.756L13.836 111.035L13.8512 111.047L13.8696 111.055L14.4262 111.277L14.4486 111.286H14.4727H76.6494H76.6669L76.6838 111.281L77.0734 111.17L77.0904 111.165L77.1053 111.156L77.5506 110.877L77.5676 110.867L77.5804 110.852L77.8587 110.518L77.8714 110.502L77.8788 110.484L78.1014 109.927L78.1104 109.905V109.881V109.157V109.137L78.1039 109.118L77.9926 108.784L77.9869 108.766L77.9764 108.752L77.5868 108.195L77.5715 108.173L77.5487 108.159L76.992 107.825L76.9747 107.815L76.9548 107.811L76.4539 107.699L76.4405 107.696H76.4268H16.6572V15.8223H81.4229V76.9834V77.0054L81.4304 77.0261L81.653 77.6384L81.6612 77.6609L81.6771 77.6787L82.1224 78.1797L82.1384 78.1977L82.1599 78.2085L82.7166 78.4868L82.743 78.5H82.7725H83.6074H83.6228L83.6377 78.4963L83.8604 78.4406L83.8764 78.4366L83.8908 78.4286L84.3918 78.1503L84.4141 78.1379L84.4297 78.1178L84.8194 77.6168L84.8325 77.5999L84.8393 77.5796L85.0063 77.0786L85.0127 77.0593V77.0391V13.6934V13.678L85.009 13.663L84.9533 13.4404L84.95 13.4271L84.9438 13.4148L84.7212 12.9695L84.7121 12.9513L84.6978 12.937L84.2524 12.4917L84.2343 12.4735L84.2105 12.464L83.6538 12.2414L83.6315 12.2324H83.6074H14.417Z" fill="#12123B" stroke="black" stroke-width="0.25"/>
<path d="M4.62012 2.6582H4.60473L4.5898 2.66194L4.14449 2.77326L4.12 2.77939L4.0998 2.79453L3.65449 3.12852L3.64739 3.13385L3.6411 3.14013L3.36278 3.41845L3.34844 3.43279L3.33937 3.45093L3.06105 4.00757L3.04785 4.03397V4.06348V100.251V100.271L3.05427 100.291L3.22126 100.791L3.22872 100.814L3.24382 100.832L3.52214 101.166L3.52844 101.174L3.53585 101.18L3.98116 101.57L4.00158 101.588L4.02756 101.595L4.5842 101.762L4.60177 101.768H4.62012H9.68555H9.70093L9.71586 101.764L9.93852 101.708L9.94905 101.706L9.95897 101.701L10.4599 101.478L10.4843 101.468L10.5021 101.448L11.0031 100.891L11.018 100.875L11.0262 100.854L11.2489 100.297L11.2578 100.275V100.251V99.75V99.7325L11.253 99.7157L11.1417 99.326L11.1371 99.3102L11.1287 99.296L10.7947 98.7394L10.7838 98.7212L10.7675 98.7077L10.4335 98.4294L10.4168 98.4154L10.3962 98.4079L9.78393 98.1853L9.76323 98.1777H9.74121H6.63777L6.69328 6.30371H71.4057L71.459 9.07565L71.4595 9.10388L71.4722 9.12914L71.8062 9.79711L71.8172 9.8191L71.8357 9.83528L72.281 10.2249L72.2986 10.2403L72.3206 10.2483L72.9329 10.471L72.9536 10.4785H72.9756H73.4209H73.4333L73.4454 10.4761L73.7237 10.4204L73.7365 10.4179L73.7485 10.4127L74.1381 10.2458L74.1557 10.2382L74.1702 10.2258L74.5599 9.89178L74.573 9.88056L74.5825 9.86621L74.9165 9.36524L74.9318 9.34223L74.936 9.31491L75.0474 8.59127L75.0488 8.58182V8.57227V4.3418V4.33145L75.0471 4.32125L74.9915 3.98726L74.989 3.97241L74.9831 3.95857L74.8161 3.56892L74.8083 3.55074L74.7952 3.53585L74.4056 3.09054L74.3947 3.07805L74.3809 3.06885L74.0469 2.84619L74.0313 2.83583L74.0135 2.83047L73.4568 2.66347L73.4392 2.6582H73.4209H4.62012Z" fill="#12123B" stroke="black" stroke-width="0.25"/>
<path d="M98.8379 75H100.396L101.231 75.167L102.066 75.4453L103.013 75.9463L103.625 76.3916L104.404 77.0596L104.905 77.6162L105.406 78.3398L105.907 79.2305L106.241 80.0654L106.52 81.2344L106.575 81.624V83.0713L106.353 84.1846L106.019 85.0752L105.685 85.6875L105.184 86.3555L104.571 86.9678L103.792 87.4688L103.124 87.8027L102.4 88.0254L101.788 88.1367H100.396L99.5615 87.9697L99.0049 87.8027L98.6152 87.7471L97.6133 88.5264L96.9453 89.0273L95.999 89.751L94.8301 90.6416L94.1621 91.1426L92.9932 92.0332L92.2695 92.5898L92.7705 94.0928L93.1045 95.373L93.2715 96.4307V98.2119L93.0488 99.1582L92.8262 99.6592L92.4365 100.271L91.9912 100.717L91.4346 101.106L90.2656 101.83L89.208 102.498L86.5918 104.112L84.4766 105.448L83.4746 106.061L82.083 106.951L81.582 107.174L80.8584 107.341H80.0234L79.2441 107.174L78.3535 106.84L77.5186 106.395L76.5723 105.727L75.793 105.059L75.3477 104.669L74.29 103.611L73.7891 102.999L73.1211 102.22L72.3418 101.162L71.5625 99.9932L70.8389 98.8242L70.0596 97.377L69.2803 95.707L68.7236 94.2041L68.334 92.8682L68.1113 91.7549L68 90.6973V90.0293L68.1113 89.1387L68.334 88.415L68.7236 87.6914L69.3359 87.0234L69.7812 86.6895L70.7275 86.1328L71.7852 85.4648L73.1211 84.6299L74.29 83.9062L78.2979 81.4014L79.2998 80.7891L80.0234 80.5107L80.9141 80.3994L81.8604 80.5107L82.751 80.7891L83.8086 81.3457L84.8105 82.0693L85.5898 82.7373L86.2578 83.3496L86.8145 83.9062V84.0176L87.3711 83.7949L88.2061 83.3496L94.1064 80.3994L94.2734 79.4531L94.4961 78.6182L94.9971 77.5605L95.498 76.8926L95.999 76.3359L96.7227 75.7793L97.6133 75.334L98.2812 75.1113L98.8379 75ZM99.1162 78.3398L98.6152 78.5625L98.2812 78.7852L98.0586 79.0635L99.1162 79.2861L99.8955 79.6201L100.563 80.1211L100.953 80.5107L101.343 81.0674L101.677 81.791L101.844 82.4033L101.899 82.8486V83.4053L101.732 84.2959L101.621 84.7412L101.955 84.6855L102.456 84.3516L102.901 83.8506L103.18 83.1826L103.235 82.8486V81.8467L103.068 81.123L102.846 80.5664L102.345 79.7871L101.844 79.2305L101.176 78.7295L100.508 78.4512L100.118 78.3398H99.1162ZM97.8359 82.3477L97.2793 82.5703L96.4443 83.0156L95.1641 83.6279L89.2637 86.5781L89.0967 86.6895L89.1523 86.9121L89.9873 88.1924L90.7109 89.417H90.9336L91.7686 88.749L92.6592 88.0811L93.3828 87.5244L95.498 85.9102L96.667 85.0195L97.4463 84.4072L98.0586 83.9619L98.5039 83.5723L98.6152 83.2939L98.5596 82.8486L98.3926 82.5703L97.9473 82.3477H97.8359ZM80.9141 83.7393L79.9678 84.2959L78.9102 84.9639L76.2383 86.6338L75.1807 87.3018L74.6797 87.6357L74.9023 87.8584L75.626 88.415L76.1826 88.916L76.9062 89.584L77.5742 90.3076L78.0752 90.9199L78.8545 91.8662L79.4111 92.6455L80.1904 93.8145L80.8584 94.9277L81.415 95.9297L82.1387 97.377L82.751 98.8799L83.1963 100.216L83.5303 101.607L83.6416 101.997L84.2539 101.663L85.2002 101.051L86.2578 100.383L87.5938 99.5479L89.041 98.6572L89.8203 98.1562L89.9316 97.9893L89.9873 97.6553V97.0986L89.7646 95.7627L89.4863 94.7607L88.9297 93.2578L88.0391 91.4209L87.4268 90.3076L87.0371 89.6953L86.3691 88.6934L85.9238 88.0811L85.3672 87.3574L84.6992 86.5781L84.0312 85.8545L83.4746 85.2979L82.8623 84.7969L82.1943 84.2959L81.6377 83.9619L81.0811 83.7393H80.9141ZM71.3955 89.751L71.3398 90.085V90.6973L71.5068 91.7549L71.8408 93.0352L72.3418 94.3711L73.0098 95.8184L73.5664 96.876L74.2344 97.9893L74.9023 98.9912L75.6816 100.049L76.4053 100.939L77.0732 101.663L78.0752 102.665L78.7988 103.222L79.5781 103.723L80.2461 104.001L80.3574 103.89L80.4131 103.611V103.11L80.2461 101.941L79.8564 100.55L79.2998 99.1025L78.5205 97.4883L77.9082 96.375L77.2402 95.3174L76.5166 94.2598L75.96 93.5361L75.3477 92.8125L74.6797 92.0332L74.0117 91.3652L72.7871 90.3633L71.8965 89.8623L71.6182 89.751H71.3955Z" fill="#0971CE"/>
<path d="M29.2793 68.2441H61.3418L73.5879 68.2998L74.1445 68.5225L74.5342 68.8564L74.8682 69.5244L74.9238 69.6914V70.1367L74.7568 70.6934L74.4229 71.1387L73.9775 71.4727L73.6436 71.584L73.2539 71.6396H24.8262L24.3252 71.5283L23.8799 71.25L23.4902 70.8047L23.2676 70.248V69.6914L23.4902 69.0791L23.8242 68.6895L24.2695 68.4111L24.6035 68.2998L29.2793 68.2441Z" fill="#12123B"/>
<path d="M25.0488 58.3359H72.9756L73.6436 58.3916L74.1445 58.6143L74.5342 58.9482L74.8125 59.4492L74.9238 59.8389V60.2285L74.7568 60.7852L74.4229 61.2305L74.1445 61.4531L73.5879 61.6758L69.8584 61.7314H28.2217L24.5479 61.6758L24.0469 61.4531L23.6016 61.0635L23.3232 60.5068L23.2676 60.3398V59.7275L23.4902 59.1709L23.8799 58.7256L24.3809 58.4473L25.0488 58.3359Z" fill="#12123B"/>
<path d="M24.8262 48.4277H46.4795L46.9805 48.5391L47.4258 48.8174L47.8154 49.2627L48.0381 49.8193V50.4316L47.8154 50.9883L47.4258 51.4336L46.7578 51.7676H24.5479L24.1025 51.6006L23.6016 51.1553L23.3232 50.5986L23.2676 50.4316V49.8193L23.4346 49.374L23.6572 49.04L24.1025 48.6504L24.4922 48.4834L24.8262 48.4277Z" fill="#12123B"/>
<path d="M38.0186 24.1025H60.0615L60.6182 24.3252L61.0078 24.6592L61.3418 25.2158L61.3975 25.3828V26.1621L61.0635 26.8301L60.6182 27.2197L60.2285 27.3867L59.8945 27.4424H38.0742L37.5732 27.2754L37.2393 27.0527L36.8496 26.6074L36.627 25.9951V25.6055L36.7939 25.0488L37.1279 24.6035L37.5732 24.2695L38.0186 24.1025Z" fill="#00C189"/>
<path d="M24.6592 78.208H44.7539L45.2549 78.4307L45.6445 78.709L45.9785 79.2656L46.0898 79.7109L46.0342 80.3232L45.7559 80.8799L45.2549 81.3252L44.8652 81.4922L44.5312 81.5479H24.7148L24.1025 81.3252L23.6572 80.9355L23.3789 80.4902L23.2676 80.1562V79.5439L23.4902 79.043L23.7129 78.709L24.2695 78.3193L24.6592 78.208Z" fill="#12123B"/>
<path d="M24.6592 88.1162H37.7959L38.2412 88.2275L38.7422 88.5615L39.1318 89.1182L39.2432 89.5078V90.1201L39.0205 90.6768L38.6309 91.1221L38.0742 91.4004L37.8516 91.4561H24.7148L24.1582 91.2891L23.7686 91.0107L23.4346 90.5098L23.2676 90.0645V89.5078L23.4346 89.0068L23.7129 88.6172L24.3252 88.2275L24.6592 88.1162Z" fill="#12123B"/>
<path d="M42.4473 31H55.5283L56.085 31.2227L56.5303 31.6123L56.8086 32.1689L56.8643 32.3359V33.0039L56.6416 33.5605L56.3076 33.9502L55.8623 34.2285L55.3613 34.3398H42.5029L41.9463 34.1729L41.501 33.8389L41.167 33.3936L41 32.8369L41.0557 32.2246L41.334 31.668L41.835 31.2227L42.1689 31.0557L42.4473 31Z" fill="#00C189"/>
</svg>
