<svg width="111" height="118" viewBox="0 0 111 118" fill="none" xmlns="http://www.w3.org/2000/svg">
<path d="M80.5328 33.8511C80.3228 33.9298 77.3305 36.7909 73.9182 40.2032C67.7235 46.3191 67.671 46.3978 67.671 47.5002C67.671 48.3139 67.8285 48.7602 68.2485 49.1539L68.826 49.6789L65.5712 52.9599L62.2901 56.241H57.3554C52.3157 56.241 51.607 56.3722 50.3471 57.4222C50.0321 57.7109 49.6121 57.6321 47.9847 56.9759C46.3048 56.3197 45.6748 55.8735 43.7325 53.9574L41.4488 51.6737L42.2363 50.8076C42.8138 50.1513 42.9975 49.6526 42.9975 48.8652C42.9975 47.8415 42.84 47.6315 37.3016 42.0406C34.1518 38.8645 31.212 36.0297 30.7657 35.7409C28.9546 34.6123 29.637 34.061 14.7279 48.9439C1.13124 62.5406 1 62.6718 1 63.7218C1 64.7717 1.15749 64.9292 7.37837 71.1501C14.5442 78.2897 14.5442 78.2897 16.3553 76.6623L17.3003 75.8486L20.4501 79.1034C22.1825 80.8883 23.9674 82.9881 24.4136 83.8018C24.8861 84.5893 25.3586 85.3242 25.516 85.4292C26.3035 85.9805 27.4847 85.298 27.5109 84.2743C27.5372 83.1456 25.516 80.3895 22.34 77.1872L19.0327 73.8799L29.2433 63.7743L39.454 53.6686L42.0788 56.241C44.0737 58.2096 45.0711 58.9708 46.1998 59.4433L47.696 60.0732L42.9713 64.7717C40.3727 67.3703 37.9841 69.9689 37.6953 70.5201C36.8816 72.0688 36.9604 74.2474 37.8528 75.7698C39.349 78.3422 42.8138 79.2346 45.3599 77.7122C46.0161 77.3185 48.5359 75.0086 51.0033 72.5413L55.4655 68.0528L67.0148 79.6021C80.664 93.225 79.4303 92.4638 81.7664 88.8678C87.2786 80.2845 88.6698 78.3422 90.8747 76.1898L93.132 73.9849L94.1295 74.9561C94.9432 75.7436 95.3106 75.9273 96.1506 75.9273C97.148 75.9273 97.4105 75.7173 103.421 69.6802L109.669 63.4593V62.2781V61.0969L96.3606 47.7627C89.011 40.4132 82.7114 34.2448 82.3177 34.0348C81.5827 33.6411 81.189 33.6148 80.5328 33.8511ZM90.2447 45.8728C95.0744 50.7026 99.1429 54.6661 99.3004 54.6661C99.4579 54.6661 101.243 56.346 103.316 58.4196L107.044 62.1469L101.532 67.659L96.0194 73.1712L93.0533 70.1526C91.3996 68.499 85.73 62.7243 80.4015 57.3434L70.7159 47.5527L75.9393 42.3293C78.8266 39.442 81.2415 37.0796 81.3202 37.0796C81.399 37.0796 85.415 41.0431 90.2447 45.8728ZM34.7292 43.6417L39.9789 48.8914L32.2881 56.5822C28.0884 60.782 24.6236 64.378 24.6236 64.5092C24.6236 64.6667 22.3662 67.0291 19.6364 69.7589L14.6492 74.7461L9.13702 69.234L3.62484 63.7218L8.66454 58.6821C11.4469 55.8997 13.8092 53.6161 13.9405 53.6161C14.0455 53.6161 17.5365 50.1776 21.6838 46.0041C25.8048 41.8043 29.2696 38.392 29.3483 38.392C29.4271 38.392 31.8419 40.7544 34.7292 43.6417ZM88.0136 68.7615L91.4259 71.9375L88.6173 74.7986C86.2812 77.161 85.2837 78.4734 82.6064 82.6207C80.8478 85.3505 79.3778 87.6604 79.3253 87.7129C79.2728 87.7916 73.9969 82.5419 67.5923 76.0848C60.1115 68.5252 55.8067 64.3517 55.4918 64.378C55.1768 64.378 52.7094 66.6354 49.4546 69.8639C45.8323 73.46 43.6537 75.4286 43.155 75.5598C41.3701 76.006 39.4277 73.9062 40.1102 72.2525C40.3989 71.5438 50.3208 61.3069 52.132 59.837L53.0244 59.1283H58.3003H63.5763L67.2511 55.4535L70.9521 51.805L77.7767 58.6821C81.5302 62.4619 86.1499 67.0028 88.0136 68.7615Z" fill="#12123B" stroke="#12123B" stroke-width="0.5"/>
<path d="M30.0045 85.5342C29.5846 85.7442 28.9021 86.2166 28.5346 86.5841C28.1672 86.9253 27.7997 87.1616 27.7472 87.0828C27.4847 86.8466 23.5737 91.0726 23.18 92.0438C22.97 92.5425 22.7862 93.6712 22.7862 94.5374C22.7862 95.8498 22.9175 96.2698 23.6524 97.3197C24.4924 98.5534 25.1223 99.0521 26.5398 99.5508C27.196 99.7871 27.2485 99.9183 27.2485 101.126C27.2485 104.118 29.4533 106.638 32.0519 106.638C32.9444 106.638 32.9706 106.664 33.0756 107.95C33.3118 110.391 35.7005 112.413 38.2991 112.413C39.454 112.413 39.559 112.465 39.7165 113.174C39.979 114.355 41.2914 116.009 42.4463 116.612C43.7062 117.242 46.0161 117.321 47.3548 116.744C48.5622 116.245 53.1294 111.678 53.6281 110.47C54.2056 109.132 54.1269 106.822 53.4969 105.562C52.9457 104.512 51.1083 102.963 50.3996 102.963C50.1371 102.963 50.0846 102.832 50.2158 102.491C50.3208 102.254 50.4783 101.362 50.5571 100.522C50.7671 97.8709 49.5859 95.8761 47.3548 95.0624C46.4886 94.7474 46.4886 94.7474 46.7511 93.6974C47.3023 91.5188 46.0686 88.7627 44.0737 87.7653C41.9476 86.6629 40.3464 86.8729 37.9841 88.5528C37.2754 89.0515 37.2754 89.0515 37.1179 88.4215C36.8816 87.4766 35.7267 86.2166 34.5718 85.6392C33.3381 85.0092 31.107 84.9567 30.0045 85.5342ZM33.9418 88.369C34.7555 89.1827 34.9917 90.1802 34.6243 91.0988C34.4405 91.4926 33.2069 92.9887 31.8682 94.4324C29.4271 97.031 29.4008 97.0572 28.1672 97.0572C27.1172 97.0572 26.8285 96.926 26.1723 96.191C25.4111 95.3511 25.1748 94.1437 25.5686 93.1462C25.6473 92.91 26.9597 91.6238 28.4559 90.2327C30.9757 87.949 31.2645 87.739 32.2619 87.739C33.0231 87.739 33.4693 87.9228 33.9418 88.369ZM42.7613 90.4426C43.9687 91.2563 44.3362 92.6213 43.6275 93.7237C43.365 94.1437 41.0551 96.6373 38.509 99.2621C33.8893 104.013 33.8893 104.013 32.7344 104.013C30.5558 103.987 29.1908 101.887 30.162 99.9971C30.5558 99.2359 32.2619 97.451 32.6294 97.451C32.7869 97.451 34.493 95.8498 36.4354 93.8812C40.7927 89.4977 41.1076 89.3402 42.7613 90.4426ZM46.4361 97.8709C47.4598 98.3959 48.011 99.6296 47.696 100.706C47.5648 101.178 46.4098 102.569 44.8349 104.144C43.3912 105.588 42.2101 106.9 42.2101 107.058C42.2101 107.347 40.8452 108.685 39.8477 109.342C38.0103 110.575 35.6742 109.21 35.648 106.927C35.648 105.772 35.6742 105.745 39.6115 101.939C44.3624 97.346 44.8612 97.0572 46.4361 97.8709ZM50.5308 106.507C50.9246 106.953 51.1345 107.53 51.1345 108.187C51.1345 109.079 50.8721 109.499 49.0347 111.599C46.6461 114.302 46.3311 114.512 44.9137 114.512C43.4437 114.486 42.2101 113.279 42.2101 111.809C42.2101 110.68 42.4988 110.286 45.2549 107.819C47.7222 105.588 47.801 105.535 48.8772 105.667C49.5859 105.772 50.1371 106.034 50.5308 106.507Z" fill="#12123B" stroke="#12123B" stroke-width="0.5"/>
<path d="M83.2363 92.7526C82.3439 93.0938 82.2389 93.9075 83.0001 94.905C83.8663 96.0337 83.9188 97.6086 83.1576 98.5798C82.4226 99.4985 81.1102 99.9184 80.1128 99.551C79.2466 99.2097 77.8554 98.0023 78.0392 97.7136C78.0916 97.6086 77.2779 96.6899 76.228 95.6399C74.7318 94.1963 74.1281 93.7763 73.5244 93.7763C72.5795 93.7763 72.1333 94.1963 72.1333 95.115C72.1333 95.6399 72.6057 96.2699 74.1806 97.7398C76.3855 99.8134 76.8317 100.417 76.858 101.336C76.8842 102.963 75.0206 104.538 73.4719 104.144C72.6057 103.934 71.0833 102.78 71.0833 102.333C71.0833 101.703 67.776 98.7635 67.0673 98.7635C66.2536 98.7635 65.7811 99.341 65.7811 100.26C65.7811 100.811 66.2798 101.467 68.0385 103.121C70.1384 105.142 70.2959 105.352 70.2959 106.323C70.2959 108.292 68.3535 109.709 66.6473 109C66.2536 108.843 64.9937 107.714 63.8912 106.481C62.7626 105.273 61.6601 104.276 61.4239 104.276C60.6627 104.276 59.7965 105.063 59.7965 105.719C59.7965 106.454 60.8727 107.793 61.8176 108.265C64.5737 109.604 63.865 113.751 60.8989 113.83C59.7177 113.856 58.5366 113.174 58.0903 112.203C57.5391 110.969 55.3867 110.89 55.308 112.098C55.2293 113.043 55.413 113.358 56.5942 114.591C58.0116 116.035 59.954 116.796 61.5814 116.481C63.6813 116.114 65.5449 114.46 66.0699 112.518C66.2274 111.914 66.3848 111.835 67.671 111.809C68.5372 111.783 69.5347 111.547 70.1646 111.205C71.3983 110.575 72.9207 108.475 72.9207 107.452C72.9207 106.822 72.9995 106.743 73.6557 106.848C75.6768 107.137 78.3541 105.431 79.0103 103.436L79.3778 102.36L80.9527 102.333C84.1288 102.228 86.4124 99.9972 86.3862 96.9524C86.3599 94.2225 84.8375 92.1489 83.2363 92.7526Z" fill="#12123B" stroke="#12123B" stroke-width="0.5"/>
<path d="M54.6186 0.75H54.605L54.5915 0.751477L53.0681 0.917823L53.0559 0.919164L53.0438 0.921711L50.6741 1.42075L50.6607 1.42356L50.6478 1.4278L48.1088 2.25953L48.0921 2.26499L48.0764 2.27273L45.3682 3.6035L45.3527 3.61109L45.3384 3.62072L42.6302 5.45052L42.6113 5.46333L42.595 5.47936L40.5638 7.47551L40.5549 7.48426L40.5469 7.49386L39.0235 9.32366L39.0157 9.3331L39.0088 9.34327L37.6547 11.3394L37.6441 11.3549L37.6361 11.3718L36.2819 14.1997L36.2744 14.2153L36.2692 14.2319L35.4229 16.8934L35.4188 16.9062L35.4161 16.9193L34.9083 19.4145L34.9033 19.4392V19.4643V23.9557V23.9737L34.9059 23.9916L35.0752 25.156L35.0773 25.1706L35.0811 25.1847L35.9274 28.3453L35.9315 28.3604L35.9373 28.3749L36.9529 30.8701L36.9595 30.8863L36.9684 30.9015L38.3225 33.2303L38.3304 33.2439L38.3399 33.2563L39.8632 35.2525L39.874 35.2666L39.8867 35.2791L42.2564 37.6079L42.2691 37.6204L42.2833 37.6309L44.9916 39.627L45.0096 39.6403L45.0296 39.6502L47.3993 40.8146L47.411 40.8203L47.4231 40.8248L50.1313 41.8229L50.1489 41.8293L50.1671 41.8331L53.3832 42.4985L53.4022 42.5024L53.4215 42.5034L56.8068 42.6697L56.8258 42.6706L56.8448 42.6687L60.0608 42.336L60.078 42.3342L60.0947 42.3301L62.803 41.6647L62.8176 41.6611L62.8317 41.6558L65.0321 40.8241L65.0463 40.8187L65.0598 40.8116L67.5988 39.4809L67.6131 39.4734L67.6263 39.4641L69.996 37.8006L70.0129 37.7888L70.0276 37.7743L72.3973 35.4455L72.4072 35.4357L72.416 35.425L73.7701 33.7615L73.783 33.7456L73.7932 33.7279L75.3165 31.0664L75.3228 31.0554L75.3279 31.0438L76.5128 28.3823L76.5219 28.3618L76.5273 28.34L77.5429 24.1813L77.55 24.1521V24.122V19.6307V19.607L77.5456 19.5838L77.0378 16.9223L77.0345 16.9053L77.0289 16.8889L76.1826 14.3937L76.178 14.3799L76.1717 14.3667L74.9869 11.8716L74.9803 11.8576L74.972 11.8446L73.2793 9.18311L73.2702 9.16865L73.2591 9.15558L71.5664 7.15944L71.5533 7.14396L71.5379 7.1308L68.9989 4.96831L68.9869 4.95813L68.9738 4.94952L66.4349 3.28607L66.4166 3.27412L66.3966 3.26551L63.6884 2.10109L63.6759 2.09575L63.663 2.09178L60.9548 1.26005L60.9397 1.25541L60.9241 1.25271L58.0466 0.753677L58.0254 0.75H58.0039H54.6186ZM43.1623 33.6567L43.0928 33.52H42.9395H42.7167L41.9564 32.6234L40.2828 29.9919L39.1142 27.3667L38.2808 24.0907V19.1568L38.6112 17.5335L39.4466 15.0703L40.7817 12.4462L42.9539 9.65458L44.9582 7.849L46.7955 6.53579L48.6279 5.55354L51.2997 4.56889L53.9644 4.07787H58.3272L59.6481 4.24015L62.6545 5.06084L64.993 6.20993L67.1637 7.52276L69.1655 9.32605L71.001 11.4579L72.6699 14.4102L73.6724 17.3657L74.1725 19.987V23.4386L74.0077 24.5721L73.3381 27.2043L72.3367 29.6648L71.3375 31.3014L70.0016 33.1065L68.1627 34.9138L66.3266 36.3901L63.99 37.7023L61.488 38.6858L58.1488 39.3421H54.1312L53.1454 39.1807L50.4675 38.5227L47.4578 37.2081L45.1212 35.7319L43.4792 34.2797L43.1623 33.6567Z" fill="#0971CE" stroke="#0971CE" stroke-width="0.5"/>
<path d="M10.6388 20.37V20.3699L10.6334 20.3701L2.94908 20.5359L2.89329 20.5371L2.8433 20.5619L2.5092 20.7278L2.37325 20.7953L2.37042 20.9471L2.20337 29.904L2.20332 29.904V29.9087V50.3106V50.37L2.23004 50.4231L2.39708 50.7548L2.43456 50.8293L2.5092 50.8663L3.5115 51.3639L3.58098 51.3984L3.65778 51.3875L4.82713 51.2217L4.90929 51.21L4.96817 51.1515L5.46932 50.6539L5.54317 50.5806V50.4765V23.7097L5.56325 23.6898H28.179H28.1863L28.1936 23.6894L31.0334 23.5235L31.1007 23.5196L31.1568 23.4824L31.658 23.1506L31.77 23.0765V22.9422V21.1176V20.9755L31.6479 20.9028L30.8127 20.4052L30.7536 20.37H30.6847H10.6388Z" fill="#0971CE" stroke="#0971CE" stroke-width="0.5"/>
<path d="M82.2697 20.37H82.2454L82.2215 20.3747L81.3862 20.5389L81.2932 20.5572L81.2357 20.6326L80.7346 21.2894L80.6833 21.3566V21.4411V22.5906V22.6954L80.7581 22.7689L81.4263 23.4258L81.4908 23.4893L81.5811 23.4967L83.5857 23.6609L83.5959 23.6617H83.6061H106.912L107.077 49.0314L107.078 49.0905L107.104 49.1431L107.271 49.4716L107.309 49.5458L107.384 49.5826L108.052 49.911L108.104 49.9367H108.162H109.332H109.39L109.442 49.911L110.11 49.5826L110.25 49.5139V49.3582V22.2622V22.2481L110.248 22.2341L110.081 20.7561L110.058 20.5494L109.85 20.5348L107.512 20.3706L107.503 20.37H107.494H82.2697Z" fill="#0971CE" stroke="#0971CE" stroke-width="0.5"/>
<path d="M45.3267 13.83H45.0767V14.08V14.9308V29.1974V30.0481V30.2981H45.3267H67.1267H67.3767V30.0481V29.1974V14.9308V14.08V13.83H67.1267H45.3267ZM54.1704 22.2758L54.1872 22.259L54.0164 22.0823L47.2411 15.0727H65.2167L58.4366 22.0826L58.2639 22.2612L58.2807 22.2777L56.4798 24.1272C56.3344 24.2622 56.1138 24.2576 55.9829 24.1367L54.1704 22.2758ZM57.3399 25.0132L59.1615 23.1426L65.1731 29.0554H47.2769L53.2921 23.1426L55.1236 25.0232L55.1235 25.0234L55.1302 25.0298C55.4359 25.321 55.8289 25.4676 56.223 25.4676C56.6213 25.4676 57.0202 25.3179 57.3332 25.0199L57.3333 25.02L57.3399 25.0132ZM52.431 22.2582L46.3033 28.2838V15.9662L52.431 22.2582ZM66.15 28.2838L60.0226 22.2585L66.15 15.9659V28.2838Z" fill="#00C189" stroke="#00C189" stroke-width="0.5"/>
</svg>
