<svg width="176" height="176" viewBox="0 0 176 176" fill="none" xmlns="http://www.w3.org/2000/svg">
<g clip-path="url(#clip0_34_155)">
<path d="M146.311 58.6303L147.425 59.7434L147.51 61.7128V115.486L147.425 116.257L146.397 117.284L144.256 117.37H74.0429L73.1867 117.027L68.8197 112.66L64.4528 117.027L63.5965 117.37H30.3736L29.6029 117.284L28.5754 116.257L28.4898 114.287V60.5141L28.5754 59.7434L29.6029 58.7159L31.5723 58.6303H57.2602L58.3733 58.5447L59.6577 58.6303L60.7709 58.5447L60.9421 58.7159L61.2846 58.5447L62.569 58.6303H63.7678L64.7097 59.0584L68.8197 63.3397L69.4191 62.5691L73.0154 58.9728L74.0429 58.6303H143.914L144.685 58.5447L146.055 58.7159L146.311 58.6303ZM143.486 62.4835H75.1561L69.8472 67.621L68.991 67.9636L68.2203 67.8779L67.7922 67.621L62.4834 62.4835H32.5142L32.343 62.9972V113.345L32.8567 113.517H62.4834L67.9635 108.208L69.1622 108.037L69.676 108.208L75.0704 113.431L76.3548 113.517H139.889L141.174 113.431H142.373L143.486 113.517L143.657 113.003V62.6547L143.486 62.4835Z" fill="#12123B"/>
<path d="M57.5171 76.6974L58.8015 78.1531L59.4009 79.2662L59.829 80.8931L59.9146 82.3488L59.7434 83.205L59.5721 83.5475L58.9727 84.1469L57.9452 84.4894L57.1746 84.4038L56.8321 84.2325L56.1471 83.5475L55.8902 82.6056L55.8046 81.15L55.3764 80.2081L54.6058 79.4375L53.3214 79.0093H51.7801L51.6089 79.5231V86.3732L52.1226 86.7157L55.1195 87.6576L56.3183 88.1713L56.8321 88.5139L58.6302 90.312L59.3152 91.5108L59.7434 92.7952L59.829 94.4221L59.6577 95.7921L59.144 97.1621L58.6302 98.0184L56.8321 99.8165L55.462 100.502L54.092 100.844L52.4651 100.93H51.7801L51.6089 101.443L51.352 102.557L50.8382 103.07L49.8107 103.413L49.0401 103.327L48.3551 102.985L47.8413 102.3L47.6701 101.443L47.4988 100.93H45.7863L43.8169 100.502L42.7894 99.9878L42.2756 99.6453L40.5631 97.9327L39.9637 96.8196L39.5356 95.3639L39.4499 93.7371L39.7068 92.4527L40.4775 91.682L41.5906 91.4251L42.3612 91.682L43.2175 92.5383L43.3888 93.7371L43.4744 94.8502L43.7313 95.4496L44.93 96.6483L46.3 96.9908H47.4988L47.6701 96.4771V89.627L47.0707 89.1989L44.5875 88.4282L43.2175 87.9145L42.2756 87.3151L40.7343 85.7738L39.9637 84.4894L39.6212 83.4619L39.4499 81.9206L39.5356 80.6362L39.8781 79.2662L40.9056 77.5537L41.7619 76.6974L43.3031 75.6699L45.0156 75.1562L46.6425 75.0705H47.4988L47.6701 74.5568L47.7557 73.7861L48.0126 73.1868L48.8688 72.5018L49.8963 72.3305L50.7526 72.673L51.352 73.2724L51.6089 74.3855V74.8993L52.1226 75.0705H54.0064L55.6333 75.4987L56.7464 76.0981L57.5171 76.6974ZM47.5844 78.9237H45.8719L44.8444 79.2662L43.9025 80.0369L43.3888 81.0644L43.3031 82.0063L43.6456 83.205L44.7588 84.3182L47.4132 85.2601L47.7557 84.9176V79.095L47.5844 78.9237ZM54.9483 91.9389L53.8351 91.3395L51.6089 90.6545L51.5232 91.7676V96.9052L52.037 97.0765H53.2358L54.5202 96.6483L55.2052 96.1346L55.8046 95.1927L55.9758 93.9939L55.8046 93.1377L55.3764 92.367L54.9483 91.9389Z" fill="#0971CE"/>
<path d="M132.868 72.5874L133.468 73.1868L133.81 74.2143L133.639 75.0706L132.954 75.9268L132.183 76.1837L130.556 76.2693H82.4343L81.4924 76.0124L80.8074 75.3274L80.5505 74.5568L80.6361 73.6149L80.7218 73.358L81.578 72.5018L82.7768 72.3305H95.9632L96.7339 72.2449L98.0183 72.3305H124.734L125.847 72.2449L127.131 72.3305H132.097L132.868 72.5874Z" fill="#333233"/>
<path d="M132.868 86.2876L133.639 87.2295L133.81 88.0857L133.553 88.8564L132.954 89.627L132.183 89.8839L130.556 89.9695H82.4343L81.4924 89.7126L80.893 89.1133L80.5505 88.257L80.6361 87.4864L80.8074 86.9726L81.4924 86.2876L82.4343 86.0307H124.562L125.333 85.9451L126.617 86.0307H132.097L132.868 86.2876Z" fill="#00C189"/>
<path d="M106.838 99.9877L107.437 100.587L107.694 101.358L107.608 102.471L107.009 103.242L106.153 103.584L104.183 103.67H82.4343L81.4924 103.413L80.8074 102.728L80.5505 101.957L80.6361 101.015L80.7218 100.758L81.578 99.9021L82.7768 99.7309H91.1682L92.2813 99.6452L93.2232 99.7309L94.3363 99.6452L95.2782 99.7309L96.5626 99.6452L98.1895 99.7309H100.93L101.871 99.6452L102.813 99.7309H106.067L106.838 99.9877Z" fill="#00C189"/>
<path d="M69.8472 94.5077L70.5323 95.1927L70.7891 96.3059V101.786L70.4466 102.813L69.5904 103.498L68.306 103.584L67.5353 103.156L67.0216 102.471L66.8503 101.615V96.1346L67.1072 95.1927L67.7922 94.5077L69.0766 94.2509L69.8472 94.5077Z" fill="#333233"/>
<path d="M69.8472 83.5475L70.5323 84.2325L70.7891 85.3457V90.8258L70.4466 91.8533L69.5904 92.5383L68.306 92.6239L67.5353 92.1958L67.0216 91.5108L66.8503 90.6545V85.1744L67.1928 84.1469L67.7922 83.5475L69.0766 83.2907L69.8472 83.5475Z" fill="#333233"/>
<path d="M69.9329 72.673L70.6179 73.5292L70.7891 74.3855V79.8656L70.4466 80.8931L69.5904 81.5781L68.306 81.6637L67.5353 81.2356L67.0216 80.5506L66.8503 79.6943V74.2142L67.1928 73.1867L67.7922 72.5873L69.0766 72.3305L69.9329 72.673Z" fill="#333233"/>
</g>
<defs>
<clipPath id="clip0_34_155">
<rect width="124" height="124" fill="white" transform="translate(88 0.318848) rotate(45)"/>
</clipPath>
</defs>
</svg>
