<svg width="127" height="127" viewBox="0 0 127 127" fill="none" xmlns="http://www.w3.org/2000/svg">
<path d="M12.9822 14.0547C8.69246 15.3529 4.6849 19.0782 3.33024 22.9165C2.20135 26.0209 2.20135 60.2827 3.27379 63.3307C4.51557 66.8302 7.05557 69.7654 10.2165 71.3458L13.208 72.8134H34.3182H55.372L73.9422 59.8311C84.1587 52.6627 92.6818 46.8489 92.9076 46.8489C93.0769 46.8489 94.9396 48.0342 96.9716 49.5018L100.64 52.0982L100.302 58.42L99.9067 64.6854L105.72 65.3062C108.881 65.5885 111.591 65.6449 111.647 65.4191C111.76 65.1369 113.002 64.9111 114.356 64.9111H116.896L116.727 44.704C116.558 22.4085 116.501 22.0698 112.72 18.1751C109.333 14.6191 107.188 13.8854 99.3422 13.6596L92.2867 13.4338V17.3285C92.2867 21.1102 92.2867 21.1667 90.7627 21.336L89.1822 21.5054V17.5542V13.5467L51.816 13.6031C31.2138 13.6031 13.7725 13.8289 12.9822 14.0547ZM84.6667 22.5778V26.5289H90.8756H97.0845V22.5778V18.6267H101.261C105.777 18.6267 107.978 19.6427 110.292 22.7471C111.421 24.2711 111.478 25.1178 111.647 42.7285L111.816 61.1294L109.672 60.7342C108.486 60.5649 106.962 60.3956 106.285 60.3956C105.043 60.3956 105.043 60.2262 105.156 54.9205L105.269 49.5018L100.076 45.7765C96.2942 43.0671 95.2218 41.9947 96.012 41.8818C96.9716 41.7125 97.0845 41.148 97.0845 35.5036V29.3511H90.8756H84.6667V35.56V41.7125L87.8276 41.8818L90.9885 42.0511L72.136 55.1462L53.34 68.2978H34.0925C15.0707 68.2978 14.8449 68.2978 12.4178 66.9996C10.7245 66.0965 9.53913 64.9111 8.63601 63.2178C7.28135 60.7342 7.28135 60.6214 7.45068 42.6156C7.62002 24.6098 7.62002 24.5534 8.97468 22.6907C9.70846 21.6182 11.1196 20.2636 12.0791 19.6991C13.7725 18.6831 15.4658 18.6267 49.276 18.6267H84.6667V22.5778Z" fill="#12123B"/>
<path d="M34.9391 28.7302L37.7049 36.576L34.2618 36.9711L30.8187 37.3662L28.6174 34.7697L26.416 32.1733H22.1827C18.4574 32.1733 18.0058 32.2862 18.288 33.1328C18.4574 33.6973 19.0218 36.2373 19.5298 38.7773C20.4329 43.1235 20.4329 43.6315 19.5298 48.26C18.9654 50.9693 18.4009 53.5657 18.2316 54.0173C17.9494 54.7511 18.4574 54.8075 22.0698 54.4688C25.8516 54.0737 26.4725 53.848 28.7303 51.8724C31.2703 49.6146 32.004 49.4453 35.6165 50.1226L37.7049 50.5177L35.4471 57.5168C34.2054 61.2986 33.3023 64.516 33.4151 64.6288C33.528 64.6853 36.0116 64.9111 39.0031 65.0804L44.4218 65.4191L49.1631 57.5168L53.9045 49.5582L57.0654 49.9533C63.6694 50.6306 69.1445 48.1471 69.7654 44.0266C70.0476 42.5026 69.8218 41.656 68.8058 40.4142C66.9996 38.1 64.2338 37.1404 58.4765 36.7453L53.3965 36.4066L49.3889 29.464C47.1311 25.6257 45.0991 22.2955 44.8169 22.0697C44.5347 21.7875 41.5996 21.4488 38.2694 21.2231L32.1734 20.828L34.9391 28.7302ZM42.4463 27.3191C42.672 27.6577 44.5911 30.8751 46.6796 34.4875L50.4614 41.0915L56.1058 41.3173C67.7334 41.8817 68.072 45.1555 56.5009 45.1555H50.9694L46.3409 52.7755C43.1236 58.0813 41.3738 60.3955 40.6965 60.3955C39.7369 60.3955 39.8498 59.7182 41.8818 53.2835C43.1236 49.3888 44.0267 46.1151 43.9138 45.9457C43.7445 45.8328 40.4707 45.4942 36.6325 45.212L29.6334 44.7604L26.9805 46.9617L24.2711 49.2195L24.7227 47.3004C25.2307 44.9297 25.1743 42.1075 24.6098 39.2288L24.1583 36.9711L26.3031 39.7368L28.448 42.4462L31.3267 42.164C32.8507 41.9382 36.3503 41.656 39.116 41.4302C41.8254 41.2044 44.0267 40.8657 44.0267 40.64C44.0267 40.4142 43.0107 37.2533 41.7689 33.6408C40.5271 30.0284 39.5111 26.8111 39.5111 26.4724C39.5111 25.7386 41.8818 26.416 42.4463 27.3191Z" fill="#0971CE"/>
<path d="M79.1917 60.0712C72.5828 64.5094 66.9181 68.4782 66.5747 68.8623C65.7164 69.8865 65.8452 72.2763 66.7893 73.3432C68.2484 74.9649 89.3626 89.2185 90.9075 89.6453C92.7528 90.1574 94.5982 89.7733 95.5852 88.6637C96.2719 87.9382 96.3577 87.1701 96.2719 83.9267L96.1431 80.086L97.5593 80.3847C99.8767 80.8968 103.01 82.2624 104.941 83.5427C109.189 86.4446 111.678 90.5414 113.352 97.2842C113.867 99.3753 114.382 101.082 114.425 100.997C114.511 100.912 115.154 98.6071 115.884 95.7905C117.129 91.0535 117.171 90.5414 116.785 86.9994C115.326 74.1967 107.301 63.4852 98.0314 61.9916L96.2719 61.7355L96.1002 57.6813C95.9715 54.0539 95.8856 53.5418 94.9415 52.8163C92.7958 51.1093 91.9804 51.4507 79.1917 60.0712ZM92.7099 62.1196L92.7528 65.2349H94.3836C96.5723 65.2349 100.22 66.3445 102.28 67.6247C107.086 70.6547 111.464 77.7388 112.708 84.4815L113.009 86.0178L110.048 83.2013C108.46 81.6649 106.142 79.8726 104.898 79.1898C102.366 77.8242 96.8298 76.3305 94.3836 76.3305H92.7528V81.2382C92.7528 85.2924 92.6241 86.1459 92.1091 86.1459C91.3796 86.1459 69.45 71.2095 69.7504 70.9107C69.8363 70.8254 74.9002 67.3687 80.9942 63.2718L92.1091 55.8036L92.4095 57.4253C92.5812 58.3215 92.7099 60.4552 92.7099 62.1196Z" fill="#00C189"/>
</svg>
