<svg width="105" height="105" viewBox="0 0 105 105" fill="none" xmlns="http://www.w3.org/2000/svg">
<mask id="path-1-outside-1_84_254" maskUnits="userSpaceOnUse" x="7.20312" y="2.28125" width="91" height="96" fill="black">
<rect fill="white" x="7.20312" y="2.28125" width="91" height="96"/>
<path d="M50.3979 3.28125H54.4995L55.2686 3.43506L56.0376 3.84521L56.6016 4.35791L56.9604 4.87061L57.2168 5.3833L57.3706 5.896L57.4219 6.35742V8.45947L59.4214 8.71582L61.4209 9.07471L63.0103 9.43359L64.9585 9.94629L66.9067 10.5615L68.4448 11.1255L70.188 11.8433L71.521 12.4585L72.5977 12.9712L73.7256 13.5864L75.1099 14.3555L76.084 14.9707L77.3657 15.791L78.3398 16.5088L79.0576 17.0215L79.9805 17.7393L80.8008 18.4058L81.5186 19.021L82.0312 19.4824L82.4414 19.8413L83.2104 20.5591L84.9023 22.251L85.2612 22.6611L85.8252 23.2764L86.2866 23.8403L86.9019 24.5581L87.5684 25.4297L87.9785 25.9424L88.645 26.8652L89.4141 27.9932L90.1831 29.1724L90.8496 30.3003L91.5161 31.4795L92.4902 33.3765L93.3105 35.2222L93.8745 36.6064L94.3872 38.042L94.8999 39.5801L95.5151 41.8359L95.9766 43.8867L96.3867 46.3989L96.5918 48.1421L96.7456 50.2954L96.7969 52.4487L96.6943 52.5H93.5156L93.4644 51.7822L93.4131 50.2441L93.2593 48.2446L92.9517 45.9375L92.5928 43.9893L92.1313 42.041L91.5161 39.939L90.9009 38.1445L90.3369 36.709L89.4141 34.6582L88.8501 33.5303L88.2349 32.4023L87.4146 31.0181L86.5942 29.7363L86.0303 28.916L85.3638 27.9932L84.646 27.0703L84.1846 26.5063L83.6206 25.8398L83.1592 25.2759L82.3389 24.4043L81.98 24.0454L81.6211 23.6353L81.1597 23.1738L80.7495 22.8149L80.083 22.1484L79.519 21.687L78.9551 21.1743L78.3911 20.7129L77.6733 20.1489L76.7505 19.4312L75.7764 18.7646L75.2637 18.4058L74.3921 17.8418L73.3154 17.1753L72.1362 16.5088L70.957 15.8936L69.8291 15.3296L68.0859 14.5605L66.5991 13.9966L64.4971 13.2788L62.4463 12.7148L60.6519 12.3047L58.2422 11.8945L56.3965 11.6895L55.0122 11.5869L53.833 11.5356H50.7568L49.1162 11.6382L46.8091 11.8945L44.9121 12.2021L43.1689 12.561L41.2207 13.0737L39.4263 13.6377L38.0933 14.0991L36.5552 14.7144L34.7607 15.5347L33.9404 15.9448L33.1714 16.355L32.5562 16.6626L31.3257 17.3804L30.1978 18.0981L29.2749 18.7134L28.3521 19.3799L27.7881 19.79L26.8652 20.5078L26.1987 21.0718L25.6348 21.5332L25.0708 22.0459L24.6606 22.4048L24.1479 22.9175L23.7378 23.2764L23.0713 23.9429L22.7124 24.353L22.1484 24.917L21.7896 25.3271L21.1743 26.0449L20.7129 26.6089L20.3027 27.1216L19.6362 27.9932L18.9697 28.916L18.3032 29.8901L17.4829 31.1719L16.7139 32.5049L15.9448 33.9404L15.1758 35.5298L14.5605 36.9653L13.9453 38.5547L13.3301 40.4004L12.8174 42.1948L12.356 44.1431L12.0483 45.8862L11.8433 47.2705L11.6895 48.5522L11.5869 50.0391L11.5356 51.167V54.0894L11.6895 56.3965L11.9971 58.8574L12.356 60.8569L12.8687 63.0103L13.4839 65.1123L14.1504 67.0093L14.8169 68.6499L15.5859 70.3418L16.2524 71.6748L16.9189 72.854L17.5342 73.9307L17.9443 74.5459L18.6108 75.5713L19.2261 76.4429L19.9438 77.417L20.6104 78.2373L21.0718 78.8013L21.687 79.519L22.1484 80.0317L22.5073 80.4419L23.2251 81.1597L23.584 81.5698L24.1992 82.1338L24.8657 82.8003L25.4297 83.2617L25.9937 83.7744L26.5576 84.2358L27.3267 84.8511L28.3521 85.6201L29.3774 86.3379L30.5566 87.1069L31.5308 87.7222L32.8125 88.4399L34.7607 89.4653L36.0425 90.0293L37.3755 90.5933L38.7598 91.106L40.6055 91.7212L42.6562 92.2852L44.502 92.6953L46.604 93.0542L48.8086 93.3105L50.2954 93.4131L52.4487 93.5156L52.5 93.5669V96.7456L52.4487 96.7969L50.1929 96.7456L47.6807 96.5405L45.6812 96.2842L43.4253 95.874L41.4771 95.4126L39.6313 94.8999L37.7856 94.2847L36.7603 93.9258L34.9658 93.208L32.9663 92.2852L31.2744 91.4136L29.9414 90.6445L28.6084 89.8242L27.5317 89.1064L26.6602 88.4912L25.7373 87.8247L24.917 87.1582L24.1992 86.5942L23.6865 86.1328L23.1226 85.6714L22.3535 84.9536L21.687 84.3384L20.2515 82.9028L19.8926 82.4927L19.2773 81.8262L18.9185 81.416L18.3032 80.6982L17.8931 80.1855L16.8677 78.8525L16.2524 77.981L15.7397 77.2632L15.1758 76.3916L14.5605 75.4175L13.7402 73.9819L13.125 72.854L12.4072 71.4185L11.5869 69.5728L10.8691 67.7271L10.1514 65.625L9.53613 63.4204L9.02344 61.1646L8.66455 59.0625L8.4082 57.063L8.25439 55.0635L8.20312 53.9355V51.0645L8.30566 49.2188L8.45947 47.4756L8.81836 44.9634L9.17725 43.1177L9.63867 41.1694L10.2026 39.2212L10.9717 36.9653L11.5869 35.4272L12.4585 33.479L13.2275 31.9409L13.689 31.1206L13.9966 30.5566L14.7656 29.2236L15.2783 28.4546L15.791 27.6343L16.5088 26.6602L17.0215 25.9424L17.5342 25.2759L18.1494 24.5068L18.6108 23.9429L19.021 23.4814L19.4824 22.9175L19.79 22.5586H19.8926L19.9951 22.3535L20.918 21.4307L21.0205 21.2769H21.123L21.1743 21.123L21.5845 20.7642L22.4561 19.8926L22.8662 19.5337L23.3789 19.0723L23.9429 18.6108L24.6094 18.0469L25.3271 17.4829L26.1987 16.8164L27.9419 15.5859L28.916 14.9707L29.8389 14.4067L31.1719 13.6377L32.146 13.125L33.3252 12.5098L35.0171 11.7407L37.2217 10.8691L39.3237 10.1514L41.7334 9.48486L43.5278 9.07471L45.835 8.66455L47.5269 8.45947L47.5781 6.15234L47.6807 5.63965L47.8345 5.22949L48.1421 4.66553L48.7061 4.05029L49.2188 3.69141L49.8853 3.38379L50.3979 3.28125Z"/>
</mask>
<path d="M50.3979 3.28125H54.4995L55.2686 3.43506L56.0376 3.84521L56.6016 4.35791L56.9604 4.87061L57.2168 5.3833L57.3706 5.896L57.4219 6.35742V8.45947L59.4214 8.71582L61.4209 9.07471L63.0103 9.43359L64.9585 9.94629L66.9067 10.5615L68.4448 11.1255L70.188 11.8433L71.521 12.4585L72.5977 12.9712L73.7256 13.5864L75.1099 14.3555L76.084 14.9707L77.3657 15.791L78.3398 16.5088L79.0576 17.0215L79.9805 17.7393L80.8008 18.4058L81.5186 19.021L82.0312 19.4824L82.4414 19.8413L83.2104 20.5591L84.9023 22.251L85.2612 22.6611L85.8252 23.2764L86.2866 23.8403L86.9019 24.5581L87.5684 25.4297L87.9785 25.9424L88.645 26.8652L89.4141 27.9932L90.1831 29.1724L90.8496 30.3003L91.5161 31.4795L92.4902 33.3765L93.3105 35.2222L93.8745 36.6064L94.3872 38.042L94.8999 39.5801L95.5151 41.8359L95.9766 43.8867L96.3867 46.3989L96.5918 48.1421L96.7456 50.2954L96.7969 52.4487L96.6943 52.5H93.5156L93.4644 51.7822L93.4131 50.2441L93.2593 48.2446L92.9517 45.9375L92.5928 43.9893L92.1313 42.041L91.5161 39.939L90.9009 38.1445L90.3369 36.709L89.4141 34.6582L88.8501 33.5303L88.2349 32.4023L87.4146 31.0181L86.5942 29.7363L86.0303 28.916L85.3638 27.9932L84.646 27.0703L84.1846 26.5063L83.6206 25.8398L83.1592 25.2759L82.3389 24.4043L81.98 24.0454L81.6211 23.6353L81.1597 23.1738L80.7495 22.8149L80.083 22.1484L79.519 21.687L78.9551 21.1743L78.3911 20.7129L77.6733 20.1489L76.7505 19.4312L75.7764 18.7646L75.2637 18.4058L74.3921 17.8418L73.3154 17.1753L72.1362 16.5088L70.957 15.8936L69.8291 15.3296L68.0859 14.5605L66.5991 13.9966L64.4971 13.2788L62.4463 12.7148L60.6519 12.3047L58.2422 11.8945L56.3965 11.6895L55.0122 11.5869L53.833 11.5356H50.7568L49.1162 11.6382L46.8091 11.8945L44.9121 12.2021L43.1689 12.561L41.2207 13.0737L39.4263 13.6377L38.0933 14.0991L36.5552 14.7144L34.7607 15.5347L33.9404 15.9448L33.1714 16.355L32.5562 16.6626L31.3257 17.3804L30.1978 18.0981L29.2749 18.7134L28.3521 19.3799L27.7881 19.79L26.8652 20.5078L26.1987 21.0718L25.6348 21.5332L25.0708 22.0459L24.6606 22.4048L24.1479 22.9175L23.7378 23.2764L23.0713 23.9429L22.7124 24.353L22.1484 24.917L21.7896 25.3271L21.1743 26.0449L20.7129 26.6089L20.3027 27.1216L19.6362 27.9932L18.9697 28.916L18.3032 29.8901L17.4829 31.1719L16.7139 32.5049L15.9448 33.9404L15.1758 35.5298L14.5605 36.9653L13.9453 38.5547L13.3301 40.4004L12.8174 42.1948L12.356 44.1431L12.0483 45.8862L11.8433 47.2705L11.6895 48.5522L11.5869 50.0391L11.5356 51.167V54.0894L11.6895 56.3965L11.9971 58.8574L12.356 60.8569L12.8687 63.0103L13.4839 65.1123L14.1504 67.0093L14.8169 68.6499L15.5859 70.3418L16.2524 71.6748L16.9189 72.854L17.5342 73.9307L17.9443 74.5459L18.6108 75.5713L19.2261 76.4429L19.9438 77.417L20.6104 78.2373L21.0718 78.8013L21.687 79.519L22.1484 80.0317L22.5073 80.4419L23.2251 81.1597L23.584 81.5698L24.1992 82.1338L24.8657 82.8003L25.4297 83.2617L25.9937 83.7744L26.5576 84.2358L27.3267 84.8511L28.3521 85.6201L29.3774 86.3379L30.5566 87.1069L31.5308 87.7222L32.8125 88.4399L34.7607 89.4653L36.0425 90.0293L37.3755 90.5933L38.7598 91.106L40.6055 91.7212L42.6562 92.2852L44.502 92.6953L46.604 93.0542L48.8086 93.3105L50.2954 93.4131L52.4487 93.5156L52.5 93.5669V96.7456L52.4487 96.7969L50.1929 96.7456L47.6807 96.5405L45.6812 96.2842L43.4253 95.874L41.4771 95.4126L39.6313 94.8999L37.7856 94.2847L36.7603 93.9258L34.9658 93.208L32.9663 92.2852L31.2744 91.4136L29.9414 90.6445L28.6084 89.8242L27.5317 89.1064L26.6602 88.4912L25.7373 87.8247L24.917 87.1582L24.1992 86.5942L23.6865 86.1328L23.1226 85.6714L22.3535 84.9536L21.687 84.3384L20.2515 82.9028L19.8926 82.4927L19.2773 81.8262L18.9185 81.416L18.3032 80.6982L17.8931 80.1855L16.8677 78.8525L16.2524 77.981L15.7397 77.2632L15.1758 76.3916L14.5605 75.4175L13.7402 73.9819L13.125 72.854L12.4072 71.4185L11.5869 69.5728L10.8691 67.7271L10.1514 65.625L9.53613 63.4204L9.02344 61.1646L8.66455 59.0625L8.4082 57.063L8.25439 55.0635L8.20312 53.9355V51.0645L8.30566 49.2188L8.45947 47.4756L8.81836 44.9634L9.17725 43.1177L9.63867 41.1694L10.2026 39.2212L10.9717 36.9653L11.5869 35.4272L12.4585 33.479L13.2275 31.9409L13.689 31.1206L13.9966 30.5566L14.7656 29.2236L15.2783 28.4546L15.791 27.6343L16.5088 26.6602L17.0215 25.9424L17.5342 25.2759L18.1494 24.5068L18.6108 23.9429L19.021 23.4814L19.4824 22.9175L19.79 22.5586H19.8926L19.9951 22.3535L20.918 21.4307L21.0205 21.2769H21.123L21.1743 21.123L21.5845 20.7642L22.4561 19.8926L22.8662 19.5337L23.3789 19.0723L23.9429 18.6108L24.6094 18.0469L25.3271 17.4829L26.1987 16.8164L27.9419 15.5859L28.916 14.9707L29.8389 14.4067L31.1719 13.6377L32.146 13.125L33.3252 12.5098L35.0171 11.7407L37.2217 10.8691L39.3237 10.1514L41.7334 9.48486L43.5278 9.07471L45.835 8.66455L47.5269 8.45947L47.5781 6.15234L47.6807 5.63965L47.8345 5.22949L48.1421 4.66553L48.7061 4.05029L49.2188 3.69141L49.8853 3.38379L50.3979 3.28125Z" fill="#12123B"/>
<path d="M50.3979 3.28125H54.4995L55.2686 3.43506L56.0376 3.84521L56.6016 4.35791L56.9604 4.87061L57.2168 5.3833L57.3706 5.896L57.4219 6.35742V8.45947L59.4214 8.71582L61.4209 9.07471L63.0103 9.43359L64.9585 9.94629L66.9067 10.5615L68.4448 11.1255L70.188 11.8433L71.521 12.4585L72.5977 12.9712L73.7256 13.5864L75.1099 14.3555L76.084 14.9707L77.3657 15.791L78.3398 16.5088L79.0576 17.0215L79.9805 17.7393L80.8008 18.4058L81.5186 19.021L82.0312 19.4824L82.4414 19.8413L83.2104 20.5591L84.9023 22.251L85.2612 22.6611L85.8252 23.2764L86.2866 23.8403L86.9019 24.5581L87.5684 25.4297L87.9785 25.9424L88.645 26.8652L89.4141 27.9932L90.1831 29.1724L90.8496 30.3003L91.5161 31.4795L92.4902 33.3765L93.3105 35.2222L93.8745 36.6064L94.3872 38.042L94.8999 39.5801L95.5151 41.8359L95.9766 43.8867L96.3867 46.3989L96.5918 48.1421L96.7456 50.2954L96.7969 52.4487L96.6943 52.5H93.5156L93.4644 51.7822L93.4131 50.2441L93.2593 48.2446L92.9517 45.9375L92.5928 43.9893L92.1313 42.041L91.5161 39.939L90.9009 38.1445L90.3369 36.709L89.4141 34.6582L88.8501 33.5303L88.2349 32.4023L87.4146 31.0181L86.5942 29.7363L86.0303 28.916L85.3638 27.9932L84.646 27.0703L84.1846 26.5063L83.6206 25.8398L83.1592 25.2759L82.3389 24.4043L81.98 24.0454L81.6211 23.6353L81.1597 23.1738L80.7495 22.8149L80.083 22.1484L79.519 21.687L78.9551 21.1743L78.3911 20.7129L77.6733 20.1489L76.7505 19.4312L75.7764 18.7646L75.2637 18.4058L74.3921 17.8418L73.3154 17.1753L72.1362 16.5088L70.957 15.8936L69.8291 15.3296L68.0859 14.5605L66.5991 13.9966L64.4971 13.2788L62.4463 12.7148L60.6519 12.3047L58.2422 11.8945L56.3965 11.6895L55.0122 11.5869L53.833 11.5356H50.7568L49.1162 11.6382L46.8091 11.8945L44.9121 12.2021L43.1689 12.561L41.2207 13.0737L39.4263 13.6377L38.0933 14.0991L36.5552 14.7144L34.7607 15.5347L33.9404 15.9448L33.1714 16.355L32.5562 16.6626L31.3257 17.3804L30.1978 18.0981L29.2749 18.7134L28.3521 19.3799L27.7881 19.79L26.8652 20.5078L26.1987 21.0718L25.6348 21.5332L25.0708 22.0459L24.6606 22.4048L24.1479 22.9175L23.7378 23.2764L23.0713 23.9429L22.7124 24.353L22.1484 24.917L21.7896 25.3271L21.1743 26.0449L20.7129 26.6089L20.3027 27.1216L19.6362 27.9932L18.9697 28.916L18.3032 29.8901L17.4829 31.1719L16.7139 32.5049L15.9448 33.9404L15.1758 35.5298L14.5605 36.9653L13.9453 38.5547L13.3301 40.4004L12.8174 42.1948L12.356 44.1431L12.0483 45.8862L11.8433 47.2705L11.6895 48.5522L11.5869 50.0391L11.5356 51.167V54.0894L11.6895 56.3965L11.9971 58.8574L12.356 60.8569L12.8687 63.0103L13.4839 65.1123L14.1504 67.0093L14.8169 68.6499L15.5859 70.3418L16.2524 71.6748L16.9189 72.854L17.5342 73.9307L17.9443 74.5459L18.6108 75.5713L19.2261 76.4429L19.9438 77.417L20.6104 78.2373L21.0718 78.8013L21.687 79.519L22.1484 80.0317L22.5073 80.4419L23.2251 81.1597L23.584 81.5698L24.1992 82.1338L24.8657 82.8003L25.4297 83.2617L25.9937 83.7744L26.5576 84.2358L27.3267 84.8511L28.3521 85.6201L29.3774 86.3379L30.5566 87.1069L31.5308 87.7222L32.8125 88.4399L34.7607 89.4653L36.0425 90.0293L37.3755 90.5933L38.7598 91.106L40.6055 91.7212L42.6562 92.2852L44.502 92.6953L46.604 93.0542L48.8086 93.3105L50.2954 93.4131L52.4487 93.5156L52.5 93.5669V96.7456L52.4487 96.7969L50.1929 96.7456L47.6807 96.5405L45.6812 96.2842L43.4253 95.874L41.4771 95.4126L39.6313 94.8999L37.7856 94.2847L36.7603 93.9258L34.9658 93.208L32.9663 92.2852L31.2744 91.4136L29.9414 90.6445L28.6084 89.8242L27.5317 89.1064L26.6602 88.4912L25.7373 87.8247L24.917 87.1582L24.1992 86.5942L23.6865 86.1328L23.1226 85.6714L22.3535 84.9536L21.687 84.3384L20.2515 82.9028L19.8926 82.4927L19.2773 81.8262L18.9185 81.416L18.3032 80.6982L17.8931 80.1855L16.8677 78.8525L16.2524 77.981L15.7397 77.2632L15.1758 76.3916L14.5605 75.4175L13.7402 73.9819L13.125 72.854L12.4072 71.4185L11.5869 69.5728L10.8691 67.7271L10.1514 65.625L9.53613 63.4204L9.02344 61.1646L8.66455 59.0625L8.4082 57.063L8.25439 55.0635L8.20312 53.9355V51.0645L8.30566 49.2188L8.45947 47.4756L8.81836 44.9634L9.17725 43.1177L9.63867 41.1694L10.2026 39.2212L10.9717 36.9653L11.5869 35.4272L12.4585 33.479L13.2275 31.9409L13.689 31.1206L13.9966 30.5566L14.7656 29.2236L15.2783 28.4546L15.791 27.6343L16.5088 26.6602L17.0215 25.9424L17.5342 25.2759L18.1494 24.5068L18.6108 23.9429L19.021 23.4814L19.4824 22.9175L19.79 22.5586H19.8926L19.9951 22.3535L20.918 21.4307L21.0205 21.2769H21.123L21.1743 21.123L21.5845 20.7642L22.4561 19.8926L22.8662 19.5337L23.3789 19.0723L23.9429 18.6108L24.6094 18.0469L25.3271 17.4829L26.1987 16.8164L27.9419 15.5859L28.916 14.9707L29.8389 14.4067L31.1719 13.6377L32.146 13.125L33.3252 12.5098L35.0171 11.7407L37.2217 10.8691L39.3237 10.1514L41.7334 9.48486L43.5278 9.07471L45.835 8.66455L47.5269 8.45947L47.5781 6.15234L47.6807 5.63965L47.8345 5.22949L48.1421 4.66553L48.7061 4.05029L49.2188 3.69141L49.8853 3.38379L50.3979 3.28125Z" stroke="#12123B" mask="url(#path-1-outside-1_84_254)"/>
<mask id="path-2-outside-2_84_254" maskUnits="userSpaceOnUse" x="46.5781" y="48.2188" width="54" height="54" fill="black">
<rect fill="white" x="46.5781" y="48.2188" width="54" height="54"/>
<path d="M72.9053 49.2188H74.6484L76.2891 49.3213L77.9297 49.5264L79.5703 49.834L81.3647 50.2954L83.0566 50.8594L84.5435 51.4746L86.0303 52.1924L87.312 52.9102L88.4399 53.6279L89.3628 54.2944L90.0293 54.8071L90.542 55.2173L91.1572 55.73L91.2598 55.7812L91.2085 56.0376L90.6958 56.6016L90.2344 57.1655L89.8242 57.5757L89.4653 57.9858L89.1577 58.2935L88.9526 58.1909L88.0811 57.4731L87.2607 56.8579L86.1841 56.1401L85.5176 55.73L84.2358 55.0122L82.8003 54.3457L81.3135 53.7817L79.8267 53.3203L78.4937 53.0127L76.6479 52.7051L74.6997 52.5513H72.8027L70.957 52.7051L69.4189 52.9614L68.2397 53.2178L66.6504 53.6792L65.3687 54.1406L63.9844 54.7559L62.8564 55.3198L61.7285 55.9863L60.6519 56.7041L59.6777 57.4219L58.96 58.0371L58.5498 58.396L58.0371 58.8574L57.7808 59.1138H57.6782L57.5757 59.3188H57.4731L57.3706 59.5239H57.2681L57.1655 59.729L56.8066 60.0879L56.7554 60.1904H56.6528L56.5503 60.3955L55.9351 61.1133L55.4736 61.7285L54.8071 62.6514L54.1406 63.728L53.4229 65.0098L52.9102 66.0864L52.3462 67.4707L51.7822 69.1626L51.4233 70.5981L51.167 72.0337L51.0132 73.2129L50.9106 74.6997V76.4429L51.0645 78.2886L51.3721 80.1343L51.6797 81.416L52.1411 82.9541L52.6538 84.2871L53.2178 85.5176L53.7817 86.6455L54.397 87.6709L54.8071 88.2861L55.4736 89.2603L55.9863 89.8755L56.4478 90.4395L56.9092 90.9521L57.2681 91.3623L58.2422 92.3364L58.8062 92.7979L59.3188 93.2593L59.9854 93.772L60.9082 94.4385L61.8823 95.0537L62.959 95.6689L63.7793 96.0791L64.856 96.5918L66.3428 97.1558L67.8296 97.6172L69.3677 97.9761L70.957 98.2324L72.6489 98.3862H75.0586L76.7505 98.2324L78.5449 97.9248L80.3906 97.4634L82.1851 96.8481L83.3643 96.3354L84.5435 95.7715L85.7227 95.105L86.6968 94.4897L87.6196 93.8232L88.3374 93.2593L89.0552 92.644L89.6704 92.0801L90.0293 91.7725L90.3882 91.3623L90.9521 90.7983L91.4136 90.2344L91.9775 89.5679L92.644 88.645L93.3105 87.6196L93.772 86.8506L94.3872 85.6714L94.8999 84.5947L95.4639 83.1592L95.9253 81.6724L96.2329 80.4419L96.5405 78.8013L96.6943 77.417L96.7456 76.8018V74.2383L96.5918 72.5464L96.3354 71.0083L95.9766 69.4702L95.5151 67.9321L95.6177 67.7271L98.1299 66.8555L98.5913 66.7017L98.7451 67.1118L99.2578 68.855L99.668 70.6494L99.873 71.9824L100.027 73.3667L100.078 74.2383V76.6992L99.9756 78.186L99.7192 79.9805L99.4629 81.2622L99.104 82.6978L98.4888 84.5947L97.8735 86.0815L97.1558 87.6196L96.4893 88.7988L95.9253 89.7217L95.5151 90.3369L94.8486 91.2598L94.2847 91.9775L93.7207 92.644L93.208 93.208L92.8491 93.6182L91.7212 94.7461L91.311 95.105L90.7983 95.5664L90.0806 96.1304L89.4141 96.6431L88.2349 97.4634L86.7993 98.335L85.6714 98.9502L84.3384 99.5654L82.9028 100.129L81.3647 100.642L79.8267 101.052L77.981 101.411L76.3916 101.616L75.0073 101.719H72.7002L71.2134 101.616L69.3677 101.36L67.6245 101.001L65.8301 100.488L64.7534 100.129L63.3691 99.5654L61.9336 98.8989L60.9595 98.3862L59.6777 97.6172L58.5498 96.8481L57.6782 96.1816L56.8579 95.5151L56.2427 94.9512L55.8325 94.5923L54.397 93.1567L54.0381 92.7466L53.4741 92.0801L52.8076 91.2085L52.1411 90.2856L51.5771 89.4141L50.9106 88.2861L50.4492 87.4658L49.7827 86.0303L49.3726 85.0562L48.8599 83.6206L48.4497 82.2363L48.1421 80.9546L47.8857 79.5703L47.6807 77.9297L47.5781 76.3403V74.5972L47.6807 73.0591L47.8857 71.4185L48.2446 69.5728L48.6548 67.9834L49.2188 66.2915L49.7314 65.061L50.2954 63.8306L50.9619 62.5488L51.8335 61.1133L52.3462 60.3955L53.0127 59.4727L53.6792 58.6523L54.0381 58.1909H54.1406L54.2432 57.9858L55.0122 57.1655L55.9351 56.2427L56.3452 55.8838L57.1143 55.2173L57.8833 54.6021L58.8062 53.9355L59.8828 53.2178L60.6519 52.7563L61.7798 52.1411L62.9077 51.5771L64.3433 50.9619L66.1377 50.3467L67.4707 49.9878L68.855 49.6802L70.4443 49.4238L71.9824 49.27L72.9053 49.2188Z"/>
</mask>
<path d="M72.9053 49.2188H74.6484L76.2891 49.3213L77.9297 49.5264L79.5703 49.834L81.3647 50.2954L83.0566 50.8594L84.5435 51.4746L86.0303 52.1924L87.312 52.9102L88.4399 53.6279L89.3628 54.2944L90.0293 54.8071L90.542 55.2173L91.1572 55.73L91.2598 55.7812L91.2085 56.0376L90.6958 56.6016L90.2344 57.1655L89.8242 57.5757L89.4653 57.9858L89.1577 58.2935L88.9526 58.1909L88.0811 57.4731L87.2607 56.8579L86.1841 56.1401L85.5176 55.73L84.2358 55.0122L82.8003 54.3457L81.3135 53.7817L79.8267 53.3203L78.4937 53.0127L76.6479 52.7051L74.6997 52.5513H72.8027L70.957 52.7051L69.4189 52.9614L68.2397 53.2178L66.6504 53.6792L65.3687 54.1406L63.9844 54.7559L62.8564 55.3198L61.7285 55.9863L60.6519 56.7041L59.6777 57.4219L58.96 58.0371L58.5498 58.396L58.0371 58.8574L57.7808 59.1138H57.6782L57.5757 59.3188H57.4731L57.3706 59.5239H57.2681L57.1655 59.729L56.8066 60.0879L56.7554 60.1904H56.6528L56.5503 60.3955L55.9351 61.1133L55.4736 61.7285L54.8071 62.6514L54.1406 63.728L53.4229 65.0098L52.9102 66.0864L52.3462 67.4707L51.7822 69.1626L51.4233 70.5981L51.167 72.0337L51.0132 73.2129L50.9106 74.6997V76.4429L51.0645 78.2886L51.3721 80.1343L51.6797 81.416L52.1411 82.9541L52.6538 84.2871L53.2178 85.5176L53.7817 86.6455L54.397 87.6709L54.8071 88.2861L55.4736 89.2603L55.9863 89.8755L56.4478 90.4395L56.9092 90.9521L57.2681 91.3623L58.2422 92.3364L58.8062 92.7979L59.3188 93.2593L59.9854 93.772L60.9082 94.4385L61.8823 95.0537L62.959 95.6689L63.7793 96.0791L64.856 96.5918L66.3428 97.1558L67.8296 97.6172L69.3677 97.9761L70.957 98.2324L72.6489 98.3862H75.0586L76.7505 98.2324L78.5449 97.9248L80.3906 97.4634L82.1851 96.8481L83.3643 96.3354L84.5435 95.7715L85.7227 95.105L86.6968 94.4897L87.6196 93.8232L88.3374 93.2593L89.0552 92.644L89.6704 92.0801L90.0293 91.7725L90.3882 91.3623L90.9521 90.7983L91.4136 90.2344L91.9775 89.5679L92.644 88.645L93.3105 87.6196L93.772 86.8506L94.3872 85.6714L94.8999 84.5947L95.4639 83.1592L95.9253 81.6724L96.2329 80.4419L96.5405 78.8013L96.6943 77.417L96.7456 76.8018V74.2383L96.5918 72.5464L96.3354 71.0083L95.9766 69.4702L95.5151 67.9321L95.6177 67.7271L98.1299 66.8555L98.5913 66.7017L98.7451 67.1118L99.2578 68.855L99.668 70.6494L99.873 71.9824L100.027 73.3667L100.078 74.2383V76.6992L99.9756 78.186L99.7192 79.9805L99.4629 81.2622L99.104 82.6978L98.4888 84.5947L97.8735 86.0815L97.1558 87.6196L96.4893 88.7988L95.9253 89.7217L95.5151 90.3369L94.8486 91.2598L94.2847 91.9775L93.7207 92.644L93.208 93.208L92.8491 93.6182L91.7212 94.7461L91.311 95.105L90.7983 95.5664L90.0806 96.1304L89.4141 96.6431L88.2349 97.4634L86.7993 98.335L85.6714 98.9502L84.3384 99.5654L82.9028 100.129L81.3647 100.642L79.8267 101.052L77.981 101.411L76.3916 101.616L75.0073 101.719H72.7002L71.2134 101.616L69.3677 101.36L67.6245 101.001L65.8301 100.488L64.7534 100.129L63.3691 99.5654L61.9336 98.8989L60.9595 98.3862L59.6777 97.6172L58.5498 96.8481L57.6782 96.1816L56.8579 95.5151L56.2427 94.9512L55.8325 94.5923L54.397 93.1567L54.0381 92.7466L53.4741 92.0801L52.8076 91.2085L52.1411 90.2856L51.5771 89.4141L50.9106 88.2861L50.4492 87.4658L49.7827 86.0303L49.3726 85.0562L48.8599 83.6206L48.4497 82.2363L48.1421 80.9546L47.8857 79.5703L47.6807 77.9297L47.5781 76.3403V74.5972L47.6807 73.0591L47.8857 71.4185L48.2446 69.5728L48.6548 67.9834L49.2188 66.2915L49.7314 65.061L50.2954 63.8306L50.9619 62.5488L51.8335 61.1133L52.3462 60.3955L53.0127 59.4727L53.6792 58.6523L54.0381 58.1909H54.1406L54.2432 57.9858L55.0122 57.1655L55.9351 56.2427L56.3452 55.8838L57.1143 55.2173L57.8833 54.6021L58.8062 53.9355L59.8828 53.2178L60.6519 52.7563L61.7798 52.1411L62.9077 51.5771L64.3433 50.9619L66.1377 50.3467L67.4707 49.9878L68.855 49.6802L70.4443 49.4238L71.9824 49.27L72.9053 49.2188Z" fill="#0971CE"/>
<path d="M72.9053 49.2188H74.6484L76.2891 49.3213L77.9297 49.5264L79.5703 49.834L81.3647 50.2954L83.0566 50.8594L84.5435 51.4746L86.0303 52.1924L87.312 52.9102L88.4399 53.6279L89.3628 54.2944L90.0293 54.8071L90.542 55.2173L91.1572 55.73L91.2598 55.7812L91.2085 56.0376L90.6958 56.6016L90.2344 57.1655L89.8242 57.5757L89.4653 57.9858L89.1577 58.2935L88.9526 58.1909L88.0811 57.4731L87.2607 56.8579L86.1841 56.1401L85.5176 55.73L84.2358 55.0122L82.8003 54.3457L81.3135 53.7817L79.8267 53.3203L78.4937 53.0127L76.6479 52.7051L74.6997 52.5513H72.8027L70.957 52.7051L69.4189 52.9614L68.2397 53.2178L66.6504 53.6792L65.3687 54.1406L63.9844 54.7559L62.8564 55.3198L61.7285 55.9863L60.6519 56.7041L59.6777 57.4219L58.96 58.0371L58.5498 58.396L58.0371 58.8574L57.7808 59.1138H57.6782L57.5757 59.3188H57.4731L57.3706 59.5239H57.2681L57.1655 59.729L56.8066 60.0879L56.7554 60.1904H56.6528L56.5503 60.3955L55.9351 61.1133L55.4736 61.7285L54.8071 62.6514L54.1406 63.728L53.4229 65.0098L52.9102 66.0864L52.3462 67.4707L51.7822 69.1626L51.4233 70.5981L51.167 72.0337L51.0132 73.2129L50.9106 74.6997V76.4429L51.0645 78.2886L51.3721 80.1343L51.6797 81.416L52.1411 82.9541L52.6538 84.2871L53.2178 85.5176L53.7817 86.6455L54.397 87.6709L54.8071 88.2861L55.4736 89.2603L55.9863 89.8755L56.4478 90.4395L56.9092 90.9521L57.2681 91.3623L58.2422 92.3364L58.8062 92.7979L59.3188 93.2593L59.9854 93.772L60.9082 94.4385L61.8823 95.0537L62.959 95.6689L63.7793 96.0791L64.856 96.5918L66.3428 97.1558L67.8296 97.6172L69.3677 97.9761L70.957 98.2324L72.6489 98.3862H75.0586L76.7505 98.2324L78.5449 97.9248L80.3906 97.4634L82.1851 96.8481L83.3643 96.3354L84.5435 95.7715L85.7227 95.105L86.6968 94.4897L87.6196 93.8232L88.3374 93.2593L89.0552 92.644L89.6704 92.0801L90.0293 91.7725L90.3882 91.3623L90.9521 90.7983L91.4136 90.2344L91.9775 89.5679L92.644 88.645L93.3105 87.6196L93.772 86.8506L94.3872 85.6714L94.8999 84.5947L95.4639 83.1592L95.9253 81.6724L96.2329 80.4419L96.5405 78.8013L96.6943 77.417L96.7456 76.8018V74.2383L96.5918 72.5464L96.3354 71.0083L95.9766 69.4702L95.5151 67.9321L95.6177 67.7271L98.1299 66.8555L98.5913 66.7017L98.7451 67.1118L99.2578 68.855L99.668 70.6494L99.873 71.9824L100.027 73.3667L100.078 74.2383V76.6992L99.9756 78.186L99.7192 79.9805L99.4629 81.2622L99.104 82.6978L98.4888 84.5947L97.8735 86.0815L97.1558 87.6196L96.4893 88.7988L95.9253 89.7217L95.5151 90.3369L94.8486 91.2598L94.2847 91.9775L93.7207 92.644L93.208 93.208L92.8491 93.6182L91.7212 94.7461L91.311 95.105L90.7983 95.5664L90.0806 96.1304L89.4141 96.6431L88.2349 97.4634L86.7993 98.335L85.6714 98.9502L84.3384 99.5654L82.9028 100.129L81.3647 100.642L79.8267 101.052L77.981 101.411L76.3916 101.616L75.0073 101.719H72.7002L71.2134 101.616L69.3677 101.36L67.6245 101.001L65.8301 100.488L64.7534 100.129L63.3691 99.5654L61.9336 98.8989L60.9595 98.3862L59.6777 97.6172L58.5498 96.8481L57.6782 96.1816L56.8579 95.5151L56.2427 94.9512L55.8325 94.5923L54.397 93.1567L54.0381 92.7466L53.4741 92.0801L52.8076 91.2085L52.1411 90.2856L51.5771 89.4141L50.9106 88.2861L50.4492 87.4658L49.7827 86.0303L49.3726 85.0562L48.8599 83.6206L48.4497 82.2363L48.1421 80.9546L47.8857 79.5703L47.6807 77.9297L47.5781 76.3403V74.5972L47.6807 73.0591L47.8857 71.4185L48.2446 69.5728L48.6548 67.9834L49.2188 66.2915L49.7314 65.061L50.2954 63.8306L50.9619 62.5488L51.8335 61.1133L52.3462 60.3955L53.0127 59.4727L53.6792 58.6523L54.0381 58.1909H54.1406L54.2432 57.9858L55.0122 57.1655L55.9351 56.2427L56.3452 55.8838L57.1143 55.2173L57.8833 54.6021L58.8062 53.9355L59.8828 53.2178L60.6519 52.7563L61.7798 52.1411L62.9077 51.5771L64.3433 50.9619L66.1377 50.3467L67.4707 49.9878L68.855 49.6802L70.4443 49.4238L71.9824 49.27L72.9053 49.2188Z" stroke="#0971CE" mask="url(#path-2-outside-2_84_254)"/>
<path d="M97.9761 54.1406H98.7964L99.5654 54.2944L100.334 54.7046L100.95 55.2686L101.411 55.9863L101.667 56.7554L101.719 57.1143V57.7295L101.565 58.4473L101.36 58.96L100.898 59.6265L76.0327 84.4922L75.52 84.8511L74.8535 85.1587L74.0845 85.3125H73.5205L72.8027 85.1587L72.1875 84.9023L71.521 84.3896L63.1641 76.0327L62.7026 75.3662L62.4463 74.751L62.3438 74.2383V73.418L62.5488 72.5977L62.9077 71.9312L63.4717 71.3159L63.8818 71.0083L64.4971 70.7007L65.1636 70.5469H65.9839L66.7529 70.7007L67.522 71.1108L68.1885 71.7261L73.7256 77.2632L73.8794 77.3145L96.3354 54.8584L96.7969 54.5508L97.3096 54.2944L97.9761 54.1406Z" fill="#0971CE"/>
<path d="M52.1924 26H52.1574L52.1237 26.0096L51.7648 26.1122L51.7273 26.1229L51.6948 26.1445L51.2334 26.4521L51.1978 26.4759L51.1721 26.5102L50.8645 26.9203L50.8446 26.9468L50.8323 26.9775L50.6273 27.4902L50.6095 27.5346L50.6094 27.5825L50.5582 51.723L50.5514 51.7367L36.5835 65.7046L36.5832 65.7043L36.5744 65.7141L36.113 66.2268L36.0805 66.2629L36.0639 66.3086L35.8588 66.8726L35.8438 66.914V66.958V67.5732V67.6138L35.8566 67.6523L35.9591 67.9599L35.9678 67.986L35.9819 68.0095L36.2895 68.5222L36.3147 68.5642L36.3539 68.5936L36.7641 68.9012L36.7938 68.9234L36.8286 68.9361L37.3926 69.1412L37.434 69.1562H37.478H37.9395H37.9761L38.0113 69.1457L38.524 68.9919L38.5648 68.9797L38.5992 68.9546L39.1632 68.5445L39.179 68.5329L39.1929 68.5191L53.292 54.4199L53.2921 54.42L53.298 54.4137L54.0158 53.6447L54.0404 53.6183L54.0566 53.5859L54.2617 53.1758L54.274 53.1512L54.2806 53.1246L54.3832 52.7144L54.3906 52.6846V52.6538V27.6855V27.6489L54.3801 27.6137L54.2263 27.101L54.2155 27.0652L54.1948 27.0342L53.8872 26.5728L53.8635 26.5371L53.8292 26.5114L53.419 26.2038L53.3835 26.1771L53.3409 26.1644L52.8282 26.0105L52.793 26H52.7563H52.1924Z" fill="#00C189" stroke="#00C189" stroke-width="0.5"/>
<path d="M52.1924 16.4062H52.7563L53.269 16.5601L53.7305 16.9189L54.0381 17.4316L54.1406 17.9443V21.4819L54.0381 21.9434L53.7817 22.3535L53.4229 22.7124L52.9102 22.9175L52.3462 22.9688L51.8848 22.8662L51.3721 22.5586L51.0645 22.1484L50.8594 21.5845V17.7393L51.0645 17.1753L51.4233 16.7651L51.8335 16.5088L52.1924 16.4062Z" fill="#142531"/>
<path d="M17.7393 50.8594H21.5845L22.0459 51.0132L22.5073 51.3208L22.8149 51.7822L22.9688 52.2437V52.7563L22.7637 53.3203L22.4048 53.7305L22.1484 53.9355L21.7383 54.0894L21.3281 54.1406H17.9443L17.4316 54.0381L16.9189 53.7305L16.6113 53.3203L16.4062 52.8076V52.1924L16.6113 51.6284L16.9189 51.2695L17.5342 50.9106L17.7393 50.8594Z" fill="#142531"/>
<path d="M24.353 67.2656H24.917L25.4297 67.4707L25.8398 67.7783L26.1475 68.291L26.25 68.7012V69.1113L26.0962 69.624L25.8911 69.9316L25.5322 70.2905L25.0195 70.4956L24.7632 70.5469H24.4043L23.8403 70.3931L23.3789 70.0342L23.0713 69.5215L22.9688 69.2139V68.6499L23.1226 68.1372L23.4302 67.7271L23.8403 67.4194L24.353 67.2656Z" fill="#142531"/>
<path d="M24.353 34.4531H24.8657L25.3784 34.6069L25.8398 34.9658L26.1475 35.4785L26.25 35.8887V36.2988L26.0962 36.8115L25.8911 37.1191L25.5322 37.478L25.0195 37.6831L24.4043 37.7344L23.8916 37.5806L23.4302 37.2729L23.1226 36.8115L22.9688 36.4014V35.8374L23.1226 35.3247L23.4302 34.9146L23.8403 34.6069L24.353 34.4531Z" fill="#142531"/>
<path d="M35.8374 22.9688H36.3501L36.8628 23.1226L37.3242 23.4814L37.6318 23.9941L37.7344 24.4043V24.8145L37.5806 25.3271L37.3755 25.6348L37.0166 25.9937L36.5039 26.1987L35.8887 26.25L35.376 26.0962L34.9146 25.7886L34.6069 25.3271L34.4531 24.917V24.353L34.6069 23.8403L34.9146 23.4302L35.3247 23.1226L35.8374 22.9688Z" fill="#142531"/>
<path d="M68.6499 22.9688H69.1626L69.6753 23.1226L70.1367 23.4814L70.4443 23.9941L70.5469 24.4043V24.8145L70.3931 25.3271L70.188 25.6348L69.8291 25.9937L69.3164 26.1987L68.7012 26.25L68.1885 26.0962L67.7783 25.8398V25.7373H67.6758L67.3682 25.2246L67.2656 24.917V24.353L67.4194 23.8403L67.7271 23.4302L67.9834 23.2251L68.3936 23.02L68.6499 22.9688Z" fill="#142531"/>
<path d="M35.7861 78.75H36.4014L36.9141 78.9551L37.3242 79.2627L37.6318 79.7754L37.7344 80.1855V80.5957L37.5806 81.1084L37.2729 81.5186L36.9653 81.7749L36.5039 81.98L36.2988 82.0312H35.8887L35.376 81.8774L34.9658 81.6211V81.5186H34.8633L34.5557 81.0059L34.4531 80.6982V80.083L34.6582 79.519L35.0171 79.1089L35.4272 78.8525L35.7861 78.75Z" fill="#142531"/>
<path d="M80.083 34.4531H80.647L81.1597 34.6069L81.6211 34.9658L81.9287 35.4785L82.0312 35.8887V36.2988L81.8774 36.8115L81.5698 37.2217L81.2622 37.478L80.8008 37.6831L80.5957 37.7344H80.1855L79.6729 37.5806L79.2627 37.3242V37.2217H79.1602L78.8525 36.709L78.75 36.4014V35.7861L78.9551 35.2222L79.3652 34.7607L79.8779 34.5044L80.083 34.4531Z" fill="#142531"/>
</svg>
