<svg width="92" height="98" viewBox="0 0 92 98" fill="none" xmlns="http://www.w3.org/2000/svg">
<path d="M0.353846 0.281403C0.151648 0.442047 0 18.5419 0 40.4437V80.2312L26.9429 80.3383L53.8352 80.4989L53.9868 88.9598L54.1385 97.3671L72.9429 97.26L91.7473 97.0993V75.4117V53.724H90.2308H88.7143L88.5626 73.6445L88.4615 93.6186H72.7912H57.1209V66.8437V40.0689H72.7912H88.4615V45.1561V50.2433H90.2308H92V43.5496V36.8559H85.6813H79.3626L79.2615 18.4883L79.1099 0.174301L39.8835 0.013649C18.3495 -0.0399017 0.505495 0.0671997 0.353846 0.281403ZM75.8242 6.06477V8.47451H39.6813H3.53846V6.06477V3.65503H39.6813H75.8242V6.06477ZM75.8242 15.1682V18.649H71.2747H66.7253V23.7362V28.8234H71.2747H75.8242V32.8396V36.8559H64.956H54.0879V56.937V77.0182H48.5275H42.967V55.3305V33.6429H29.5714H16.1758V55.3305V77.0182H9.85714H3.53846V52.9208V28.8234H14.4066H25.2747V23.7362V18.649H14.4066H3.53846V15.1682V11.6875H39.6813H75.8242V15.1682ZM22.2418 23.4684V25.0749H12.8901H3.53846V23.4684V21.8619H12.8901H22.2418V23.4684ZM39.4286 56.937V77.0182H29.3187H19.2088V56.937V36.8559H29.3187H39.4286V56.937Z" fill="#12123B"/>
<path d="M28.8132 23.7361V28.8234H46H63.1868V23.7361V18.6489H46H28.8132V23.7361ZM60.1538 23.4684V25.0749H46H31.8461V23.4684V21.8619H46H60.1538V23.4684Z" fill="black"/>
<path d="M67.433 46.709C61.3165 49.7078 58.4857 58.008 61.4681 64.2733C64.1473 69.896 70.4154 73.2161 75.622 71.7167C81.1824 70.1102 84.8725 65.612 85.2769 59.7216C86.0857 49.4936 76.2286 42.3714 67.433 46.709Z" fill="#0971CE"/>
<path d="M61.6703 78.6247V80.2312H72.7912H83.9121V78.6247V77.0182H72.7912H61.6703V78.6247Z" fill="#00C189"/>
<path d="M61.6703 87.1927V88.7992H72.7912H83.9121V87.1927V85.5862H72.7912H61.6703V87.1927Z" fill="#00C189"/>
</svg>
