<svg width="141" height="111" viewBox="0 0 141 111" fill="none" xmlns="http://www.w3.org/2000/svg">
<path d="M64.2344 0.0301392C58.8254 0.477378 54.6409 1.43991 49.9647 3.33581C48.5088 3.91917 45.3753 5.49423 43.9965 6.34009C36.3699 10.9778 30.4692 17.4238 26.5932 25.3477C24.1346 30.3646 22.7269 35.3425 22.1291 41.0983C21.9363 42.9359 21.9652 48.2541 22.1773 50.0917C22.4087 52.0945 22.698 53.8738 22.8619 54.2627C23.0451 54.7002 23.5175 55.021 24.0767 55.0794C25.0988 55.1766 25.8123 54.3113 25.6098 53.2029C24.7806 48.6527 24.7131 43.1886 25.4266 38.6871C26.9789 28.9742 31.8576 20.0684 39.2142 13.5445C45.7127 7.77903 53.5032 4.28863 62.2579 3.20942C64.0223 2.99552 69.4891 2.96636 71.2729 3.16081C79.8154 4.11362 87.4902 7.40957 94.1237 12.9903C95.2325 13.914 98.1539 16.8696 99.0988 18.0072C104.546 24.5796 107.709 31.9591 108.798 40.6608C109.01 42.3817 109.039 47.8944 108.847 49.7028C108.538 52.532 107.998 55.128 107.13 58.0545C106.745 59.3476 106.716 59.5323 106.812 59.892C107.024 60.6796 107.873 61.1754 108.625 60.9421C109.223 60.7671 109.531 60.3198 109.926 59.0656C113.716 46.8249 112.269 33.6119 105.935 22.6254C101.538 15.0126 95.0686 8.85824 87.2781 4.8817C82.2355 2.30522 77.3857 0.856558 71.6392 0.205146C70.3665 0.0593069 65.3336 -0.0573639 64.2344 0.0301392Z" fill="black"/>
<path d="M60.5197 47.0504C60.2029 47.0792 58.9359 47.1656 57.7121 47.252C48.5692 47.8855 37.1946 50.0596 25.7048 53.3568C21.6157 54.5375 20.9534 54.7534 16.2308 56.3372L12.4153 57.6187H9.53562C5.10097 57.6331 4.1075 57.8634 2.94124 59.2313C1.19906 61.247 0.839103 66.416 2.07735 71.3834L2.29332 72.2761L1.71739 73.1543C0.62313 74.8533 0.162387 76.8835 0.0184047 80.4398C-0.111179 84.3418 0.450351 89.3955 1.48702 93.499C2.07735 95.8459 2.5093 96.7818 3.45958 97.6745C4.42426 98.596 5.21616 98.9272 8.32617 99.7191C9.79479 100.093 12.0985 100.698 13.4375 101.058C16.4468 101.85 17.4258 101.879 18.4337 101.159C19.312 100.554 19.6864 99.7766 19.9311 98.1209C20.5935 93.5854 22.854 89.8707 26.5687 87.2214C27.6342 86.4727 30.0819 85.3496 31.5073 84.9753C33.2063 84.5289 36.1579 84.4281 37.8569 84.7449C42.8387 85.6808 46.7982 88.6612 49.0011 93.1103C49.8938 94.9244 50.297 96.2635 50.5849 98.4376C50.8297 100.353 51.2473 101.072 52.4567 101.72L53.0326 102.037H68.8851H84.7375L85.443 101.605C86.5085 100.929 86.9116 100.165 87.1564 98.308C87.8043 93.3694 90.5112 89.1652 94.6003 86.7175C101.31 82.7004 110.05 84.3994 114.743 90.6194C116.414 92.8511 117.393 95.2844 117.81 98.2648C118.041 99.9638 118.386 100.77 119.12 101.332C119.941 101.951 120.56 102.095 122.432 102.109C132.669 102.138 138.731 99.3303 140.603 93.6862C140.919 92.7071 140.991 92.2752 140.991 90.8066C141.006 89.7699 140.919 88.762 140.804 88.3157C140.646 87.6533 140.646 87.2934 140.804 85.94C141.092 83.6362 141.063 78.4385 140.747 76.322C140.43 74.1478 140.171 73.3127 139.48 72.1465C136.6 67.2223 127.875 64.1555 112.065 62.5141C110.482 62.3413 108.696 62.1109 108.106 61.9957C105.14 61.391 102.231 60.052 96.0113 56.4092C93.7508 55.0846 90.8999 53.5008 89.6761 52.8817C83.5856 49.786 78.1575 48.1159 71.6783 47.324C69.8497 47.0936 62.0459 46.9064 60.5197 47.0504ZM69.8066 51.5714C75.0763 52.061 80.1013 53.3568 84.8959 55.4733C87.07 56.438 90.5688 58.3098 93.9956 60.3543C98.9773 63.3348 102.332 64.9618 105.269 65.8401C106.968 66.344 108.437 66.5888 111.633 66.9055C121.136 67.8414 128.911 69.6844 132.856 71.9161C134.023 72.564 135.419 73.8311 135.794 74.5654C136.326 75.5732 136.528 77.5314 136.542 81.3037C136.542 83.2763 136.499 85.0185 136.441 85.1481C136.341 85.3928 135.966 85.4072 131.417 85.4072C127.183 85.4072 126.435 85.436 126.017 85.6376C124.592 86.3143 124.419 88.4021 125.715 89.3523C126.104 89.6403 126.348 89.6547 131.33 89.7267L136.542 89.7987V90.9649C136.528 91.9728 136.47 92.2464 136.067 93.0815C134.843 95.5436 131.733 96.9978 126.55 97.5017C125.729 97.5737 124.419 97.6457 123.641 97.6457C122.288 97.6457 122.216 97.6313 122.158 97.3146C122.115 97.1418 122.014 96.5802 121.928 96.0619C121.266 92.4192 119.293 88.762 116.399 85.9112C113.52 83.0459 110.41 81.3613 106.392 80.4686C104.42 80.0367 100.561 80.0367 98.5886 80.4686C96.6016 80.915 95.5794 81.2749 93.6356 82.2396C89.0714 84.5001 85.4862 88.546 83.7872 93.3694C83.4417 94.3773 82.7649 97.113 82.7649 97.5593C82.7649 97.6025 76.5161 97.6457 68.8707 97.6457H54.9764L54.9044 97.3146C54.8756 97.1418 54.7604 96.5802 54.674 96.0619C54.2853 93.8014 53.2198 91.2241 51.708 88.9492C50.6281 87.3222 48.4396 85.0329 46.8414 83.8522C45.6895 83.0027 42.8243 81.5341 41.4421 81.0878C37.4106 79.7919 33.0623 79.7919 29.0596 81.0878C24.2794 82.6572 19.7872 86.5591 17.4546 91.2097C16.8643 92.376 16.0436 94.7517 15.7988 96.0187C15.6693 96.7242 15.5685 96.9258 15.3813 96.9258C15.1365 96.9258 12.8328 96.3499 8.75812 95.2556C7.69265 94.9676 6.69918 94.6365 6.55519 94.5069C6.26723 94.2477 5.7201 92.5919 5.38894 90.9505C4.79861 88.0277 4.56824 85.8536 4.48185 82.5996C4.39546 78.9136 4.56824 77.3154 5.18736 76.0772L5.51852 75.4005L7.75025 75.3285C10.126 75.2565 10.3563 75.1845 10.961 74.479C11.753 73.5287 11.5082 71.9737 10.4427 71.3114C9.98197 71.0378 9.69401 70.9802 8.22539 70.9658L6.5264 70.937L6.28163 69.9291C5.6769 67.5534 5.57612 64.0691 6.06566 62.73L6.26723 62.1541L9.92438 62.0821L13.5815 61.9957L15.6693 61.2326C19.8879 59.6776 26.9143 57.5467 32.5152 56.1213C41.9028 53.7168 51.1753 52.1186 58.8639 51.5858C61.3404 51.413 67.9204 51.413 69.8066 51.5714Z" fill="#12123B"/>
<path d="M60.8797 55.8332C48.7995 56.4379 36.3307 59.044 25.6904 63.1619C22.566 64.3569 22.5804 64.3281 22.5804 67.8413C22.5804 70.1306 22.6092 70.361 22.8972 70.8361C23.0699 71.1241 23.4443 71.4409 23.7898 71.5992C24.3658 71.8584 25.604 71.8728 60.8797 71.8728C96.2273 71.8728 97.3935 71.8584 97.9695 71.5992C99.0349 71.1097 99.5245 69.9722 99.1213 68.9212C98.8046 68.1149 98.531 67.8989 96.5872 66.8766C95.6801 66.4015 94.0243 65.4656 92.9157 64.8177C85.2414 60.2678 81.3539 58.4393 76.8041 57.2586C72.7582 56.2075 70.2241 55.8908 65.4871 55.8332C63.5433 55.8044 61.47 55.8044 60.8797 55.8332ZM69.0146 60.3542C73.4349 60.7574 77.38 61.7653 81.2243 63.4642C82.6642 64.0978 86.1773 65.9551 87.7899 66.9198L88.5962 67.4094H57.856C40.6934 67.4094 27.2166 67.3518 27.3318 67.2798C27.8214 67.0062 31.896 65.6096 34.5885 64.8033C42.5507 62.4276 50.9017 60.9014 59.0079 60.3686C61.6284 60.1959 67.1861 60.1815 69.0146 60.3542Z" fill="#00C189"/>
<path d="M33.2495 89.0067C29.1892 89.8706 26.0072 92.6639 24.7545 96.4794C23.8043 99.3735 24.193 102.858 25.7624 105.507C26.3959 106.587 28.4693 108.66 29.5204 109.294C31.968 110.719 34.7469 111.209 37.3818 110.662C44.2497 109.251 48.0797 102.023 45.3728 95.5579C44.1633 92.6639 41.4997 90.2882 38.3465 89.2947C37.209 88.9348 34.3582 88.7764 33.2495 89.0067ZM37.137 93.5566C38.8792 94.0749 40.3478 95.3132 41.1541 96.9834C42.7811 100.309 41.3989 104.226 38.0297 105.809C37.0362 106.285 36.7627 106.357 35.5388 106.4C34.4157 106.443 34.0126 106.4 33.2495 106.141C31.0034 105.392 29.434 103.722 28.8436 101.461C27.9797 98.1496 29.9235 94.6508 33.2063 93.5998C34.2574 93.2686 36.0859 93.2542 37.137 93.5566Z" fill="#12123B"/>
<path d="M100.115 89.0931C99.5533 89.2083 98.4446 89.6258 97.5951 90.0434C96.2849 90.6913 95.9105 90.9649 94.7874 92.1023C93.3188 93.571 92.6997 94.5212 92.1094 96.2634C90.7559 100.194 91.6342 104.355 94.4707 107.379C98.8765 112.087 106.263 112.029 110.64 107.249C113.332 104.312 114.182 100.065 112.872 96.249C112.281 94.5356 111.662 93.571 110.194 92.0879C109.056 90.9505 108.711 90.6913 107.386 90.0434C106.436 89.5827 105.457 89.2227 104.765 89.0787C103.398 88.8051 101.454 88.8195 100.115 89.0931ZM104.233 93.5278C105.413 93.8877 106.277 94.3917 107.098 95.1836C110.381 98.4088 109.43 103.837 105.241 105.824C104.276 106.285 103.988 106.357 102.778 106.4C101.655 106.443 101.252 106.4 100.489 106.141C98.243 105.392 96.6736 103.707 96.0833 101.432C95.2482 98.2072 97.1344 94.7372 100.331 93.6573C101.425 93.283 103.239 93.211 104.233 93.5278Z" fill="#12123B"/>
<path d="M70.5585 15.3427L70.5585 15.3427L70.5596 15.3457C70.6377 15.5642 70.6912 15.9433 70.7344 16.376C70.7797 16.8314 70.8187 17.4108 70.8499 18.0725C70.9125 19.3967 70.9449 21.0677 70.9341 22.7695C70.9233 25.2685 70.9454 26.7541 71.0184 27.5623C71.0212 27.5932 71.0241 27.6228 71.027 27.6513C72.2863 26.6823 73.8356 26.5567 75.0927 27.0655C76.5098 27.6392 77.5592 29.0258 77.3862 30.8634C77.3861 30.864 77.3861 30.8646 77.386 30.8652L77.2784 32.0922L77.2625 32.2734L77.1338 32.402L72.1907 37.3451L67.2476 42.2882L66.8941 42.6418L66.5405 42.2882L62.0075 37.7553C59.5788 35.3265 58.162 33.8472 57.3953 32.7603C57.0062 32.2088 56.7631 31.7298 56.6455 31.2533C56.5264 30.7705 56.5456 30.3287 56.6228 29.8714L56.6227 29.8714L56.6239 29.8652C56.6832 29.5391 56.8598 29.1646 57.0634 28.8292C57.2726 28.4844 57.5394 28.1332 57.8199 27.8527C59.2796 26.393 61.5174 26.3533 62.9521 27.7879C63.0529 27.8888 63.1484 27.9739 63.2362 28.0441C63.2329 27.9612 63.23 27.8663 63.2275 27.7611C63.219 27.3999 63.2143 26.8986 63.2129 26.2943C63.2102 25.0852 63.221 23.4534 63.2426 21.6825C63.2641 18.6138 63.285 16.9561 63.4112 15.966C63.4755 15.4618 63.5712 15.0891 63.7306 14.7744C63.8913 14.4568 64.0998 14.2338 64.3172 14.0163C66.3626 11.9709 69.5892 12.6832 70.5585 15.3427ZM70.5755 28.0485C70.576 28.048 70.5765 28.0475 70.577 28.047C70.5773 28.0467 70.5775 28.0465 70.5777 28.0463L70.5755 28.0485ZM65.9694 33.1722L65.9665 34.3751L65.1159 33.5245L63.0221 31.4307C62.1085 30.5171 61.5835 30.0264 61.2041 29.7589C61.022 29.6304 60.8907 29.5664 60.7821 29.5315C60.676 29.4974 60.5676 29.4833 60.4184 29.4833C59.9199 29.4833 59.7451 29.5576 59.657 29.6357C59.5605 29.721 59.4522 29.9114 59.357 30.4494C59.3263 30.6342 59.3267 30.6919 59.346 30.7602C59.3702 30.8457 59.442 30.9956 59.6807 31.2932C60.1606 31.8919 61.1485 32.8917 63.1464 34.8896C64.266 36.0093 65.3031 37.014 66.0745 37.7318C66.461 38.0915 66.7765 38.3751 67.0007 38.5643C67.0268 38.5863 67.0512 38.6067 67.074 38.6254C67.1357 38.5721 67.2074 38.5078 67.2888 38.4329C67.5476 38.1946 67.886 37.8646 68.2786 37.47C69.0628 36.6818 70.0491 35.6499 71.0182 34.6107C71.9874 33.5716 72.9361 32.5287 73.6452 31.719C74.0004 31.3136 74.292 30.9704 74.4953 30.717C74.5976 30.5896 74.6726 30.4908 74.721 30.4213C74.7227 30.4188 74.7243 30.4164 74.7259 30.4141C74.7072 30.2732 74.612 30.0774 74.4003 29.8838C74.1542 29.6588 73.8433 29.5265 73.5856 29.5265C73.4867 29.5265 73.3076 29.5643 72.9203 29.8517C72.5345 30.1379 72.0067 30.6217 71.2194 31.4091C70.6546 31.9739 70.13 32.4768 69.7356 32.8326C69.5399 33.0092 69.3688 33.1562 69.2379 33.2573C69.1752 33.3058 69.1063 33.3558 69.041 33.393C69.0119 33.4096 68.9562 33.4398 68.8868 33.4593C68.8523 33.4691 68.7875 33.4841 68.7066 33.4791C68.621 33.4738 68.4881 33.443 68.3753 33.3302C68.3059 33.2608 68.2753 33.1887 68.2671 33.1693C68.2547 33.1397 68.2475 33.1147 68.2439 33.1012C68.2365 33.0736 68.2326 33.05 68.2307 33.0383C68.2267 33.0125 68.2242 32.9867 68.2226 32.9671C68.219 32.9254 68.216 32.8717 68.2133 32.8107C68.2077 32.687 68.2024 32.5109 68.1973 32.2907C68.1871 31.8492 68.1776 31.218 68.1695 30.4456C68.1533 28.9001 68.1425 26.7829 68.1425 24.4719L68.1425 24.4707C68.1534 19.985 68.1182 17.6328 67.8771 16.4326C67.7553 15.8261 67.6069 15.6659 67.531 15.6178C67.4508 15.567 67.2937 15.5359 66.8556 15.617L66.8455 15.6189L66.8353 15.6203C66.6427 15.6478 66.4413 15.6992 66.2792 15.7548C66.2402 15.7682 66.2051 15.7812 66.1743 15.7936C66.1625 15.9095 66.1506 16.0707 66.139 16.2765C66.1128 16.7383 66.0893 17.3965 66.0691 18.2057C66.0288 19.8226 66.0018 22.0259 65.991 24.431L65.9694 33.1722ZM74.763 30.3568C74.7691 30.3458 74.7674 30.3471 74.7622 30.3581C74.7625 30.3576 74.7628 30.3572 74.763 30.3568Z" fill="#0971CE" stroke="#0971CE"/>
</svg>
