<svg width="103" height="107" viewBox="0 0 103 107" fill="none" xmlns="http://www.w3.org/2000/svg">
<path d="M26.0963 25.4603C12.6322 38.9244 1.41665 50.2771 1.2247 50.6884C0.37462 52.2515 2.1022 54.1162 3.63782 53.3483C3.96688 53.1838 14.8808 42.407 27.8787 29.4091L51.5438 5.79885L61.9367 16.1917C71.0956 25.3506 72.4392 26.5846 73.1796 26.5846C73.6458 26.5846 74.2765 26.3652 74.5781 26.091C75.0992 25.6248 75.1266 25.2135 75.1814 15.2868L75.2637 4.9762L78.3349 4.89393L81.4336 4.81166L81.4885 20.3324L81.5707 35.8258L90.0715 44.354C94.7606 49.0157 98.9013 53.0467 99.3127 53.2661C100.601 53.9242 102 53.0193 102 51.5111C102 50.6336 101.397 49.9755 93.7734 42.3796L85.5469 34.1805V18.2484V2.3437L84.8613 1.68557C84.2032 1.00003 84.2032 1.00003 78.3349 1.00003C72.5764 1.00003 72.4667 1.00003 71.8908 1.63073C71.2875 2.26143 71.2875 2.42596 71.2875 10.9542C71.2875 15.7256 71.2327 19.6469 71.1778 19.6469C71.0956 19.6469 66.8452 15.4513 61.7173 10.3235C53.2165 1.82268 52.339 1.00003 51.5164 1.00003C50.6663 1.00003 48.7468 2.83729 26.0963 25.4603Z" fill="#0971CE" stroke="#0971CE"/>
<path d="M48.1161 27.325C41.6445 28.5041 37.2844 32.6174 35.2004 39.5277C34.5697 41.6392 34.46 42.6538 34.3229 46.438C34.1858 51.4288 34.4326 53.3483 35.6666 57.0503C36.1053 58.3939 36.4344 59.5182 36.4069 59.5457C36.3521 59.6005 34.1584 60.2038 31.5259 60.8893C25.8495 62.425 23.9026 63.3847 21.4346 65.935C18.9118 68.54 18.2537 70.1853 15.3195 81.0718C11.4531 95.578 11.4531 95.5506 11.645 97.2233C12.0015 100.486 14.2501 103.64 17.2117 105.011L18.5005 105.614H51.5438H84.5871L85.876 104.984C87.9326 103.942 89.5505 102.351 90.5103 100.377C91.991 97.3604 91.8814 96.5926 88.2891 83.293C86.6164 77.0408 84.9711 71.3096 84.6694 70.5418C83.9016 68.5949 81.9821 65.9624 80.2819 64.6187C78.2801 63.0008 76.2509 62.1507 71.0956 60.7796C68.3534 60.0393 66.6258 59.4634 66.6258 59.244C66.6258 59.0521 66.8452 58.3665 67.1194 57.7084C68.3534 54.8565 68.6825 52.6354 68.6825 47.48C68.6825 43.2022 68.6002 42.2425 68.0518 40.2133C67.0372 36.5113 65.7209 34.1256 63.3352 31.7399C61.1415 29.5187 59.3865 28.4767 56.562 27.7089C54.6425 27.1879 50.0082 26.9959 48.1161 27.325ZM56.8362 31.9593C58.8654 32.7545 61.0318 34.5095 62.1012 36.2097L62.8965 37.5533L61.827 38.4583C60.2914 39.7745 56.6443 41.5021 54.6151 41.886C52.2568 42.3247 48.5274 42.0779 46.4708 41.3101C43.8383 40.3504 43.4544 40.3229 42.6591 41.1182C41.1509 42.6264 41.9462 43.9975 44.9351 45.0121C50.8308 46.9865 56.7265 46.3283 62.0738 43.0926C63.2529 42.3796 64.2401 41.8586 64.3224 41.9408C64.6789 42.2699 65.0079 47.0139 64.8434 49.3447C64.2127 58.9972 59.6333 64.0703 51.5438 64.0703C46.1417 64.0703 42.2478 61.8217 40.1089 57.4616C37.257 51.6756 37.5587 41.7215 40.7122 36.621C42.3026 34.0708 44.5238 32.398 47.458 31.5754C49.734 30.9447 54.7796 31.164 56.8362 31.9593ZM40.3831 64.2348C42.0559 65.743 44.2222 66.8673 46.6353 67.5254C48.8016 68.1013 53.7924 68.1835 55.9313 67.6625C58.1799 67.1141 61.1689 65.6059 62.7045 64.2348L64.0482 63.0008L69.2309 64.3993C72.0828 65.1397 75.0443 66.0721 75.7847 66.456C77.7317 67.4432 79.6238 69.3353 80.5836 71.2822C81.8724 73.8599 87.5487 95.3312 87.4116 97.0039C87.2471 98.6767 86.3147 100.103 84.9162 100.925C83.8742 101.556 83.4354 101.611 80.0625 101.638C78.0333 101.666 76.0864 101.666 75.7573 101.666L75.1266 101.638V87.4337C75.1266 73.997 75.0992 73.1743 74.633 72.763C74.1668 72.3242 72.165 72.2968 51.6261 72.2968C39.2588 72.2694 28.9482 72.3517 28.7288 72.4339C27.7416 72.8178 27.6868 73.6953 27.6868 87.8724V101.775L23.3816 101.638C18.4456 101.474 17.7327 101.254 16.5261 99.417C15.1824 97.3878 15.2373 96.8942 18.6102 84.2802C20.2829 77.9732 21.9282 72.2694 22.2573 71.5839C23.0799 69.8289 25.3285 67.4706 26.9738 66.6205C28.0433 66.0721 33.5551 64.3993 38.9023 63.0008C38.9298 62.9734 39.6153 63.5493 40.3831 64.2348ZM71.2327 88.887L71.1504 101.638H51.818C41.1784 101.638 32.3211 101.638 32.1566 101.638C31.8823 101.638 31.8001 98.896 31.8001 88.887V76.1359H51.5438H71.2875L71.2327 88.887Z" fill="#12123B" stroke="black"/>
<path d="M50.2965 86.0673C49.2908 86.6665 48.6622 88.2431 48.9765 89.4098C49.3851 91.1126 51.868 92.0586 53.5652 91.1442C54.3823 90.7027 55.0738 89.0314 54.8538 87.9278C54.6338 86.8241 53.0623 85.4998 51.9937 85.4998C51.5223 85.4998 50.768 85.752 50.2965 86.0673Z" fill="#00C189"/>
</svg>
